<?xml version="1.0" encoding="UTF-8" standalone="no"?>
<!DOCTYPE svg PUBLIC "-//W3C//DTD SVG 1.1//EN"
 "http://www.w3.org/Graphics/SVG/1.1/DTD/svg11.dtd">
<!-- Generated by graphviz version 9.0.0 (20230911.1827)
 -->
<!-- Title: classes Pages: 1 -->
<svg width="3278pt" height="412pt"
 viewBox="0.00 0.00 3278.25 412.00" xmlns="http://www.w3.org/2000/svg" xmlns:xlink="http://www.w3.org/1999/xlink">
<g id="graph0" class="graph" transform="scale(1 1) rotate(0) translate(4 408)">
<title>classes</title>
<polygon fill="white" stroke="none" points="-4,4 -4,-408 3274.25,-408 3274.25,4 -4,4"/>
<!-- calcipy.cli.CalcipyConfig -->
<g id="node1" class="node">
<title>calcipy.cli.CalcipyConfig</title>
<polygon fill="none" stroke="black" points="0,-354.5 0,-403.5 139,-403.5 139,-354.5 0,-354.5"/>
<text text-anchor="start" x="29.75" y="-386.2" font-family="Times,serif" font-size="14.00">CalcipyConfig</text>
<polyline fill="none" stroke="black" points="0,-379 139,-379"/>
<polyline fill="none" stroke="black" points="0,-379 139,-379"/>
<text text-anchor="start" x="8" y="-361.7" font-family="Times,serif" font-size="14.00">global_defaults(): Dict</text>
</g>
<!-- calcipy.tasks._invoke.Collection -->
<g id="node2" class="node">
<title>calcipy.tasks._invoke.Collection</title>
<polygon fill="none" stroke="black" points="152,-62.25 152,-127.75 1119,-127.75 1119,-62.25 152,-62.25"/>
<text text-anchor="start" x="607.38" y="-110.45" font-family="Times,serif" font-size="14.00">Collection</text>
<polyline fill="none" stroke="black" points="152,-103.25 1119,-103.25"/>
<polyline fill="none" stroke="black" points="152,-103.25 1119,-103.25"/>
<text text-anchor="start" x="160" y="-85.95" font-family="Times,serif" font-size="14.00">add_task(task: DeferedTask, name: Optional[str], aliases: Optional[Tuple[str, ...]], default: Optional[bool]): None</text>
<text text-anchor="start" x="160" y="-69.45" font-family="Times,serif" font-size="14.00">from_module(module: ModuleType, name: Optional[str], config: Optional[Dict[str, Any]], loaded_from: Optional[str], auto_dash_names: Optional[bool]): &#39;InvokeCollection&#39;</text>
</g>
<!-- calcipy.tasks._invoke.GlobalTaskOptions -->
<g id="node3" class="node">
<title>calcipy.tasks._invoke.GlobalTaskOptions</title>
<polygon fill="none" stroke="black" points="5.25,-33.5 5.25,-156.5 133.75,-156.5 133.75,-33.5 5.25,-33.5"/>
<text text-anchor="start" x="16.62" y="-139.2" font-family="Times,serif" font-size="14.00">GlobalTaskOptions</text>
<polyline fill="none" stroke="black" points="5.25,-132 133.75,-132"/>
<text text-anchor="start" x="13.25" y="-114.7" font-family="Times,serif" font-size="14.00">file_args : List[Path]</text>
<text text-anchor="start" x="13.25" y="-98.2" font-family="Times,serif" font-size="14.00">keep_going : bool</text>
<text text-anchor="start" x="13.25" y="-81.7" font-family="Times,serif" font-size="14.00">verbose : Annotated</text>
<text text-anchor="start" x="13.25" y="-65.2" font-family="Times,serif" font-size="14.00">working_dir : Path</text>
<polyline fill="none" stroke="black" points="5.25,-58 133.75,-58"/>
<text text-anchor="start" x="67.62" y="-40.7" font-family="Times,serif" font-size="14.00"> </text>
</g>
<!-- calcipy.cli.start_program._CalcipyConfig -->
<g id="node4" class="node">
<title>calcipy.cli.start_program._CalcipyConfig</title>
<polygon fill="none" stroke="black" points="18.38,-243 18.38,-316.5 120.62,-316.5 120.62,-243 18.38,-243"/>
<text text-anchor="start" x="26.38" y="-299.2" font-family="Times,serif" font-size="14.00">_CalcipyConfig</text>
<polyline fill="none" stroke="black" points="18.38,-292 120.62,-292"/>
<text text-anchor="start" x="60.88" y="-274.7" font-family="Times,serif" font-size="14.00">gto</text>
<polyline fill="none" stroke="black" points="18.38,-267.5 120.62,-267.5"/>
<text text-anchor="start" x="67.62" y="-250.2" font-family="Times,serif" font-size="14.00"> </text>
</g>
<!-- calcipy.tasks._invoke.GlobalTaskOptions&#45;&gt;calcipy.cli.start_program._CalcipyConfig -->
<g id="edge2" class="edge">
<title>calcipy.tasks._invoke.GlobalTaskOptions&#45;&gt;calcipy.cli.start_program._CalcipyConfig</title>
<path fill="none" stroke="black" d="M69.5,-156.85C69.5,-180.52 69.5,-207.28 69.5,-229.69"/>
<polygon fill="black" stroke="black" points="69.5,-229.76 73.5,-235.76 69.5,-241.76 65.5,-235.76 69.5,-229.76"/>
<text text-anchor="middle" x="78.12" y="-211.2" font-family="Times,serif" font-size="14.00" fill="green">gto</text>
</g>
<!-- calcipy.cli.start_program._CalcipyConfig&#45;&gt;calcipy.cli.CalcipyConfig -->
<g id="edge1" class="edge">
<title>calcipy.cli.start_program._CalcipyConfig&#45;&gt;calcipy.cli.CalcipyConfig</title>
<path fill="none" stroke="black" d="M69.5,-316.96C69.5,-325.4 69.5,-334.38 69.5,-342.78"/>
<polygon fill="none" stroke="black" points="66,-342.64 69.5,-352.64 73,-342.64 66,-342.64"/>
</g>
<!-- calcipy.cli._CalcipyProgram -->
<g id="node5" class="node">
<title>calcipy.cli._CalcipyProgram</title>
<polygon fill="none" stroke="black" points="1136.88,-70.5 1136.88,-119.5 1254.12,-119.5 1254.12,-70.5 1136.88,-70.5"/>
<text text-anchor="start" x="1147.5" y="-102.2" font-family="Times,serif" font-size="14.00">_CalcipyProgram</text>
<polyline fill="none" stroke="black" points="1136.88,-95 1254.12,-95"/>
<polyline fill="none" stroke="black" points="1136.88,-95 1254.12,-95"/>
<text text-anchor="start" x="1144.88" y="-77.7" font-family="Times,serif" font-size="14.00">print_help(): None</text>
</g>
<!-- calcipy.code_tag_collector._collector._CodeTag -->
<g id="node6" class="node">
<title>calcipy.code_tag_collector._collector._CodeTag</title>
<polygon fill="none" stroke="black" points="1272.62,-33.5 1272.62,-156.5 1436.38,-156.5 1436.38,-33.5 1272.62,-33.5"/>
<text text-anchor="start" x="1326.38" y="-139.2" font-family="Times,serif" font-size="14.00">_CodeTag</text>
<polyline fill="none" stroke="black" points="1272.62,-132 1436.38,-132"/>
<text text-anchor="start" x="1280.62" y="-114.7" font-family="Times,serif" font-size="14.00">lineno : int</text>
<text text-anchor="start" x="1280.62" y="-98.2" font-family="Times,serif" font-size="14.00">model_config : ConfigDict</text>
<text text-anchor="start" x="1280.62" y="-81.7" font-family="Times,serif" font-size="14.00">tag : str</text>
<text text-anchor="start" x="1280.62" y="-65.2" font-family="Times,serif" font-size="14.00">text : str</text>
<polyline fill="none" stroke="black" points="1272.62,-58 1436.38,-58"/>
<text text-anchor="start" x="1352.62" y="-40.7" font-family="Times,serif" font-size="14.00"> </text>
</g>
<!-- calcipy.code_tag_collector._collector._CollectorRow -->
<g id="node7" class="node">
<title>calcipy.code_tag_collector._collector._CollectorRow</title>
<polygon fill="none" stroke="black" points="1454.25,-33.5 1454.25,-156.5 1930.75,-156.5 1930.75,-33.5 1454.25,-33.5"/>
<text text-anchor="start" x="1651.25" y="-139.2" font-family="Times,serif" font-size="14.00">_CollectorRow</text>
<polyline fill="none" stroke="black" points="1454.25,-132 1930.75,-132"/>
<text text-anchor="start" x="1650.12" y="-114.7" font-family="Times,serif" font-size="14.00">comment : str</text>
<text text-anchor="start" x="1650.12" y="-98.2" font-family="Times,serif" font-size="14.00">last_edit : str</text>
<text text-anchor="start" x="1650.12" y="-81.7" font-family="Times,serif" font-size="14.00">source_file : str</text>
<text text-anchor="start" x="1650.12" y="-65.2" font-family="Times,serif" font-size="14.00">tag_name : str</text>
<polyline fill="none" stroke="black" points="1454.25,-58 1930.75,-58"/>
<text text-anchor="start" x="1462.25" y="-40.7" font-family="Times,serif" font-size="14.00">from_code_tag(code_tag: _CodeTag, last_edit: str, source_file: str): &#39;_CollectorRow&#39;</text>
</g>
<!-- calcipy.check_for_stale_packages._check_for_stale_packages._HostedPythonPackage -->
<g id="node8" class="node">
<title>calcipy.check_for_stale_packages._check_for_stale_packages._HostedPythonPackage</title>
<polygon fill="none" stroke="black" points="1948.75,-0.5 1948.75,-189.5 2278.25,-189.5 2278.25,-0.5 1948.75,-0.5"/>
<text text-anchor="start" x="2049.38" y="-172.2" font-family="Times,serif" font-size="14.00">_HostedPythonPackage</text>
<polyline fill="none" stroke="black" points="1948.75,-165 2278.25,-165"/>
<text text-anchor="start" x="2020.88" y="-147.7" font-family="Times,serif" font-size="14.00">datetime : Optional[Arrow]</text>
<text text-anchor="start" x="2020.88" y="-131.2" font-family="Times,serif" font-size="14.00">domain : str</text>
<text text-anchor="start" x="2020.88" y="-114.7" font-family="Times,serif" font-size="14.00">latest_datetime : Optional[Arrow]</text>
<text text-anchor="start" x="2020.88" y="-98.2" font-family="Times,serif" font-size="14.00">latest_version : str</text>
<text text-anchor="start" x="2020.88" y="-81.7" font-family="Times,serif" font-size="14.00">model_config : ConfigDict</text>
<text text-anchor="start" x="2020.88" y="-65.2" font-family="Times,serif" font-size="14.00">name : str</text>
<text text-anchor="start" x="2020.88" y="-48.7" font-family="Times,serif" font-size="14.00">version : str</text>
<polyline fill="none" stroke="black" points="1948.75,-41.5 2278.25,-41.5"/>
<text text-anchor="start" x="1956.75" y="-24.2" font-family="Times,serif" font-size="14.00">date_validator(value: Union[str, Arrow]): Arrow</text>
<text text-anchor="start" x="1956.75" y="-7.7" font-family="Times,serif" font-size="14.00">serialize_datetime(value: Optional[Arrow]): Optional[str]</text>
</g>
<!-- calcipy.md_writer._writer._ParseSkipError -->
<g id="node9" class="node">
<title>calcipy.md_writer._writer._ParseSkipError</title>
<polygon fill="none" stroke="black" points="2295.88,-70.5 2295.88,-119.5 2401.12,-119.5 2401.12,-70.5 2295.88,-70.5"/>
<text text-anchor="start" x="2303.88" y="-102.2" font-family="Times,serif" font-size="14.00" fill="red">_ParseSkipError</text>
<polyline fill="none" stroke="black" points="2295.88,-95 2401.12,-95"/>
<polyline fill="none" stroke="black" points="2295.88,-95 2401.12,-95"/>
<text text-anchor="start" x="2346.62" y="-77.7" font-family="Times,serif" font-size="14.00" fill="red"> </text>
</g>
<!-- calcipy.md_writer._writer._ReplacementMachine -->
<g id="node10" class="node">
<title>calcipy.md_writer._writer._ReplacementMachine</title>
<polygon fill="none" stroke="black" points="2419.12,-50 2419.12,-140 2879.88,-140 2879.88,-50 2419.12,-50"/>
<text text-anchor="start" x="2586.5" y="-122.7" font-family="Times,serif" font-size="14.00">_ReplacementMachine</text>
<polyline fill="none" stroke="black" points="2419.12,-115.5 2879.88,-115.5"/>
<text text-anchor="start" x="2609.75" y="-98.2" font-family="Times,serif" font-size="14.00">state_auto : str</text>
<text text-anchor="start" x="2609.75" y="-81.7" font-family="Times,serif" font-size="14.00">state_user : str</text>
<polyline fill="none" stroke="black" points="2419.12,-74.5 2879.88,-74.5"/>
<text text-anchor="start" x="2427.12" y="-57.2" font-family="Times,serif" font-size="14.00">parse(lines: List[str], handler_lookup: HandlerLookupT, path_file: Path): List[str]</text>
</g>
<!-- calcipy._RuntimeTypeCheckingModes -->
<g id="node11" class="node">
<title>calcipy._RuntimeTypeCheckingModes</title>
<polygon fill="none" stroke="black" points="2898,-58.25 2898,-131.75 3085,-131.75 3085,-58.25 2898,-58.25"/>
<text text-anchor="start" x="2906" y="-114.45" font-family="Times,serif" font-size="14.00">_RuntimeTypeCheckingModes</text>
<polyline fill="none" stroke="black" points="2898,-107.25 3085,-107.25"/>
<text text-anchor="start" x="2976.5" y="-89.95" font-family="Times,serif" font-size="14.00">name</text>
<polyline fill="none" stroke="black" points="2898,-82.75 3085,-82.75"/>
<text text-anchor="start" x="2921" y="-65.45" font-family="Times,serif" font-size="14.00">from_environment(): Self</text>
</g>
<!-- calcipy.code_tag_collector._collector._Tags -->
<g id="node12" class="node">
<title>calcipy.code_tag_collector._collector._Tags</title>
<polygon fill="none" stroke="black" points="3102.75,-41.75 3102.75,-148.25 3270.25,-148.25 3270.25,-41.75 3102.75,-41.75"/>
<text text-anchor="start" x="3170" y="-130.95" font-family="Times,serif" font-size="14.00">_Tags</text>
<polyline fill="none" stroke="black" points="3102.75,-123.75 3270.25,-123.75"/>
<text text-anchor="start" x="3110.75" y="-106.45" font-family="Times,serif" font-size="14.00">code_tags : List[_CodeTag]</text>
<text text-anchor="start" x="3110.75" y="-89.95" font-family="Times,serif" font-size="14.00">model_config : ConfigDict</text>
<text text-anchor="start" x="3110.75" y="-73.45" font-family="Times,serif" font-size="14.00">path_source : Path</text>
<polyline fill="none" stroke="black" points="3102.75,-66.25 3270.25,-66.25"/>
<text text-anchor="start" x="3184.62" y="-48.95" font-family="Times,serif" font-size="14.00"> </text>
</g>
</g>
</svg>
