<?xml version="1.0" encoding="UTF-8" standalone="no"?>
<!DOCTYPE svg PUBLIC "-//W3C//DTD SVG 1.1//EN"
 "http://www.w3.org/Graphics/SVG/1.1/DTD/svg11.dtd">
<!-- Generated by graphviz version 2.43.0 (0)
 -->
<!-- Title: classes Pages: 1 -->
<svg width="2303pt" height="383pt"
 viewBox="0.00 0.00 2302.50 382.80" xmlns="http://www.w3.org/2000/svg" xmlns:xlink="http://www.w3.org/1999/xlink">
<g id="graph0" class="graph" transform="scale(1 1) rotate(0) translate(4 378.8)">
<title>classes</title>
<polygon fill="white" stroke="transparent" points="-4,4 -4,-378.8 2298.5,-378.8 2298.5,4 -4,4"/>
<!-- calcipy.cli.CalcipyConfig -->
<g id="node1" class="node">
<title>calcipy.cli.CalcipyConfig</title>
<polygon fill="none" stroke="black" points="0,-303.5 0,-374.3 173,-374.3 173,-303.5 0,-303.5"/>
<text text-anchor="start" x="37" y="-359.1" font-family="Times,serif" font-size="14.00">CalcipyConfig</text>
<polyline fill="none" stroke="black" points="0,-351.3 173,-351.3 "/>
<polyline fill="none" stroke="black" points="0,-326.5 173,-326.5 "/>
<text text-anchor="start" x="8" y="-311.3" font-family="Times,serif" font-size="14.00">global_defaults(): Dict</text>
</g>
<!-- calcipy.check_for_stale_packages._check_for_stale_packages._HostedPythonPackage.Config -->
<g id="node2" class="node">
<title>calcipy.check_for_stale_packages._check_for_stale_packages._HostedPythonPackage.Config</title>
<polygon fill="none" stroke="black" points="184.5,-30.5 184.5,-114.5 416.5,-114.5 416.5,-30.5 184.5,-30.5"/>
<text text-anchor="start" x="277.5" y="-99.3" font-family="Times,serif" font-size="14.00">Config</text>
<polyline fill="none" stroke="black" points="184.5,-91.5 416.5,-91.5 "/>
<text text-anchor="start" x="192.5" y="-76.3" font-family="Times,serif" font-size="14.00">arbitrary_types_allowed : bool</text>
<text text-anchor="start" x="192.5" y="-61.3" font-family="Times,serif" font-size="14.00">json_encoders : dict</text>
<polyline fill="none" stroke="black" points="184.5,-53.5 416.5,-53.5 "/>
<text text-anchor="start" x="298" y="-38.3" font-family="Times,serif" font-size="14.00"> </text>
</g>
<!-- calcipy.code_tag_collector._collector._CodeTag.Config -->
<g id="node3" class="node">
<title>calcipy.code_tag_collector._collector._CodeTag.Config</title>
<polygon fill="none" stroke="black" points="435,-38 435,-107 540,-107 540,-38 435,-38"/>
<text text-anchor="start" x="464.5" y="-91.8" font-family="Times,serif" font-size="14.00">Config</text>
<polyline fill="none" stroke="black" points="435,-84 540,-84 "/>
<text text-anchor="start" x="443" y="-68.8" font-family="Times,serif" font-size="14.00">frozen : bool</text>
<polyline fill="none" stroke="black" points="435,-61 540,-61 "/>
<text text-anchor="start" x="485" y="-45.8" font-family="Times,serif" font-size="14.00"> </text>
</g>
<!-- calcipy.code_tag_collector._collector._Tags.Config -->
<g id="node4" class="node">
<title>calcipy.code_tag_collector._collector._Tags.Config</title>
<polygon fill="none" stroke="black" points="558,-38 558,-107 663,-107 663,-38 558,-38"/>
<text text-anchor="start" x="587.5" y="-91.8" font-family="Times,serif" font-size="14.00">Config</text>
<polyline fill="none" stroke="black" points="558,-84 663,-84 "/>
<text text-anchor="start" x="566" y="-68.8" font-family="Times,serif" font-size="14.00">frozen : bool</text>
<polyline fill="none" stroke="black" points="558,-61 663,-61 "/>
<text text-anchor="start" x="608" y="-45.8" font-family="Times,serif" font-size="14.00"> </text>
</g>
<!-- calcipy.cli.GlobalTaskOptions -->
<g id="node5" class="node">
<title>calcipy.cli.GlobalTaskOptions</title>
<polygon fill="none" stroke="black" points="6.5,-0.5 6.5,-144.5 166.5,-144.5 166.5,-0.5 6.5,-0.5"/>
<text text-anchor="start" x="19.5" y="-129.3" font-family="Times,serif" font-size="14.00">GlobalTaskOptions</text>
<polyline fill="none" stroke="black" points="6.5,-121.5 166.5,-121.5 "/>
<text text-anchor="start" x="14.5" y="-106.3" font-family="Times,serif" font-size="14.00">file_args</text>
<text text-anchor="start" x="14.5" y="-91.3" font-family="Times,serif" font-size="14.00">file_args : List[Path]</text>
<text text-anchor="start" x="14.5" y="-76.3" font-family="Times,serif" font-size="14.00">verbose</text>
<text text-anchor="start" x="14.5" y="-61.3" font-family="Times,serif" font-size="14.00">verbose : int</text>
<text text-anchor="start" x="14.5" y="-46.3" font-family="Times,serif" font-size="14.00">working_dir : Path</text>
<text text-anchor="start" x="14.5" y="-31.3" font-family="Times,serif" font-size="14.00">working_dir : Path</text>
<polyline fill="none" stroke="black" points="6.5,-23.5 166.5,-23.5 "/>
<text text-anchor="start" x="84" y="-8.3" font-family="Times,serif" font-size="14.00"> </text>
</g>
<!-- calcipy.cli.start_program._CalcipyConfig -->
<g id="node6" class="node">
<title>calcipy.cli.start_program._CalcipyConfig</title>
<polygon fill="none" stroke="black" points="25.5,-196.5 25.5,-265.5 147.5,-265.5 147.5,-196.5 25.5,-196.5"/>
<text text-anchor="start" x="33.5" y="-250.3" font-family="Times,serif" font-size="14.00">_CalcipyConfig</text>
<polyline fill="none" stroke="black" points="25.5,-242.5 147.5,-242.5 "/>
<text text-anchor="start" x="74.5" y="-227.3" font-family="Times,serif" font-size="14.00">gto</text>
<polyline fill="none" stroke="black" points="25.5,-219.5 147.5,-219.5 "/>
<text text-anchor="start" x="84" y="-204.3" font-family="Times,serif" font-size="14.00"> </text>
</g>
<!-- calcipy.cli.GlobalTaskOptions&#45;&gt;calcipy.cli.start_program._CalcipyConfig -->
<g id="edge2" class="edge">
<title>calcipy.cli.GlobalTaskOptions&#45;&gt;calcipy.cli.start_program._CalcipyConfig</title>
<path fill="none" stroke="black" d="M86.5,-144.88C86.5,-158.16 86.5,-171.71 86.5,-183.98"/>
<polygon fill="black" stroke="black" points="86.5,-184.24 90.5,-190.24 86.5,-196.24 82.5,-190.24 86.5,-184.24"/>
<text text-anchor="middle" x="98.5" y="-166.8" font-family="Times,serif" font-size="14.00" fill="green">gto</text>
</g>
<!-- calcipy.cli.start_program._CalcipyConfig&#45;&gt;calcipy.cli.CalcipyConfig -->
<g id="edge1" class="edge">
<title>calcipy.cli.start_program._CalcipyConfig&#45;&gt;calcipy.cli.CalcipyConfig</title>
<path fill="none" stroke="black" d="M86.5,-265.51C86.5,-274.22 86.5,-283.76 86.5,-292.96"/>
<polygon fill="none" stroke="black" points="83,-293.15 86.5,-303.15 90,-293.15 83,-293.15"/>
</g>
<!-- calcipy.cli._CalcipyProgram -->
<g id="node7" class="node">
<title>calcipy.cli._CalcipyProgram</title>
<polygon fill="none" stroke="black" points="681.5,-37.1 681.5,-107.9 827.5,-107.9 827.5,-37.1 681.5,-37.1"/>
<text text-anchor="start" x="693.5" y="-92.7" font-family="Times,serif" font-size="14.00">_CalcipyProgram</text>
<polyline fill="none" stroke="black" points="681.5,-84.9 827.5,-84.9 "/>
<polyline fill="none" stroke="black" points="681.5,-60.1 827.5,-60.1 "/>
<text text-anchor="start" x="689.5" y="-44.9" font-family="Times,serif" font-size="14.00">print_help(): None</text>
</g>
<!-- calcipy.code_tag_collector._collector._CodeTag -->
<g id="node8" class="node">
<title>calcipy.code_tag_collector._collector._CodeTag</title>
<polygon fill="none" stroke="black" points="846,-23 846,-122 939,-122 939,-23 846,-23"/>
<text text-anchor="start" x="858" y="-106.8" font-family="Times,serif" font-size="14.00">_CodeTag</text>
<polyline fill="none" stroke="black" points="846,-99 939,-99 "/>
<text text-anchor="start" x="854" y="-83.8" font-family="Times,serif" font-size="14.00">lineno : int</text>
<text text-anchor="start" x="854" y="-68.8" font-family="Times,serif" font-size="14.00">tag : str</text>
<text text-anchor="start" x="854" y="-53.8" font-family="Times,serif" font-size="14.00">text : str</text>
<polyline fill="none" stroke="black" points="846,-46 939,-46 "/>
<text text-anchor="start" x="890" y="-30.8" font-family="Times,serif" font-size="14.00"> </text>
</g>
<!-- calcipy.check_for_stale_packages._check_for_stale_packages._HostedPythonPackage -->
<g id="node9" class="node">
<title>calcipy.check_for_stale_packages._check_for_stale_packages._HostedPythonPackage</title>
<polygon fill="none" stroke="black" points="957,-0.5 957,-144.5 1310,-144.5 1310,-0.5 957,-0.5"/>
<text text-anchor="start" x="1050" y="-129.3" font-family="Times,serif" font-size="14.00">_HostedPythonPackage</text>
<polyline fill="none" stroke="black" points="957,-121.5 1310,-121.5 "/>
<text text-anchor="start" x="1013.5" y="-106.3" font-family="Times,serif" font-size="14.00">datetime : Optional[Arrow]</text>
<text text-anchor="start" x="1013.5" y="-91.3" font-family="Times,serif" font-size="14.00">domain : str</text>
<text text-anchor="start" x="1013.5" y="-76.3" font-family="Times,serif" font-size="14.00">latest_datetime : Optional[Arrow]</text>
<text text-anchor="start" x="1013.5" y="-61.3" font-family="Times,serif" font-size="14.00">latest_version : str</text>
<text text-anchor="start" x="1013.5" y="-46.3" font-family="Times,serif" font-size="14.00">name : str</text>
<text text-anchor="start" x="1013.5" y="-31.3" font-family="Times,serif" font-size="14.00">version : str</text>
<polyline fill="none" stroke="black" points="957,-23.5 1310,-23.5 "/>
<text text-anchor="start" x="965" y="-8.3" font-family="Times,serif" font-size="14.00">date_validator(value: Union[str, Arrow]): Arrow</text>
</g>
<!-- calcipy.md_writer._writer._ParseSkipError -->
<g id="node10" class="node">
<title>calcipy.md_writer._writer._ParseSkipError</title>
<polygon fill="none" stroke="black" points="1328.5,-37.1 1328.5,-107.9 1462.5,-107.9 1462.5,-37.1 1328.5,-37.1"/>
<text text-anchor="start" x="1336.5" y="-92.7" font-family="Times,serif" font-size="14.00" fill="red">_ParseSkipError</text>
<polyline fill="none" stroke="black" points="1328.5,-84.9 1462.5,-84.9 "/>
<polyline fill="none" stroke="black" points="1328.5,-60.1 1462.5,-60.1 "/>
<text text-anchor="start" x="1393" y="-44.9" font-family="Times,serif" font-size="14.00" fill="red"> </text>
</g>
<!-- calcipy.md_writer._writer._ReplacementMachine -->
<g id="node11" class="node">
<title>calcipy.md_writer._writer._ReplacementMachine</title>
<polygon fill="none" stroke="black" points="1481,-30.5 1481,-114.5 2070,-114.5 2070,-30.5 1481,-30.5"/>
<text text-anchor="start" x="1695" y="-99.3" font-family="Times,serif" font-size="14.00">_ReplacementMachine</text>
<polyline fill="none" stroke="black" points="1481,-91.5 2070,-91.5 "/>
<text text-anchor="start" x="1721" y="-76.3" font-family="Times,serif" font-size="14.00">state_auto : str</text>
<text text-anchor="start" x="1721" y="-61.3" font-family="Times,serif" font-size="14.00">state_user : str</text>
<polyline fill="none" stroke="black" points="1481,-53.5 2070,-53.5 "/>
<text text-anchor="start" x="1489" y="-38.3" font-family="Times,serif" font-size="14.00">parse(lines: List[str], handler_lookup: HandlerLookupT, path_file: Path): List[str]</text>
</g>
<!-- calcipy.code_tag_collector._collector._Tags -->
<g id="node12" class="node">
<title>calcipy.code_tag_collector._collector._Tags</title>
<polygon fill="none" stroke="black" points="2088.5,-30.5 2088.5,-114.5 2294.5,-114.5 2294.5,-30.5 2088.5,-30.5"/>
<text text-anchor="start" x="2171.5" y="-99.3" font-family="Times,serif" font-size="14.00">_Tags</text>
<polyline fill="none" stroke="black" points="2088.5,-91.5 2294.5,-91.5 "/>
<text text-anchor="start" x="2096.5" y="-76.3" font-family="Times,serif" font-size="14.00">code_tags : List[_CodeTag]</text>
<text text-anchor="start" x="2096.5" y="-61.3" font-family="Times,serif" font-size="14.00">path_source : Path</text>
<polyline fill="none" stroke="black" points="2088.5,-53.5 2294.5,-53.5 "/>
<text text-anchor="start" x="2189" y="-38.3" font-family="Times,serif" font-size="14.00"> </text>
</g>
</g>
</svg>
