<?xml version="1.0" encoding="UTF-8" standalone="no"?>
<!DOCTYPE svg PUBLIC "-//W3C//DTD SVG 1.1//EN"
 "http://www.w3.org/Graphics/SVG/1.1/DTD/svg11.dtd">
<!-- Generated by graphviz version 2.43.0 (0)
 -->
<!-- Title: classes Pages: 1 -->
<svg width="4087pt" height="413pt"
 viewBox="0.00 0.00 4086.50 412.80" xmlns="http://www.w3.org/2000/svg" xmlns:xlink="http://www.w3.org/1999/xlink">
<g id="graph0" class="graph" transform="scale(1 1) rotate(0) translate(4 408.8)">
<title>classes</title>
<polygon fill="white" stroke="transparent" points="-4,4 -4,-408.8 4082.5,-408.8 4082.5,4 -4,4"/>
<!-- calcipy.cli.CalcipyConfig -->
<g id="node1" class="node">
<title>calcipy.cli.CalcipyConfig</title>
<polygon fill="none" stroke="black" points="0,-333.5 0,-404.3 173,-404.3 173,-333.5 0,-333.5"/>
<text text-anchor="start" x="37" y="-389.1" font-family="Times,serif" font-size="14.00">CalcipyConfig</text>
<polyline fill="none" stroke="black" points="0,-381.3 173,-381.3 "/>
<polyline fill="none" stroke="black" points="0,-356.5 173,-356.5 "/>
<text text-anchor="start" x="8" y="-341.3" font-family="Times,serif" font-size="14.00">global_defaults(): Dict</text>
</g>
<!-- calcipy.tasks._invoke.Collection -->
<g id="node2" class="node">
<title>calcipy.tasks._invoke.Collection</title>
<polygon fill="none" stroke="black" points="185,-44.6 185,-130.4 1406,-130.4 1406,-44.6 185,-44.6"/>
<text text-anchor="start" x="759.5" y="-115.2" font-family="Times,serif" font-size="14.00">Collection</text>
<polyline fill="none" stroke="black" points="185,-107.4 1406,-107.4 "/>
<polyline fill="none" stroke="black" points="185,-82.6 1406,-82.6 "/>
<text text-anchor="start" x="193" y="-67.4" font-family="Times,serif" font-size="14.00">add_task(task: DeferedTask, name: Optional[str], aliases: Optional[Tuple[str, ...]], default: Optional[bool]): None</text>
<text text-anchor="start" x="193" y="-52.4" font-family="Times,serif" font-size="14.00">from_module(module: ModuleType, name: Optional[str], config: Optional[Dict[str, Any]], loaded_from: Optional[str], auto_dash_names: Optional[bool]): &#39;InvokeCollection&#39;</text>
</g>
<!-- calcipy.tasks._invoke.GlobalTaskOptions -->
<g id="node3" class="node">
<title>calcipy.tasks._invoke.GlobalTaskOptions</title>
<polygon fill="none" stroke="black" points="6.5,-0.5 6.5,-174.5 166.5,-174.5 166.5,-0.5 6.5,-0.5"/>
<text text-anchor="start" x="19.5" y="-159.3" font-family="Times,serif" font-size="14.00">GlobalTaskOptions</text>
<polyline fill="none" stroke="black" points="6.5,-151.5 166.5,-151.5 "/>
<text text-anchor="start" x="14.5" y="-136.3" font-family="Times,serif" font-size="14.00">file_args</text>
<text text-anchor="start" x="14.5" y="-121.3" font-family="Times,serif" font-size="14.00">file_args : List[Path]</text>
<text text-anchor="start" x="14.5" y="-106.3" font-family="Times,serif" font-size="14.00">keep_going : bool</text>
<text text-anchor="start" x="14.5" y="-91.3" font-family="Times,serif" font-size="14.00">keep_going : bool</text>
<text text-anchor="start" x="14.5" y="-76.3" font-family="Times,serif" font-size="14.00">verbose : Annotated</text>
<text text-anchor="start" x="14.5" y="-61.3" font-family="Times,serif" font-size="14.00">verbose : int</text>
<text text-anchor="start" x="14.5" y="-46.3" font-family="Times,serif" font-size="14.00">working_dir : Path</text>
<text text-anchor="start" x="14.5" y="-31.3" font-family="Times,serif" font-size="14.00">working_dir : Path</text>
<polyline fill="none" stroke="black" points="6.5,-23.5 166.5,-23.5 "/>
<text text-anchor="start" x="84" y="-8.3" font-family="Times,serif" font-size="14.00"> </text>
</g>
<!-- calcipy.cli.start_program._CalcipyConfig -->
<g id="node4" class="node">
<title>calcipy.cli.start_program._CalcipyConfig</title>
<polygon fill="none" stroke="black" points="25.5,-226.5 25.5,-295.5 147.5,-295.5 147.5,-226.5 25.5,-226.5"/>
<text text-anchor="start" x="33.5" y="-280.3" font-family="Times,serif" font-size="14.00">_CalcipyConfig</text>
<polyline fill="none" stroke="black" points="25.5,-272.5 147.5,-272.5 "/>
<text text-anchor="start" x="74.5" y="-257.3" font-family="Times,serif" font-size="14.00">gto</text>
<polyline fill="none" stroke="black" points="25.5,-249.5 147.5,-249.5 "/>
<text text-anchor="start" x="84" y="-234.3" font-family="Times,serif" font-size="14.00"> </text>
</g>
<!-- calcipy.tasks._invoke.GlobalTaskOptions&#45;&gt;calcipy.cli.start_program._CalcipyConfig -->
<g id="edge2" class="edge">
<title>calcipy.tasks._invoke.GlobalTaskOptions&#45;&gt;calcipy.cli.start_program._CalcipyConfig</title>
<path fill="none" stroke="black" d="M86.5,-174.5C86.5,-188.15 86.5,-201.79 86.5,-214.03"/>
<polygon fill="black" stroke="black" points="86.5,-214.23 90.5,-220.23 86.5,-226.23 82.5,-220.23 86.5,-214.23"/>
<text text-anchor="middle" x="98.5" y="-196.8" font-family="Times,serif" font-size="14.00" fill="green">gto</text>
</g>
<!-- calcipy.cli.start_program._CalcipyConfig&#45;&gt;calcipy.cli.CalcipyConfig -->
<g id="edge1" class="edge">
<title>calcipy.cli.start_program._CalcipyConfig&#45;&gt;calcipy.cli.CalcipyConfig</title>
<path fill="none" stroke="black" d="M86.5,-295.51C86.5,-304.22 86.5,-313.76 86.5,-322.96"/>
<polygon fill="none" stroke="black" points="83,-323.15 86.5,-333.15 90,-323.15 83,-323.15"/>
</g>
<!-- calcipy.cli._CalcipyProgram -->
<g id="node5" class="node">
<title>calcipy.cli._CalcipyProgram</title>
<polygon fill="none" stroke="black" points="1424.5,-52.1 1424.5,-122.9 1570.5,-122.9 1570.5,-52.1 1424.5,-52.1"/>
<text text-anchor="start" x="1436.5" y="-107.7" font-family="Times,serif" font-size="14.00">_CalcipyProgram</text>
<polyline fill="none" stroke="black" points="1424.5,-99.9 1570.5,-99.9 "/>
<polyline fill="none" stroke="black" points="1424.5,-75.1 1570.5,-75.1 "/>
<text text-anchor="start" x="1432.5" y="-59.9" font-family="Times,serif" font-size="14.00">print_help(): None</text>
</g>
<!-- calcipy.code_tag_collector._collector._CodeTag -->
<g id="node6" class="node">
<title>calcipy.code_tag_collector._collector._CodeTag</title>
<polygon fill="none" stroke="black" points="1588.5,-30.5 1588.5,-144.5 1786.5,-144.5 1786.5,-30.5 1588.5,-30.5"/>
<text text-anchor="start" x="1653" y="-129.3" font-family="Times,serif" font-size="14.00">_CodeTag</text>
<polyline fill="none" stroke="black" points="1588.5,-121.5 1786.5,-121.5 "/>
<text text-anchor="start" x="1596.5" y="-106.3" font-family="Times,serif" font-size="14.00">lineno : int</text>
<text text-anchor="start" x="1596.5" y="-91.3" font-family="Times,serif" font-size="14.00">model_config : ConfigDict</text>
<text text-anchor="start" x="1596.5" y="-76.3" font-family="Times,serif" font-size="14.00">tag : str</text>
<text text-anchor="start" x="1596.5" y="-61.3" font-family="Times,serif" font-size="14.00">text : str</text>
<polyline fill="none" stroke="black" points="1588.5,-53.5 1786.5,-53.5 "/>
<text text-anchor="start" x="1685" y="-38.3" font-family="Times,serif" font-size="14.00"> </text>
</g>
<!-- calcipy.code_tag_collector._collector._CollectorRow -->
<g id="node7" class="node">
<title>calcipy.code_tag_collector._collector._CollectorRow</title>
<polygon fill="none" stroke="black" points="1805,-30.5 1805,-144.5 2406,-144.5 2406,-30.5 1805,-30.5"/>
<text text-anchor="start" x="2054" y="-129.3" font-family="Times,serif" font-size="14.00">_CollectorRow</text>
<polyline fill="none" stroke="black" points="1805,-121.5 2406,-121.5 "/>
<text text-anchor="start" x="2050.5" y="-106.3" font-family="Times,serif" font-size="14.00">comment : str</text>
<text text-anchor="start" x="2050.5" y="-91.3" font-family="Times,serif" font-size="14.00">last_edit : str</text>
<text text-anchor="start" x="2050.5" y="-76.3" font-family="Times,serif" font-size="14.00">source_file : str</text>
<text text-anchor="start" x="2050.5" y="-61.3" font-family="Times,serif" font-size="14.00">tag_name : str</text>
<polyline fill="none" stroke="black" points="1805,-53.5 2406,-53.5 "/>
<text text-anchor="start" x="1813" y="-38.3" font-family="Times,serif" font-size="14.00">from_code_tag(code_tag: _CodeTag, last_edit: str, source_file: str): &#39;_CollectorRow&#39;</text>
</g>
<!-- calcipy.check_for_stale_packages._check_for_stale_packages._HostedPythonPackage -->
<g id="node8" class="node">
<title>calcipy.check_for_stale_packages._check_for_stale_packages._HostedPythonPackage</title>
<polygon fill="none" stroke="black" points="2424.5,-0.5 2424.5,-174.5 2844.5,-174.5 2844.5,-0.5 2424.5,-0.5"/>
<text text-anchor="start" x="2551" y="-159.3" font-family="Times,serif" font-size="14.00">_HostedPythonPackage</text>
<polyline fill="none" stroke="black" points="2424.5,-151.5 2844.5,-151.5 "/>
<text text-anchor="start" x="2514.5" y="-136.3" font-family="Times,serif" font-size="14.00">datetime : Optional[Arrow]</text>
<text text-anchor="start" x="2514.5" y="-121.3" font-family="Times,serif" font-size="14.00">domain : str</text>
<text text-anchor="start" x="2514.5" y="-106.3" font-family="Times,serif" font-size="14.00">latest_datetime : Optional[Arrow]</text>
<text text-anchor="start" x="2514.5" y="-91.3" font-family="Times,serif" font-size="14.00">latest_version : str</text>
<text text-anchor="start" x="2514.5" y="-76.3" font-family="Times,serif" font-size="14.00">model_config : ConfigDict</text>
<text text-anchor="start" x="2514.5" y="-61.3" font-family="Times,serif" font-size="14.00">name : str</text>
<text text-anchor="start" x="2514.5" y="-46.3" font-family="Times,serif" font-size="14.00">version : str</text>
<polyline fill="none" stroke="black" points="2424.5,-38.5 2844.5,-38.5 "/>
<text text-anchor="start" x="2432.5" y="-23.3" font-family="Times,serif" font-size="14.00">date_validator(value: Union[str, Arrow]): Arrow</text>
<text text-anchor="start" x="2432.5" y="-8.3" font-family="Times,serif" font-size="14.00">serialize_datetime(value: Optional[Arrow]): Optional[str]</text>
</g>
<!-- calcipy.md_writer._writer._ParseSkipError -->
<g id="node9" class="node">
<title>calcipy.md_writer._writer._ParseSkipError</title>
<polygon fill="none" stroke="black" points="2862.5,-52.1 2862.5,-122.9 2996.5,-122.9 2996.5,-52.1 2862.5,-52.1"/>
<text text-anchor="start" x="2870.5" y="-107.7" font-family="Times,serif" font-size="14.00" fill="red">_ParseSkipError</text>
<polyline fill="none" stroke="black" points="2862.5,-99.9 2996.5,-99.9 "/>
<polyline fill="none" stroke="black" points="2862.5,-75.1 2996.5,-75.1 "/>
<text text-anchor="start" x="2927" y="-59.9" font-family="Times,serif" font-size="14.00" fill="red"> </text>
</g>
<!-- calcipy.md_writer._writer._ReplacementMachine -->
<g id="node10" class="node">
<title>calcipy.md_writer._writer._ReplacementMachine</title>
<polygon fill="none" stroke="black" points="3015,-45.5 3015,-129.5 3604,-129.5 3604,-45.5 3015,-45.5"/>
<text text-anchor="start" x="3229" y="-114.3" font-family="Times,serif" font-size="14.00">_ReplacementMachine</text>
<polyline fill="none" stroke="black" points="3015,-106.5 3604,-106.5 "/>
<text text-anchor="start" x="3255" y="-91.3" font-family="Times,serif" font-size="14.00">state_auto : str</text>
<text text-anchor="start" x="3255" y="-76.3" font-family="Times,serif" font-size="14.00">state_user : str</text>
<polyline fill="none" stroke="black" points="3015,-68.5 3604,-68.5 "/>
<text text-anchor="start" x="3023" y="-53.3" font-family="Times,serif" font-size="14.00">parse(lines: List[str], handler_lookup: HandlerLookupT, path_file: Path): List[str]</text>
</g>
<!-- calcipy._RuntimeTypeCheckingModes -->
<g id="node11" class="node">
<title>calcipy._RuntimeTypeCheckingModes</title>
<polygon fill="none" stroke="black" points="3622.5,-53 3622.5,-122 3854.5,-122 3854.5,-53 3622.5,-53"/>
<text text-anchor="start" x="3630.5" y="-106.8" font-family="Times,serif" font-size="14.00">_RuntimeTypeCheckingModes</text>
<polyline fill="none" stroke="black" points="3622.5,-99 3854.5,-99 "/>
<text text-anchor="start" x="3718.5" y="-83.8" font-family="Times,serif" font-size="14.00">name</text>
<polyline fill="none" stroke="black" points="3622.5,-76 3854.5,-76 "/>
<text text-anchor="start" x="3649" y="-60.8" font-family="Times,serif" font-size="14.00">from_environment(): Self</text>
</g>
<!-- calcipy.code_tag_collector._collector._Tags -->
<g id="node12" class="node">
<title>calcipy.code_tag_collector._collector._Tags</title>
<polygon fill="none" stroke="black" points="3872.5,-38 3872.5,-137 4078.5,-137 4078.5,-38 3872.5,-38"/>
<text text-anchor="start" x="3955.5" y="-121.8" font-family="Times,serif" font-size="14.00">_Tags</text>
<polyline fill="none" stroke="black" points="3872.5,-114 4078.5,-114 "/>
<text text-anchor="start" x="3880.5" y="-98.8" font-family="Times,serif" font-size="14.00">code_tags : List[_CodeTag]</text>
<text text-anchor="start" x="3880.5" y="-83.8" font-family="Times,serif" font-size="14.00">model_config : ConfigDict</text>
<text text-anchor="start" x="3880.5" y="-68.8" font-family="Times,serif" font-size="14.00">path_source : Path</text>
<polyline fill="none" stroke="black" points="3872.5,-61 4078.5,-61 "/>
<text text-anchor="start" x="3973" y="-45.8" font-family="Times,serif" font-size="14.00"> </text>
</g>
</g>
</svg>
