<?xml version="1.0" encoding="UTF-8" standalone="no"?>
<!DOCTYPE svg PUBLIC "-//W3C//DTD SVG 1.1//EN"
 "http://www.w3.org/Graphics/SVG/1.1/DTD/svg11.dtd">
<!-- Generated by graphviz version 8.0.1 (20230327.1645)
 -->
<!-- Title: classes Pages: 1 -->
<svg width="1871pt" height="381pt"
 viewBox="0.00 0.00 1871.00 381.00" xmlns="http://www.w3.org/2000/svg" xmlns:xlink="http://www.w3.org/1999/xlink">
<g id="graph0" class="graph" transform="scale(1 1) rotate(0) translate(4 377)">
<title>classes</title>
<polygon fill="white" stroke="none" points="-4,4 -4,-377 1867,-377 1867,4 -4,4"/>
<!-- calcipy.cli.CalcipyConfig -->
<g id="node1" class="node">
<title>calcipy.cli.CalcipyConfig</title>
<polygon fill="none" stroke="black" points="0,-303.5 0,-372.5 140,-372.5 140,-303.5 0,-303.5"/>
<text text-anchor="start" x="30" y="-357.3" font-family="Times,serif" font-size="14.00">CalcipyConfig</text>
<polyline fill="none" stroke="black" points="0,-349.5 140,-349.5"/>
<polyline fill="none" stroke="black" points="0,-326.5 140,-326.5"/>
<text text-anchor="start" x="8" y="-311.3" font-family="Times,serif" font-size="14.00">global_defaults(): Dict</text>
</g>
<!-- calcipy.code_tag_collector._collector._CodeTag.Config -->
<g id="node2" class="node">
<title>calcipy.code_tag_collector._collector._CodeTag.Config</title>
<polygon fill="none" stroke="black" points="153,-38 153,-107 239,-107 239,-38 153,-38"/>
<text text-anchor="start" x="177" y="-91.8" font-family="Times,serif" font-size="14.00">Config</text>
<polyline fill="none" stroke="black" points="153,-84 239,-84"/>
<text text-anchor="start" x="161" y="-68.8" font-family="Times,serif" font-size="14.00">frozen : bool</text>
<polyline fill="none" stroke="black" points="153,-61 239,-61"/>
<text text-anchor="start" x="194" y="-45.8" font-family="Times,serif" font-size="14.00"> </text>
</g>
<!-- calcipy.code_tag_collector._collector._Tags.Config -->
<g id="node3" class="node">
<title>calcipy.code_tag_collector._collector._Tags.Config</title>
<polygon fill="none" stroke="black" points="257,-38 257,-107 343,-107 343,-38 257,-38"/>
<text text-anchor="start" x="281" y="-91.8" font-family="Times,serif" font-size="14.00">Config</text>
<polyline fill="none" stroke="black" points="257,-84 343,-84"/>
<text text-anchor="start" x="265" y="-68.8" font-family="Times,serif" font-size="14.00">frozen : bool</text>
<polyline fill="none" stroke="black" points="257,-61 343,-61"/>
<text text-anchor="start" x="298" y="-45.8" font-family="Times,serif" font-size="14.00"> </text>
</g>
<!-- calcipy.check_for_stale_packages._check_for_stale_packages._HostedPythonPackage.Config -->
<g id="node4" class="node">
<title>calcipy.check_for_stale_packages._check_for_stale_packages._HostedPythonPackage.Config</title>
<polygon fill="none" stroke="black" points="361.5,-30.5 361.5,-114.5 544.5,-114.5 544.5,-30.5 361.5,-30.5"/>
<text text-anchor="start" x="434" y="-99.3" font-family="Times,serif" font-size="14.00">Config</text>
<polyline fill="none" stroke="black" points="361.5,-91.5 544.5,-91.5"/>
<text text-anchor="start" x="369.5" y="-76.3" font-family="Times,serif" font-size="14.00">arbitrary_types_allowed : bool</text>
<text text-anchor="start" x="369.5" y="-61.3" font-family="Times,serif" font-size="14.00">json_encoders : dict</text>
<polyline fill="none" stroke="black" points="361.5,-53.5 544.5,-53.5"/>
<text text-anchor="start" x="451" y="-38.3" font-family="Times,serif" font-size="14.00"> </text>
</g>
<!-- calcipy.cli.GlobalTaskOptions -->
<g id="node5" class="node">
<title>calcipy.cli.GlobalTaskOptions</title>
<polygon fill="none" stroke="black" points="5.5,-0.5 5.5,-144.5 134.5,-144.5 134.5,-0.5 5.5,-0.5"/>
<text text-anchor="start" x="17" y="-129.3" font-family="Times,serif" font-size="14.00">GlobalTaskOptions</text>
<polyline fill="none" stroke="black" points="5.5,-121.5 134.5,-121.5"/>
<text text-anchor="start" x="13.5" y="-106.3" font-family="Times,serif" font-size="14.00">file_args</text>
<text text-anchor="start" x="13.5" y="-91.3" font-family="Times,serif" font-size="14.00">file_args : List[Path]</text>
<text text-anchor="start" x="13.5" y="-76.3" font-family="Times,serif" font-size="14.00">verbose</text>
<text text-anchor="start" x="13.5" y="-61.3" font-family="Times,serif" font-size="14.00">verbose : int</text>
<text text-anchor="start" x="13.5" y="-46.3" font-family="Times,serif" font-size="14.00">working_dir : Path</text>
<text text-anchor="start" x="13.5" y="-31.3" font-family="Times,serif" font-size="14.00">working_dir : Path</text>
<polyline fill="none" stroke="black" points="5.5,-23.5 134.5,-23.5"/>
<text text-anchor="start" x="68" y="-8.3" font-family="Times,serif" font-size="14.00"> </text>
</g>
<!-- calcipy.cli.start_program._CalcipyConfig -->
<g id="node6" class="node">
<title>calcipy.cli.start_program._CalcipyConfig</title>
<polygon fill="none" stroke="black" points="18.5,-196.5 18.5,-265.5 121.5,-265.5 121.5,-196.5 18.5,-196.5"/>
<text text-anchor="start" x="26.5" y="-250.3" font-family="Times,serif" font-size="14.00">_CalcipyConfig</text>
<polyline fill="none" stroke="black" points="18.5,-242.5 121.5,-242.5"/>
<text text-anchor="start" x="61" y="-227.3" font-family="Times,serif" font-size="14.00">gto</text>
<polyline fill="none" stroke="black" points="18.5,-219.5 121.5,-219.5"/>
<text text-anchor="start" x="68" y="-204.3" font-family="Times,serif" font-size="14.00"> </text>
</g>
<!-- calcipy.cli.GlobalTaskOptions&#45;&gt;calcipy.cli.start_program._CalcipyConfig -->
<g id="edge2" class="edge">
<title>calcipy.cli.GlobalTaskOptions&#45;&gt;calcipy.cli.start_program._CalcipyConfig</title>
<path fill="none" stroke="black" d="M70,-144.42C70,-157.85 70,-171.56 70,-183.96"/>
<polygon fill="black" stroke="black" points="70,-183.93 74,-189.93 70,-195.93 66,-189.93 70,-183.93"/>
<text text-anchor="middle" x="79" y="-166.8" font-family="Times,serif" font-size="14.00" fill="green">gto</text>
</g>
<!-- calcipy.cli.start_program._CalcipyConfig&#45;&gt;calcipy.cli.CalcipyConfig -->
<g id="edge1" class="edge">
<title>calcipy.cli.start_program._CalcipyConfig&#45;&gt;calcipy.cli.CalcipyConfig</title>
<path fill="none" stroke="black" d="M70,-265.22C70,-273.94 70,-283.47 70,-292.67"/>
<polygon fill="none" stroke="black" points="66.5,-292.63 70,-302.63 73.5,-292.63 66.5,-292.63"/>
</g>
<!-- calcipy.cli._CalcipyProgram -->
<g id="node7" class="node">
<title>calcipy.cli._CalcipyProgram</title>
<polygon fill="none" stroke="black" points="563,-38 563,-107 681,-107 681,-38 563,-38"/>
<text text-anchor="start" x="573.5" y="-91.8" font-family="Times,serif" font-size="14.00">_CalcipyProgram</text>
<polyline fill="none" stroke="black" points="563,-84 681,-84"/>
<polyline fill="none" stroke="black" points="563,-61 681,-61"/>
<text text-anchor="start" x="571" y="-45.8" font-family="Times,serif" font-size="14.00">print_help(): None</text>
</g>
<!-- calcipy.code_tag_collector._collector._CodeTag -->
<g id="node8" class="node">
<title>calcipy.code_tag_collector._collector._CodeTag</title>
<polygon fill="none" stroke="black" points="699,-23 699,-122 775,-122 775,-23 699,-23"/>
<text text-anchor="start" x="708.5" y="-106.8" font-family="Times,serif" font-size="14.00">_CodeTag</text>
<polyline fill="none" stroke="black" points="699,-99 775,-99"/>
<text text-anchor="start" x="707" y="-83.8" font-family="Times,serif" font-size="14.00">lineno : int</text>
<text text-anchor="start" x="707" y="-68.8" font-family="Times,serif" font-size="14.00">tag : str</text>
<text text-anchor="start" x="707" y="-53.8" font-family="Times,serif" font-size="14.00">text : str</text>
<polyline fill="none" stroke="black" points="699,-46 775,-46"/>
<text text-anchor="start" x="735" y="-30.8" font-family="Times,serif" font-size="14.00"> </text>
</g>
<!-- calcipy.check_for_stale_packages._check_for_stale_packages._HostedPythonPackage -->
<g id="node9" class="node">
<title>calcipy.check_for_stale_packages._check_for_stale_packages._HostedPythonPackage</title>
<polygon fill="none" stroke="black" points="793.5,-0.5 793.5,-144.5 1072.5,-144.5 1072.5,-0.5 793.5,-0.5"/>
<text text-anchor="start" x="868.5" y="-129.3" font-family="Times,serif" font-size="14.00">_HostedPythonPackage</text>
<polyline fill="none" stroke="black" points="793.5,-121.5 1072.5,-121.5"/>
<text text-anchor="start" x="840" y="-106.3" font-family="Times,serif" font-size="14.00">datetime : Optional[Arrow]</text>
<text text-anchor="start" x="840" y="-91.3" font-family="Times,serif" font-size="14.00">domain : str</text>
<text text-anchor="start" x="840" y="-76.3" font-family="Times,serif" font-size="14.00">latest_datetime : Optional[Arrow]</text>
<text text-anchor="start" x="840" y="-61.3" font-family="Times,serif" font-size="14.00">latest_version : str</text>
<text text-anchor="start" x="840" y="-46.3" font-family="Times,serif" font-size="14.00">name : str</text>
<text text-anchor="start" x="840" y="-31.3" font-family="Times,serif" font-size="14.00">version : str</text>
<polyline fill="none" stroke="black" points="793.5,-23.5 1072.5,-23.5"/>
<text text-anchor="start" x="801.5" y="-8.3" font-family="Times,serif" font-size="14.00">date_validator(value: Union[str, Arrow]): Arrow</text>
</g>
<!-- calcipy.md_writer._writer._ParseSkipError -->
<g id="node10" class="node">
<title>calcipy.md_writer._writer._ParseSkipError</title>
<polygon fill="none" stroke="black" points="1091,-38 1091,-107 1197,-107 1197,-38 1091,-38"/>
<text text-anchor="start" x="1099" y="-91.8" font-family="Times,serif" font-size="14.00" fill="red">_ParseSkipError</text>
<polyline fill="none" stroke="black" points="1091,-84 1197,-84"/>
<polyline fill="none" stroke="black" points="1091,-61 1197,-61"/>
<text text-anchor="start" x="1142" y="-45.8" font-family="Times,serif" font-size="14.00" fill="red"> </text>
</g>
<!-- calcipy.md_writer._writer._ReplacementMachine -->
<g id="node11" class="node">
<title>calcipy.md_writer._writer._ReplacementMachine</title>
<polygon fill="none" stroke="black" points="1215.5,-30.5 1215.5,-114.5 1676.5,-114.5 1676.5,-30.5 1215.5,-30.5"/>
<text text-anchor="start" x="1382.5" y="-99.3" font-family="Times,serif" font-size="14.00">_ReplacementMachine</text>
<polyline fill="none" stroke="black" points="1215.5,-91.5 1676.5,-91.5"/>
<text text-anchor="start" x="1406" y="-76.3" font-family="Times,serif" font-size="14.00">state_auto : str</text>
<text text-anchor="start" x="1406" y="-61.3" font-family="Times,serif" font-size="14.00">state_user : str</text>
<polyline fill="none" stroke="black" points="1215.5,-53.5 1676.5,-53.5"/>
<text text-anchor="start" x="1223.5" y="-38.3" font-family="Times,serif" font-size="14.00">parse(lines: List[str], handler_lookup: HandlerLookupT, path_file: Path): List[str]</text>
</g>
<!-- calcipy.code_tag_collector._collector._Tags -->
<g id="node12" class="node">
<title>calcipy.code_tag_collector._collector._Tags</title>
<polygon fill="none" stroke="black" points="1695,-30.5 1695,-114.5 1863,-114.5 1863,-30.5 1695,-30.5"/>
<text text-anchor="start" x="1762" y="-99.3" font-family="Times,serif" font-size="14.00">_Tags</text>
<polyline fill="none" stroke="black" points="1695,-91.5 1863,-91.5"/>
<text text-anchor="start" x="1703" y="-76.3" font-family="Times,serif" font-size="14.00">code_tags : List[_CodeTag]</text>
<text text-anchor="start" x="1703" y="-61.3" font-family="Times,serif" font-size="14.00">path_source : Path</text>
<polyline fill="none" stroke="black" points="1695,-53.5 1863,-53.5"/>
<text text-anchor="start" x="1777" y="-38.3" font-family="Times,serif" font-size="14.00"> </text>
</g>
</g>
</svg>
