<?xml version="1.0" encoding="UTF-8" standalone="no"?>
<!DOCTYPE svg PUBLIC "-//W3C//DTD SVG 1.1//EN"
 "http://www.w3.org/Graphics/SVG/1.1/DTD/svg11.dtd">
<!-- Generated by graphviz version 2.43.0 (0)
 -->
<!-- Title: classes Pages: 1 -->
<svg width="2989pt" height="413pt"
 viewBox="0.00 0.00 2988.50 412.80" xmlns="http://www.w3.org/2000/svg" xmlns:xlink="http://www.w3.org/1999/xlink">
<g id="graph0" class="graph" transform="scale(1 1) rotate(0) translate(4 408.8)">
<title>classes</title>
<polygon fill="white" stroke="transparent" points="-4,4 -4,-408.8 2984.5,-408.8 2984.5,4 -4,4"/>
<!-- calcipy.cli.CalcipyConfig -->
<g id="node1" class="node">
<title>calcipy.cli.CalcipyConfig</title>
<polygon fill="none" stroke="black" points="0,-333.5 0,-404.3 173,-404.3 173,-333.5 0,-333.5"/>
<text text-anchor="start" x="37" y="-389.1" font-family="Times,serif" font-size="14.00">CalcipyConfig</text>
<polyline fill="none" stroke="black" points="0,-381.3 173,-381.3 "/>
<polyline fill="none" stroke="black" points="0,-356.5 173,-356.5 "/>
<text text-anchor="start" x="8" y="-341.3" font-family="Times,serif" font-size="14.00">global_defaults(): Dict</text>
</g>
<!-- calcipy.code_tag_collector._collector._CodeTag.Config -->
<g id="node2" class="node">
<title>calcipy.code_tag_collector._collector._CodeTag.Config</title>
<polygon fill="none" stroke="black" points="185,-53 185,-122 290,-122 290,-53 185,-53"/>
<text text-anchor="start" x="214.5" y="-106.8" font-family="Times,serif" font-size="14.00">Config</text>
<polyline fill="none" stroke="black" points="185,-99 290,-99 "/>
<text text-anchor="start" x="193" y="-83.8" font-family="Times,serif" font-size="14.00">frozen : bool</text>
<polyline fill="none" stroke="black" points="185,-76 290,-76 "/>
<text text-anchor="start" x="235" y="-60.8" font-family="Times,serif" font-size="14.00"> </text>
</g>
<!-- calcipy.code_tag_collector._collector._Tags.Config -->
<g id="node3" class="node">
<title>calcipy.code_tag_collector._collector._Tags.Config</title>
<polygon fill="none" stroke="black" points="308,-53 308,-122 413,-122 413,-53 308,-53"/>
<text text-anchor="start" x="337.5" y="-106.8" font-family="Times,serif" font-size="14.00">Config</text>
<polyline fill="none" stroke="black" points="308,-99 413,-99 "/>
<text text-anchor="start" x="316" y="-83.8" font-family="Times,serif" font-size="14.00">frozen : bool</text>
<polyline fill="none" stroke="black" points="308,-76 413,-76 "/>
<text text-anchor="start" x="358" y="-60.8" font-family="Times,serif" font-size="14.00"> </text>
</g>
<!-- calcipy.check_for_stale_packages._check_for_stale_packages._HostedPythonPackage.Config -->
<g id="node4" class="node">
<title>calcipy.check_for_stale_packages._check_for_stale_packages._HostedPythonPackage.Config</title>
<polygon fill="none" stroke="black" points="431.5,-53 431.5,-122 663.5,-122 663.5,-53 431.5,-53"/>
<text text-anchor="start" x="524.5" y="-106.8" font-family="Times,serif" font-size="14.00">Config</text>
<polyline fill="none" stroke="black" points="431.5,-99 663.5,-99 "/>
<text text-anchor="start" x="439.5" y="-83.8" font-family="Times,serif" font-size="14.00">arbitrary_types_allowed : bool</text>
<polyline fill="none" stroke="black" points="431.5,-76 663.5,-76 "/>
<text text-anchor="start" x="545" y="-60.8" font-family="Times,serif" font-size="14.00"> </text>
</g>
<!-- calcipy.cli.GlobalTaskOptions -->
<g id="node5" class="node">
<title>calcipy.cli.GlobalTaskOptions</title>
<polygon fill="none" stroke="black" points="6.5,-0.5 6.5,-174.5 166.5,-174.5 166.5,-0.5 6.5,-0.5"/>
<text text-anchor="start" x="19.5" y="-159.3" font-family="Times,serif" font-size="14.00">GlobalTaskOptions</text>
<polyline fill="none" stroke="black" points="6.5,-151.5 166.5,-151.5 "/>
<text text-anchor="start" x="14.5" y="-136.3" font-family="Times,serif" font-size="14.00">file_args</text>
<text text-anchor="start" x="14.5" y="-121.3" font-family="Times,serif" font-size="14.00">file_args : List[Path]</text>
<text text-anchor="start" x="14.5" y="-106.3" font-family="Times,serif" font-size="14.00">keep_going : bool</text>
<text text-anchor="start" x="14.5" y="-91.3" font-family="Times,serif" font-size="14.00">keep_going : bool</text>
<text text-anchor="start" x="14.5" y="-76.3" font-family="Times,serif" font-size="14.00">verbose</text>
<text text-anchor="start" x="14.5" y="-61.3" font-family="Times,serif" font-size="14.00">verbose : int</text>
<text text-anchor="start" x="14.5" y="-46.3" font-family="Times,serif" font-size="14.00">working_dir : Path</text>
<text text-anchor="start" x="14.5" y="-31.3" font-family="Times,serif" font-size="14.00">working_dir : Path</text>
<polyline fill="none" stroke="black" points="6.5,-23.5 166.5,-23.5 "/>
<text text-anchor="start" x="84" y="-8.3" font-family="Times,serif" font-size="14.00"> </text>
</g>
<!-- calcipy.cli.start_program._CalcipyConfig -->
<g id="node6" class="node">
<title>calcipy.cli.start_program._CalcipyConfig</title>
<polygon fill="none" stroke="black" points="25.5,-226.5 25.5,-295.5 147.5,-295.5 147.5,-226.5 25.5,-226.5"/>
<text text-anchor="start" x="33.5" y="-280.3" font-family="Times,serif" font-size="14.00">_CalcipyConfig</text>
<polyline fill="none" stroke="black" points="25.5,-272.5 147.5,-272.5 "/>
<text text-anchor="start" x="74.5" y="-257.3" font-family="Times,serif" font-size="14.00">gto</text>
<polyline fill="none" stroke="black" points="25.5,-249.5 147.5,-249.5 "/>
<text text-anchor="start" x="84" y="-234.3" font-family="Times,serif" font-size="14.00"> </text>
</g>
<!-- calcipy.cli.GlobalTaskOptions&#45;&gt;calcipy.cli.start_program._CalcipyConfig -->
<g id="edge2" class="edge">
<title>calcipy.cli.GlobalTaskOptions&#45;&gt;calcipy.cli.start_program._CalcipyConfig</title>
<path fill="none" stroke="black" d="M86.5,-174.5C86.5,-188.15 86.5,-201.79 86.5,-214.03"/>
<polygon fill="black" stroke="black" points="86.5,-214.23 90.5,-220.23 86.5,-226.23 82.5,-220.23 86.5,-214.23"/>
<text text-anchor="middle" x="98.5" y="-196.8" font-family="Times,serif" font-size="14.00" fill="green">gto</text>
</g>
<!-- calcipy.cli.start_program._CalcipyConfig&#45;&gt;calcipy.cli.CalcipyConfig -->
<g id="edge1" class="edge">
<title>calcipy.cli.start_program._CalcipyConfig&#45;&gt;calcipy.cli.CalcipyConfig</title>
<path fill="none" stroke="black" d="M86.5,-295.51C86.5,-304.22 86.5,-313.76 86.5,-322.96"/>
<polygon fill="none" stroke="black" points="83,-323.15 86.5,-333.15 90,-323.15 83,-323.15"/>
</g>
<!-- calcipy.cli._CalcipyProgram -->
<g id="node7" class="node">
<title>calcipy.cli._CalcipyProgram</title>
<polygon fill="none" stroke="black" points="681.5,-52.1 681.5,-122.9 827.5,-122.9 827.5,-52.1 681.5,-52.1"/>
<text text-anchor="start" x="693.5" y="-107.7" font-family="Times,serif" font-size="14.00">_CalcipyProgram</text>
<polyline fill="none" stroke="black" points="681.5,-99.9 827.5,-99.9 "/>
<polyline fill="none" stroke="black" points="681.5,-75.1 827.5,-75.1 "/>
<text text-anchor="start" x="689.5" y="-59.9" font-family="Times,serif" font-size="14.00">print_help(): None</text>
</g>
<!-- calcipy.code_tag_collector._collector._CodeTag -->
<g id="node8" class="node">
<title>calcipy.code_tag_collector._collector._CodeTag</title>
<polygon fill="none" stroke="black" points="846,-38 846,-137 939,-137 939,-38 846,-38"/>
<text text-anchor="start" x="858" y="-121.8" font-family="Times,serif" font-size="14.00">_CodeTag</text>
<polyline fill="none" stroke="black" points="846,-114 939,-114 "/>
<text text-anchor="start" x="854" y="-98.8" font-family="Times,serif" font-size="14.00">lineno : int</text>
<text text-anchor="start" x="854" y="-83.8" font-family="Times,serif" font-size="14.00">tag : str</text>
<text text-anchor="start" x="854" y="-68.8" font-family="Times,serif" font-size="14.00">text : str</text>
<polyline fill="none" stroke="black" points="846,-61 939,-61 "/>
<text text-anchor="start" x="890" y="-45.8" font-family="Times,serif" font-size="14.00"> </text>
</g>
<!-- calcipy.code_tag_collector._collector._CollectorRow -->
<g id="node9" class="node">
<title>calcipy.code_tag_collector._collector._CollectorRow</title>
<polygon fill="none" stroke="black" points="957,-30.5 957,-144.5 1558,-144.5 1558,-30.5 957,-30.5"/>
<text text-anchor="start" x="1206" y="-129.3" font-family="Times,serif" font-size="14.00">_CollectorRow</text>
<polyline fill="none" stroke="black" points="957,-121.5 1558,-121.5 "/>
<text text-anchor="start" x="1202.5" y="-106.3" font-family="Times,serif" font-size="14.00">comment : str</text>
<text text-anchor="start" x="1202.5" y="-91.3" font-family="Times,serif" font-size="14.00">last_edit : str</text>
<text text-anchor="start" x="1202.5" y="-76.3" font-family="Times,serif" font-size="14.00">source_file : str</text>
<text text-anchor="start" x="1202.5" y="-61.3" font-family="Times,serif" font-size="14.00">tag_name : str</text>
<polyline fill="none" stroke="black" points="957,-53.5 1558,-53.5 "/>
<text text-anchor="start" x="965" y="-38.3" font-family="Times,serif" font-size="14.00">from_code_tag(code_tag: _CodeTag, last_edit: str, source_file: str): &#39;_CollectorRow&#39;</text>
</g>
<!-- calcipy.check_for_stale_packages._check_for_stale_packages._HostedPythonPackage -->
<g id="node10" class="node">
<title>calcipy.check_for_stale_packages._check_for_stale_packages._HostedPythonPackage</title>
<polygon fill="none" stroke="black" points="1576.5,-8 1576.5,-167 1996.5,-167 1996.5,-8 1576.5,-8"/>
<text text-anchor="start" x="1703" y="-151.8" font-family="Times,serif" font-size="14.00">_HostedPythonPackage</text>
<polyline fill="none" stroke="black" points="1576.5,-144 1996.5,-144 "/>
<text text-anchor="start" x="1666.5" y="-128.8" font-family="Times,serif" font-size="14.00">datetime : Optional[Arrow]</text>
<text text-anchor="start" x="1666.5" y="-113.8" font-family="Times,serif" font-size="14.00">domain : str</text>
<text text-anchor="start" x="1666.5" y="-98.8" font-family="Times,serif" font-size="14.00">latest_datetime : Optional[Arrow]</text>
<text text-anchor="start" x="1666.5" y="-83.8" font-family="Times,serif" font-size="14.00">latest_version : str</text>
<text text-anchor="start" x="1666.5" y="-68.8" font-family="Times,serif" font-size="14.00">name : str</text>
<text text-anchor="start" x="1666.5" y="-53.8" font-family="Times,serif" font-size="14.00">version : str</text>
<polyline fill="none" stroke="black" points="1576.5,-46 1996.5,-46 "/>
<text text-anchor="start" x="1584.5" y="-30.8" font-family="Times,serif" font-size="14.00">date_validator(value: Union[str, Arrow]): Arrow</text>
<text text-anchor="start" x="1584.5" y="-15.8" font-family="Times,serif" font-size="14.00">serialize_datetime(value: Optional[Arrow]): Optional[str]</text>
</g>
<!-- calcipy.md_writer._writer._ParseSkipError -->
<g id="node11" class="node">
<title>calcipy.md_writer._writer._ParseSkipError</title>
<polygon fill="none" stroke="black" points="2014.5,-52.1 2014.5,-122.9 2148.5,-122.9 2148.5,-52.1 2014.5,-52.1"/>
<text text-anchor="start" x="2022.5" y="-107.7" font-family="Times,serif" font-size="14.00" fill="red">_ParseSkipError</text>
<polyline fill="none" stroke="black" points="2014.5,-99.9 2148.5,-99.9 "/>
<polyline fill="none" stroke="black" points="2014.5,-75.1 2148.5,-75.1 "/>
<text text-anchor="start" x="2079" y="-59.9" font-family="Times,serif" font-size="14.00" fill="red"> </text>
</g>
<!-- calcipy.md_writer._writer._ReplacementMachine -->
<g id="node12" class="node">
<title>calcipy.md_writer._writer._ReplacementMachine</title>
<polygon fill="none" stroke="black" points="2167,-45.5 2167,-129.5 2756,-129.5 2756,-45.5 2167,-45.5"/>
<text text-anchor="start" x="2381" y="-114.3" font-family="Times,serif" font-size="14.00">_ReplacementMachine</text>
<polyline fill="none" stroke="black" points="2167,-106.5 2756,-106.5 "/>
<text text-anchor="start" x="2407" y="-91.3" font-family="Times,serif" font-size="14.00">state_auto : str</text>
<text text-anchor="start" x="2407" y="-76.3" font-family="Times,serif" font-size="14.00">state_user : str</text>
<polyline fill="none" stroke="black" points="2167,-68.5 2756,-68.5 "/>
<text text-anchor="start" x="2175" y="-53.3" font-family="Times,serif" font-size="14.00">parse(lines: List[str], handler_lookup: HandlerLookupT, path_file: Path): List[str]</text>
</g>
<!-- calcipy.code_tag_collector._collector._Tags -->
<g id="node13" class="node">
<title>calcipy.code_tag_collector._collector._Tags</title>
<polygon fill="none" stroke="black" points="2774.5,-45.5 2774.5,-129.5 2980.5,-129.5 2980.5,-45.5 2774.5,-45.5"/>
<text text-anchor="start" x="2857.5" y="-114.3" font-family="Times,serif" font-size="14.00">_Tags</text>
<polyline fill="none" stroke="black" points="2774.5,-106.5 2980.5,-106.5 "/>
<text text-anchor="start" x="2782.5" y="-91.3" font-family="Times,serif" font-size="14.00">code_tags : List[_CodeTag]</text>
<text text-anchor="start" x="2782.5" y="-76.3" font-family="Times,serif" font-size="14.00">path_source : Path</text>
<polyline fill="none" stroke="black" points="2774.5,-68.5 2980.5,-68.5 "/>
<text text-anchor="start" x="2875" y="-53.3" font-family="Times,serif" font-size="14.00"> </text>
</g>
</g>
</svg>
