<?xml version="1.0" encoding="UTF-8" standalone="no"?>
<!DOCTYPE svg PUBLIC "-//W3C//DTD SVG 1.1//EN"
 "http://www.w3.org/Graphics/SVG/1.1/DTD/svg11.dtd">
<!-- Generated by graphviz version 8.0.1 (20230327.1645)
 -->
<!-- Title: classes Pages: 1 -->
<svg width="1871pt" height="411pt"
 viewBox="0.00 0.00 1871.00 411.00" xmlns="http://www.w3.org/2000/svg" xmlns:xlink="http://www.w3.org/1999/xlink">
<g id="graph0" class="graph" transform="scale(1 1) rotate(0) translate(4 407)">
<title>classes</title>
<polygon fill="white" stroke="none" points="-4,4 -4,-407 1867,-407 1867,4 -4,4"/>
<!-- calcipy.cli.CalcipyConfig -->
<g id="node1" class="node">
<title>calcipy.cli.CalcipyConfig</title>
<polygon fill="none" stroke="black" points="0,-333.5 0,-402.5 140,-402.5 140,-333.5 0,-333.5"/>
<text text-anchor="start" x="30" y="-387.3" font-family="Times,serif" font-size="14.00">CalcipyConfig</text>
<polyline fill="none" stroke="black" points="0,-379.5 140,-379.5"/>
<polyline fill="none" stroke="black" points="0,-356.5 140,-356.5"/>
<text text-anchor="start" x="8" y="-341.3" font-family="Times,serif" font-size="14.00">global_defaults(): Dict</text>
</g>
<!-- calcipy.code_tag_collector._collector._CodeTag.Config -->
<g id="node2" class="node">
<title>calcipy.code_tag_collector._collector._CodeTag.Config</title>
<polygon fill="none" stroke="black" points="153,-53 153,-122 239,-122 239,-53 153,-53"/>
<text text-anchor="start" x="177" y="-106.8" font-family="Times,serif" font-size="14.00">Config</text>
<polyline fill="none" stroke="black" points="153,-99 239,-99"/>
<text text-anchor="start" x="161" y="-83.8" font-family="Times,serif" font-size="14.00">frozen : bool</text>
<polyline fill="none" stroke="black" points="153,-76 239,-76"/>
<text text-anchor="start" x="194" y="-60.8" font-family="Times,serif" font-size="14.00"> </text>
</g>
<!-- calcipy.code_tag_collector._collector._Tags.Config -->
<g id="node3" class="node">
<title>calcipy.code_tag_collector._collector._Tags.Config</title>
<polygon fill="none" stroke="black" points="257,-53 257,-122 343,-122 343,-53 257,-53"/>
<text text-anchor="start" x="281" y="-106.8" font-family="Times,serif" font-size="14.00">Config</text>
<polyline fill="none" stroke="black" points="257,-99 343,-99"/>
<text text-anchor="start" x="265" y="-83.8" font-family="Times,serif" font-size="14.00">frozen : bool</text>
<polyline fill="none" stroke="black" points="257,-76 343,-76"/>
<text text-anchor="start" x="298" y="-60.8" font-family="Times,serif" font-size="14.00"> </text>
</g>
<!-- calcipy.check_for_stale_packages._check_for_stale_packages._HostedPythonPackage.Config -->
<g id="node4" class="node">
<title>calcipy.check_for_stale_packages._check_for_stale_packages._HostedPythonPackage.Config</title>
<polygon fill="none" stroke="black" points="361.5,-45.5 361.5,-129.5 544.5,-129.5 544.5,-45.5 361.5,-45.5"/>
<text text-anchor="start" x="434" y="-114.3" font-family="Times,serif" font-size="14.00">Config</text>
<polyline fill="none" stroke="black" points="361.5,-106.5 544.5,-106.5"/>
<text text-anchor="start" x="369.5" y="-91.3" font-family="Times,serif" font-size="14.00">arbitrary_types_allowed : bool</text>
<text text-anchor="start" x="369.5" y="-76.3" font-family="Times,serif" font-size="14.00">json_encoders : dict</text>
<polyline fill="none" stroke="black" points="361.5,-68.5 544.5,-68.5"/>
<text text-anchor="start" x="451" y="-53.3" font-family="Times,serif" font-size="14.00"> </text>
</g>
<!-- calcipy.cli.GlobalTaskOptions -->
<g id="node5" class="node">
<title>calcipy.cli.GlobalTaskOptions</title>
<polygon fill="none" stroke="black" points="5.5,-0.5 5.5,-174.5 134.5,-174.5 134.5,-0.5 5.5,-0.5"/>
<text text-anchor="start" x="17" y="-159.3" font-family="Times,serif" font-size="14.00">GlobalTaskOptions</text>
<polyline fill="none" stroke="black" points="5.5,-151.5 134.5,-151.5"/>
<text text-anchor="start" x="13.5" y="-136.3" font-family="Times,serif" font-size="14.00">file_args</text>
<text text-anchor="start" x="13.5" y="-121.3" font-family="Times,serif" font-size="14.00">file_args : List[Path]</text>
<text text-anchor="start" x="13.5" y="-106.3" font-family="Times,serif" font-size="14.00">keep_going : bool</text>
<text text-anchor="start" x="13.5" y="-91.3" font-family="Times,serif" font-size="14.00">keep_going : bool</text>
<text text-anchor="start" x="13.5" y="-76.3" font-family="Times,serif" font-size="14.00">verbose</text>
<text text-anchor="start" x="13.5" y="-61.3" font-family="Times,serif" font-size="14.00">verbose : int</text>
<text text-anchor="start" x="13.5" y="-46.3" font-family="Times,serif" font-size="14.00">working_dir : Path</text>
<text text-anchor="start" x="13.5" y="-31.3" font-family="Times,serif" font-size="14.00">working_dir : Path</text>
<polyline fill="none" stroke="black" points="5.5,-23.5 134.5,-23.5"/>
<text text-anchor="start" x="68" y="-8.3" font-family="Times,serif" font-size="14.00"> </text>
</g>
<!-- calcipy.cli.start_program._CalcipyConfig -->
<g id="node6" class="node">
<title>calcipy.cli.start_program._CalcipyConfig</title>
<polygon fill="none" stroke="black" points="18.5,-226.5 18.5,-295.5 121.5,-295.5 121.5,-226.5 18.5,-226.5"/>
<text text-anchor="start" x="26.5" y="-280.3" font-family="Times,serif" font-size="14.00">_CalcipyConfig</text>
<polyline fill="none" stroke="black" points="18.5,-272.5 121.5,-272.5"/>
<text text-anchor="start" x="61" y="-257.3" font-family="Times,serif" font-size="14.00">gto</text>
<polyline fill="none" stroke="black" points="18.5,-249.5 121.5,-249.5"/>
<text text-anchor="start" x="68" y="-234.3" font-family="Times,serif" font-size="14.00"> </text>
</g>
<!-- calcipy.cli.GlobalTaskOptions&#45;&gt;calcipy.cli.start_program._CalcipyConfig -->
<g id="edge2" class="edge">
<title>calcipy.cli.GlobalTaskOptions&#45;&gt;calcipy.cli.start_program._CalcipyConfig</title>
<path fill="none" stroke="black" d="M70,-174.25C70,-187.9 70,-201.55 70,-213.82"/>
<polygon fill="black" stroke="black" points="70,-213.62 74,-219.62 70,-225.62 66,-219.62 70,-213.62"/>
<text text-anchor="middle" x="79" y="-196.8" font-family="Times,serif" font-size="14.00" fill="green">gto</text>
</g>
<!-- calcipy.cli.start_program._CalcipyConfig&#45;&gt;calcipy.cli.CalcipyConfig -->
<g id="edge1" class="edge">
<title>calcipy.cli.start_program._CalcipyConfig&#45;&gt;calcipy.cli.CalcipyConfig</title>
<path fill="none" stroke="black" d="M70,-295.22C70,-303.94 70,-313.47 70,-322.67"/>
<polygon fill="none" stroke="black" points="66.5,-322.63 70,-332.63 73.5,-322.63 66.5,-322.63"/>
</g>
<!-- calcipy.cli._CalcipyProgram -->
<g id="node7" class="node">
<title>calcipy.cli._CalcipyProgram</title>
<polygon fill="none" stroke="black" points="563,-53 563,-122 681,-122 681,-53 563,-53"/>
<text text-anchor="start" x="573.5" y="-106.8" font-family="Times,serif" font-size="14.00">_CalcipyProgram</text>
<polyline fill="none" stroke="black" points="563,-99 681,-99"/>
<polyline fill="none" stroke="black" points="563,-76 681,-76"/>
<text text-anchor="start" x="571" y="-60.8" font-family="Times,serif" font-size="14.00">print_help(): None</text>
</g>
<!-- calcipy.code_tag_collector._collector._CodeTag -->
<g id="node8" class="node">
<title>calcipy.code_tag_collector._collector._CodeTag</title>
<polygon fill="none" stroke="black" points="699,-38 699,-137 775,-137 775,-38 699,-38"/>
<text text-anchor="start" x="708.5" y="-121.8" font-family="Times,serif" font-size="14.00">_CodeTag</text>
<polyline fill="none" stroke="black" points="699,-114 775,-114"/>
<text text-anchor="start" x="707" y="-98.8" font-family="Times,serif" font-size="14.00">lineno : int</text>
<text text-anchor="start" x="707" y="-83.8" font-family="Times,serif" font-size="14.00">tag : str</text>
<text text-anchor="start" x="707" y="-68.8" font-family="Times,serif" font-size="14.00">text : str</text>
<polyline fill="none" stroke="black" points="699,-61 775,-61"/>
<text text-anchor="start" x="735" y="-45.8" font-family="Times,serif" font-size="14.00"> </text>
</g>
<!-- calcipy.check_for_stale_packages._check_for_stale_packages._HostedPythonPackage -->
<g id="node9" class="node">
<title>calcipy.check_for_stale_packages._check_for_stale_packages._HostedPythonPackage</title>
<polygon fill="none" stroke="black" points="793.5,-15.5 793.5,-159.5 1072.5,-159.5 1072.5,-15.5 793.5,-15.5"/>
<text text-anchor="start" x="868.5" y="-144.3" font-family="Times,serif" font-size="14.00">_HostedPythonPackage</text>
<polyline fill="none" stroke="black" points="793.5,-136.5 1072.5,-136.5"/>
<text text-anchor="start" x="840" y="-121.3" font-family="Times,serif" font-size="14.00">datetime : Optional[Arrow]</text>
<text text-anchor="start" x="840" y="-106.3" font-family="Times,serif" font-size="14.00">domain : str</text>
<text text-anchor="start" x="840" y="-91.3" font-family="Times,serif" font-size="14.00">latest_datetime : Optional[Arrow]</text>
<text text-anchor="start" x="840" y="-76.3" font-family="Times,serif" font-size="14.00">latest_version : str</text>
<text text-anchor="start" x="840" y="-61.3" font-family="Times,serif" font-size="14.00">name : str</text>
<text text-anchor="start" x="840" y="-46.3" font-family="Times,serif" font-size="14.00">version : str</text>
<polyline fill="none" stroke="black" points="793.5,-38.5 1072.5,-38.5"/>
<text text-anchor="start" x="801.5" y="-23.3" font-family="Times,serif" font-size="14.00">date_validator(value: Union[str, Arrow]): Arrow</text>
</g>
<!-- calcipy.md_writer._writer._ParseSkipError -->
<g id="node10" class="node">
<title>calcipy.md_writer._writer._ParseSkipError</title>
<polygon fill="none" stroke="black" points="1091,-53 1091,-122 1197,-122 1197,-53 1091,-53"/>
<text text-anchor="start" x="1099" y="-106.8" font-family="Times,serif" font-size="14.00" fill="red">_ParseSkipError</text>
<polyline fill="none" stroke="black" points="1091,-99 1197,-99"/>
<polyline fill="none" stroke="black" points="1091,-76 1197,-76"/>
<text text-anchor="start" x="1142" y="-60.8" font-family="Times,serif" font-size="14.00" fill="red"> </text>
</g>
<!-- calcipy.md_writer._writer._ReplacementMachine -->
<g id="node11" class="node">
<title>calcipy.md_writer._writer._ReplacementMachine</title>
<polygon fill="none" stroke="black" points="1215.5,-45.5 1215.5,-129.5 1676.5,-129.5 1676.5,-45.5 1215.5,-45.5"/>
<text text-anchor="start" x="1382.5" y="-114.3" font-family="Times,serif" font-size="14.00">_ReplacementMachine</text>
<polyline fill="none" stroke="black" points="1215.5,-106.5 1676.5,-106.5"/>
<text text-anchor="start" x="1406" y="-91.3" font-family="Times,serif" font-size="14.00">state_auto : str</text>
<text text-anchor="start" x="1406" y="-76.3" font-family="Times,serif" font-size="14.00">state_user : str</text>
<polyline fill="none" stroke="black" points="1215.5,-68.5 1676.5,-68.5"/>
<text text-anchor="start" x="1223.5" y="-53.3" font-family="Times,serif" font-size="14.00">parse(lines: List[str], handler_lookup: HandlerLookupT, path_file: Path): List[str]</text>
</g>
<!-- calcipy.code_tag_collector._collector._Tags -->
<g id="node12" class="node">
<title>calcipy.code_tag_collector._collector._Tags</title>
<polygon fill="none" stroke="black" points="1695,-45.5 1695,-129.5 1863,-129.5 1863,-45.5 1695,-45.5"/>
<text text-anchor="start" x="1762" y="-114.3" font-family="Times,serif" font-size="14.00">_Tags</text>
<polyline fill="none" stroke="black" points="1695,-106.5 1863,-106.5"/>
<text text-anchor="start" x="1703" y="-91.3" font-family="Times,serif" font-size="14.00">code_tags : List[_CodeTag]</text>
<text text-anchor="start" x="1703" y="-76.3" font-family="Times,serif" font-size="14.00">path_source : Path</text>
<polyline fill="none" stroke="black" points="1695,-68.5 1863,-68.5"/>
<text text-anchor="start" x="1777" y="-53.3" font-family="Times,serif" font-size="14.00"> </text>
</g>
</g>
</svg>
