<?xml version="1.0" encoding="UTF-8" standalone="no"?>
<!DOCTYPE svg PUBLIC "-//W3C//DTD SVG 1.1//EN"
 "http://www.w3.org/Graphics/SVG/1.1/DTD/svg11.dtd">
<!-- Generated by graphviz version 8.0.5 (20230430.1635)
 -->
<!-- Title: classes Pages: 1 -->
<svg width="2357pt" height="412pt"
 viewBox="0.00 0.00 2357.25 412.00" xmlns="http://www.w3.org/2000/svg" xmlns:xlink="http://www.w3.org/1999/xlink">
<g id="graph0" class="graph" transform="scale(1 1) rotate(0) translate(4 408)">
<title>classes</title>
<polygon fill="white" stroke="none" points="-4,4 -4,-408 2353.25,-408 2353.25,4 -4,4"/>
<!-- calcipy.cli.CalcipyConfig -->
<g id="node1" class="node">
<title>calcipy.cli.CalcipyConfig</title>
<polygon fill="none" stroke="black" points="0,-354.5 0,-403.5 139,-403.5 139,-354.5 0,-354.5"/>
<text text-anchor="start" x="29.75" y="-386.2" font-family="Times,serif" font-size="14.00">CalcipyConfig</text>
<polyline fill="none" stroke="black" points="0,-379 139,-379"/>
<polyline fill="none" stroke="black" points="0,-379 139,-379"/>
<text text-anchor="start" x="8" y="-361.7" font-family="Times,serif" font-size="14.00">global_defaults(): Dict</text>
</g>
<!-- calcipy.code_tag_collector._collector._CodeTag.Config -->
<g id="node2" class="node">
<title>calcipy.code_tag_collector._collector._CodeTag.Config</title>
<polygon fill="none" stroke="black" points="151.62,-58.25 151.62,-131.75 237.38,-131.75 237.38,-58.25 151.62,-58.25"/>
<text text-anchor="start" x="175.75" y="-114.45" font-family="Times,serif" font-size="14.00">Config</text>
<polyline fill="none" stroke="black" points="151.62,-107.25 237.38,-107.25"/>
<text text-anchor="start" x="159.62" y="-89.95" font-family="Times,serif" font-size="14.00">frozen : bool</text>
<polyline fill="none" stroke="black" points="151.62,-82.75 237.38,-82.75"/>
<text text-anchor="start" x="192.62" y="-65.45" font-family="Times,serif" font-size="14.00"> </text>
</g>
<!-- calcipy.code_tag_collector._collector._Tags.Config -->
<g id="node3" class="node">
<title>calcipy.code_tag_collector._collector._Tags.Config</title>
<polygon fill="none" stroke="black" points="255.62,-58.25 255.62,-131.75 341.38,-131.75 341.38,-58.25 255.62,-58.25"/>
<text text-anchor="start" x="279.75" y="-114.45" font-family="Times,serif" font-size="14.00">Config</text>
<polyline fill="none" stroke="black" points="255.62,-107.25 341.38,-107.25"/>
<text text-anchor="start" x="263.62" y="-89.95" font-family="Times,serif" font-size="14.00">frozen : bool</text>
<polyline fill="none" stroke="black" points="255.62,-82.75 341.38,-82.75"/>
<text text-anchor="start" x="296.62" y="-65.45" font-family="Times,serif" font-size="14.00"> </text>
</g>
<!-- calcipy.check_for_stale_packages._check_for_stale_packages._HostedPythonPackage.Config -->
<g id="node4" class="node">
<title>calcipy.check_for_stale_packages._check_for_stale_packages._HostedPythonPackage.Config</title>
<polygon fill="none" stroke="black" points="359.25,-50 359.25,-140 541.75,-140 541.75,-50 359.25,-50"/>
<text text-anchor="start" x="431.75" y="-122.7" font-family="Times,serif" font-size="14.00">Config</text>
<polyline fill="none" stroke="black" points="359.25,-115.5 541.75,-115.5"/>
<text text-anchor="start" x="367.25" y="-98.2" font-family="Times,serif" font-size="14.00">arbitrary_types_allowed : bool</text>
<text text-anchor="start" x="367.25" y="-81.7" font-family="Times,serif" font-size="14.00">json_encoders : dict</text>
<polyline fill="none" stroke="black" points="359.25,-74.5 541.75,-74.5"/>
<text text-anchor="start" x="448.62" y="-57.2" font-family="Times,serif" font-size="14.00"> </text>
</g>
<!-- calcipy.cli.GlobalTaskOptions -->
<g id="node5" class="node">
<title>calcipy.cli.GlobalTaskOptions</title>
<polygon fill="none" stroke="black" points="5.25,-0.5 5.25,-189.5 133.75,-189.5 133.75,-0.5 5.25,-0.5"/>
<text text-anchor="start" x="16.62" y="-172.2" font-family="Times,serif" font-size="14.00">GlobalTaskOptions</text>
<polyline fill="none" stroke="black" points="5.25,-165 133.75,-165"/>
<text text-anchor="start" x="13.25" y="-147.7" font-family="Times,serif" font-size="14.00">file_args</text>
<text text-anchor="start" x="13.25" y="-131.2" font-family="Times,serif" font-size="14.00">file_args : List[Path]</text>
<text text-anchor="start" x="13.25" y="-114.7" font-family="Times,serif" font-size="14.00">keep_going : bool</text>
<text text-anchor="start" x="13.25" y="-98.2" font-family="Times,serif" font-size="14.00">keep_going : bool</text>
<text text-anchor="start" x="13.25" y="-81.7" font-family="Times,serif" font-size="14.00">verbose</text>
<text text-anchor="start" x="13.25" y="-65.2" font-family="Times,serif" font-size="14.00">verbose : int</text>
<text text-anchor="start" x="13.25" y="-48.7" font-family="Times,serif" font-size="14.00">working_dir : Path</text>
<text text-anchor="start" x="13.25" y="-32.2" font-family="Times,serif" font-size="14.00">working_dir : Path</text>
<polyline fill="none" stroke="black" points="5.25,-25 133.75,-25"/>
<text text-anchor="start" x="67.62" y="-7.7" font-family="Times,serif" font-size="14.00"> </text>
</g>
<!-- calcipy.cli.start_program._CalcipyConfig -->
<g id="node6" class="node">
<title>calcipy.cli.start_program._CalcipyConfig</title>
<polygon fill="none" stroke="black" points="18.38,-243 18.38,-316.5 120.62,-316.5 120.62,-243 18.38,-243"/>
<text text-anchor="start" x="26.38" y="-299.2" font-family="Times,serif" font-size="14.00">_CalcipyConfig</text>
<polyline fill="none" stroke="black" points="18.38,-292 120.62,-292"/>
<text text-anchor="start" x="60.88" y="-274.7" font-family="Times,serif" font-size="14.00">gto</text>
<polyline fill="none" stroke="black" points="18.38,-267.5 120.62,-267.5"/>
<text text-anchor="start" x="67.62" y="-250.2" font-family="Times,serif" font-size="14.00"> </text>
</g>
<!-- calcipy.cli.GlobalTaskOptions&#45;&gt;calcipy.cli.start_program._CalcipyConfig -->
<g id="edge2" class="edge">
<title>calcipy.cli.GlobalTaskOptions&#45;&gt;calcipy.cli.start_program._CalcipyConfig</title>
<path fill="none" stroke="black" d="M69.5,-189.25C69.5,-203.49 69.5,-217.66 69.5,-230.4"/>
<polygon fill="black" stroke="black" points="69.5,-230.18 73.5,-236.18 69.5,-242.18 65.5,-236.18 69.5,-230.18"/>
<text text-anchor="middle" x="78.12" y="-211.2" font-family="Times,serif" font-size="14.00" fill="green">gto</text>
</g>
<!-- calcipy.cli.start_program._CalcipyConfig&#45;&gt;calcipy.cli.CalcipyConfig -->
<g id="edge1" class="edge">
<title>calcipy.cli.start_program._CalcipyConfig&#45;&gt;calcipy.cli.CalcipyConfig</title>
<path fill="none" stroke="black" d="M69.5,-316.41C69.5,-325.41 69.5,-335.04 69.5,-343.95"/>
<polygon fill="none" stroke="black" points="66,-343.76 69.5,-353.76 73,-343.76 66,-343.76"/>
</g>
<!-- calcipy.cli._CalcipyProgram -->
<g id="node7" class="node">
<title>calcipy.cli._CalcipyProgram</title>
<polygon fill="none" stroke="black" points="559.88,-70.5 559.88,-119.5 677.12,-119.5 677.12,-70.5 559.88,-70.5"/>
<text text-anchor="start" x="570.5" y="-102.2" font-family="Times,serif" font-size="14.00">_CalcipyProgram</text>
<polyline fill="none" stroke="black" points="559.88,-95 677.12,-95"/>
<polyline fill="none" stroke="black" points="559.88,-95 677.12,-95"/>
<text text-anchor="start" x="567.88" y="-77.7" font-family="Times,serif" font-size="14.00">print_help(): None</text>
</g>
<!-- calcipy.code_tag_collector._collector._CodeTag -->
<g id="node8" class="node">
<title>calcipy.code_tag_collector._collector._CodeTag</title>
<polygon fill="none" stroke="black" points="694.88,-41.75 694.88,-148.25 770.12,-148.25 770.12,-41.75 694.88,-41.75"/>
<text text-anchor="start" x="704.38" y="-130.95" font-family="Times,serif" font-size="14.00">_CodeTag</text>
<polyline fill="none" stroke="black" points="694.88,-123.75 770.12,-123.75"/>
<text text-anchor="start" x="702.88" y="-106.45" font-family="Times,serif" font-size="14.00">lineno : int</text>
<text text-anchor="start" x="702.88" y="-89.95" font-family="Times,serif" font-size="14.00">tag : str</text>
<text text-anchor="start" x="702.88" y="-73.45" font-family="Times,serif" font-size="14.00">text : str</text>
<polyline fill="none" stroke="black" points="694.88,-66.25 770.12,-66.25"/>
<text text-anchor="start" x="730.62" y="-48.95" font-family="Times,serif" font-size="14.00"> </text>
</g>
<!-- calcipy.code_tag_collector._collector._CollectorRow -->
<g id="node9" class="node">
<title>calcipy.code_tag_collector._collector._CollectorRow</title>
<polygon fill="none" stroke="black" points="788.25,-33.5 788.25,-156.5 1264.75,-156.5 1264.75,-33.5 788.25,-33.5"/>
<text text-anchor="start" x="985.25" y="-139.2" font-family="Times,serif" font-size="14.00">_CollectorRow</text>
<polyline fill="none" stroke="black" points="788.25,-132 1264.75,-132"/>
<text text-anchor="start" x="984.12" y="-114.7" font-family="Times,serif" font-size="14.00">comment : str</text>
<text text-anchor="start" x="984.12" y="-98.2" font-family="Times,serif" font-size="14.00">last_edit : str</text>
<text text-anchor="start" x="984.12" y="-81.7" font-family="Times,serif" font-size="14.00">source_file : str</text>
<text text-anchor="start" x="984.12" y="-65.2" font-family="Times,serif" font-size="14.00">tag_name : str</text>
<polyline fill="none" stroke="black" points="788.25,-58 1264.75,-58"/>
<text text-anchor="start" x="796.25" y="-40.7" font-family="Times,serif" font-size="14.00">from_code_tag(code_tag: _CodeTag, last_edit: str, source_file: str): &#39;_CollectorRow&#39;</text>
</g>
<!-- calcipy.check_for_stale_packages._check_for_stale_packages._HostedPythonPackage -->
<g id="node10" class="node">
<title>calcipy.check_for_stale_packages._check_for_stale_packages._HostedPythonPackage</title>
<polygon fill="none" stroke="black" points="1283.25,-17 1283.25,-173 1561.75,-173 1561.75,-17 1283.25,-17"/>
<text text-anchor="start" x="1358.38" y="-155.7" font-family="Times,serif" font-size="14.00">_HostedPythonPackage</text>
<polyline fill="none" stroke="black" points="1283.25,-148.5 1561.75,-148.5"/>
<text text-anchor="start" x="1329.88" y="-131.2" font-family="Times,serif" font-size="14.00">datetime : Optional[Arrow]</text>
<text text-anchor="start" x="1329.88" y="-114.7" font-family="Times,serif" font-size="14.00">domain : str</text>
<text text-anchor="start" x="1329.88" y="-98.2" font-family="Times,serif" font-size="14.00">latest_datetime : Optional[Arrow]</text>
<text text-anchor="start" x="1329.88" y="-81.7" font-family="Times,serif" font-size="14.00">latest_version : str</text>
<text text-anchor="start" x="1329.88" y="-65.2" font-family="Times,serif" font-size="14.00">name : str</text>
<text text-anchor="start" x="1329.88" y="-48.7" font-family="Times,serif" font-size="14.00">version : str</text>
<polyline fill="none" stroke="black" points="1283.25,-41.5 1561.75,-41.5"/>
<text text-anchor="start" x="1291.25" y="-24.2" font-family="Times,serif" font-size="14.00">date_validator(value: Union[str, Arrow]): Arrow</text>
</g>
<!-- calcipy.md_writer._writer._ParseSkipError -->
<g id="node11" class="node">
<title>calcipy.md_writer._writer._ParseSkipError</title>
<polygon fill="none" stroke="black" points="1579.88,-70.5 1579.88,-119.5 1685.12,-119.5 1685.12,-70.5 1579.88,-70.5"/>
<text text-anchor="start" x="1587.88" y="-102.2" font-family="Times,serif" font-size="14.00" fill="red">_ParseSkipError</text>
<polyline fill="none" stroke="black" points="1579.88,-95 1685.12,-95"/>
<polyline fill="none" stroke="black" points="1579.88,-95 1685.12,-95"/>
<text text-anchor="start" x="1630.62" y="-77.7" font-family="Times,serif" font-size="14.00" fill="red"> </text>
</g>
<!-- calcipy.md_writer._writer._ReplacementMachine -->
<g id="node12" class="node">
<title>calcipy.md_writer._writer._ReplacementMachine</title>
<polygon fill="none" stroke="black" points="1703.12,-50 1703.12,-140 2163.88,-140 2163.88,-50 1703.12,-50"/>
<text text-anchor="start" x="1870.5" y="-122.7" font-family="Times,serif" font-size="14.00">_ReplacementMachine</text>
<polyline fill="none" stroke="black" points="1703.12,-115.5 2163.88,-115.5"/>
<text text-anchor="start" x="1893.75" y="-98.2" font-family="Times,serif" font-size="14.00">state_auto : str</text>
<text text-anchor="start" x="1893.75" y="-81.7" font-family="Times,serif" font-size="14.00">state_user : str</text>
<polyline fill="none" stroke="black" points="1703.12,-74.5 2163.88,-74.5"/>
<text text-anchor="start" x="1711.12" y="-57.2" font-family="Times,serif" font-size="14.00">parse(lines: List[str], handler_lookup: HandlerLookupT, path_file: Path): List[str]</text>
</g>
<!-- calcipy.code_tag_collector._collector._Tags -->
<g id="node13" class="node">
<title>calcipy.code_tag_collector._collector._Tags</title>
<polygon fill="none" stroke="black" points="2181.75,-50 2181.75,-140 2349.25,-140 2349.25,-50 2181.75,-50"/>
<text text-anchor="start" x="2249" y="-122.7" font-family="Times,serif" font-size="14.00">_Tags</text>
<polyline fill="none" stroke="black" points="2181.75,-115.5 2349.25,-115.5"/>
<text text-anchor="start" x="2189.75" y="-98.2" font-family="Times,serif" font-size="14.00">code_tags : List[_CodeTag]</text>
<text text-anchor="start" x="2189.75" y="-81.7" font-family="Times,serif" font-size="14.00">path_source : Path</text>
<polyline fill="none" stroke="black" points="2181.75,-74.5 2349.25,-74.5"/>
<text text-anchor="start" x="2263.62" y="-57.2" font-family="Times,serif" font-size="14.00"> </text>
</g>
</g>
</svg>
