<?xml version="1.0" encoding="UTF-8" standalone="no"?>
<!DOCTYPE svg PUBLIC "-//W3C//DTD SVG 1.1//EN"
 "http://www.w3.org/Graphics/SVG/1.1/DTD/svg11.dtd">
<!-- Generated by graphviz version 8.1.0 (20230707.0739)
 -->
<!-- Title: packages Pages: 1 -->
<svg width="3295pt" height="188pt"
 viewBox="0.00 0.00 3295.00 188.00" xmlns="http://www.w3.org/2000/svg" xmlns:xlink="http://www.w3.org/1999/xlink">
<g id="graph0" class="graph" transform="scale(1 1) rotate(0) translate(4 184)">
<title>packages</title>
<polygon fill="white" stroke="none" points="-4,4 -4,-184 3291,-184 3291,4 -4,4"/>
<!-- calcipy -->
<g id="node1" class="node">
<title>calcipy</title>
<polygon fill="none" stroke="black" points="55,-36 0,-36 0,0 55,0 55,-36"/>
<text text-anchor="middle" x="27.5" y="-12.95" font-family="Times,serif" font-size="14.00">calcipy</text>
</g>
<!-- calcipy.can_skip -->
<g id="node2" class="node">
<title>calcipy.can_skip</title>
<polygon fill="none" stroke="black" points="179.5,-36 73.5,-36 73.5,0 179.5,0 179.5,-36"/>
<text text-anchor="middle" x="126.5" y="-12.95" font-family="Times,serif" font-size="14.00">calcipy.can_skip</text>
</g>
<!-- calcipy.check_for_stale_packages -->
<g id="node3" class="node">
<title>calcipy.check_for_stale_packages</title>
<polygon fill="none" stroke="black" points="397.38,-36 197.62,-36 197.62,0 397.38,0 397.38,-36"/>
<text text-anchor="middle" x="297.5" y="-12.95" font-family="Times,serif" font-size="14.00">calcipy.check_for_stale_packages</text>
</g>
<!-- calcipy.check_for_stale_packages._check_for_stale_packages -->
<g id="node4" class="node">
<title>calcipy.check_for_stale_packages._check_for_stale_packages</title>
<polygon fill="none" stroke="black" points="473.5,-108 121.5,-108 121.5,-72 473.5,-72 473.5,-108"/>
<text text-anchor="middle" x="297.5" y="-84.95" font-family="Times,serif" font-size="14.00">calcipy.check_for_stale_packages._check_for_stale_packages</text>
</g>
<!-- calcipy.check_for_stale_packages&#45;&gt;calcipy.check_for_stale_packages._check_for_stale_packages -->
<g id="edge1" class="edge">
<title>calcipy.check_for_stale_packages&#45;&gt;calcipy.check_for_stale_packages._check_for_stale_packages</title>
<path fill="none" stroke="black" d="M297.5,-36.3C297.5,-44.1 297.5,-53.49 297.5,-62.17"/>
<polygon fill="black" stroke="black" points="297.5,-71.9 293,-61.9 297.5,-66.9 297.5,-61.9 297.5,-61.9 297.5,-61.9 297.5,-66.9 302,-61.9 297.5,-71.9 297.5,-71.9"/>
</g>
<!-- calcipy.cli -->
<g id="node5" class="node">
<title>calcipy.cli</title>
<polygon fill="none" stroke="black" points="563.25,-108 491.75,-108 491.75,-72 563.25,-72 563.25,-108"/>
<text text-anchor="middle" x="527.5" y="-84.95" font-family="Times,serif" font-size="14.00">calcipy.cli</text>
</g>
<!-- calcipy.invoke_helpers -->
<g id="node13" class="node">
<title>calcipy.invoke_helpers</title>
<polygon fill="none" stroke="black" points="597.75,-180 457.25,-180 457.25,-144 597.75,-144 597.75,-180"/>
<text text-anchor="middle" x="527.5" y="-156.95" font-family="Times,serif" font-size="14.00">calcipy.invoke_helpers</text>
</g>
<!-- calcipy.cli&#45;&gt;calcipy.invoke_helpers -->
<g id="edge2" class="edge">
<title>calcipy.cli&#45;&gt;calcipy.invoke_helpers</title>
<path fill="none" stroke="black" d="M527.5,-108.3C527.5,-116.1 527.5,-125.49 527.5,-134.17"/>
<polygon fill="black" stroke="black" points="527.5,-143.9 523,-133.9 527.5,-138.9 527.5,-133.9 527.5,-133.9 527.5,-133.9 527.5,-138.9 532,-133.9 527.5,-143.9 527.5,-143.9"/>
</g>
<!-- calcipy.code_tag_collector -->
<g id="node6" class="node">
<title>calcipy.code_tag_collector</title>
<polygon fill="none" stroke="black" points="2213.88,-36 2053.12,-36 2053.12,0 2213.88,0 2213.88,-36"/>
<text text-anchor="middle" x="2133.5" y="-12.95" font-family="Times,serif" font-size="14.00">calcipy.code_tag_collector</text>
</g>
<!-- calcipy.code_tag_collector._collector -->
<g id="node7" class="node">
<title>calcipy.code_tag_collector._collector</title>
<polygon fill="none" stroke="black" points="2242.38,-108 2024.62,-108 2024.62,-72 2242.38,-72 2242.38,-108"/>
<text text-anchor="middle" x="2133.5" y="-84.95" font-family="Times,serif" font-size="14.00">calcipy.code_tag_collector._collector</text>
</g>
<!-- calcipy.code_tag_collector&#45;&gt;calcipy.code_tag_collector._collector -->
<g id="edge3" class="edge">
<title>calcipy.code_tag_collector&#45;&gt;calcipy.code_tag_collector._collector</title>
<path fill="none" stroke="black" d="M2133.5,-36.3C2133.5,-44.1 2133.5,-53.49 2133.5,-62.17"/>
<polygon fill="black" stroke="black" points="2133.5,-71.9 2129,-61.9 2133.5,-66.9 2133.5,-61.9 2133.5,-61.9 2133.5,-61.9 2133.5,-66.9 2138,-61.9 2133.5,-71.9 2133.5,-71.9"/>
</g>
<!-- calcipy.dot_dict -->
<g id="node8" class="node">
<title>calcipy.dot_dict</title>
<polygon fill="none" stroke="black" points="2389.62,-36 2287.38,-36 2287.38,0 2389.62,0 2389.62,-36"/>
<text text-anchor="middle" x="2338.5" y="-12.95" font-family="Times,serif" font-size="14.00">calcipy.dot_dict</text>
</g>
<!-- calcipy.dot_dict._dot_dict -->
<g id="node9" class="node">
<title>calcipy.dot_dict._dot_dict</title>
<polygon fill="none" stroke="black" points="2417,-108 2260,-108 2260,-72 2417,-72 2417,-108"/>
<text text-anchor="middle" x="2338.5" y="-84.95" font-family="Times,serif" font-size="14.00">calcipy.dot_dict._dot_dict</text>
</g>
<!-- calcipy.dot_dict&#45;&gt;calcipy.dot_dict._dot_dict -->
<g id="edge4" class="edge">
<title>calcipy.dot_dict&#45;&gt;calcipy.dot_dict._dot_dict</title>
<path fill="none" stroke="black" d="M2338.5,-36.3C2338.5,-44.1 2338.5,-53.49 2338.5,-62.17"/>
<polygon fill="black" stroke="black" points="2338.5,-71.9 2334,-61.9 2338.5,-66.9 2338.5,-61.9 2338.5,-61.9 2338.5,-61.9 2338.5,-66.9 2343,-61.9 2338.5,-71.9 2338.5,-71.9"/>
</g>
<!-- calcipy.experiments -->
<g id="node10" class="node">
<title>calcipy.experiments</title>
<polygon fill="none" stroke="black" points="2532.88,-36 2408.12,-36 2408.12,0 2532.88,0 2532.88,-36"/>
<text text-anchor="middle" x="2470.5" y="-12.95" font-family="Times,serif" font-size="14.00">calcipy.experiments</text>
</g>
<!-- calcipy.experiments.check_duplicate_test_names -->
<g id="node11" class="node">
<title>calcipy.experiments.check_duplicate_test_names</title>
<polygon fill="none" stroke="black" points="2834.38,-36 2550.62,-36 2550.62,0 2834.38,0 2834.38,-36"/>
<text text-anchor="middle" x="2692.5" y="-12.95" font-family="Times,serif" font-size="14.00">calcipy.experiments.check_duplicate_test_names</text>
</g>
<!-- calcipy.file_search -->
<g id="node12" class="node">
<title>calcipy.file_search</title>
<polygon fill="none" stroke="black" points="2970.12,-36 2852.88,-36 2852.88,0 2970.12,0 2970.12,-36"/>
<text text-anchor="middle" x="2911.5" y="-12.95" font-family="Times,serif" font-size="14.00">calcipy.file_search</text>
</g>
<!-- calcipy.md_writer -->
<g id="node14" class="node">
<title>calcipy.md_writer</title>
<polygon fill="none" stroke="black" points="3103,-36 2988,-36 2988,0 3103,0 3103,-36"/>
<text text-anchor="middle" x="3045.5" y="-12.95" font-family="Times,serif" font-size="14.00">calcipy.md_writer</text>
</g>
<!-- calcipy.md_writer._writer -->
<g id="node15" class="node">
<title>calcipy.md_writer._writer</title>
<polygon fill="none" stroke="black" points="3124,-108 2967,-108 2967,-72 3124,-72 3124,-108"/>
<text text-anchor="middle" x="3045.5" y="-84.95" font-family="Times,serif" font-size="14.00">calcipy.md_writer._writer</text>
</g>
<!-- calcipy.md_writer&#45;&gt;calcipy.md_writer._writer -->
<g id="edge5" class="edge">
<title>calcipy.md_writer&#45;&gt;calcipy.md_writer._writer</title>
<path fill="none" stroke="black" d="M3045.5,-36.3C3045.5,-44.1 3045.5,-53.49 3045.5,-62.17"/>
<polygon fill="black" stroke="black" points="3045.5,-71.9 3041,-61.9 3045.5,-66.9 3045.5,-61.9 3045.5,-61.9 3045.5,-61.9 3045.5,-66.9 3050,-61.9 3045.5,-71.9 3045.5,-71.9"/>
</g>
<!-- calcipy.noxfile -->
<g id="node16" class="node">
<title>calcipy.noxfile</title>
<polygon fill="none" stroke="black" points="3262.62,-36 3166.38,-36 3166.38,0 3262.62,0 3262.62,-36"/>
<text text-anchor="middle" x="3214.5" y="-12.95" font-family="Times,serif" font-size="14.00">calcipy.noxfile</text>
</g>
<!-- calcipy.noxfile._noxfile -->
<g id="node17" class="node">
<title>calcipy.noxfile._noxfile</title>
<polygon fill="none" stroke="black" points="3287,-108 3142,-108 3142,-72 3287,-72 3287,-108"/>
<text text-anchor="middle" x="3214.5" y="-84.95" font-family="Times,serif" font-size="14.00">calcipy.noxfile._noxfile</text>
</g>
<!-- calcipy.noxfile&#45;&gt;calcipy.noxfile._noxfile -->
<g id="edge6" class="edge">
<title>calcipy.noxfile&#45;&gt;calcipy.noxfile._noxfile</title>
<path fill="none" stroke="black" d="M3214.5,-36.3C3214.5,-44.1 3214.5,-53.49 3214.5,-62.17"/>
<polygon fill="black" stroke="black" points="3214.5,-71.9 3210,-61.9 3214.5,-66.9 3214.5,-61.9 3214.5,-61.9 3214.5,-61.9 3214.5,-66.9 3219,-61.9 3214.5,-71.9 3214.5,-71.9"/>
</g>
<!-- calcipy.scripts -->
<g id="node18" class="node">
<title>calcipy.scripts</title>
<polygon fill="none" stroke="black" points="936.12,-36 842.88,-36 842.88,0 936.12,0 936.12,-36"/>
<text text-anchor="middle" x="889.5" y="-12.95" font-family="Times,serif" font-size="14.00">calcipy.scripts</text>
</g>
<!-- calcipy.scripts&#45;&gt;calcipy.cli -->
<g id="edge7" class="edge">
<title>calcipy.scripts&#45;&gt;calcipy.cli</title>
<path fill="none" stroke="black" d="M842.51,-23.8C781.78,-30.67 672.83,-45.25 572.67,-71.94"/>
<polygon fill="black" stroke="black" points="563.32,-74.48 571.79,-67.52 568.14,-73.17 572.97,-71.86 572.97,-71.86 572.97,-71.86 568.14,-73.17 574.15,-76.2 563.32,-74.48 563.32,-74.48"/>
</g>
<!-- calcipy.tasks -->
<g id="node19" class="node">
<title>calcipy.tasks</title>
<polygon fill="none" stroke="black" points="666,-108 581,-108 581,-72 666,-72 666,-108"/>
<text text-anchor="middle" x="623.5" y="-84.95" font-family="Times,serif" font-size="14.00">calcipy.tasks</text>
</g>
<!-- calcipy.scripts&#45;&gt;calcipy.tasks -->
<g id="edge8" class="edge">
<title>calcipy.scripts&#45;&gt;calcipy.tasks</title>
<path fill="none" stroke="black" d="M842.48,-29.6C800.99,-39.19 738.7,-54.16 675.59,-72.08"/>
<polygon fill="black" stroke="black" points="666.27,-74.74 674.65,-67.66 671.08,-73.37 675.89,-71.99 675.89,-71.99 675.89,-71.99 671.08,-73.37 677.12,-76.32 666.27,-74.74 666.27,-74.74"/>
</g>
<!-- calcipy.tasks.all_tasks -->
<g id="node20" class="node">
<title>calcipy.tasks.all_tasks</title>
<polygon fill="none" stroke="black" points="820.5,-108 684.5,-108 684.5,-72 820.5,-72 820.5,-108"/>
<text text-anchor="middle" x="752.5" y="-84.95" font-family="Times,serif" font-size="14.00">calcipy.tasks.all_tasks</text>
</g>
<!-- calcipy.scripts&#45;&gt;calcipy.tasks.all_tasks -->
<g id="edge9" class="edge">
<title>calcipy.scripts&#45;&gt;calcipy.tasks.all_tasks</title>
<path fill="none" stroke="black" d="M855.28,-36.48C837,-45.82 814.33,-57.41 794.93,-67.32"/>
<polygon fill="black" stroke="black" points="786.28,-71.74 793.14,-63.18 790.73,-69.46 795.19,-67.19 795.19,-67.19 795.19,-67.19 790.73,-69.46 797.23,-71.2 786.28,-71.74 786.28,-71.74"/>
</g>
<!-- calcipy.tasks.defaults -->
<g id="node22" class="node">
<title>calcipy.tasks.defaults</title>
<polygon fill="none" stroke="black" points="955.25,-180 823.75,-180 823.75,-144 955.25,-144 955.25,-180"/>
<text text-anchor="middle" x="889.5" y="-156.95" font-family="Times,serif" font-size="14.00">calcipy.tasks.defaults</text>
</g>
<!-- calcipy.scripts&#45;&gt;calcipy.tasks.defaults -->
<g id="edge10" class="edge">
<title>calcipy.scripts&#45;&gt;calcipy.tasks.defaults</title>
<path fill="none" stroke="black" d="M880.37,-36.12C875.49,-46.24 869.99,-59.49 867.5,-72 864.37,-87.69 864.37,-92.31 867.5,-108 869.31,-117.09 872.71,-126.57 876.3,-134.95"/>
<polygon fill="black" stroke="black" points="880.37,-143.88 872.13,-136.64 878.3,-139.33 876.22,-134.78 876.22,-134.78 876.22,-134.78 878.3,-139.33 880.32,-132.91 880.37,-143.88 880.37,-143.88"/>
</g>
<!-- calcipy.tasks.lint -->
<g id="node25" class="node">
<title>calcipy.tasks.lint</title>
<polygon fill="none" stroke="black" points="1236.88,-108 1130.12,-108 1130.12,-72 1236.88,-72 1236.88,-108"/>
<text text-anchor="middle" x="1183.5" y="-84.95" font-family="Times,serif" font-size="14.00">calcipy.tasks.lint</text>
</g>
<!-- calcipy.scripts&#45;&gt;calcipy.tasks.lint -->
<g id="edge11" class="edge">
<title>calcipy.scripts&#45;&gt;calcipy.tasks.lint</title>
<path fill="none" stroke="black" d="M936.3,-29.07C981.24,-38.88 1051.25,-54.53 1120.45,-71.78"/>
<polygon fill="black" stroke="black" points="1129.77,-74.12 1118.97,-76.05 1124.92,-72.9 1120.07,-71.69 1120.07,-71.69 1120.07,-71.69 1124.92,-72.9 1121.16,-67.32 1129.77,-74.12 1129.77,-74.12"/>
</g>
<!-- calcipy.tasks.pack -->
<g id="node27" class="node">
<title>calcipy.tasks.pack</title>
<polygon fill="none" stroke="black" points="1369.62,-108 1255.38,-108 1255.38,-72 1369.62,-72 1369.62,-108"/>
<text text-anchor="middle" x="1312.5" y="-84.95" font-family="Times,serif" font-size="14.00">calcipy.tasks.pack</text>
</g>
<!-- calcipy.scripts&#45;&gt;calcipy.tasks.pack -->
<g id="edge12" class="edge">
<title>calcipy.scripts&#45;&gt;calcipy.tasks.pack</title>
<path fill="none" stroke="black" d="M936.41,-24.46C1002.95,-32.53 1128.68,-49.02 1245.72,-72.16"/>
<polygon fill="black" stroke="black" points="1255.2,-74.06 1244.52,-76.51 1250.3,-73.08 1245.4,-72.1 1245.4,-72.1 1245.4,-72.1 1250.3,-73.08 1246.28,-67.69 1255.2,-74.06 1255.2,-74.06"/>
</g>
<!-- calcipy.tasks.tags -->
<g id="node29" class="node">
<title>calcipy.tasks.tags</title>
<polygon fill="none" stroke="black" points="986.75,-108 876.25,-108 876.25,-72 986.75,-72 986.75,-108"/>
<text text-anchor="middle" x="931.5" y="-84.95" font-family="Times,serif" font-size="14.00">calcipy.tasks.tags</text>
</g>
<!-- calcipy.scripts&#45;&gt;calcipy.tasks.tags -->
<g id="edge13" class="edge">
<title>calcipy.scripts&#45;&gt;calcipy.tasks.tags</title>
<path fill="none" stroke="black" d="M899.88,-36.3C904.82,-44.53 910.81,-54.52 916.25,-63.58"/>
<polygon fill="black" stroke="black" points="921.24,-71.9 912.23,-65.64 918.66,-67.61 916.09,-63.32 916.09,-63.32 916.09,-63.32 918.66,-67.61 919.95,-61.01 921.24,-71.9 921.24,-71.9"/>
</g>
<!-- calcipy.tasks.types -->
<g id="node31" class="node">
<title>calcipy.tasks.types</title>
<polygon fill="none" stroke="black" points="1505.12,-108 1387.88,-108 1387.88,-72 1505.12,-72 1505.12,-108"/>
<text text-anchor="middle" x="1446.5" y="-84.95" font-family="Times,serif" font-size="14.00">calcipy.tasks.types</text>
</g>
<!-- calcipy.scripts&#45;&gt;calcipy.tasks.types -->
<g id="edge14" class="edge">
<title>calcipy.scripts&#45;&gt;calcipy.tasks.types</title>
<path fill="none" stroke="black" d="M936.32,-21.93C1022.08,-27.76 1210.17,-42.71 1377.89,-72.04"/>
<polygon fill="black" stroke="black" points="1387.63,-73.76 1377,-76.45 1382.71,-72.89 1377.79,-72.02 1377.79,-72.02 1377.79,-72.02 1382.71,-72.89 1378.57,-67.59 1387.63,-73.76 1387.63,-73.76"/>
</g>
<!-- calcipy.tasks.all_tasks&#45;&gt;calcipy.tasks.defaults -->
<g id="edge15" class="edge">
<title>calcipy.tasks.all_tasks&#45;&gt;calcipy.tasks.defaults</title>
<path fill="none" stroke="black" d="M786.72,-108.48C805,-117.82 827.67,-129.41 847.07,-139.32"/>
<polygon fill="black" stroke="black" points="855.72,-143.74 844.77,-143.2 851.27,-141.46 846.81,-139.19 846.81,-139.19 846.81,-139.19 851.27,-141.46 848.86,-135.18 855.72,-143.74 855.72,-143.74"/>
</g>
<!-- calcipy.tasks.cl -->
<g id="node21" class="node">
<title>calcipy.tasks.cl</title>
<polygon fill="none" stroke="black" points="1621.75,-108 1523.25,-108 1523.25,-72 1621.75,-72 1621.75,-108"/>
<text text-anchor="middle" x="1572.5" y="-84.95" font-family="Times,serif" font-size="14.00">calcipy.tasks.cl</text>
</g>
<!-- calcipy.tasks.executable_utils -->
<g id="node24" class="node">
<title>calcipy.tasks.executable_utils</title>
<polygon fill="none" stroke="black" points="1597.75,-180 1421.25,-180 1421.25,-144 1597.75,-144 1597.75,-180"/>
<text text-anchor="middle" x="1509.5" y="-156.95" font-family="Times,serif" font-size="14.00">calcipy.tasks.executable_utils</text>
</g>
<!-- calcipy.tasks.cl&#45;&gt;calcipy.tasks.executable_utils -->
<g id="edge16" class="edge">
<title>calcipy.tasks.cl&#45;&gt;calcipy.tasks.executable_utils</title>
<path fill="none" stroke="black" d="M1556.93,-108.3C1549.22,-116.86 1539.79,-127.34 1531.37,-136.7"/>
<polygon fill="black" stroke="black" points="1524.89,-143.9 1528.24,-133.45 1528.24,-140.18 1531.58,-136.46 1531.58,-136.46 1531.58,-136.46 1528.24,-140.18 1534.93,-139.47 1524.89,-143.9 1524.89,-143.9"/>
</g>
<!-- calcipy.tasks.doc -->
<g id="node23" class="node">
<title>calcipy.tasks.doc</title>
<polygon fill="none" stroke="black" points="1747.62,-108 1639.38,-108 1639.38,-72 1747.62,-72 1747.62,-108"/>
<text text-anchor="middle" x="1693.5" y="-84.95" font-family="Times,serif" font-size="14.00">calcipy.tasks.doc</text>
</g>
<!-- calcipy.tasks.doc&#45;&gt;calcipy.tasks.executable_utils -->
<g id="edge17" class="edge">
<title>calcipy.tasks.doc&#45;&gt;calcipy.tasks.executable_utils</title>
<path fill="none" stroke="black" d="M1647.54,-108.48C1622.31,-118.08 1590.85,-130.05 1564.34,-140.14"/>
<polygon fill="black" stroke="black" points="1555.19,-143.62 1562.94,-135.86 1559.86,-141.84 1564.54,-140.06 1564.54,-140.06 1564.54,-140.06 1559.86,-141.84 1566.14,-144.27 1555.19,-143.62 1555.19,-143.62"/>
</g>
<!-- calcipy.tasks.lint&#45;&gt;calcipy.tasks.executable_utils -->
<g id="edge18" class="edge">
<title>calcipy.tasks.lint&#45;&gt;calcipy.tasks.executable_utils</title>
<path fill="none" stroke="black" d="M1237.06,-105.7C1240.25,-106.5 1243.41,-107.27 1246.5,-108 1300.69,-120.76 1361.62,-133.16 1411.17,-142.75"/>
<polygon fill="black" stroke="black" points="1420.92,-144.63 1410.25,-147.16 1416.01,-143.68 1411.1,-142.74 1411.1,-142.74 1411.1,-142.74 1416.01,-143.68 1411.96,-138.32 1420.92,-144.63 1420.92,-144.63"/>
</g>
<!-- calcipy.tasks.nox -->
<g id="node26" class="node">
<title>calcipy.tasks.nox</title>
<polygon fill="none" stroke="black" points="1875,-108 1766,-108 1766,-72 1875,-72 1875,-108"/>
<text text-anchor="middle" x="1820.5" y="-84.95" font-family="Times,serif" font-size="14.00">calcipy.tasks.nox</text>
</g>
<!-- calcipy.tasks.nox&#45;&gt;calcipy.tasks.executable_utils -->
<g id="edge19" class="edge">
<title>calcipy.tasks.nox&#45;&gt;calcipy.tasks.executable_utils</title>
<path fill="none" stroke="black" d="M1765.73,-105.73C1762.61,-106.52 1759.52,-107.28 1756.5,-108 1706.83,-119.92 1651.23,-131.96 1605.38,-141.55"/>
<polygon fill="black" stroke="black" points="1595.75,-143.56 1604.62,-137.11 1600.64,-142.54 1605.54,-141.52 1605.54,-141.52 1605.54,-141.52 1600.64,-142.54 1606.46,-145.92 1595.75,-143.56 1595.75,-143.56"/>
</g>
<!-- calcipy.tasks.pack&#45;&gt;calcipy.tasks.executable_utils -->
<g id="edge20" class="edge">
<title>calcipy.tasks.pack&#45;&gt;calcipy.tasks.executable_utils</title>
<path fill="none" stroke="black" d="M1361.7,-108.48C1388.95,-118.17 1422.99,-130.26 1451.53,-140.4"/>
<polygon fill="black" stroke="black" points="1460.58,-143.62 1449.65,-144.51 1455.87,-141.94 1451.16,-140.27 1451.16,-140.27 1451.16,-140.27 1455.87,-141.94 1452.67,-136.03 1460.58,-143.62 1460.58,-143.62"/>
</g>
<!-- calcipy.tasks.stale -->
<g id="node28" class="node">
<title>calcipy.tasks.stale</title>
<polygon fill="none" stroke="black" points="2006.25,-108 1892.75,-108 1892.75,-72 2006.25,-72 2006.25,-108"/>
<text text-anchor="middle" x="1949.5" y="-84.95" font-family="Times,serif" font-size="14.00">calcipy.tasks.stale</text>
</g>
<!-- calcipy.tasks.stale&#45;&gt;calcipy.tasks.executable_utils -->
<g id="edge21" class="edge">
<title>calcipy.tasks.stale&#45;&gt;calcipy.tasks.executable_utils</title>
<path fill="none" stroke="black" d="M1892.35,-106.14C1889.37,-106.8 1886.4,-107.42 1883.5,-108 1790.52,-126.5 1683.28,-141.01 1607.54,-150.13"/>
<polygon fill="black" stroke="black" points="1598,-151.27 1607.4,-145.62 1602.97,-150.68 1607.93,-150.09 1607.93,-150.09 1607.93,-150.09 1602.97,-150.68 1608.47,-154.56 1598,-151.27 1598,-151.27"/>
</g>
<!-- calcipy.tasks.tags&#45;&gt;calcipy.tasks.defaults -->
<g id="edge22" class="edge">
<title>calcipy.tasks.tags&#45;&gt;calcipy.tasks.defaults</title>
<path fill="none" stroke="black" d="M921.12,-108.3C916.18,-116.53 910.19,-126.52 904.75,-135.58"/>
<polygon fill="black" stroke="black" points="899.76,-143.9 901.05,-133.01 902.34,-139.61 904.91,-135.32 904.91,-135.32 904.91,-135.32 902.34,-139.61 908.77,-137.64 899.76,-143.9 899.76,-143.9"/>
</g>
<!-- calcipy.tasks.test -->
<g id="node30" class="node">
<title>calcipy.tasks.test</title>
<polygon fill="none" stroke="black" points="1112.25,-108 1004.75,-108 1004.75,-72 1112.25,-72 1112.25,-108"/>
<text text-anchor="middle" x="1058.5" y="-84.95" font-family="Times,serif" font-size="14.00">calcipy.tasks.test</text>
</g>
<!-- calcipy.tasks.test&#45;&gt;calcipy.tasks.defaults -->
<g id="edge23" class="edge">
<title>calcipy.tasks.test&#45;&gt;calcipy.tasks.defaults</title>
<path fill="none" stroke="black" d="M1016.29,-108.48C993.32,-118 964.72,-129.84 940.51,-139.87"/>
<polygon fill="black" stroke="black" points="931.46,-143.62 938.98,-135.63 936.08,-141.7 940.7,-139.79 940.7,-139.79 940.7,-139.79 936.08,-141.7 942.43,-143.95 931.46,-143.62 931.46,-143.62"/>
</g>
<!-- calcipy.tasks.test&#45;&gt;calcipy.tasks.executable_utils -->
<g id="edge24" class="edge">
<title>calcipy.tasks.test&#45;&gt;calcipy.tasks.executable_utils</title>
<path fill="none" stroke="black" d="M1112.69,-106.09C1115.66,-106.77 1118.61,-107.42 1121.5,-108 1219.27,-127.78 1332.42,-142.3 1411.21,-151.09"/>
<polygon fill="black" stroke="black" points="1421.13,-152.18 1410.69,-155.56 1416.16,-151.63 1411.19,-151.09 1411.19,-151.09 1411.19,-151.09 1416.16,-151.63 1411.68,-146.61 1421.13,-152.18 1421.13,-152.18"/>
</g>
<!-- calcipy.tasks.types&#45;&gt;calcipy.tasks.executable_utils -->
<g id="edge25" class="edge">
<title>calcipy.tasks.types&#45;&gt;calcipy.tasks.executable_utils</title>
<path fill="none" stroke="black" d="M1462.07,-108.3C1469.78,-116.86 1479.21,-127.34 1487.63,-136.7"/>
<polygon fill="black" stroke="black" points="1494.11,-143.9 1484.07,-139.47 1490.76,-140.18 1487.42,-136.46 1487.42,-136.46 1487.42,-136.46 1490.76,-140.18 1490.76,-133.45 1494.11,-143.9 1494.11,-143.9"/>
</g>
</g>
</svg>
