<?xml version="1.0" encoding="UTF-8" standalone="no"?>
<!DOCTYPE svg PUBLIC "-//W3C//DTD SVG 1.1//EN"
 "http://www.w3.org/Graphics/SVG/1.1/DTD/svg11.dtd">
<!-- Generated by graphviz version 11.0.0 (20240428.1522)
 -->
<!-- Title: packages Pages: 1 -->
<svg width="3127pt" height="404pt"
 viewBox="0.00 0.00 3127.25 404.00" xmlns="http://www.w3.org/2000/svg" xmlns:xlink="http://www.w3.org/1999/xlink">
<g id="graph0" class="graph" transform="scale(1 1) rotate(0) translate(4 400)">
<title>packages</title>
<polygon fill="white" stroke="none" points="-4,4 -4,-400 3123.25,-400 3123.25,4 -4,4"/>
<!-- calcipy -->
<g id="node1" class="node">
<title>calcipy</title>
<polygon fill="none" stroke="black" points="55,-36 0,-36 0,0 55,0 55,-36"/>
<text text-anchor="middle" x="27.5" y="-12.95" font-family="Times,serif" font-size="14.00">calcipy</text>
</g>
<!-- calcipy.can_skip -->
<g id="node2" class="node">
<title>calcipy.can_skip</title>
<polygon fill="none" stroke="black" points="179.5,-36 73.5,-36 73.5,0 179.5,0 179.5,-36"/>
<text text-anchor="middle" x="126.5" y="-12.95" font-family="Times,serif" font-size="14.00">calcipy.can_skip</text>
</g>
<!-- calcipy.check_for_stale_packages -->
<g id="node3" class="node">
<title>calcipy.check_for_stale_packages</title>
<polygon fill="none" stroke="black" points="397.38,-36 197.62,-36 197.62,0 397.38,0 397.38,-36"/>
<text text-anchor="middle" x="297.5" y="-12.95" font-family="Times,serif" font-size="14.00">calcipy.check_for_stale_packages</text>
</g>
<!-- calcipy.check_for_stale_packages._check_for_stale_packages -->
<g id="node4" class="node">
<title>calcipy.check_for_stale_packages._check_for_stale_packages</title>
<polygon fill="none" stroke="black" points="473.5,-108 121.5,-108 121.5,-72 473.5,-72 473.5,-108"/>
<text text-anchor="middle" x="297.5" y="-84.95" font-family="Times,serif" font-size="14.00">calcipy.check_for_stale_packages._check_for_stale_packages</text>
</g>
<!-- calcipy.check_for_stale_packages&#45;&gt;calcipy.check_for_stale_packages._check_for_stale_packages -->
<g id="edge1" class="edge">
<title>calcipy.check_for_stale_packages&#45;&gt;calcipy.check_for_stale_packages._check_for_stale_packages</title>
<path fill="none" stroke="black" d="M297.5,-36.3C297.5,-43.68 297.5,-52.48 297.5,-60.75"/>
<polygon fill="black" stroke="black" points="297.5,-70.68 293,-60.68 297.5,-66.9 297.5,-60.68 297.5,-60.68 297.5,-60.68 297.5,-66.9 302,-60.68 297.5,-70.68"/>
</g>
<!-- calcipy.cli -->
<g id="node5" class="node">
<title>calcipy.cli</title>
<polygon fill="none" stroke="black" points="823.25,-108 751.75,-108 751.75,-72 823.25,-72 823.25,-108"/>
<text text-anchor="middle" x="787.5" y="-84.95" font-family="Times,serif" font-size="14.00">calcipy.cli</text>
</g>
<!-- calcipy.invoke_helpers -->
<g id="node14" class="node">
<title>calcipy.invoke_helpers</title>
<polygon fill="none" stroke="black" points="891.75,-180 751.25,-180 751.25,-144 891.75,-144 891.75,-180"/>
<text text-anchor="middle" x="821.5" y="-156.95" font-family="Times,serif" font-size="14.00">calcipy.invoke_helpers</text>
</g>
<!-- calcipy.cli&#45;&gt;calcipy.invoke_helpers -->
<g id="edge2" class="edge">
<title>calcipy.cli&#45;&gt;calcipy.invoke_helpers</title>
<path fill="none" stroke="black" d="M795.9,-108.3C799.65,-116.02 804.15,-125.29 808.33,-133.89"/>
<polygon fill="black" stroke="black" points="812.66,-142.8 804.24,-135.77 811.01,-139.4 808.29,-133.8 808.29,-133.8 808.29,-133.8 811.01,-139.4 812.34,-131.84 812.66,-142.8"/>
</g>
<!-- calcipy.tasks._invoke -->
<g id="node21" class="node">
<title>calcipy.tasks._invoke</title>
<polygon fill="none" stroke="black" points="1156.62,-252 1024.38,-252 1024.38,-216 1156.62,-216 1156.62,-252"/>
<text text-anchor="middle" x="1090.5" y="-228.95" font-family="Times,serif" font-size="14.00">calcipy.tasks._invoke</text>
</g>
<!-- calcipy.cli&#45;&gt;calcipy.tasks._invoke -->
<g id="edge3" class="edge">
<title>calcipy.cli&#45;&gt;calcipy.tasks._invoke</title>
<path fill="none" stroke="black" d="M823.75,-107.99C878.54,-133.67 982.49,-182.38 1043.18,-210.82"/>
<polygon fill="black" stroke="black" points="1052.16,-215.03 1041.19,-214.86 1048.74,-213.43 1043.1,-210.79 1043.1,-210.79 1043.1,-210.79 1048.74,-213.43 1045.01,-206.71 1052.16,-215.03"/>
</g>
<!-- calcipy.code_tag_collector -->
<g id="node6" class="node">
<title>calcipy.code_tag_collector</title>
<polygon fill="none" stroke="black" points="1655.88,-36 1495.12,-36 1495.12,0 1655.88,0 1655.88,-36"/>
<text text-anchor="middle" x="1575.5" y="-12.95" font-family="Times,serif" font-size="14.00">calcipy.code_tag_collector</text>
</g>
<!-- calcipy.code_tag_collector._collector -->
<g id="node7" class="node">
<title>calcipy.code_tag_collector._collector</title>
<polygon fill="none" stroke="black" points="1684.38,-108 1466.62,-108 1466.62,-72 1684.38,-72 1684.38,-108"/>
<text text-anchor="middle" x="1575.5" y="-84.95" font-family="Times,serif" font-size="14.00">calcipy.code_tag_collector._collector</text>
</g>
<!-- calcipy.code_tag_collector&#45;&gt;calcipy.code_tag_collector._collector -->
<g id="edge4" class="edge">
<title>calcipy.code_tag_collector&#45;&gt;calcipy.code_tag_collector._collector</title>
<path fill="none" stroke="black" d="M1575.5,-36.3C1575.5,-43.68 1575.5,-52.48 1575.5,-60.75"/>
<polygon fill="black" stroke="black" points="1575.5,-70.68 1571,-60.68 1575.5,-66.9 1575.5,-60.68 1575.5,-60.68 1575.5,-60.68 1575.5,-66.9 1580,-60.68 1575.5,-70.68"/>
</g>
<!-- calcipy.dot_dict -->
<g id="node8" class="node">
<title>calcipy.dot_dict</title>
<polygon fill="none" stroke="black" points="1831.62,-36 1729.38,-36 1729.38,0 1831.62,0 1831.62,-36"/>
<text text-anchor="middle" x="1780.5" y="-12.95" font-family="Times,serif" font-size="14.00">calcipy.dot_dict</text>
</g>
<!-- calcipy.dot_dict._dot_dict -->
<g id="node9" class="node">
<title>calcipy.dot_dict._dot_dict</title>
<polygon fill="none" stroke="black" points="1859,-108 1702,-108 1702,-72 1859,-72 1859,-108"/>
<text text-anchor="middle" x="1780.5" y="-84.95" font-family="Times,serif" font-size="14.00">calcipy.dot_dict._dot_dict</text>
</g>
<!-- calcipy.dot_dict&#45;&gt;calcipy.dot_dict._dot_dict -->
<g id="edge5" class="edge">
<title>calcipy.dot_dict&#45;&gt;calcipy.dot_dict._dot_dict</title>
<path fill="none" stroke="black" d="M1780.5,-36.3C1780.5,-43.68 1780.5,-52.48 1780.5,-60.75"/>
<polygon fill="black" stroke="black" points="1780.5,-70.68 1776,-60.68 1780.5,-66.9 1780.5,-60.68 1780.5,-60.68 1780.5,-60.68 1780.5,-66.9 1785,-60.68 1780.5,-70.68"/>
</g>
<!-- calcipy.experiments -->
<g id="node10" class="node">
<title>calcipy.experiments</title>
<polygon fill="none" stroke="black" points="1974.88,-36 1850.12,-36 1850.12,0 1974.88,0 1974.88,-36"/>
<text text-anchor="middle" x="1912.5" y="-12.95" font-family="Times,serif" font-size="14.00">calcipy.experiments</text>
</g>
<!-- calcipy.experiments.bump_programmatically -->
<g id="node11" class="node">
<title>calcipy.experiments.bump_programmatically</title>
<polygon fill="none" stroke="black" points="2257.62,-36 1993.38,-36 1993.38,0 2257.62,0 2257.62,-36"/>
<text text-anchor="middle" x="2125.5" y="-12.95" font-family="Times,serif" font-size="14.00">calcipy.experiments.bump_programmatically</text>
</g>
<!-- calcipy.experiments.check_duplicate_test_names -->
<g id="node12" class="node">
<title>calcipy.experiments.check_duplicate_test_names</title>
<polygon fill="none" stroke="black" points="2559.38,-36 2275.62,-36 2275.62,0 2559.38,0 2559.38,-36"/>
<text text-anchor="middle" x="2417.5" y="-12.95" font-family="Times,serif" font-size="14.00">calcipy.experiments.check_duplicate_test_names</text>
</g>
<!-- calcipy.file_search -->
<g id="node13" class="node">
<title>calcipy.file_search</title>
<polygon fill="none" stroke="black" points="2695.12,-36 2577.88,-36 2577.88,0 2695.12,0 2695.12,-36"/>
<text text-anchor="middle" x="2636.5" y="-12.95" font-family="Times,serif" font-size="14.00">calcipy.file_search</text>
</g>
<!-- calcipy.md_writer -->
<g id="node15" class="node">
<title>calcipy.md_writer</title>
<polygon fill="none" stroke="black" points="2828,-36 2713,-36 2713,0 2828,0 2828,-36"/>
<text text-anchor="middle" x="2770.5" y="-12.95" font-family="Times,serif" font-size="14.00">calcipy.md_writer</text>
</g>
<!-- calcipy.md_writer._writer -->
<g id="node16" class="node">
<title>calcipy.md_writer._writer</title>
<polygon fill="none" stroke="black" points="2849,-108 2692,-108 2692,-72 2849,-72 2849,-108"/>
<text text-anchor="middle" x="2770.5" y="-84.95" font-family="Times,serif" font-size="14.00">calcipy.md_writer._writer</text>
</g>
<!-- calcipy.md_writer&#45;&gt;calcipy.md_writer._writer -->
<g id="edge6" class="edge">
<title>calcipy.md_writer&#45;&gt;calcipy.md_writer._writer</title>
<path fill="none" stroke="black" d="M2770.5,-36.3C2770.5,-43.68 2770.5,-52.48 2770.5,-60.75"/>
<polygon fill="black" stroke="black" points="2770.5,-70.68 2766,-60.68 2770.5,-66.9 2770.5,-60.68 2770.5,-60.68 2770.5,-60.68 2770.5,-66.9 2775,-60.68 2770.5,-70.68"/>
</g>
<!-- calcipy.noxfile -->
<g id="node17" class="node">
<title>calcipy.noxfile</title>
<polygon fill="none" stroke="black" points="2987.62,-36 2891.38,-36 2891.38,0 2987.62,0 2987.62,-36"/>
<text text-anchor="middle" x="2939.5" y="-12.95" font-family="Times,serif" font-size="14.00">calcipy.noxfile</text>
</g>
<!-- calcipy.noxfile._noxfile -->
<g id="node18" class="node">
<title>calcipy.noxfile._noxfile</title>
<polygon fill="none" stroke="black" points="3012,-108 2867,-108 2867,-72 3012,-72 3012,-108"/>
<text text-anchor="middle" x="2939.5" y="-84.95" font-family="Times,serif" font-size="14.00">calcipy.noxfile._noxfile</text>
</g>
<!-- calcipy.noxfile&#45;&gt;calcipy.noxfile._noxfile -->
<g id="edge7" class="edge">
<title>calcipy.noxfile&#45;&gt;calcipy.noxfile._noxfile</title>
<path fill="none" stroke="black" d="M2939.5,-36.3C2939.5,-43.68 2939.5,-52.48 2939.5,-60.75"/>
<polygon fill="black" stroke="black" points="2939.5,-70.68 2935,-60.68 2939.5,-66.9 2939.5,-60.68 2939.5,-60.68 2939.5,-60.68 2939.5,-66.9 2944,-60.68 2939.5,-70.68"/>
</g>
<!-- calcipy.scripts -->
<g id="node19" class="node">
<title>calcipy.scripts</title>
<polygon fill="none" stroke="black" points="1012.12,-36 918.88,-36 918.88,0 1012.12,0 1012.12,-36"/>
<text text-anchor="middle" x="965.5" y="-12.95" font-family="Times,serif" font-size="14.00">calcipy.scripts</text>
</g>
<!-- calcipy.scripts&#45;&gt;calcipy.cli -->
<g id="edge8" class="edge">
<title>calcipy.scripts&#45;&gt;calcipy.cli</title>
<path fill="none" stroke="black" d="M921.04,-36.48C894.5,-46.92 860.83,-60.16 833.94,-70.74"/>
<polygon fill="black" stroke="black" points="824.76,-74.35 832.42,-66.5 828.28,-72.96 834.06,-70.69 834.06,-70.69 834.06,-70.69 828.28,-72.96 835.71,-74.88 824.76,-74.35"/>
</g>
<!-- calcipy.tasks -->
<g id="node20" class="node">
<title>calcipy.tasks</title>
<polygon fill="none" stroke="black" points="1449,-108 1364,-108 1364,-72 1449,-72 1449,-108"/>
<text text-anchor="middle" x="1406.5" y="-84.95" font-family="Times,serif" font-size="14.00">calcipy.tasks</text>
</g>
<!-- calcipy.scripts&#45;&gt;calcipy.tasks -->
<g id="edge9" class="edge">
<title>calcipy.scripts&#45;&gt;calcipy.tasks</title>
<path fill="none" stroke="black" d="M1012.6,-23.16C1085.42,-30.12 1229.47,-45.98 1349.5,-72 1350.66,-72.25 1351.83,-72.51 1353.01,-72.79"/>
<polygon fill="black" stroke="black" points="1362.55,-75.18 1351.75,-77.11 1358.88,-74.26 1352.85,-72.75 1352.85,-72.75 1352.85,-72.75 1358.88,-74.26 1353.95,-68.38 1362.55,-75.18"/>
</g>
<!-- calcipy.scripts&#45;&gt;calcipy.tasks._invoke -->
<g id="edge10" class="edge">
<title>calcipy.scripts&#45;&gt;calcipy.tasks._invoke</title>
<path fill="none" stroke="black" d="M1012.31,-19.84C1091.12,-22.34 1244.98,-32.32 1278.5,-72 1326.67,-129.02 1222.91,-182.79 1151.23,-211.46"/>
<polygon fill="black" stroke="black" points="1142.04,-215.06 1149.71,-207.22 1145.56,-213.68 1151.35,-211.41 1151.35,-211.41 1151.35,-211.41 1145.56,-213.68 1152.99,-215.6 1142.04,-215.06"/>
</g>
<!-- calcipy.tasks.all_tasks -->
<g id="node22" class="node">
<title>calcipy.tasks.all_tasks</title>
<polygon fill="none" stroke="black" points="1103.5,-108 967.5,-108 967.5,-72 1103.5,-72 1103.5,-108"/>
<text text-anchor="middle" x="1035.5" y="-84.95" font-family="Times,serif" font-size="14.00">calcipy.tasks.all_tasks</text>
</g>
<!-- calcipy.scripts&#45;&gt;calcipy.tasks.all_tasks -->
<g id="edge11" class="edge">
<title>calcipy.scripts&#45;&gt;calcipy.tasks.all_tasks</title>
<path fill="none" stroke="black" d="M982.8,-36.3C991.2,-44.7 1001.43,-54.93 1010.64,-64.14"/>
<polygon fill="black" stroke="black" points="1017.53,-71.03 1007.28,-67.15 1014.86,-68.36 1010.46,-63.96 1010.46,-63.96 1010.46,-63.96 1014.86,-68.36 1013.65,-60.78 1017.53,-71.03"/>
</g>
<!-- calcipy.tasks.cl -->
<g id="node23" class="node">
<title>calcipy.tasks.cl</title>
<polygon fill="none" stroke="black" points="563.75,-324 465.25,-324 465.25,-288 563.75,-288 563.75,-324"/>
<text text-anchor="middle" x="514.5" y="-300.95" font-family="Times,serif" font-size="14.00">calcipy.tasks.cl</text>
</g>
<!-- calcipy.scripts&#45;&gt;calcipy.tasks.cl -->
<g id="edge12" class="edge">
<title>calcipy.scripts&#45;&gt;calcipy.tasks.cl</title>
<path fill="none" stroke="black" d="M918.44,-20.76C831.99,-24.81 652.11,-37.26 601.5,-72 540.96,-113.55 541.49,-145.63 520.5,-216 514.65,-235.63 513.24,-258.73 513.25,-276.48"/>
<polygon fill="black" stroke="black" points="513.41,-286.32 508.75,-276.4 513.35,-282.54 513.24,-276.32 513.24,-276.32 513.24,-276.32 513.35,-282.54 517.74,-276.25 513.41,-286.32"/>
</g>
<!-- calcipy.tasks.defaults -->
<g id="node24" class="node">
<title>calcipy.tasks.defaults</title>
<polygon fill="none" stroke="black" points="1195.25,-180 1063.75,-180 1063.75,-144 1195.25,-144 1195.25,-180"/>
<text text-anchor="middle" x="1129.5" y="-156.95" font-family="Times,serif" font-size="14.00">calcipy.tasks.defaults</text>
</g>
<!-- calcipy.scripts&#45;&gt;calcipy.tasks.defaults -->
<g id="edge13" class="edge">
<title>calcipy.scripts&#45;&gt;calcipy.tasks.defaults</title>
<path fill="none" stroke="black" d="M1012.46,-23.8C1045.29,-29.69 1087.57,-42.81 1112.5,-72 1126.71,-88.64 1130.5,-113.48 1130.99,-132.69"/>
<polygon fill="black" stroke="black" points="1130.94,-142.59 1126.49,-132.56 1130.96,-138.8 1130.99,-132.59 1130.99,-132.59 1130.99,-132.59 1130.96,-138.8 1135.49,-132.61 1130.94,-142.59"/>
</g>
<!-- calcipy.tasks.doc -->
<g id="node25" class="node">
<title>calcipy.tasks.doc</title>
<polygon fill="none" stroke="black" points="637.62,-252 529.38,-252 529.38,-216 637.62,-216 637.62,-252"/>
<text text-anchor="middle" x="583.5" y="-228.95" font-family="Times,serif" font-size="14.00">calcipy.tasks.doc</text>
</g>
<!-- calcipy.scripts&#45;&gt;calcipy.tasks.doc -->
<g id="edge14" class="edge">
<title>calcipy.scripts&#45;&gt;calcipy.tasks.doc</title>
<path fill="none" stroke="black" d="M918.5,-20.25C858.25,-23.42 751.76,-34.4 669.5,-72 623.23,-93.15 602.41,-98.08 580.5,-144 571.5,-162.86 572.84,-186.62 576.11,-204.84"/>
<polygon fill="black" stroke="black" points="578.13,-214.45 571.67,-205.59 577.35,-210.75 576.07,-204.67 576.07,-204.67 576.07,-204.67 577.35,-210.75 580.48,-203.74 578.13,-214.45"/>
</g>
<!-- calcipy.tasks.lint -->
<g id="node27" class="node">
<title>calcipy.tasks.lint</title>
<polygon fill="none" stroke="black" points="695.88,-180 589.12,-180 589.12,-144 695.88,-144 695.88,-180"/>
<text text-anchor="middle" x="642.5" y="-156.95" font-family="Times,serif" font-size="14.00">calcipy.tasks.lint</text>
</g>
<!-- calcipy.scripts&#45;&gt;calcipy.tasks.lint -->
<g id="edge15" class="edge">
<title>calcipy.scripts&#45;&gt;calcipy.tasks.lint</title>
<path fill="none" stroke="black" d="M918.38,-19.01C864.03,-21.12 773.91,-31.19 709.5,-72 685.74,-87.06 667.35,-113.73 655.9,-133.96"/>
<polygon fill="black" stroke="black" points="651.28,-142.5 652.08,-131.57 653.08,-139.18 656.04,-133.71 656.04,-133.71 656.04,-133.71 653.08,-139.18 660,-135.85 651.28,-142.5"/>
</g>
<!-- calcipy.tasks.pack -->
<g id="node29" class="node">
<title>calcipy.tasks.pack</title>
<polygon fill="none" stroke="black" points="848.62,-252 734.38,-252 734.38,-216 848.62,-216 848.62,-252"/>
<text text-anchor="middle" x="791.5" y="-228.95" font-family="Times,serif" font-size="14.00">calcipy.tasks.pack</text>
</g>
<!-- calcipy.scripts&#45;&gt;calcipy.tasks.pack -->
<g id="edge16" class="edge">
<title>calcipy.scripts&#45;&gt;calcipy.tasks.pack</title>
<path fill="none" stroke="black" d="M918.38,-23.44C859.55,-30.07 764,-44.8 742.5,-72 712.74,-109.66 725,-135.3 742.5,-180 746.53,-190.31 753.62,-199.81 761.16,-207.84"/>
<polygon fill="black" stroke="black" points="768.22,-214.79 757.94,-210.98 765.53,-212.13 761.1,-207.77 761.1,-207.77 761.1,-207.77 765.53,-212.13 764.25,-204.56 768.22,-214.79"/>
</g>
<!-- calcipy.tasks.tags -->
<g id="node31" class="node">
<title>calcipy.tasks.tags</title>
<polygon fill="none" stroke="black" points="1269.75,-108 1159.25,-108 1159.25,-72 1269.75,-72 1269.75,-108"/>
<text text-anchor="middle" x="1214.5" y="-84.95" font-family="Times,serif" font-size="14.00">calcipy.tasks.tags</text>
</g>
<!-- calcipy.scripts&#45;&gt;calcipy.tasks.tags -->
<g id="edge17" class="edge">
<title>calcipy.scripts&#45;&gt;calcipy.tasks.tags</title>
<path fill="none" stroke="black" d="M1012.33,-32.17C1050.78,-42.97 1105.67,-58.4 1148.55,-70.46"/>
<polygon fill="black" stroke="black" points="1158.01,-73.12 1147.16,-74.74 1154.37,-72.1 1148.38,-70.41 1148.38,-70.41 1148.38,-70.41 1154.37,-72.1 1149.6,-66.08 1158.01,-73.12"/>
</g>
<!-- calcipy.tasks.test -->
<g id="node32" class="node">
<title>calcipy.tasks.test</title>
<polygon fill="none" stroke="black" points="949.25,-108 841.75,-108 841.75,-72 949.25,-72 949.25,-108"/>
<text text-anchor="middle" x="895.5" y="-84.95" font-family="Times,serif" font-size="14.00">calcipy.tasks.test</text>
</g>
<!-- calcipy.scripts&#45;&gt;calcipy.tasks.test -->
<g id="edge18" class="edge">
<title>calcipy.scripts&#45;&gt;calcipy.tasks.test</title>
<path fill="none" stroke="black" d="M948.2,-36.3C939.8,-44.7 929.57,-54.93 920.36,-64.14"/>
<polygon fill="black" stroke="black" points="913.47,-71.03 917.35,-60.78 916.14,-68.36 920.54,-63.96 920.54,-63.96 920.54,-63.96 916.14,-68.36 923.72,-67.15 913.47,-71.03"/>
</g>
<!-- calcipy.tasks.types -->
<g id="node33" class="node">
<title>calcipy.tasks.types</title>
<polygon fill="none" stroke="black" points="1149.12,-324 1031.88,-324 1031.88,-288 1149.12,-288 1149.12,-324"/>
<text text-anchor="middle" x="1090.5" y="-300.95" font-family="Times,serif" font-size="14.00">calcipy.tasks.types</text>
</g>
<!-- calcipy.scripts&#45;&gt;calcipy.tasks.types -->
<g id="edge19" class="edge">
<title>calcipy.scripts&#45;&gt;calcipy.tasks.types</title>
<path fill="none" stroke="black" d="M1012.31,-19.3C1095.14,-20.93 1262.26,-29.53 1298.5,-72 1365.59,-150.61 1217.48,-241.32 1137.43,-282.54"/>
<polygon fill="black" stroke="black" points="1128.64,-287 1135.52,-278.46 1132.01,-285.29 1137.56,-282.48 1137.56,-282.48 1137.56,-282.48 1132.01,-285.29 1139.59,-286.49 1128.64,-287"/>
</g>
<!-- calcipy.tasks._invoke&#45;&gt;calcipy.tasks.types -->
<g id="edge20" class="edge">
<title>calcipy.tasks._invoke&#45;&gt;calcipy.tasks.types</title>
<path fill="none" stroke="black" d="M1090.5,-252.3C1090.5,-259.68 1090.5,-268.48 1090.5,-276.75"/>
<polygon fill="black" stroke="black" points="1090.5,-286.68 1086,-276.68 1090.5,-282.9 1090.5,-276.68 1090.5,-276.68 1090.5,-276.68 1090.5,-282.9 1095,-276.68 1090.5,-286.68"/>
</g>
<!-- calcipy.tasks.all_tasks&#45;&gt;calcipy.tasks._invoke -->
<g id="edge21" class="edge">
<title>calcipy.tasks.all_tasks&#45;&gt;calcipy.tasks._invoke</title>
<path fill="none" stroke="black" d="M1037.2,-108.33C1039.45,-126.71 1044.39,-156.31 1054.5,-180 1058.46,-189.26 1064.12,-198.61 1069.78,-206.81"/>
<polygon fill="black" stroke="black" points="1075.62,-214.86 1066.11,-209.41 1073.4,-211.8 1069.75,-206.77 1069.75,-206.77 1069.75,-206.77 1073.4,-211.8 1073.39,-204.13 1075.62,-214.86"/>
</g>
<!-- calcipy.tasks.all_tasks&#45;&gt;calcipy.tasks.defaults -->
<g id="edge22" class="edge">
<title>calcipy.tasks.all_tasks&#45;&gt;calcipy.tasks.defaults</title>
<path fill="none" stroke="black" d="M1058.74,-108.3C1070.37,-116.97 1084.65,-127.6 1097.32,-137.04"/>
<polygon fill="black" stroke="black" points="1105.23,-142.93 1094.52,-140.56 1102.2,-140.67 1097.21,-136.95 1097.21,-136.95 1097.21,-136.95 1102.2,-140.67 1099.9,-133.34 1105.23,-142.93"/>
</g>
<!-- calcipy.tasks.executable_utils -->
<g id="node26" class="node">
<title>calcipy.tasks.executable_utils</title>
<polygon fill="none" stroke="black" points="836.75,-396 660.25,-396 660.25,-360 836.75,-360 836.75,-396"/>
<text text-anchor="middle" x="748.5" y="-372.95" font-family="Times,serif" font-size="14.00">calcipy.tasks.executable_utils</text>
</g>
<!-- calcipy.tasks.cl&#45;&gt;calcipy.tasks.executable_utils -->
<g id="edge23" class="edge">
<title>calcipy.tasks.cl&#45;&gt;calcipy.tasks.executable_utils</title>
<path fill="none" stroke="black" d="M564.13,-321.85C597.7,-331.89 642.51,-345.29 679.55,-356.37"/>
<polygon fill="black" stroke="black" points="689.1,-359.23 678.23,-360.68 685.48,-358.15 679.52,-356.37 679.52,-356.37 679.52,-356.37 685.48,-358.15 680.81,-352.05 689.1,-359.23"/>
</g>
<!-- calcipy.tasks.defaults&#45;&gt;calcipy.tasks._invoke -->
<g id="edge24" class="edge">
<title>calcipy.tasks.defaults&#45;&gt;calcipy.tasks._invoke</title>
<path fill="none" stroke="black" d="M1119.86,-180.3C1115.51,-188.1 1110.28,-197.49 1105.45,-206.17"/>
<polygon fill="black" stroke="black" points="1100.62,-214.83 1101.56,-203.91 1102.46,-211.53 1105.49,-206.1 1105.49,-206.1 1105.49,-206.1 1102.46,-211.53 1109.42,-208.29 1100.62,-214.83"/>
</g>
<!-- calcipy.tasks.doc&#45;&gt;calcipy.tasks.executable_utils -->
<g id="edge25" class="edge">
<title>calcipy.tasks.doc&#45;&gt;calcipy.tasks.executable_utils</title>
<path fill="none" stroke="black" d="M593.72,-252.47C605.68,-271.8 627,-302.98 651.5,-324 665.37,-335.9 682.34,-346.28 698.19,-354.63"/>
<polygon fill="black" stroke="black" points="706.79,-359 695.84,-358.48 703.42,-357.29 697.88,-354.47 697.88,-354.47 697.88,-354.47 703.42,-357.29 699.92,-350.46 706.79,-359"/>
</g>
<!-- calcipy.tasks.lint&#45;&gt;calcipy.tasks.executable_utils -->
<g id="edge26" class="edge">
<title>calcipy.tasks.lint&#45;&gt;calcipy.tasks.executable_utils</title>
<path fill="none" stroke="black" d="M643.56,-180.36C646.16,-211.45 655.01,-277.71 684.5,-324 691.51,-335.01 701.57,-344.86 711.63,-352.99"/>
<polygon fill="black" stroke="black" points="719.44,-358.94 708.76,-356.46 716.43,-356.65 711.49,-352.88 711.49,-352.88 711.49,-352.88 716.43,-356.65 714.21,-349.3 719.44,-358.94"/>
</g>
<!-- calcipy.tasks.nox -->
<g id="node28" class="node">
<title>calcipy.tasks.nox</title>
<polygon fill="none" stroke="black" points="803,-324 694,-324 694,-288 803,-288 803,-324"/>
<text text-anchor="middle" x="748.5" y="-300.95" font-family="Times,serif" font-size="14.00">calcipy.tasks.nox</text>
</g>
<!-- calcipy.tasks.nox&#45;&gt;calcipy.tasks.executable_utils -->
<g id="edge27" class="edge">
<title>calcipy.tasks.nox&#45;&gt;calcipy.tasks.executable_utils</title>
<path fill="none" stroke="black" d="M748.5,-324.3C748.5,-331.68 748.5,-340.48 748.5,-348.75"/>
<polygon fill="black" stroke="black" points="748.5,-358.68 744,-348.68 748.5,-354.9 748.5,-348.68 748.5,-348.68 748.5,-348.68 748.5,-354.9 753,-348.68 748.5,-358.68"/>
</g>
<!-- calcipy.tasks.pack&#45;&gt;calcipy.tasks.executable_utils -->
<g id="edge28" class="edge">
<title>calcipy.tasks.pack&#45;&gt;calcipy.tasks.executable_utils</title>
<path fill="none" stroke="black" d="M801.81,-252.44C811.31,-270.92 822.39,-300.6 811.5,-324 806.28,-335.21 797.39,-344.9 787.91,-352.81"/>
<polygon fill="black" stroke="black" points="780.1,-358.83 785.28,-349.16 783.09,-356.52 788.02,-352.73 788.02,-352.73 788.02,-352.73 783.09,-356.52 790.77,-356.29 780.1,-358.83"/>
</g>
<!-- calcipy.tasks.stale -->
<g id="node30" class="node">
<title>calcipy.tasks.stale</title>
<polygon fill="none" stroke="black" points="3119.25,-36 3005.75,-36 3005.75,0 3119.25,0 3119.25,-36"/>
<text text-anchor="middle" x="3062.5" y="-12.95" font-family="Times,serif" font-size="14.00">calcipy.tasks.stale</text>
</g>
<!-- calcipy.tasks.tags&#45;&gt;calcipy.tasks.defaults -->
<g id="edge29" class="edge">
<title>calcipy.tasks.tags&#45;&gt;calcipy.tasks.defaults</title>
<path fill="none" stroke="black" d="M1193.49,-108.3C1183.07,-116.89 1170.31,-127.39 1158.93,-136.76"/>
<polygon fill="black" stroke="black" points="1151.5,-142.88 1156.36,-133.05 1154.42,-140.47 1159.22,-136.52 1159.22,-136.52 1159.22,-136.52 1154.42,-140.47 1162.08,-140 1151.5,-142.88"/>
</g>
<!-- calcipy.tasks.test&#45;&gt;calcipy.tasks.defaults -->
<g id="edge30" class="edge">
<title>calcipy.tasks.test&#45;&gt;calcipy.tasks.defaults</title>
<path fill="none" stroke="black" d="M949.48,-107.15C982.65,-117.07 1025.45,-129.87 1060.99,-140.51"/>
<polygon fill="black" stroke="black" points="1070.12,-143.24 1059.25,-144.68 1066.5,-142.15 1060.54,-140.37 1060.54,-140.37 1060.54,-140.37 1066.5,-142.15 1061.83,-136.06 1070.12,-143.24"/>
</g>
<!-- calcipy.tasks.test&#45;&gt;calcipy.tasks.executable_utils -->
<g id="edge31" class="edge">
<title>calcipy.tasks.test&#45;&gt;calcipy.tasks.executable_utils</title>
<path fill="none" stroke="black" d="M899.36,-108.32C902.73,-126.44 906.26,-155.6 900.5,-180 884.06,-249.64 875.93,-270.43 828.5,-324 818.28,-335.54 805,-345.67 792.2,-353.89"/>
<polygon fill="black" stroke="black" points="784.05,-358.89 790.22,-349.82 787.27,-356.91 792.57,-353.66 792.57,-353.66 792.57,-353.66 787.27,-356.91 794.93,-357.49 784.05,-358.89"/>
</g>
<!-- calcipy.tasks.types&#45;&gt;calcipy.tasks.executable_utils -->
<g id="edge32" class="edge">
<title>calcipy.tasks.types&#45;&gt;calcipy.tasks.executable_utils</title>
<path fill="none" stroke="black" d="M1031.71,-319.03C980.27,-329.56 904.58,-345.05 844.39,-357.37"/>
<polygon fill="black" stroke="black" points="834.92,-359.31 843.81,-352.9 838.62,-358.55 844.71,-357.31 844.71,-357.31 844.71,-357.31 838.62,-358.55 845.62,-361.72 834.92,-359.31"/>
</g>
</g>
</svg>
