<?xml version="1.0" encoding="UTF-8" standalone="no"?>
<!DOCTYPE svg PUBLIC "-//W3C//DTD SVG 1.1//EN"
 "http://www.w3.org/Graphics/SVG/1.1/DTD/svg11.dtd">
<!-- Generated by graphviz version 2.43.0 (0)
 -->
<!-- Title: packages Pages: 1 -->
<svg width="4370pt" height="188pt"
 viewBox="0.00 0.00 4370.00 188.00" xmlns="http://www.w3.org/2000/svg" xmlns:xlink="http://www.w3.org/1999/xlink">
<g id="graph0" class="graph" transform="scale(1 1) rotate(0) translate(4 184)">
<title>packages</title>
<polygon fill="white" stroke="transparent" points="-4,4 -4,-184 4366,-184 4366,4 -4,4"/>
<!-- calcipy -->
<g id="node1" class="node">
<title>calcipy</title>
<polygon fill="none" stroke="black" points="66,-36 0,-36 0,0 66,0 66,-36"/>
<text text-anchor="middle" x="33" y="-14.3" font-family="Times,serif" font-size="14.00">calcipy</text>
</g>
<!-- calcipy.can_skip -->
<g id="node2" class="node">
<title>calcipy.can_skip</title>
<polygon fill="none" stroke="black" points="213.5,-36 84.5,-36 84.5,0 213.5,0 213.5,-36"/>
<text text-anchor="middle" x="149" y="-14.3" font-family="Times,serif" font-size="14.00">calcipy.can_skip</text>
</g>
<!-- calcipy.check_for_stale_packages -->
<g id="node3" class="node">
<title>calcipy.check_for_stale_packages</title>
<polygon fill="none" stroke="black" points="482,-36 232,-36 232,0 482,0 482,-36"/>
<text text-anchor="middle" x="357" y="-14.3" font-family="Times,serif" font-size="14.00">calcipy.check_for_stale_packages</text>
</g>
<!-- calcipy.check_for_stale_packages._check_for_stale_packages -->
<g id="node4" class="node">
<title>calcipy.check_for_stale_packages._check_for_stale_packages</title>
<polygon fill="none" stroke="black" points="578.5,-108 135.5,-108 135.5,-72 578.5,-72 578.5,-108"/>
<text text-anchor="middle" x="357" y="-86.3" font-family="Times,serif" font-size="14.00">calcipy.check_for_stale_packages._check_for_stale_packages</text>
</g>
<!-- calcipy.check_for_stale_packages&#45;&gt;calcipy.check_for_stale_packages._check_for_stale_packages -->
<g id="edge1" class="edge">
<title>calcipy.check_for_stale_packages&#45;&gt;calcipy.check_for_stale_packages._check_for_stale_packages</title>
<path fill="none" stroke="black" d="M357,-36.3C357,-44.02 357,-53.29 357,-61.89"/>
<polygon fill="black" stroke="black" points="357,-71.9 352.5,-61.9 357,-66.9 357,-61.9 357,-61.9 357,-61.9 357,-66.9 361.5,-61.9 357,-71.9 357,-71.9"/>
</g>
<!-- calcipy.cli -->
<g id="node5" class="node">
<title>calcipy.cli</title>
<polygon fill="none" stroke="black" points="681.5,-108 596.5,-108 596.5,-72 681.5,-72 681.5,-108"/>
<text text-anchor="middle" x="639" y="-86.3" font-family="Times,serif" font-size="14.00">calcipy.cli</text>
</g>
<!-- calcipy.invoke_helpers -->
<g id="node14" class="node">
<title>calcipy.invoke_helpers</title>
<polygon fill="none" stroke="black" points="726.5,-180 551.5,-180 551.5,-144 726.5,-144 726.5,-180"/>
<text text-anchor="middle" x="639" y="-158.3" font-family="Times,serif" font-size="14.00">calcipy.invoke_helpers</text>
</g>
<!-- calcipy.cli&#45;&gt;calcipy.invoke_helpers -->
<g id="edge2" class="edge">
<title>calcipy.cli&#45;&gt;calcipy.invoke_helpers</title>
<path fill="none" stroke="black" d="M639,-108.3C639,-116.02 639,-125.29 639,-133.89"/>
<polygon fill="black" stroke="black" points="639,-143.9 634.5,-133.9 639,-138.9 639,-133.9 639,-133.9 639,-133.9 639,-138.9 643.5,-133.9 639,-143.9 639,-143.9"/>
</g>
<!-- calcipy.code_tag_collector -->
<g id="node6" class="node">
<title>calcipy.code_tag_collector</title>
<polygon fill="none" stroke="black" points="2696,-36 2496,-36 2496,0 2696,0 2696,-36"/>
<text text-anchor="middle" x="2596" y="-14.3" font-family="Times,serif" font-size="14.00">calcipy.code_tag_collector</text>
</g>
<!-- calcipy.code_tag_collector._collector -->
<g id="node7" class="node">
<title>calcipy.code_tag_collector._collector</title>
<polygon fill="none" stroke="black" points="2731.5,-108 2460.5,-108 2460.5,-72 2731.5,-72 2731.5,-108"/>
<text text-anchor="middle" x="2596" y="-86.3" font-family="Times,serif" font-size="14.00">calcipy.code_tag_collector._collector</text>
</g>
<!-- calcipy.code_tag_collector&#45;&gt;calcipy.code_tag_collector._collector -->
<g id="edge3" class="edge">
<title>calcipy.code_tag_collector&#45;&gt;calcipy.code_tag_collector._collector</title>
<path fill="none" stroke="black" d="M2596,-36.3C2596,-44.02 2596,-53.29 2596,-61.89"/>
<polygon fill="black" stroke="black" points="2596,-71.9 2591.5,-61.9 2596,-66.9 2596,-61.9 2596,-61.9 2596,-61.9 2596,-66.9 2600.5,-61.9 2596,-71.9 2596,-71.9"/>
</g>
<!-- calcipy.dot_dict -->
<g id="node8" class="node">
<title>calcipy.dot_dict</title>
<polygon fill="none" stroke="black" points="2909.5,-36 2784.5,-36 2784.5,0 2909.5,0 2909.5,-36"/>
<text text-anchor="middle" x="2847" y="-14.3" font-family="Times,serif" font-size="14.00">calcipy.dot_dict</text>
</g>
<!-- calcipy.dot_dict._dot_dict -->
<g id="node9" class="node">
<title>calcipy.dot_dict._dot_dict</title>
<polygon fill="none" stroke="black" points="2944,-108 2750,-108 2750,-72 2944,-72 2944,-108"/>
<text text-anchor="middle" x="2847" y="-86.3" font-family="Times,serif" font-size="14.00">calcipy.dot_dict._dot_dict</text>
</g>
<!-- calcipy.dot_dict&#45;&gt;calcipy.dot_dict._dot_dict -->
<g id="edge4" class="edge">
<title>calcipy.dot_dict&#45;&gt;calcipy.dot_dict._dot_dict</title>
<path fill="none" stroke="black" d="M2847,-36.3C2847,-44.02 2847,-53.29 2847,-61.89"/>
<polygon fill="black" stroke="black" points="2847,-71.9 2842.5,-61.9 2847,-66.9 2847,-61.9 2847,-61.9 2847,-61.9 2847,-66.9 2851.5,-61.9 2847,-71.9 2847,-71.9"/>
</g>
<!-- calcipy.experiments -->
<g id="node10" class="node">
<title>calcipy.experiments</title>
<polygon fill="none" stroke="black" points="3086,-36 2928,-36 2928,0 3086,0 3086,-36"/>
<text text-anchor="middle" x="3007" y="-14.3" font-family="Times,serif" font-size="14.00">calcipy.experiments</text>
</g>
<!-- calcipy.experiments.bump_programmatically -->
<g id="node11" class="node">
<title>calcipy.experiments.bump_programmatically</title>
<polygon fill="none" stroke="black" points="3440,-36 3104,-36 3104,0 3440,0 3440,-36"/>
<text text-anchor="middle" x="3272" y="-14.3" font-family="Times,serif" font-size="14.00">calcipy.experiments.bump_programmatically</text>
</g>
<!-- calcipy.experiments.check_duplicate_test_names -->
<g id="node12" class="node">
<title>calcipy.experiments.check_duplicate_test_names</title>
<polygon fill="none" stroke="black" points="3820.5,-36 3457.5,-36 3457.5,0 3820.5,0 3820.5,-36"/>
<text text-anchor="middle" x="3639" y="-14.3" font-family="Times,serif" font-size="14.00">calcipy.experiments.check_duplicate_test_names</text>
</g>
<!-- calcipy.file_search -->
<g id="node13" class="node">
<title>calcipy.file_search</title>
<polygon fill="none" stroke="black" points="3983,-36 3839,-36 3839,0 3983,0 3983,-36"/>
<text text-anchor="middle" x="3911" y="-14.3" font-family="Times,serif" font-size="14.00">calcipy.file_search</text>
</g>
<!-- calcipy.md_writer -->
<g id="node15" class="node">
<title>calcipy.md_writer</title>
<polygon fill="none" stroke="black" points="4143,-36 4001,-36 4001,0 4143,0 4143,-36"/>
<text text-anchor="middle" x="4072" y="-14.3" font-family="Times,serif" font-size="14.00">calcipy.md_writer</text>
</g>
<!-- calcipy.md_writer._writer -->
<g id="node16" class="node">
<title>calcipy.md_writer._writer</title>
<polygon fill="none" stroke="black" points="4170,-108 3974,-108 3974,-72 4170,-72 4170,-108"/>
<text text-anchor="middle" x="4072" y="-86.3" font-family="Times,serif" font-size="14.00">calcipy.md_writer._writer</text>
</g>
<!-- calcipy.md_writer&#45;&gt;calcipy.md_writer._writer -->
<g id="edge5" class="edge">
<title>calcipy.md_writer&#45;&gt;calcipy.md_writer._writer</title>
<path fill="none" stroke="black" d="M4072,-36.3C4072,-44.02 4072,-53.29 4072,-61.89"/>
<polygon fill="black" stroke="black" points="4072,-71.9 4067.5,-61.9 4072,-66.9 4072,-61.9 4072,-61.9 4072,-61.9 4072,-66.9 4076.5,-61.9 4072,-71.9 4072,-71.9"/>
</g>
<!-- calcipy.noxfile -->
<g id="node17" class="node">
<title>calcipy.noxfile</title>
<polygon fill="none" stroke="black" points="4333,-36 4217,-36 4217,0 4333,0 4333,-36"/>
<text text-anchor="middle" x="4275" y="-14.3" font-family="Times,serif" font-size="14.00">calcipy.noxfile</text>
</g>
<!-- calcipy.noxfile._noxfile -->
<g id="node18" class="node">
<title>calcipy.noxfile._noxfile</title>
<polygon fill="none" stroke="black" points="4362,-108 4188,-108 4188,-72 4362,-72 4362,-108"/>
<text text-anchor="middle" x="4275" y="-86.3" font-family="Times,serif" font-size="14.00">calcipy.noxfile._noxfile</text>
</g>
<!-- calcipy.noxfile&#45;&gt;calcipy.noxfile._noxfile -->
<g id="edge6" class="edge">
<title>calcipy.noxfile&#45;&gt;calcipy.noxfile._noxfile</title>
<path fill="none" stroke="black" d="M4275,-36.3C4275,-44.02 4275,-53.29 4275,-61.89"/>
<polygon fill="black" stroke="black" points="4275,-71.9 4270.5,-61.9 4275,-66.9 4275,-61.9 4275,-61.9 4275,-61.9 4275,-66.9 4279.5,-61.9 4275,-71.9 4275,-71.9"/>
</g>
<!-- calcipy.scripts -->
<g id="node19" class="node">
<title>calcipy.scripts</title>
<polygon fill="none" stroke="black" points="1131.5,-36 1014.5,-36 1014.5,0 1131.5,0 1131.5,-36"/>
<text text-anchor="middle" x="1073" y="-14.3" font-family="Times,serif" font-size="14.00">calcipy.scripts</text>
</g>
<!-- calcipy.scripts&#45;&gt;calcipy.cli -->
<g id="edge7" class="edge">
<title>calcipy.scripts&#45;&gt;calcipy.cli</title>
<path fill="none" stroke="black" d="M1014.49,-23.85C941.09,-30.66 811.36,-45.09 691.74,-72.07"/>
<polygon fill="black" stroke="black" points="681.68,-74.38 690.42,-67.76 686.55,-73.26 691.43,-72.15 691.43,-72.15 691.43,-72.15 686.55,-73.26 692.43,-76.53 681.68,-74.38 681.68,-74.38"/>
</g>
<!-- calcipy.tasks -->
<g id="node20" class="node">
<title>calcipy.tasks</title>
<polygon fill="none" stroke="black" points="806,-108 700,-108 700,-72 806,-72 806,-108"/>
<text text-anchor="middle" x="753" y="-86.3" font-family="Times,serif" font-size="14.00">calcipy.tasks</text>
</g>
<!-- calcipy.scripts&#45;&gt;calcipy.tasks -->
<g id="edge8" class="edge">
<title>calcipy.scripts&#45;&gt;calcipy.tasks</title>
<path fill="none" stroke="black" d="M1014.35,-29.92C964.16,-39.52 889.77,-54.36 815.97,-71.84"/>
<polygon fill="black" stroke="black" points="806.04,-74.21 814.72,-67.51 810.9,-73.05 815.77,-71.89 815.77,-71.89 815.77,-71.89 810.9,-73.05 816.81,-76.27 806.04,-74.21 806.04,-74.21"/>
</g>
<!-- calcipy.tasks.all_tasks -->
<g id="node21" class="node">
<title>calcipy.tasks.all_tasks</title>
<polygon fill="none" stroke="black" points="996,-108 824,-108 824,-72 996,-72 996,-108"/>
<text text-anchor="middle" x="910" y="-86.3" font-family="Times,serif" font-size="14.00">calcipy.tasks.all_tasks</text>
</g>
<!-- calcipy.scripts&#45;&gt;calcipy.tasks.all_tasks -->
<g id="edge9" class="edge">
<title>calcipy.scripts&#45;&gt;calcipy.tasks.all_tasks</title>
<path fill="none" stroke="black" d="M1033.13,-36.12C1010.84,-45.69 982.88,-57.7 959.24,-67.85"/>
<polygon fill="black" stroke="black" points="949.74,-71.93 957.16,-63.85 954.34,-69.96 958.93,-67.99 958.93,-67.99 958.93,-67.99 954.34,-69.96 960.71,-72.12 949.74,-71.93 949.74,-71.93"/>
</g>
<!-- calcipy.tasks.defaults -->
<g id="node23" class="node">
<title>calcipy.tasks.defaults</title>
<polygon fill="none" stroke="black" points="1157,-180 989,-180 989,-144 1157,-144 1157,-180"/>
<text text-anchor="middle" x="1073" y="-158.3" font-family="Times,serif" font-size="14.00">calcipy.tasks.defaults</text>
</g>
<!-- calcipy.scripts&#45;&gt;calcipy.tasks.defaults -->
<g id="edge10" class="edge">
<title>calcipy.scripts&#45;&gt;calcipy.tasks.defaults</title>
<path fill="none" stroke="black" d="M1060.27,-36.15C1053.71,-46.08 1046.39,-59.12 1043,-72 1038.92,-87.47 1038.92,-92.53 1043,-108 1045.49,-117.46 1050.1,-127.01 1054.97,-135.34"/>
<polygon fill="black" stroke="black" points="1060.27,-143.85 1051.17,-137.74 1057.63,-139.6 1054.98,-135.36 1054.98,-135.36 1054.98,-135.36 1057.63,-139.6 1058.8,-132.98 1060.27,-143.85 1060.27,-143.85"/>
</g>
<!-- calcipy.tasks.lint -->
<g id="node26" class="node">
<title>calcipy.tasks.lint</title>
<polygon fill="none" stroke="black" points="1502,-108 1368,-108 1368,-72 1502,-72 1502,-108"/>
<text text-anchor="middle" x="1435" y="-86.3" font-family="Times,serif" font-size="14.00">calcipy.tasks.lint</text>
</g>
<!-- calcipy.scripts&#45;&gt;calcipy.tasks.lint -->
<g id="edge11" class="edge">
<title>calcipy.scripts&#45;&gt;calcipy.tasks.lint</title>
<path fill="none" stroke="black" d="M1131.73,-29.23C1187.43,-39.08 1273.7,-54.72 1357.9,-71.81"/>
<polygon fill="black" stroke="black" points="1367.89,-73.85 1357.19,-76.26 1362.99,-72.85 1358.09,-71.85 1358.09,-71.85 1358.09,-71.85 1362.99,-72.85 1358.99,-67.44 1367.89,-73.85 1367.89,-73.85"/>
</g>
<!-- calcipy.tasks.pack -->
<g id="node28" class="node">
<title>calcipy.tasks.pack</title>
<polygon fill="none" stroke="black" points="1663.5,-108 1520.5,-108 1520.5,-72 1663.5,-72 1663.5,-108"/>
<text text-anchor="middle" x="1592" y="-86.3" font-family="Times,serif" font-size="14.00">calcipy.tasks.pack</text>
</g>
<!-- calcipy.scripts&#45;&gt;calcipy.tasks.pack -->
<g id="edge12" class="edge">
<title>calcipy.scripts&#45;&gt;calcipy.tasks.pack</title>
<path fill="none" stroke="black" d="M1131.68,-24.47C1213.95,-32.51 1368.46,-48.9 1509.91,-71.9"/>
<polygon fill="black" stroke="black" points="1520.07,-73.57 1509.48,-76.39 1515.14,-72.76 1510.2,-71.95 1510.2,-71.95 1510.2,-71.95 1515.14,-72.76 1510.93,-67.51 1520.07,-73.57 1520.07,-73.57"/>
</g>
<!-- calcipy.tasks.tags -->
<g id="node30" class="node">
<title>calcipy.tasks.tags</title>
<polygon fill="none" stroke="black" points="1193.5,-108 1052.5,-108 1052.5,-72 1193.5,-72 1193.5,-108"/>
<text text-anchor="middle" x="1123" y="-86.3" font-family="Times,serif" font-size="14.00">calcipy.tasks.tags</text>
</g>
<!-- calcipy.scripts&#45;&gt;calcipy.tasks.tags -->
<g id="edge13" class="edge">
<title>calcipy.scripts&#45;&gt;calcipy.tasks.tags</title>
<path fill="none" stroke="black" d="M1085.36,-36.3C1091.23,-44.53 1098.37,-54.52 1104.84,-63.58"/>
<polygon fill="black" stroke="black" points="1110.78,-71.9 1101.31,-66.37 1107.88,-67.83 1104.97,-63.76 1104.97,-63.76 1104.97,-63.76 1107.88,-67.83 1108.63,-61.14 1110.78,-71.9 1110.78,-71.9"/>
</g>
<!-- calcipy.tasks.types -->
<g id="node32" class="node">
<title>calcipy.tasks.types</title>
<polygon fill="none" stroke="black" points="1830.5,-108 1681.5,-108 1681.5,-72 1830.5,-72 1830.5,-108"/>
<text text-anchor="middle" x="1756" y="-86.3" font-family="Times,serif" font-size="14.00">calcipy.tasks.types</text>
</g>
<!-- calcipy.scripts&#45;&gt;calcipy.tasks.types -->
<g id="edge14" class="edge">
<title>calcipy.scripts&#45;&gt;calcipy.tasks.types</title>
<path fill="none" stroke="black" d="M1131.92,-22.03C1237.85,-27.95 1467.62,-42.97 1671.43,-72.02"/>
<polygon fill="black" stroke="black" points="1681.42,-73.46 1670.88,-76.49 1676.47,-72.75 1671.52,-72.03 1671.52,-72.03 1671.52,-72.03 1676.47,-72.75 1672.16,-67.58 1681.42,-73.46 1681.42,-73.46"/>
</g>
<!-- calcipy.tasks.all_tasks&#45;&gt;calcipy.tasks.defaults -->
<g id="edge15" class="edge">
<title>calcipy.tasks.all_tasks&#45;&gt;calcipy.tasks.defaults</title>
<path fill="none" stroke="black" d="M949.87,-108.12C972.16,-117.69 1000.12,-129.7 1023.76,-139.85"/>
<polygon fill="black" stroke="black" points="1033.26,-143.93 1022.29,-144.12 1028.66,-141.96 1024.07,-139.99 1024.07,-139.99 1024.07,-139.99 1028.66,-141.96 1025.84,-135.85 1033.26,-143.93 1033.26,-143.93"/>
</g>
<!-- calcipy.tasks.cl -->
<g id="node22" class="node">
<title>calcipy.tasks.cl</title>
<polygon fill="none" stroke="black" points="1971,-108 1849,-108 1849,-72 1971,-72 1971,-108"/>
<text text-anchor="middle" x="1910" y="-86.3" font-family="Times,serif" font-size="14.00">calcipy.tasks.cl</text>
</g>
<!-- calcipy.tasks.executable_utils -->
<g id="node25" class="node">
<title>calcipy.tasks.executable_utils</title>
<polygon fill="none" stroke="black" points="1946,-180 1720,-180 1720,-144 1946,-144 1946,-180"/>
<text text-anchor="middle" x="1833" y="-158.3" font-family="Times,serif" font-size="14.00">calcipy.tasks.executable_utils</text>
</g>
<!-- calcipy.tasks.cl&#45;&gt;calcipy.tasks.executable_utils -->
<g id="edge16" class="edge">
<title>calcipy.tasks.cl&#45;&gt;calcipy.tasks.executable_utils</title>
<path fill="none" stroke="black" d="M1890.97,-108.3C1881.46,-116.95 1869.79,-127.55 1859.43,-136.97"/>
<polygon fill="black" stroke="black" points="1851.81,-143.9 1856.19,-133.84 1855.51,-140.53 1859.21,-137.17 1859.21,-137.17 1859.21,-137.17 1855.51,-140.53 1862.24,-140.5 1851.81,-143.9 1851.81,-143.9"/>
</g>
<!-- calcipy.tasks.doc -->
<g id="node24" class="node">
<title>calcipy.tasks.doc</title>
<polygon fill="none" stroke="black" points="2124.5,-108 1989.5,-108 1989.5,-72 2124.5,-72 2124.5,-108"/>
<text text-anchor="middle" x="2057" y="-86.3" font-family="Times,serif" font-size="14.00">calcipy.tasks.doc</text>
</g>
<!-- calcipy.tasks.doc&#45;&gt;calcipy.tasks.executable_utils -->
<g id="edge17" class="edge">
<title>calcipy.tasks.doc&#45;&gt;calcipy.tasks.executable_utils</title>
<path fill="none" stroke="black" d="M2002.49,-108.03C1970.78,-117.94 1930.64,-130.49 1897.39,-140.88"/>
<polygon fill="black" stroke="black" points="1887.75,-143.89 1895.96,-136.61 1892.53,-142.4 1897.3,-140.91 1897.3,-140.91 1897.3,-140.91 1892.53,-142.4 1898.64,-145.2 1887.75,-143.89 1887.75,-143.89"/>
</g>
<!-- calcipy.tasks.lint&#45;&gt;calcipy.tasks.executable_utils -->
<g id="edge18" class="edge">
<title>calcipy.tasks.lint&#45;&gt;calcipy.tasks.executable_utils</title>
<path fill="none" stroke="black" d="M1502.09,-106.23C1505.1,-106.84 1508.08,-107.43 1511,-108 1576.46,-120.7 1649.79,-132.92 1709.92,-142.43"/>
<polygon fill="black" stroke="black" points="1719.84,-143.99 1709.26,-146.88 1714.9,-143.21 1709.96,-142.43 1709.96,-142.43 1709.96,-142.43 1714.9,-143.21 1710.66,-137.99 1719.84,-143.99 1719.84,-143.99"/>
</g>
<!-- calcipy.tasks.nox -->
<g id="node27" class="node">
<title>calcipy.tasks.nox</title>
<polygon fill="none" stroke="black" points="2279,-108 2143,-108 2143,-72 2279,-72 2279,-108"/>
<text text-anchor="middle" x="2211" y="-86.3" font-family="Times,serif" font-size="14.00">calcipy.tasks.nox</text>
</g>
<!-- calcipy.tasks.nox&#45;&gt;calcipy.tasks.executable_utils -->
<g id="edge19" class="edge">
<title>calcipy.tasks.nox&#45;&gt;calcipy.tasks.executable_utils</title>
<path fill="none" stroke="black" d="M2142.97,-105.99C2139.6,-106.68 2136.26,-107.36 2133,-108 2071.08,-120.21 2001.7,-132.56 1945.27,-142.26"/>
<polygon fill="black" stroke="black" points="1935.25,-143.97 1944.34,-137.85 1940.17,-143.13 1945.1,-142.28 1945.1,-142.28 1945.1,-142.28 1940.17,-143.13 1945.86,-146.72 1935.25,-143.97 1935.25,-143.97"/>
</g>
<!-- calcipy.tasks.pack&#45;&gt;calcipy.tasks.executable_utils -->
<g id="edge20" class="edge">
<title>calcipy.tasks.pack&#45;&gt;calcipy.tasks.executable_utils</title>
<path fill="none" stroke="black" d="M1650.65,-108.03C1684.91,-117.99 1728.32,-130.59 1764.19,-141.01"/>
<polygon fill="black" stroke="black" points="1774.09,-143.89 1763.23,-145.42 1769.29,-142.49 1764.49,-141.1 1764.49,-141.1 1764.49,-141.1 1769.29,-142.49 1765.74,-136.78 1774.09,-143.89 1774.09,-143.89"/>
</g>
<!-- calcipy.tasks.stale -->
<g id="node29" class="node">
<title>calcipy.tasks.stale</title>
<polygon fill="none" stroke="black" points="2442.5,-108 2297.5,-108 2297.5,-72 2442.5,-72 2442.5,-108"/>
<text text-anchor="middle" x="2370" y="-86.3" font-family="Times,serif" font-size="14.00">calcipy.tasks.stale</text>
</g>
<!-- calcipy.tasks.stale&#45;&gt;calcipy.tasks.executable_utils -->
<g id="edge21" class="edge">
<title>calcipy.tasks.stale&#45;&gt;calcipy.tasks.executable_utils</title>
<path fill="none" stroke="black" d="M2297.18,-106.44C2294.09,-106.99 2291.01,-107.51 2288,-108 2176.19,-126.07 2047.98,-140.43 1956.21,-149.63"/>
<polygon fill="black" stroke="black" points="1946.04,-150.64 1955.55,-145.17 1951.02,-150.14 1955.99,-149.65 1955.99,-149.65 1955.99,-149.65 1951.02,-150.14 1956.44,-154.13 1946.04,-150.64 1946.04,-150.64"/>
</g>
<!-- calcipy.tasks.tags&#45;&gt;calcipy.tasks.defaults -->
<g id="edge22" class="edge">
<title>calcipy.tasks.tags&#45;&gt;calcipy.tasks.defaults</title>
<path fill="none" stroke="black" d="M1110.64,-108.3C1104.77,-116.53 1097.63,-126.52 1091.16,-135.58"/>
<polygon fill="black" stroke="black" points="1085.22,-143.9 1087.37,-133.14 1088.12,-139.83 1091.03,-135.76 1091.03,-135.76 1091.03,-135.76 1088.12,-139.83 1094.69,-138.37 1085.22,-143.9 1085.22,-143.9"/>
</g>
<!-- calcipy.tasks.test -->
<g id="node31" class="node">
<title>calcipy.tasks.test</title>
<polygon fill="none" stroke="black" points="1350,-108 1212,-108 1212,-72 1350,-72 1350,-108"/>
<text text-anchor="middle" x="1281" y="-86.3" font-family="Times,serif" font-size="14.00">calcipy.tasks.test</text>
</g>
<!-- calcipy.tasks.test&#45;&gt;calcipy.tasks.defaults -->
<g id="edge23" class="edge">
<title>calcipy.tasks.test&#45;&gt;calcipy.tasks.defaults</title>
<path fill="none" stroke="black" d="M1230.38,-108.03C1201.19,-117.86 1164.31,-130.27 1133.58,-140.61"/>
<polygon fill="black" stroke="black" points="1123.84,-143.89 1131.89,-136.43 1128.58,-142.29 1133.32,-140.7 1133.32,-140.7 1133.32,-140.7 1128.58,-142.29 1134.76,-144.96 1123.84,-143.89 1123.84,-143.89"/>
</g>
<!-- calcipy.tasks.test&#45;&gt;calcipy.tasks.executable_utils -->
<g id="edge24" class="edge">
<title>calcipy.tasks.test&#45;&gt;calcipy.tasks.executable_utils</title>
<path fill="none" stroke="black" d="M1350.25,-106.48C1353.2,-107.02 1356.13,-107.53 1359,-108 1477.37,-127.46 1613.57,-141.87 1709.51,-150.71"/>
<polygon fill="black" stroke="black" points="1719.54,-151.63 1709.17,-155.2 1714.56,-151.17 1709.58,-150.72 1709.58,-150.72 1709.58,-150.72 1714.56,-151.17 1709.99,-146.24 1719.54,-151.63 1719.54,-151.63"/>
</g>
<!-- calcipy.tasks.types&#45;&gt;calcipy.tasks.executable_utils -->
<g id="edge25" class="edge">
<title>calcipy.tasks.types&#45;&gt;calcipy.tasks.executable_utils</title>
<path fill="none" stroke="black" d="M1775.03,-108.3C1784.54,-116.95 1796.21,-127.55 1806.57,-136.97"/>
<polygon fill="black" stroke="black" points="1814.19,-143.9 1803.76,-140.5 1810.49,-140.53 1806.79,-137.17 1806.79,-137.17 1806.79,-137.17 1810.49,-140.53 1809.81,-133.84 1814.19,-143.9 1814.19,-143.9"/>
</g>
</g>
</svg>
