<?xml version="1.0" encoding="UTF-8" standalone="no"?>
<!DOCTYPE svg PUBLIC "-//W3C//DTD SVG 1.1//EN"
 "http://www.w3.org/Graphics/SVG/1.1/DTD/svg11.dtd">
<!-- Generated by graphviz version 9.0.0 (20230911.1827)
 -->
<!-- Title: packages Pages: 1 -->
<svg width="2987pt" height="404pt"
 viewBox="0.00 0.00 2987.00 404.00" xmlns="http://www.w3.org/2000/svg" xmlns:xlink="http://www.w3.org/1999/xlink">
<g id="graph0" class="graph" transform="scale(1 1) rotate(0) translate(4 400)">
<title>packages</title>
<polygon fill="white" stroke="none" points="-4,4 -4,-400 2983,-400 2983,4 -4,4"/>
<!-- calcipy -->
<g id="node1" class="node">
<title>calcipy</title>
<polygon fill="none" stroke="black" points="55,-36 0,-36 0,0 55,0 55,-36"/>
<text text-anchor="middle" x="27.5" y="-12.95" font-family="Times,serif" font-size="14.00">calcipy</text>
</g>
<!-- calcipy.can_skip -->
<g id="node2" class="node">
<title>calcipy.can_skip</title>
<polygon fill="none" stroke="black" points="179.5,-36 73.5,-36 73.5,0 179.5,0 179.5,-36"/>
<text text-anchor="middle" x="126.5" y="-12.95" font-family="Times,serif" font-size="14.00">calcipy.can_skip</text>
</g>
<!-- calcipy.check_for_stale_packages -->
<g id="node3" class="node">
<title>calcipy.check_for_stale_packages</title>
<polygon fill="none" stroke="black" points="397.38,-36 197.62,-36 197.62,0 397.38,0 397.38,-36"/>
<text text-anchor="middle" x="297.5" y="-12.95" font-family="Times,serif" font-size="14.00">calcipy.check_for_stale_packages</text>
</g>
<!-- calcipy.check_for_stale_packages._check_for_stale_packages -->
<g id="node4" class="node">
<title>calcipy.check_for_stale_packages._check_for_stale_packages</title>
<polygon fill="none" stroke="black" points="473.5,-108 121.5,-108 121.5,-72 473.5,-72 473.5,-108"/>
<text text-anchor="middle" x="297.5" y="-84.95" font-family="Times,serif" font-size="14.00">calcipy.check_for_stale_packages._check_for_stale_packages</text>
</g>
<!-- calcipy.check_for_stale_packages&#45;&gt;calcipy.check_for_stale_packages._check_for_stale_packages -->
<g id="edge1" class="edge">
<title>calcipy.check_for_stale_packages&#45;&gt;calcipy.check_for_stale_packages._check_for_stale_packages</title>
<path fill="none" stroke="black" d="M297.5,-36.3C297.5,-43.68 297.5,-52.48 297.5,-60.75"/>
<polygon fill="black" stroke="black" points="297.5,-70.68 293,-60.68 297.5,-66.9 297.5,-60.68 297.5,-60.68 297.5,-60.68 297.5,-66.9 302,-60.68 297.5,-70.68"/>
</g>
<!-- calcipy.cli -->
<g id="node5" class="node">
<title>calcipy.cli</title>
<polygon fill="none" stroke="black" points="790.25,-108 718.75,-108 718.75,-72 790.25,-72 790.25,-108"/>
<text text-anchor="middle" x="754.5" y="-84.95" font-family="Times,serif" font-size="14.00">calcipy.cli</text>
</g>
<!-- calcipy.invoke_helpers -->
<g id="node14" class="node">
<title>calcipy.invoke_helpers</title>
<polygon fill="none" stroke="black" points="927.75,-180 787.25,-180 787.25,-144 927.75,-144 927.75,-180"/>
<text text-anchor="middle" x="857.5" y="-156.95" font-family="Times,serif" font-size="14.00">calcipy.invoke_helpers</text>
</g>
<!-- calcipy.cli&#45;&gt;calcipy.invoke_helpers -->
<g id="edge2" class="edge">
<title>calcipy.cli&#45;&gt;calcipy.invoke_helpers</title>
<path fill="none" stroke="black" d="M780.23,-108.48C793.23,-117.32 809.18,-128.16 823.21,-137.7"/>
<polygon fill="black" stroke="black" points="831.09,-143.05 820.29,-141.16 827.97,-140.93 822.82,-137.43 822.82,-137.43 822.82,-137.43 827.97,-140.93 825.35,-133.71 831.09,-143.05"/>
</g>
<!-- calcipy.tasks._invoke -->
<g id="node21" class="node">
<title>calcipy.tasks._invoke</title>
<polygon fill="none" stroke="black" points="1141.62,-252 1009.38,-252 1009.38,-216 1141.62,-216 1141.62,-252"/>
<text text-anchor="middle" x="1075.5" y="-228.95" font-family="Times,serif" font-size="14.00">calcipy.tasks._invoke</text>
</g>
<!-- calcipy.cli&#45;&gt;calcipy.tasks._invoke -->
<g id="edge3" class="edge">
<title>calcipy.cli&#45;&gt;calcipy.tasks._invoke</title>
<path fill="none" stroke="black" d="M754.02,-108.16C754.44,-128.4 758.45,-161.62 778.5,-180 809.82,-208.72 920.77,-222.32 997.81,-228.44"/>
<polygon fill="black" stroke="black" points="1007.7,-229.19 997.39,-232.92 1003.93,-228.9 997.73,-228.43 997.73,-228.43 997.73,-228.43 1003.93,-228.9 998.07,-223.94 1007.7,-229.19"/>
</g>
<!-- calcipy.code_tag_collector -->
<g id="node6" class="node">
<title>calcipy.code_tag_collector</title>
<polygon fill="none" stroke="black" points="1622.88,-36 1462.12,-36 1462.12,0 1622.88,0 1622.88,-36"/>
<text text-anchor="middle" x="1542.5" y="-12.95" font-family="Times,serif" font-size="14.00">calcipy.code_tag_collector</text>
</g>
<!-- calcipy.code_tag_collector._collector -->
<g id="node7" class="node">
<title>calcipy.code_tag_collector._collector</title>
<polygon fill="none" stroke="black" points="1651.38,-108 1433.62,-108 1433.62,-72 1651.38,-72 1651.38,-108"/>
<text text-anchor="middle" x="1542.5" y="-84.95" font-family="Times,serif" font-size="14.00">calcipy.code_tag_collector._collector</text>
</g>
<!-- calcipy.code_tag_collector&#45;&gt;calcipy.code_tag_collector._collector -->
<g id="edge4" class="edge">
<title>calcipy.code_tag_collector&#45;&gt;calcipy.code_tag_collector._collector</title>
<path fill="none" stroke="black" d="M1542.5,-36.3C1542.5,-43.68 1542.5,-52.48 1542.5,-60.75"/>
<polygon fill="black" stroke="black" points="1542.5,-70.68 1538,-60.68 1542.5,-66.9 1542.5,-60.68 1542.5,-60.68 1542.5,-60.68 1542.5,-66.9 1547,-60.68 1542.5,-70.68"/>
</g>
<!-- calcipy.dot_dict -->
<g id="node8" class="node">
<title>calcipy.dot_dict</title>
<polygon fill="none" stroke="black" points="1798.62,-36 1696.38,-36 1696.38,0 1798.62,0 1798.62,-36"/>
<text text-anchor="middle" x="1747.5" y="-12.95" font-family="Times,serif" font-size="14.00">calcipy.dot_dict</text>
</g>
<!-- calcipy.dot_dict._dot_dict -->
<g id="node9" class="node">
<title>calcipy.dot_dict._dot_dict</title>
<polygon fill="none" stroke="black" points="1826,-108 1669,-108 1669,-72 1826,-72 1826,-108"/>
<text text-anchor="middle" x="1747.5" y="-84.95" font-family="Times,serif" font-size="14.00">calcipy.dot_dict._dot_dict</text>
</g>
<!-- calcipy.dot_dict&#45;&gt;calcipy.dot_dict._dot_dict -->
<g id="edge5" class="edge">
<title>calcipy.dot_dict&#45;&gt;calcipy.dot_dict._dot_dict</title>
<path fill="none" stroke="black" d="M1747.5,-36.3C1747.5,-43.68 1747.5,-52.48 1747.5,-60.75"/>
<polygon fill="black" stroke="black" points="1747.5,-70.68 1743,-60.68 1747.5,-66.9 1747.5,-60.68 1747.5,-60.68 1747.5,-60.68 1747.5,-66.9 1752,-60.68 1747.5,-70.68"/>
</g>
<!-- calcipy.experiments -->
<g id="node10" class="node">
<title>calcipy.experiments</title>
<polygon fill="none" stroke="black" points="1941.88,-36 1817.12,-36 1817.12,0 1941.88,0 1941.88,-36"/>
<text text-anchor="middle" x="1879.5" y="-12.95" font-family="Times,serif" font-size="14.00">calcipy.experiments</text>
</g>
<!-- calcipy.experiments.bump_programmatically -->
<g id="node11" class="node">
<title>calcipy.experiments.bump_programmatically</title>
<polygon fill="none" stroke="black" points="2224.62,-36 1960.38,-36 1960.38,0 2224.62,0 2224.62,-36"/>
<text text-anchor="middle" x="2092.5" y="-12.95" font-family="Times,serif" font-size="14.00">calcipy.experiments.bump_programmatically</text>
</g>
<!-- calcipy.experiments.check_duplicate_test_names -->
<g id="node12" class="node">
<title>calcipy.experiments.check_duplicate_test_names</title>
<polygon fill="none" stroke="black" points="2526.38,-36 2242.62,-36 2242.62,0 2526.38,0 2526.38,-36"/>
<text text-anchor="middle" x="2384.5" y="-12.95" font-family="Times,serif" font-size="14.00">calcipy.experiments.check_duplicate_test_names</text>
</g>
<!-- calcipy.file_search -->
<g id="node13" class="node">
<title>calcipy.file_search</title>
<polygon fill="none" stroke="black" points="2662.12,-36 2544.88,-36 2544.88,0 2662.12,0 2662.12,-36"/>
<text text-anchor="middle" x="2603.5" y="-12.95" font-family="Times,serif" font-size="14.00">calcipy.file_search</text>
</g>
<!-- calcipy.md_writer -->
<g id="node15" class="node">
<title>calcipy.md_writer</title>
<polygon fill="none" stroke="black" points="2795,-36 2680,-36 2680,0 2795,0 2795,-36"/>
<text text-anchor="middle" x="2737.5" y="-12.95" font-family="Times,serif" font-size="14.00">calcipy.md_writer</text>
</g>
<!-- calcipy.md_writer._writer -->
<g id="node16" class="node">
<title>calcipy.md_writer._writer</title>
<polygon fill="none" stroke="black" points="2816,-108 2659,-108 2659,-72 2816,-72 2816,-108"/>
<text text-anchor="middle" x="2737.5" y="-84.95" font-family="Times,serif" font-size="14.00">calcipy.md_writer._writer</text>
</g>
<!-- calcipy.md_writer&#45;&gt;calcipy.md_writer._writer -->
<g id="edge6" class="edge">
<title>calcipy.md_writer&#45;&gt;calcipy.md_writer._writer</title>
<path fill="none" stroke="black" d="M2737.5,-36.3C2737.5,-43.68 2737.5,-52.48 2737.5,-60.75"/>
<polygon fill="black" stroke="black" points="2737.5,-70.68 2733,-60.68 2737.5,-66.9 2737.5,-60.68 2737.5,-60.68 2737.5,-60.68 2737.5,-66.9 2742,-60.68 2737.5,-70.68"/>
</g>
<!-- calcipy.noxfile -->
<g id="node17" class="node">
<title>calcipy.noxfile</title>
<polygon fill="none" stroke="black" points="2954.62,-36 2858.38,-36 2858.38,0 2954.62,0 2954.62,-36"/>
<text text-anchor="middle" x="2906.5" y="-12.95" font-family="Times,serif" font-size="14.00">calcipy.noxfile</text>
</g>
<!-- calcipy.noxfile._noxfile -->
<g id="node18" class="node">
<title>calcipy.noxfile._noxfile</title>
<polygon fill="none" stroke="black" points="2979,-108 2834,-108 2834,-72 2979,-72 2979,-108"/>
<text text-anchor="middle" x="2906.5" y="-84.95" font-family="Times,serif" font-size="14.00">calcipy.noxfile._noxfile</text>
</g>
<!-- calcipy.noxfile&#45;&gt;calcipy.noxfile._noxfile -->
<g id="edge7" class="edge">
<title>calcipy.noxfile&#45;&gt;calcipy.noxfile._noxfile</title>
<path fill="none" stroke="black" d="M2906.5,-36.3C2906.5,-43.68 2906.5,-52.48 2906.5,-60.75"/>
<polygon fill="black" stroke="black" points="2906.5,-70.68 2902,-60.68 2906.5,-66.9 2906.5,-60.68 2906.5,-60.68 2906.5,-60.68 2906.5,-66.9 2911,-60.68 2906.5,-70.68"/>
</g>
<!-- calcipy.scripts -->
<g id="node19" class="node">
<title>calcipy.scripts</title>
<polygon fill="none" stroke="black" points="993.12,-36 899.88,-36 899.88,0 993.12,0 993.12,-36"/>
<text text-anchor="middle" x="946.5" y="-12.95" font-family="Times,serif" font-size="14.00">calcipy.scripts</text>
</g>
<!-- calcipy.scripts&#45;&gt;calcipy.cli -->
<g id="edge8" class="edge">
<title>calcipy.scripts&#45;&gt;calcipy.cli</title>
<path fill="none" stroke="black" d="M899.43,-35.77C872.92,-45.26 838.97,-57.49 800.7,-71.58"/>
<polygon fill="black" stroke="black" points="791.49,-74.98 799.31,-67.3 795.03,-73.67 800.87,-71.52 800.87,-71.52 800.87,-71.52 795.03,-73.67 802.43,-75.74 791.49,-74.98"/>
</g>
<!-- calcipy.tasks -->
<g id="node20" class="node">
<title>calcipy.tasks</title>
<polygon fill="none" stroke="black" points="1416,-108 1331,-108 1331,-72 1416,-72 1416,-108"/>
<text text-anchor="middle" x="1373.5" y="-84.95" font-family="Times,serif" font-size="14.00">calcipy.tasks</text>
</g>
<!-- calcipy.scripts&#45;&gt;calcipy.tasks -->
<g id="edge9" class="edge">
<title>calcipy.scripts&#45;&gt;calcipy.tasks</title>
<path fill="none" stroke="black" d="M993.62,-23.5C1064.32,-30.75 1201.78,-46.82 1316.5,-72 1317.66,-72.25 1318.83,-72.52 1320.01,-72.8"/>
<polygon fill="black" stroke="black" points="1329.55,-75.21 1318.75,-77.12 1325.88,-74.28 1319.85,-72.76 1319.85,-72.76 1319.85,-72.76 1325.88,-74.28 1320.95,-68.39 1329.55,-75.21"/>
</g>
<!-- calcipy.scripts&#45;&gt;calcipy.tasks._invoke -->
<g id="edge10" class="edge">
<title>calcipy.scripts&#45;&gt;calcipy.tasks._invoke</title>
<path fill="none" stroke="black" d="M993.36,-20.26C1069.27,-23.39 1213.87,-34.28 1245.5,-72 1291.11,-126.41 1195.36,-181.52 1129.9,-211.04"/>
<polygon fill="black" stroke="black" points="1120.79,-215.07 1128.12,-206.91 1124.25,-213.54 1129.94,-211.03 1129.94,-211.03 1129.94,-211.03 1124.25,-213.54 1131.76,-215.14 1120.79,-215.07"/>
</g>
<!-- calcipy.tasks.all_tasks -->
<g id="node22" class="node">
<title>calcipy.tasks.all_tasks</title>
<polygon fill="none" stroke="black" points="944.5,-108 808.5,-108 808.5,-72 944.5,-72 944.5,-108"/>
<text text-anchor="middle" x="876.5" y="-84.95" font-family="Times,serif" font-size="14.00">calcipy.tasks.all_tasks</text>
</g>
<!-- calcipy.scripts&#45;&gt;calcipy.tasks.all_tasks -->
<g id="edge11" class="edge">
<title>calcipy.scripts&#45;&gt;calcipy.tasks.all_tasks</title>
<path fill="none" stroke="black" d="M929.2,-36.3C920.8,-44.7 910.57,-54.93 901.36,-64.14"/>
<polygon fill="black" stroke="black" points="894.47,-71.03 898.35,-60.78 897.14,-68.36 901.54,-63.96 901.54,-63.96 901.54,-63.96 897.14,-68.36 904.72,-67.15 894.47,-71.03"/>
</g>
<!-- calcipy.tasks.cl -->
<g id="node23" class="node">
<title>calcipy.tasks.cl</title>
<polygon fill="none" stroke="black" points="530.75,-180 432.25,-180 432.25,-144 530.75,-144 530.75,-180"/>
<text text-anchor="middle" x="481.5" y="-156.95" font-family="Times,serif" font-size="14.00">calcipy.tasks.cl</text>
</g>
<!-- calcipy.scripts&#45;&gt;calcipy.tasks.cl -->
<g id="edge12" class="edge">
<title>calcipy.scripts&#45;&gt;calcipy.tasks.cl</title>
<path fill="none" stroke="black" d="M899.41,-20.59C806.68,-24.46 604.32,-36.79 545.5,-72 521.72,-86.23 504.29,-113.07 493.67,-133.57"/>
<polygon fill="black" stroke="black" points="489.28,-142.51 489.65,-131.55 490.95,-139.12 493.69,-133.54 493.69,-133.54 493.69,-133.54 490.95,-139.12 497.73,-135.52 489.28,-142.51"/>
</g>
<!-- calcipy.tasks.defaults -->
<g id="node24" class="node">
<title>calcipy.tasks.defaults</title>
<polygon fill="none" stroke="black" points="1141.25,-180 1009.75,-180 1009.75,-144 1141.25,-144 1141.25,-180"/>
<text text-anchor="middle" x="1075.5" y="-156.95" font-family="Times,serif" font-size="14.00">calcipy.tasks.defaults</text>
</g>
<!-- calcipy.scripts&#45;&gt;calcipy.tasks.defaults -->
<g id="edge13" class="edge">
<title>calcipy.scripts&#45;&gt;calcipy.tasks.defaults</title>
<path fill="none" stroke="black" d="M993.3,-24.04C1023.95,-30.04 1061.86,-43.19 1081.5,-72 1093.55,-89.67 1090.85,-114.18 1085.81,-133.01"/>
<polygon fill="black" stroke="black" points="1082.93,-142.44 1081.54,-131.57 1084.03,-138.83 1085.85,-132.88 1085.85,-132.88 1085.85,-132.88 1084.03,-138.83 1090.15,-134.19 1082.93,-142.44"/>
</g>
<!-- calcipy.tasks.doc -->
<g id="node25" class="node">
<title>calcipy.tasks.doc</title>
<polygon fill="none" stroke="black" points="615.62,-252 507.38,-252 507.38,-216 615.62,-216 615.62,-252"/>
<text text-anchor="middle" x="561.5" y="-228.95" font-family="Times,serif" font-size="14.00">calcipy.tasks.doc</text>
</g>
<!-- calcipy.scripts&#45;&gt;calcipy.tasks.doc -->
<g id="edge14" class="edge">
<title>calcipy.scripts&#45;&gt;calcipy.tasks.doc</title>
<path fill="none" stroke="black" d="M899.49,-18.63C838.23,-20.04 729.39,-29.09 648.5,-72 609.07,-92.92 599.11,-104.41 578.5,-144 568.73,-162.77 564.53,-186.39 562.75,-204.58"/>
<polygon fill="black" stroke="black" points="561.99,-214.43 558.27,-204.11 562.28,-210.66 562.76,-204.46 562.76,-204.46 562.76,-204.46 562.28,-210.66 567.25,-204.81 561.99,-214.43"/>
</g>
<!-- calcipy.tasks.lint -->
<g id="node27" class="node">
<title>calcipy.tasks.lint</title>
<polygon fill="none" stroke="black" points="693.88,-180 587.12,-180 587.12,-144 693.88,-144 693.88,-180"/>
<text text-anchor="middle" x="640.5" y="-156.95" font-family="Times,serif" font-size="14.00">calcipy.tasks.lint</text>
</g>
<!-- calcipy.scripts&#45;&gt;calcipy.tasks.lint -->
<g id="edge15" class="edge">
<title>calcipy.scripts&#45;&gt;calcipy.tasks.lint</title>
<path fill="none" stroke="black" d="M899.42,-22.87C831.34,-29.34 709.88,-44.44 676.5,-72 658.23,-87.08 649.15,-112.84 644.69,-132.78"/>
<polygon fill="black" stroke="black" points="642.79,-142.53 640.29,-131.85 643.52,-138.82 644.7,-132.71 644.7,-132.71 644.7,-132.71 643.52,-138.82 649.12,-133.57 642.79,-142.53"/>
</g>
<!-- calcipy.tasks.pack -->
<g id="node29" class="node">
<title>calcipy.tasks.pack</title>
<polygon fill="none" stroke="black" points="826.62,-252 712.38,-252 712.38,-216 826.62,-216 826.62,-252"/>
<text text-anchor="middle" x="769.5" y="-228.95" font-family="Times,serif" font-size="14.00">calcipy.tasks.pack</text>
</g>
<!-- calcipy.scripts&#45;&gt;calcipy.tasks.pack -->
<g id="edge16" class="edge">
<title>calcipy.scripts&#45;&gt;calcipy.tasks.pack</title>
<path fill="none" stroke="black" d="M899.39,-22.71C837.19,-28.69 732.83,-42.88 709.5,-72 676.8,-112.82 717.04,-173.25 745.64,-207.27"/>
<polygon fill="black" stroke="black" points="752.17,-214.81 742.22,-210.2 749.7,-211.95 745.62,-207.25 745.62,-207.25 745.62,-207.25 749.7,-211.95 749.02,-204.31 752.17,-214.81"/>
</g>
<!-- calcipy.tasks.tags -->
<g id="node31" class="node">
<title>calcipy.tasks.tags</title>
<polygon fill="none" stroke="black" points="1072.75,-108 962.25,-108 962.25,-72 1072.75,-72 1072.75,-108"/>
<text text-anchor="middle" x="1017.5" y="-84.95" font-family="Times,serif" font-size="14.00">calcipy.tasks.tags</text>
</g>
<!-- calcipy.scripts&#45;&gt;calcipy.tasks.tags -->
<g id="edge17" class="edge">
<title>calcipy.scripts&#45;&gt;calcipy.tasks.tags</title>
<path fill="none" stroke="black" d="M964.05,-36.3C972.56,-44.7 982.94,-54.93 992.28,-64.14"/>
<polygon fill="black" stroke="black" points="999.28,-71.04 989,-67.22 996.59,-68.39 992.16,-64.02 992.16,-64.02 992.16,-64.02 996.59,-68.39 995.32,-60.81 999.28,-71.04"/>
</g>
<!-- calcipy.tasks.test -->
<g id="node32" class="node">
<title>calcipy.tasks.test</title>
<polygon fill="none" stroke="black" points="1236.25,-108 1128.75,-108 1128.75,-72 1236.25,-72 1236.25,-108"/>
<text text-anchor="middle" x="1182.5" y="-84.95" font-family="Times,serif" font-size="14.00">calcipy.tasks.test</text>
</g>
<!-- calcipy.scripts&#45;&gt;calcipy.tasks.test -->
<g id="edge18" class="edge">
<title>calcipy.scripts&#45;&gt;calcipy.tasks.test</title>
<path fill="none" stroke="black" d="M993.41,-32.91C1029.12,-43.51 1078.67,-58.2 1118.1,-69.9"/>
<polygon fill="black" stroke="black" points="1127.5,-72.69 1116.63,-74.16 1123.87,-71.61 1117.91,-69.84 1117.91,-69.84 1117.91,-69.84 1123.87,-71.61 1119.19,-65.53 1127.5,-72.69"/>
</g>
<!-- calcipy.tasks.types -->
<g id="node33" class="node">
<title>calcipy.tasks.types</title>
<polygon fill="none" stroke="black" points="1358.12,-324 1240.88,-324 1240.88,-288 1358.12,-288 1358.12,-324"/>
<text text-anchor="middle" x="1299.5" y="-300.95" font-family="Times,serif" font-size="14.00">calcipy.tasks.types</text>
</g>
<!-- calcipy.scripts&#45;&gt;calcipy.tasks.types -->
<g id="edge19" class="edge">
<title>calcipy.scripts&#45;&gt;calcipy.tasks.types</title>
<path fill="none" stroke="black" d="M993.61,-20.23C1073.01,-23.34 1228.46,-34.22 1265.5,-72 1319.57,-127.15 1312.35,-227.79 1304.86,-276.75"/>
<polygon fill="black" stroke="black" points="1303.23,-286.55 1300.43,-275.95 1303.85,-282.82 1304.87,-276.69 1304.87,-276.69 1304.87,-276.69 1303.85,-282.82 1309.31,-277.42 1303.23,-286.55"/>
</g>
<!-- calcipy.tasks._invoke&#45;&gt;calcipy.tasks.types -->
<g id="edge20" class="edge">
<title>calcipy.tasks._invoke&#45;&gt;calcipy.tasks.types</title>
<path fill="none" stroke="black" d="M1131.45,-252.48C1162.43,-262.17 1201.13,-274.26 1233.58,-284.4"/>
<polygon fill="black" stroke="black" points="1242.72,-287.25 1231.83,-288.57 1239.11,-286.13 1233.17,-284.27 1233.17,-284.27 1233.17,-284.27 1239.11,-286.13 1234.51,-279.98 1242.72,-287.25"/>
</g>
<!-- calcipy.tasks.all_tasks&#45;&gt;calcipy.tasks._invoke -->
<g id="edge21" class="edge">
<title>calcipy.tasks.all_tasks&#45;&gt;calcipy.tasks._invoke</title>
<path fill="none" stroke="black" d="M900.7,-108.45C925.66,-126.43 965.75,-155.25 1000.5,-180 1013.98,-189.6 1028.86,-200.13 1041.79,-209.26"/>
<polygon fill="black" stroke="black" points="1049.81,-214.92 1039.05,-212.83 1046.72,-212.74 1041.64,-209.15 1041.64,-209.15 1041.64,-209.15 1046.72,-212.74 1044.24,-205.48 1049.81,-214.92"/>
</g>
<!-- calcipy.tasks.all_tasks&#45;&gt;calcipy.tasks.defaults -->
<g id="edge22" class="edge">
<title>calcipy.tasks.all_tasks&#45;&gt;calcipy.tasks.defaults</title>
<path fill="none" stroke="black" d="M926.2,-108.48C953.37,-118.04 987.22,-129.95 1015.81,-140"/>
<polygon fill="black" stroke="black" points="1024.94,-143.21 1014.01,-144.14 1021.37,-141.96 1015.5,-139.9 1015.5,-139.9 1015.5,-139.9 1021.37,-141.96 1017,-135.65 1024.94,-143.21"/>
</g>
<!-- calcipy.tasks.executable_utils -->
<g id="node26" class="node">
<title>calcipy.tasks.executable_utils</title>
<polygon fill="none" stroke="black" points="855.75,-396 679.25,-396 679.25,-360 855.75,-360 855.75,-396"/>
<text text-anchor="middle" x="767.5" y="-372.95" font-family="Times,serif" font-size="14.00">calcipy.tasks.executable_utils</text>
</g>
<!-- calcipy.tasks.cl&#45;&gt;calcipy.tasks.executable_utils -->
<g id="edge23" class="edge">
<title>calcipy.tasks.cl&#45;&gt;calcipy.tasks.executable_utils</title>
<path fill="none" stroke="black" d="M481.27,-180.36C481.79,-199.3 484.93,-229.88 498.5,-252 525.84,-296.55 545.03,-300.06 591.5,-324 618.04,-337.67 648.68,-348.43 676.89,-356.57"/>
<polygon fill="black" stroke="black" points="686.39,-359.24 675.55,-360.87 682.75,-358.22 676.77,-356.54 676.77,-356.54 676.77,-356.54 682.75,-358.22 677.98,-352.21 686.39,-359.24"/>
</g>
<!-- calcipy.tasks.defaults&#45;&gt;calcipy.tasks._invoke -->
<g id="edge24" class="edge">
<title>calcipy.tasks.defaults&#45;&gt;calcipy.tasks._invoke</title>
<path fill="none" stroke="black" d="M1075.5,-180.3C1075.5,-187.68 1075.5,-196.48 1075.5,-204.75"/>
<polygon fill="black" stroke="black" points="1075.5,-214.68 1071,-204.68 1075.5,-210.9 1075.5,-204.68 1075.5,-204.68 1075.5,-204.68 1075.5,-210.9 1080,-204.68 1075.5,-214.68"/>
</g>
<!-- calcipy.tasks.doc&#45;&gt;calcipy.tasks.executable_utils -->
<g id="edge25" class="edge">
<title>calcipy.tasks.doc&#45;&gt;calcipy.tasks.executable_utils</title>
<path fill="none" stroke="black" d="M570.81,-252.38C582.23,-272.21 603.35,-304.42 629.5,-324 647.43,-337.42 669.17,-347.85 690.04,-355.77"/>
<polygon fill="black" stroke="black" points="699.37,-359.15 688.44,-359.97 695.82,-357.86 689.97,-355.74 689.97,-355.74 689.97,-355.74 695.82,-357.86 691.51,-351.51 699.37,-359.15"/>
</g>
<!-- calcipy.tasks.lint&#45;&gt;calcipy.tasks.executable_utils -->
<g id="edge26" class="edge">
<title>calcipy.tasks.lint&#45;&gt;calcipy.tasks.executable_utils</title>
<path fill="none" stroke="black" d="M637.98,-180.38C634.36,-212.1 631.21,-280.13 662.5,-324 671.8,-337.03 685.25,-347.06 699.44,-354.69"/>
<polygon fill="black" stroke="black" points="708.25,-359.06 697.29,-358.64 704.86,-357.38 699.29,-354.61 699.29,-354.61 699.29,-354.61 704.86,-357.38 701.29,-350.58 708.25,-359.06"/>
</g>
<!-- calcipy.tasks.nox -->
<g id="node28" class="node">
<title>calcipy.tasks.nox</title>
<polygon fill="none" stroke="black" points="781,-324 672,-324 672,-288 781,-288 781,-324"/>
<text text-anchor="middle" x="726.5" y="-300.95" font-family="Times,serif" font-size="14.00">calcipy.tasks.nox</text>
</g>
<!-- calcipy.tasks.nox&#45;&gt;calcipy.tasks.executable_utils -->
<g id="edge27" class="edge">
<title>calcipy.tasks.nox&#45;&gt;calcipy.tasks.executable_utils</title>
<path fill="none" stroke="black" d="M736.63,-324.3C741.25,-332.19 746.82,-341.7 751.95,-350.45"/>
<polygon fill="black" stroke="black" points="756.87,-358.84 747.93,-352.49 754.95,-355.58 751.81,-350.22 751.81,-350.22 751.81,-350.22 754.95,-355.58 755.69,-347.94 756.87,-358.84"/>
</g>
<!-- calcipy.tasks.pack&#45;&gt;calcipy.tasks.executable_utils -->
<g id="edge28" class="edge">
<title>calcipy.tasks.pack&#45;&gt;calcipy.tasks.executable_utils</title>
<path fill="none" stroke="black" d="M777.81,-252.21C782.24,-262.37 787.24,-275.62 789.5,-288 792.37,-303.74 792.63,-308.31 789.5,-324 787.77,-332.7 784.58,-341.75 781.16,-349.86"/>
<polygon fill="black" stroke="black" points="777.13,-358.77 777.15,-347.8 778.69,-355.32 781.25,-349.66 781.25,-349.66 781.25,-349.66 778.69,-355.32 785.35,-351.51 777.13,-358.77"/>
</g>
<!-- calcipy.tasks.stale -->
<g id="node30" class="node">
<title>calcipy.tasks.stale</title>
<polygon fill="none" stroke="black" points="951.25,-324 837.75,-324 837.75,-288 951.25,-288 951.25,-324"/>
<text text-anchor="middle" x="894.5" y="-300.95" font-family="Times,serif" font-size="14.00">calcipy.tasks.stale</text>
</g>
<!-- calcipy.tasks.stale&#45;&gt;calcipy.tasks.executable_utils -->
<g id="edge29" class="edge">
<title>calcipy.tasks.stale&#45;&gt;calcipy.tasks.executable_utils</title>
<path fill="none" stroke="black" d="M862.78,-324.48C846.29,-333.57 825.95,-344.78 808.3,-354.51"/>
<polygon fill="black" stroke="black" points="799.88,-359.15 806.47,-350.38 803.19,-357.33 808.64,-354.32 808.64,-354.32 808.64,-354.32 803.19,-357.33 810.81,-358.27 799.88,-359.15"/>
</g>
<!-- calcipy.tasks.tags&#45;&gt;calcipy.tasks.defaults -->
<g id="edge30" class="edge">
<title>calcipy.tasks.tags&#45;&gt;calcipy.tasks.defaults</title>
<path fill="none" stroke="black" d="M1031.84,-108.3C1038.58,-116.44 1046.76,-126.31 1054.2,-135.3"/>
<polygon fill="black" stroke="black" points="1060.55,-142.96 1050.71,-138.13 1058.14,-140.05 1054.17,-135.26 1054.17,-135.26 1054.17,-135.26 1058.14,-140.05 1057.64,-132.39 1060.55,-142.96"/>
</g>
<!-- calcipy.tasks.test&#45;&gt;calcipy.tasks.defaults -->
<g id="edge31" class="edge">
<title>calcipy.tasks.test&#45;&gt;calcipy.tasks.defaults</title>
<path fill="none" stroke="black" d="M1155.78,-108.48C1142.27,-117.32 1125.69,-128.16 1111.12,-137.7"/>
<polygon fill="black" stroke="black" points="1102.9,-143.07 1108.81,-133.83 1106.07,-141 1111.27,-137.6 1111.27,-137.6 1111.27,-137.6 1106.07,-141 1113.74,-141.36 1102.9,-143.07"/>
</g>
<!-- calcipy.tasks.test&#45;&gt;calcipy.tasks.executable_utils -->
<g id="edge32" class="edge">
<title>calcipy.tasks.test&#45;&gt;calcipy.tasks.executable_utils</title>
<path fill="none" stroke="black" d="M1184.13,-108.33C1186.17,-140.55 1185.85,-210.23 1150.5,-252 1080.62,-334.56 955.42,-362.99 867.22,-372.56"/>
<polygon fill="black" stroke="black" points="857.33,-373.56 866.82,-368.07 861.09,-373.18 867.28,-372.55 867.28,-372.55 867.28,-372.55 861.09,-373.18 867.73,-377.03 857.33,-373.56"/>
</g>
<!-- calcipy.tasks.types&#45;&gt;calcipy.tasks.executable_utils -->
<g id="edge33" class="edge">
<title>calcipy.tasks.types&#45;&gt;calcipy.tasks.executable_utils</title>
<path fill="none" stroke="black" d="M1240.65,-321.31C1235.88,-322.29 1231.12,-323.2 1226.5,-324 1103.46,-345.36 960.34,-360.34 867.05,-368.8"/>
<polygon fill="black" stroke="black" points="857.13,-369.69 866.69,-364.31 860.9,-369.35 867.09,-368.8 867.09,-368.8 867.09,-368.8 860.9,-369.35 867.5,-373.28 857.13,-369.69"/>
</g>
</g>
</svg>
