<?xml version="1.0" encoding="UTF-8" standalone="no"?>
<!DOCTYPE svg PUBLIC "-//W3C//DTD SVG 1.1//EN"
 "http://www.w3.org/Graphics/SVG/1.1/DTD/svg11.dtd">
<!-- Generated by graphviz version 2.43.0 (0)
 -->
<!-- Title: packages Pages: 1 -->
<svg width="2597pt" height="548pt"
 viewBox="0.00 0.00 2596.50 548.00" xmlns="http://www.w3.org/2000/svg" xmlns:xlink="http://www.w3.org/1999/xlink">
<g id="graph0" class="graph" transform="scale(1 1) rotate(0) translate(4 544)">
<title>packages</title>
<polygon fill="white" stroke="transparent" points="-4,4 -4,-544 2592.5,-544 2592.5,4 -4,4"/>
<!-- calcipy -->
<g id="node1" class="node">
<title>calcipy</title>
<polygon fill="none" stroke="black" points="138.5,-252 72.5,-252 72.5,-216 138.5,-216 138.5,-252"/>
<text text-anchor="middle" x="105.5" y="-230.3" font-family="Times,serif" font-size="14.00">calcipy</text>
</g>
<!-- calcipy.can_skip -->
<g id="node2" class="node">
<title>calcipy.can_skip</title>
<polygon fill="none" stroke="black" points="286,-252 157,-252 157,-216 286,-216 286,-252"/>
<text text-anchor="middle" x="221.5" y="-230.3" font-family="Times,serif" font-size="14.00">calcipy.can_skip</text>
</g>
<!-- calcipy.check_for_stale_packages -->
<g id="node3" class="node">
<title>calcipy.check_for_stale_packages</title>
<polygon fill="none" stroke="black" points="766.5,-108 516.5,-108 516.5,-72 766.5,-72 766.5,-108"/>
<text text-anchor="middle" x="641.5" y="-86.3" font-family="Times,serif" font-size="14.00">calcipy.check_for_stale_packages</text>
</g>
<!-- calcipy.check_for_stale_packages._check_for_stale_packages -->
<g id="node4" class="node">
<title>calcipy.check_for_stale_packages._check_for_stale_packages</title>
<polygon fill="none" stroke="black" points="443,-180 0,-180 0,-144 443,-144 443,-180"/>
<text text-anchor="middle" x="221.5" y="-158.3" font-family="Times,serif" font-size="14.00">calcipy.check_for_stale_packages._check_for_stale_packages</text>
</g>
<!-- calcipy.check_for_stale_packages&#45;&gt;calcipy.check_for_stale_packages._check_for_stale_packages -->
<g id="edge1" class="edge">
<title>calcipy.check_for_stale_packages&#45;&gt;calcipy.check_for_stale_packages._check_for_stale_packages</title>
<path fill="none" stroke="black" d="M539.29,-108.03C477.18,-118.39 397.8,-131.62 333.92,-142.26"/>
<polygon fill="black" stroke="black" points="323.8,-143.95 332.92,-137.87 328.73,-143.13 333.66,-142.31 333.66,-142.31 333.66,-142.31 328.73,-143.13 334.4,-146.74 323.8,-143.95 323.8,-143.95"/>
</g>
<!-- calcipy.check_for_stale_packages._check_for_stale_packages&#45;&gt;calcipy -->
<g id="edge2" class="edge">
<title>calcipy.check_for_stale_packages._check_for_stale_packages&#45;&gt;calcipy</title>
<path fill="none" stroke="black" d="M193.12,-180.12C177.96,-189.28 159.09,-200.66 142.76,-210.52"/>
<polygon fill="black" stroke="black" points="133.99,-215.81 140.22,-206.79 138.27,-213.23 142.55,-210.64 142.55,-210.64 142.55,-210.64 138.27,-213.23 144.87,-214.5 133.99,-215.81 133.99,-215.81"/>
</g>
<!-- calcipy.check_for_stale_packages._check_for_stale_packages&#45;&gt;calcipy.can_skip -->
<g id="edge3" class="edge">
<title>calcipy.check_for_stale_packages._check_for_stale_packages&#45;&gt;calcipy.can_skip</title>
<path fill="none" stroke="black" d="M221.5,-180.3C221.5,-188.02 221.5,-197.29 221.5,-205.89"/>
<polygon fill="black" stroke="black" points="221.5,-215.9 217,-205.9 221.5,-210.9 221.5,-205.9 221.5,-205.9 221.5,-205.9 221.5,-210.9 226,-205.9 221.5,-215.9 221.5,-215.9"/>
</g>
<!-- calcipy.cli -->
<g id="node5" class="node">
<title>calcipy.cli</title>
<polygon fill="none" stroke="black" points="1790,-252 1705,-252 1705,-216 1790,-216 1790,-252"/>
<text text-anchor="middle" x="1747.5" y="-230.3" font-family="Times,serif" font-size="14.00">calcipy.cli</text>
</g>
<!-- calcipy.invoke_helpers -->
<g id="node14" class="node">
<title>calcipy.invoke_helpers</title>
<polygon fill="none" stroke="black" points="1944,-540 1769,-540 1769,-504 1944,-504 1944,-540"/>
<text text-anchor="middle" x="1856.5" y="-518.3" font-family="Times,serif" font-size="14.00">calcipy.invoke_helpers</text>
</g>
<!-- calcipy.cli&#45;&gt;calcipy.invoke_helpers -->
<g id="edge4" class="edge">
<title>calcipy.cli&#45;&gt;calcipy.invoke_helpers</title>
<path fill="none" stroke="black" d="M1753.99,-252.03C1772.24,-299.91 1824.08,-435.94 1846.25,-494.1"/>
<polygon fill="black" stroke="black" points="1849.9,-503.69 1842.14,-495.95 1848.12,-499.02 1846.34,-494.35 1846.34,-494.35 1846.34,-494.35 1848.12,-499.02 1850.55,-492.75 1849.9,-503.69 1849.9,-503.69"/>
</g>
<!-- calcipy.tasks._invoke -->
<g id="node21" class="node">
<title>calcipy.tasks._invoke</title>
<polygon fill="none" stroke="black" points="1230.5,-324 1066.5,-324 1066.5,-288 1230.5,-288 1230.5,-324"/>
<text text-anchor="middle" x="1148.5" y="-302.3" font-family="Times,serif" font-size="14.00">calcipy.tasks._invoke</text>
</g>
<!-- calcipy.cli&#45;&gt;calcipy.tasks._invoke -->
<g id="edge5" class="edge">
<title>calcipy.cli&#45;&gt;calcipy.tasks._invoke</title>
<path fill="none" stroke="black" d="M1704.87,-249.82C1701.72,-250.64 1698.57,-251.38 1695.5,-252 1498.34,-291.52 1443.95,-262.44 1244.5,-288 1243.23,-288.16 1241.94,-288.33 1240.65,-288.51"/>
<polygon fill="black" stroke="black" points="1230.64,-289.92 1239.91,-284.07 1235.59,-289.22 1240.54,-288.52 1240.54,-288.52 1240.54,-288.52 1235.59,-289.22 1241.17,-292.98 1230.64,-289.92 1230.64,-289.92"/>
</g>
<!-- calcipy.code_tag_collector -->
<g id="node6" class="node">
<title>calcipy.code_tag_collector</title>
<polygon fill="none" stroke="black" points="2198.5,-252 1998.5,-252 1998.5,-216 2198.5,-216 2198.5,-252"/>
<text text-anchor="middle" x="2098.5" y="-230.3" font-family="Times,serif" font-size="14.00">calcipy.code_tag_collector</text>
</g>
<!-- calcipy.code_tag_collector._collector -->
<g id="node7" class="node">
<title>calcipy.code_tag_collector._collector</title>
<polygon fill="none" stroke="black" points="2232,-324 1961,-324 1961,-288 2232,-288 2232,-324"/>
<text text-anchor="middle" x="2096.5" y="-302.3" font-family="Times,serif" font-size="14.00">calcipy.code_tag_collector._collector</text>
</g>
<!-- calcipy.code_tag_collector&#45;&gt;calcipy.code_tag_collector._collector -->
<g id="edge6" class="edge">
<title>calcipy.code_tag_collector&#45;&gt;calcipy.code_tag_collector._collector</title>
<path fill="none" stroke="black" d="M2098.01,-252.3C2097.79,-260.02 2097.52,-269.29 2097.27,-277.89"/>
<polygon fill="black" stroke="black" points="2096.99,-287.9 2092.78,-277.77 2097.13,-282.9 2097.27,-277.9 2097.27,-277.9 2097.27,-277.9 2097.13,-282.9 2101.77,-278.03 2096.99,-287.9 2096.99,-287.9"/>
</g>
<!-- calcipy.dot_dict -->
<g id="node8" class="node">
<title>calcipy.dot_dict</title>
<polygon fill="none" stroke="black" points="1957,-36 1832,-36 1832,0 1957,0 1957,-36"/>
<text text-anchor="middle" x="1894.5" y="-14.3" font-family="Times,serif" font-size="14.00">calcipy.dot_dict</text>
</g>
<!-- calcipy.dot_dict._dot_dict -->
<g id="node9" class="node">
<title>calcipy.dot_dict._dot_dict</title>
<polygon fill="none" stroke="black" points="1991.5,-108 1797.5,-108 1797.5,-72 1991.5,-72 1991.5,-108"/>
<text text-anchor="middle" x="1894.5" y="-86.3" font-family="Times,serif" font-size="14.00">calcipy.dot_dict._dot_dict</text>
</g>
<!-- calcipy.dot_dict&#45;&gt;calcipy.dot_dict._dot_dict -->
<g id="edge7" class="edge">
<title>calcipy.dot_dict&#45;&gt;calcipy.dot_dict._dot_dict</title>
<path fill="none" stroke="black" d="M1894.5,-36.3C1894.5,-44.02 1894.5,-53.29 1894.5,-61.89"/>
<polygon fill="black" stroke="black" points="1894.5,-71.9 1890,-61.9 1894.5,-66.9 1894.5,-61.9 1894.5,-61.9 1894.5,-61.9 1894.5,-66.9 1899,-61.9 1894.5,-71.9 1894.5,-71.9"/>
</g>
<!-- calcipy.experiments -->
<g id="node10" class="node">
<title>calcipy.experiments</title>
<polygon fill="none" stroke="black" points="1006.5,-252 848.5,-252 848.5,-216 1006.5,-216 1006.5,-252"/>
<text text-anchor="middle" x="927.5" y="-230.3" font-family="Times,serif" font-size="14.00">calcipy.experiments</text>
</g>
<!-- calcipy.experiments.bump_programmatically -->
<g id="node11" class="node">
<title>calcipy.experiments.bump_programmatically</title>
<polygon fill="none" stroke="black" points="678.5,-252 342.5,-252 342.5,-216 678.5,-216 678.5,-252"/>
<text text-anchor="middle" x="510.5" y="-230.3" font-family="Times,serif" font-size="14.00">calcipy.experiments.bump_programmatically</text>
</g>
<!-- calcipy.experiments.check_duplicate_test_names -->
<g id="node12" class="node">
<title>calcipy.experiments.check_duplicate_test_names</title>
<polygon fill="none" stroke="black" points="1687,-252 1324,-252 1324,-216 1687,-216 1687,-252"/>
<text text-anchor="middle" x="1505.5" y="-230.3" font-family="Times,serif" font-size="14.00">calcipy.experiments.check_duplicate_test_names</text>
</g>
<!-- calcipy.file_search -->
<g id="node13" class="node">
<title>calcipy.file_search</title>
<polygon fill="none" stroke="black" points="2433.5,-396 2289.5,-396 2289.5,-360 2433.5,-360 2433.5,-396"/>
<text text-anchor="middle" x="2361.5" y="-374.3" font-family="Times,serif" font-size="14.00">calcipy.file_search</text>
</g>
<!-- calcipy.md_writer -->
<g id="node15" class="node">
<title>calcipy.md_writer</title>
<polygon fill="none" stroke="black" points="2520.5,-252 2378.5,-252 2378.5,-216 2520.5,-216 2520.5,-252"/>
<text text-anchor="middle" x="2449.5" y="-230.3" font-family="Times,serif" font-size="14.00">calcipy.md_writer</text>
</g>
<!-- calcipy.md_writer._writer -->
<g id="node16" class="node">
<title>calcipy.md_writer._writer</title>
<polygon fill="none" stroke="black" points="2560.5,-324 2364.5,-324 2364.5,-288 2560.5,-288 2560.5,-324"/>
<text text-anchor="middle" x="2462.5" y="-302.3" font-family="Times,serif" font-size="14.00">calcipy.md_writer._writer</text>
</g>
<!-- calcipy.md_writer&#45;&gt;calcipy.md_writer._writer -->
<g id="edge8" class="edge">
<title>calcipy.md_writer&#45;&gt;calcipy.md_writer._writer</title>
<path fill="none" stroke="black" d="M2452.71,-252.3C2454.15,-260.02 2455.87,-269.29 2457.46,-277.89"/>
<polygon fill="black" stroke="black" points="2459.32,-287.9 2453.07,-278.89 2458.41,-282.98 2457.5,-278.06 2457.5,-278.06 2457.5,-278.06 2458.41,-282.98 2461.92,-277.24 2459.32,-287.9 2459.32,-287.9"/>
</g>
<!-- calcipy.md_writer._writer&#45;&gt;calcipy.file_search -->
<g id="edge9" class="edge">
<title>calcipy.md_writer._writer&#45;&gt;calcipy.file_search</title>
<path fill="none" stroke="black" d="M2437.79,-324.12C2424.83,-333.11 2408.77,-344.24 2394.73,-353.97"/>
<polygon fill="black" stroke="black" points="2386.3,-359.81 2391.96,-350.42 2390.41,-356.96 2394.52,-354.11 2394.52,-354.11 2394.52,-354.11 2390.41,-356.96 2397.08,-357.81 2386.3,-359.81 2386.3,-359.81"/>
</g>
<!-- calcipy.md_writer._writer&#45;&gt;calcipy.invoke_helpers -->
<g id="edge10" class="edge">
<title>calcipy.md_writer._writer&#45;&gt;calcipy.invoke_helpers</title>
<path fill="none" stroke="black" d="M2463.06,-324.07C2462.81,-343.6 2459.51,-375.54 2442.5,-396 2390.57,-458.47 2352.89,-446.68 2274.5,-468 2167.22,-497.17 2039.99,-510.39 1954.31,-516.31"/>
<polygon fill="black" stroke="black" points="1944.34,-516.98 1954.01,-511.82 1949.33,-516.64 1954.31,-516.31 1954.31,-516.31 1954.31,-516.31 1949.33,-516.64 1954.62,-520.8 1944.34,-516.98 1944.34,-516.98"/>
</g>
<!-- calcipy.noxfile -->
<g id="node17" class="node">
<title>calcipy.noxfile</title>
<polygon fill="none" stroke="black" points="2154.5,-36 2038.5,-36 2038.5,0 2154.5,0 2154.5,-36"/>
<text text-anchor="middle" x="2096.5" y="-14.3" font-family="Times,serif" font-size="14.00">calcipy.noxfile</text>
</g>
<!-- calcipy.noxfile._noxfile -->
<g id="node18" class="node">
<title>calcipy.noxfile._noxfile</title>
<polygon fill="none" stroke="black" points="2183.5,-108 2009.5,-108 2009.5,-72 2183.5,-72 2183.5,-108"/>
<text text-anchor="middle" x="2096.5" y="-86.3" font-family="Times,serif" font-size="14.00">calcipy.noxfile._noxfile</text>
</g>
<!-- calcipy.noxfile&#45;&gt;calcipy.noxfile._noxfile -->
<g id="edge11" class="edge">
<title>calcipy.noxfile&#45;&gt;calcipy.noxfile._noxfile</title>
<path fill="none" stroke="black" d="M2096.5,-36.3C2096.5,-44.02 2096.5,-53.29 2096.5,-61.89"/>
<polygon fill="black" stroke="black" points="2096.5,-71.9 2092,-61.9 2096.5,-66.9 2096.5,-61.9 2096.5,-61.9 2096.5,-61.9 2096.5,-66.9 2101,-61.9 2096.5,-71.9 2096.5,-71.9"/>
</g>
<!-- calcipy.scripts -->
<g id="node19" class="node">
<title>calcipy.scripts</title>
<polygon fill="none" stroke="black" points="1388,-108 1271,-108 1271,-72 1388,-72 1388,-108"/>
<text text-anchor="middle" x="1329.5" y="-86.3" font-family="Times,serif" font-size="14.00">calcipy.scripts</text>
</g>
<!-- calcipy.scripts&#45;&gt;calcipy.cli -->
<g id="edge12" class="edge">
<title>calcipy.scripts&#45;&gt;calcipy.cli</title>
<path fill="none" stroke="black" d="M1381.57,-108.06C1405.14,-116.98 1432.75,-129.15 1455.5,-144 1474.98,-156.72 1472.73,-169.52 1493.5,-180 1572.13,-219.68 1604.8,-195.56 1694.99,-216.15"/>
<polygon fill="black" stroke="black" points="1704.79,-218.51 1694.01,-220.55 1699.93,-217.34 1695.07,-216.17 1695.07,-216.17 1695.07,-216.17 1699.93,-217.34 1696.12,-211.8 1704.79,-218.51 1704.79,-218.51"/>
</g>
<!-- calcipy.tasks -->
<g id="node20" class="node">
<title>calcipy.tasks</title>
<polygon fill="none" stroke="black" points="1608.5,-180 1502.5,-180 1502.5,-144 1608.5,-144 1608.5,-180"/>
<text text-anchor="middle" x="1555.5" y="-158.3" font-family="Times,serif" font-size="14.00">calcipy.tasks</text>
</g>
<!-- calcipy.scripts&#45;&gt;calcipy.tasks -->
<g id="edge13" class="edge">
<title>calcipy.scripts&#45;&gt;calcipy.tasks</title>
<path fill="none" stroke="black" d="M1384.5,-108.03C1417.08,-118.13 1458.49,-130.95 1492.4,-141.46"/>
<polygon fill="black" stroke="black" points="1502.21,-144.49 1491.32,-145.83 1497.43,-143.01 1492.66,-141.53 1492.66,-141.53 1492.66,-141.53 1497.43,-143.01 1493.99,-137.24 1502.21,-144.49 1502.21,-144.49"/>
</g>
<!-- calcipy.scripts&#45;&gt;calcipy.tasks._invoke -->
<g id="edge14" class="edge">
<title>calcipy.scripts&#45;&gt;calcipy.tasks._invoke</title>
<path fill="none" stroke="black" d="M1270.93,-94.65C1202.71,-100.27 1096.17,-113.74 1071.5,-144 1058.08,-160.46 1072.42,-234.52 1082.5,-252 1089.16,-263.55 1099.39,-273.58 1109.82,-281.7"/>
<polygon fill="black" stroke="black" points="1118.17,-287.8 1107.44,-285.53 1114.13,-284.85 1110.1,-281.9 1110.1,-281.9 1110.1,-281.9 1114.13,-284.85 1112.75,-278.27 1118.17,-287.8 1118.17,-287.8"/>
</g>
<!-- calcipy.tasks.all_tasks -->
<g id="node22" class="node">
<title>calcipy.tasks.all_tasks</title>
<polygon fill="none" stroke="black" points="1252.5,-180 1080.5,-180 1080.5,-144 1252.5,-144 1252.5,-180"/>
<text text-anchor="middle" x="1166.5" y="-158.3" font-family="Times,serif" font-size="14.00">calcipy.tasks.all_tasks</text>
</g>
<!-- calcipy.scripts&#45;&gt;calcipy.tasks.all_tasks -->
<g id="edge15" class="edge">
<title>calcipy.scripts&#45;&gt;calcipy.tasks.all_tasks</title>
<path fill="none" stroke="black" d="M1289.63,-108.12C1267.34,-117.69 1239.38,-129.7 1215.74,-139.85"/>
<polygon fill="black" stroke="black" points="1206.24,-143.93 1213.66,-135.85 1210.84,-141.96 1215.43,-139.99 1215.43,-139.99 1215.43,-139.99 1210.84,-141.96 1217.21,-144.12 1206.24,-143.93 1206.24,-143.93"/>
</g>
<!-- calcipy.tasks.cl -->
<g id="node23" class="node">
<title>calcipy.tasks.cl</title>
<polygon fill="none" stroke="black" points="1827.5,-180 1705.5,-180 1705.5,-144 1827.5,-144 1827.5,-180"/>
<text text-anchor="middle" x="1766.5" y="-158.3" font-family="Times,serif" font-size="14.00">calcipy.tasks.cl</text>
</g>
<!-- calcipy.scripts&#45;&gt;calcipy.tasks.cl -->
<g id="edge16" class="edge">
<title>calcipy.scripts&#45;&gt;calcipy.tasks.cl</title>
<path fill="none" stroke="black" d="M1388.44,-100.44C1468.1,-113.2 1610,-135.93 1695.46,-149.62"/>
<polygon fill="black" stroke="black" points="1705.34,-151.2 1694.75,-154.06 1700.4,-150.41 1695.47,-149.62 1695.47,-149.62 1695.47,-149.62 1700.4,-150.41 1696.18,-145.18 1705.34,-151.2 1705.34,-151.2"/>
</g>
<!-- calcipy.tasks.defaults -->
<g id="node24" class="node">
<title>calcipy.tasks.defaults</title>
<polygon fill="none" stroke="black" points="1268.5,-252 1100.5,-252 1100.5,-216 1268.5,-216 1268.5,-252"/>
<text text-anchor="middle" x="1184.5" y="-230.3" font-family="Times,serif" font-size="14.00">calcipy.tasks.defaults</text>
</g>
<!-- calcipy.scripts&#45;&gt;calcipy.tasks.defaults -->
<g id="edge17" class="edge">
<title>calcipy.scripts&#45;&gt;calcipy.tasks.defaults</title>
<path fill="none" stroke="black" d="M1318.87,-108.02C1306.53,-126.93 1284.88,-157.75 1261.5,-180 1249.85,-191.09 1235.67,-201.54 1222.68,-210.18"/>
<polygon fill="black" stroke="black" points="1213.92,-215.86 1219.86,-206.64 1218.11,-213.14 1222.31,-210.42 1222.31,-210.42 1222.31,-210.42 1218.11,-213.14 1224.76,-214.19 1213.92,-215.86 1213.92,-215.86"/>
</g>
<!-- calcipy.tasks.doc -->
<g id="node25" class="node">
<title>calcipy.tasks.doc</title>
<polygon fill="none" stroke="black" points="2366,-180 2231,-180 2231,-144 2366,-144 2366,-180"/>
<text text-anchor="middle" x="2298.5" y="-158.3" font-family="Times,serif" font-size="14.00">calcipy.tasks.doc</text>
</g>
<!-- calcipy.scripts&#45;&gt;calcipy.tasks.doc -->
<g id="edge18" class="edge">
<title>calcipy.scripts&#45;&gt;calcipy.tasks.doc</title>
<path fill="none" stroke="black" d="M1388.01,-93.19C1525.5,-98.64 1879.78,-114.59 2174.5,-144 2189.49,-145.5 2205.45,-147.43 2220.76,-149.45"/>
<polygon fill="black" stroke="black" points="2230.71,-150.79 2220.2,-153.91 2225.75,-150.12 2220.8,-149.45 2220.8,-149.45 2220.8,-149.45 2225.75,-150.12 2221.4,-145 2230.71,-150.79 2230.71,-150.79"/>
</g>
<!-- calcipy.tasks.lint -->
<g id="node27" class="node">
<title>calcipy.tasks.lint</title>
<polygon fill="none" stroke="black" points="975.5,-180 841.5,-180 841.5,-144 975.5,-144 975.5,-180"/>
<text text-anchor="middle" x="908.5" y="-158.3" font-family="Times,serif" font-size="14.00">calcipy.tasks.lint</text>
</g>
<!-- calcipy.scripts&#45;&gt;calcipy.tasks.lint -->
<g id="edge19" class="edge">
<title>calcipy.scripts&#45;&gt;calcipy.tasks.lint</title>
<path fill="none" stroke="black" d="M1270.96,-100.73C1196.57,-113.1 1067.95,-134.49 985.63,-148.18"/>
<polygon fill="black" stroke="black" points="975.57,-149.85 984.7,-143.77 980.5,-149.03 985.44,-148.21 985.44,-148.21 985.44,-148.21 980.5,-149.03 986.17,-152.65 975.57,-149.85 975.57,-149.85"/>
</g>
<!-- calcipy.tasks.pack -->
<g id="node29" class="node">
<title>calcipy.tasks.pack</title>
<polygon fill="none" stroke="black" points="679,-180 536,-180 536,-144 679,-144 679,-180"/>
<text text-anchor="middle" x="607.5" y="-158.3" font-family="Times,serif" font-size="14.00">calcipy.tasks.pack</text>
</g>
<!-- calcipy.scripts&#45;&gt;calcipy.tasks.pack -->
<g id="edge20" class="edge">
<title>calcipy.scripts&#45;&gt;calcipy.tasks.pack</title>
<path fill="none" stroke="black" d="M1270.93,-96.32C1168.85,-105.64 951.75,-125.67 768.5,-144 742.7,-146.58 714.59,-149.51 689.18,-152.2"/>
<polygon fill="black" stroke="black" points="679.21,-153.26 688.68,-147.73 684.19,-152.73 689.16,-152.2 689.16,-152.2 689.16,-152.2 684.19,-152.73 689.63,-156.68 679.21,-153.26 679.21,-153.26"/>
</g>
<!-- calcipy.tasks.tags -->
<g id="node31" class="node">
<title>calcipy.tasks.tags</title>
<polygon fill="none" stroke="black" points="2165,-180 2024,-180 2024,-144 2165,-144 2165,-180"/>
<text text-anchor="middle" x="2094.5" y="-158.3" font-family="Times,serif" font-size="14.00">calcipy.tasks.tags</text>
</g>
<!-- calcipy.scripts&#45;&gt;calcipy.tasks.tags -->
<g id="edge21" class="edge">
<title>calcipy.scripts&#45;&gt;calcipy.tasks.tags</title>
<path fill="none" stroke="black" d="M1388.42,-93.22C1506.66,-98.19 1781.07,-112.37 2009.5,-144 2010.8,-144.18 2012.11,-144.37 2013.43,-144.56"/>
<polygon fill="black" stroke="black" points="2023.65,-146.17 2013.07,-149.06 2018.71,-145.39 2013.77,-144.62 2013.77,-144.62 2013.77,-144.62 2018.71,-145.39 2014.47,-140.17 2023.65,-146.17 2023.65,-146.17"/>
</g>
<!-- calcipy.tasks.test -->
<g id="node32" class="node">
<title>calcipy.tasks.test</title>
<polygon fill="none" stroke="black" points="1446.5,-180 1308.5,-180 1308.5,-144 1446.5,-144 1446.5,-180"/>
<text text-anchor="middle" x="1377.5" y="-158.3" font-family="Times,serif" font-size="14.00">calcipy.tasks.test</text>
</g>
<!-- calcipy.scripts&#45;&gt;calcipy.tasks.test -->
<g id="edge22" class="edge">
<title>calcipy.scripts&#45;&gt;calcipy.tasks.test</title>
<path fill="none" stroke="black" d="M1341.37,-108.3C1347,-116.53 1353.85,-126.52 1360.07,-135.58"/>
<polygon fill="black" stroke="black" points="1365.77,-143.9 1356.4,-138.19 1362.94,-139.77 1360.12,-135.65 1360.12,-135.65 1360.12,-135.65 1362.94,-139.77 1363.83,-133.1 1365.77,-143.9 1365.77,-143.9"/>
</g>
<!-- calcipy.tasks.types -->
<g id="node33" class="node">
<title>calcipy.tasks.types</title>
<polygon fill="none" stroke="black" points="1269,-396 1120,-396 1120,-360 1269,-360 1269,-396"/>
<text text-anchor="middle" x="1194.5" y="-374.3" font-family="Times,serif" font-size="14.00">calcipy.tasks.types</text>
</g>
<!-- calcipy.scripts&#45;&gt;calcipy.tasks.types -->
<g id="edge23" class="edge">
<title>calcipy.scripts&#45;&gt;calcipy.tasks.types</title>
<path fill="none" stroke="black" d="M1270.85,-92.94C1145.67,-97.68 861.36,-111.9 832.5,-144 819.37,-158.6 824,-232.21 839.5,-252 904.01,-334.33 1026.64,-362.58 1109.49,-372.18"/>
<polygon fill="black" stroke="black" points="1119.64,-373.29 1109.21,-376.68 1114.67,-372.75 1109.7,-372.2 1109.7,-372.2 1109.7,-372.2 1114.67,-372.75 1110.19,-367.73 1119.64,-373.29 1119.64,-373.29"/>
</g>
<!-- calcipy.tasks._invoke&#45;&gt;calcipy.tasks.types -->
<g id="edge24" class="edge">
<title>calcipy.tasks._invoke&#45;&gt;calcipy.tasks.types</title>
<path fill="none" stroke="black" d="M1159.87,-324.3C1165.22,-332.44 1171.7,-342.31 1177.61,-351.3"/>
<polygon fill="black" stroke="black" points="1183.26,-359.9 1174.01,-354.01 1180.51,-355.72 1177.77,-351.54 1177.77,-351.54 1177.77,-351.54 1180.51,-355.72 1181.53,-349.07 1183.26,-359.9 1183.26,-359.9"/>
</g>
<!-- calcipy.tasks.all_tasks&#45;&gt;calcipy.cli -->
<g id="edge25" class="edge">
<title>calcipy.tasks.all_tasks&#45;&gt;calcipy.cli</title>
<path fill="none" stroke="black" d="M1252.66,-174.48C1268.24,-176.42 1284.34,-178.34 1299.5,-180 1471.92,-198.85 1520.62,-181 1694.84,-216.16"/>
<polygon fill="black" stroke="black" points="1704.86,-218.22 1694.16,-220.62 1699.96,-217.21 1695.06,-216.21 1695.06,-216.21 1695.06,-216.21 1699.96,-217.21 1695.96,-211.8 1704.86,-218.22 1704.86,-218.22"/>
</g>
<!-- calcipy.tasks.all_tasks&#45;&gt;calcipy.tasks._invoke -->
<g id="edge26" class="edge">
<title>calcipy.tasks.all_tasks&#45;&gt;calcipy.tasks._invoke</title>
<path fill="none" stroke="black" d="M1128.62,-180.09C1114.27,-188.67 1099.49,-200.57 1091.5,-216 1084.14,-230.21 1085.11,-237.33 1091.5,-252 1096.43,-263.32 1105.11,-273.32 1114.23,-281.49"/>
<polygon fill="black" stroke="black" points="1121.92,-287.91 1111.36,-284.96 1118.08,-284.71 1114.24,-281.5 1114.24,-281.5 1114.24,-281.5 1118.08,-284.71 1117.13,-278.05 1121.92,-287.91 1121.92,-287.91"/>
</g>
<!-- calcipy.tasks.all_tasks&#45;&gt;calcipy.tasks.defaults -->
<g id="edge27" class="edge">
<title>calcipy.tasks.all_tasks&#45;&gt;calcipy.tasks.defaults</title>
<path fill="none" stroke="black" d="M1170.95,-180.3C1172.95,-188.1 1175.37,-197.49 1177.6,-206.17"/>
<polygon fill="black" stroke="black" points="1180.1,-215.9 1173.25,-207.33 1178.86,-211.05 1177.61,-206.21 1177.61,-206.21 1177.61,-206.21 1178.86,-211.05 1181.97,-205.09 1180.1,-215.9 1180.1,-215.9"/>
</g>
<!-- calcipy.tasks.cl&#45;&gt;calcipy.cli -->
<g id="edge28" class="edge">
<title>calcipy.tasks.cl&#45;&gt;calcipy.cli</title>
<path fill="none" stroke="black" d="M1761.8,-180.3C1759.69,-188.1 1757.14,-197.49 1754.78,-206.17"/>
<polygon fill="black" stroke="black" points="1752.14,-215.9 1750.42,-205.07 1753.45,-211.07 1754.76,-206.24 1754.76,-206.24 1754.76,-206.24 1753.45,-211.07 1759.11,-207.42 1752.14,-215.9 1752.14,-215.9"/>
</g>
<!-- calcipy.tasks.cl&#45;&gt;calcipy.invoke_helpers -->
<g id="edge29" class="edge">
<title>calcipy.tasks.cl&#45;&gt;calcipy.invoke_helpers</title>
<path fill="none" stroke="black" d="M1819.99,-180.03C1838.32,-188.27 1857.48,-199.95 1870.5,-216 1896.31,-247.82 1894.5,-264.03 1894.5,-305 1894.5,-305 1894.5,-305 1894.5,-379 1894.5,-420.37 1879.27,-466.28 1868.09,-494.39"/>
<polygon fill="black" stroke="black" points="1864.19,-503.91 1863.82,-492.95 1866.09,-499.28 1867.98,-494.65 1867.98,-494.65 1867.98,-494.65 1866.09,-499.28 1872.15,-496.36 1864.19,-503.91 1864.19,-503.91"/>
</g>
<!-- calcipy.tasks.executable_utils -->
<g id="node26" class="node">
<title>calcipy.tasks.executable_utils</title>
<polygon fill="none" stroke="black" points="1647.5,-468 1421.5,-468 1421.5,-432 1647.5,-432 1647.5,-468"/>
<text text-anchor="middle" x="1534.5" y="-446.3" font-family="Times,serif" font-size="14.00">calcipy.tasks.executable_utils</text>
</g>
<!-- calcipy.tasks.cl&#45;&gt;calcipy.tasks.executable_utils -->
<g id="edge30" class="edge">
<title>calcipy.tasks.cl&#45;&gt;calcipy.tasks.executable_utils</title>
<path fill="none" stroke="black" d="M1780.85,-180.23C1794.24,-198.54 1810.5,-228.08 1798.5,-252 1754.42,-339.89 1650.48,-398.58 1586.96,-427.65"/>
<polygon fill="black" stroke="black" points="1577.51,-431.89 1584.79,-423.69 1582.07,-429.84 1586.63,-427.8 1586.63,-427.8 1586.63,-427.8 1582.07,-429.84 1588.48,-431.9 1577.51,-431.89 1577.51,-431.89"/>
</g>
<!-- calcipy.tasks.defaults&#45;&gt;calcipy.tasks._invoke -->
<g id="edge31" class="edge">
<title>calcipy.tasks.defaults&#45;&gt;calcipy.tasks._invoke</title>
<path fill="none" stroke="black" d="M1175.6,-252.3C1171.5,-260.27 1166.55,-269.9 1162.01,-278.74"/>
<polygon fill="black" stroke="black" points="1157.3,-287.9 1157.87,-276.94 1159.58,-283.45 1161.87,-279 1161.87,-279 1161.87,-279 1159.58,-283.45 1165.87,-281.06 1157.3,-287.9 1157.3,-287.9"/>
</g>
<!-- calcipy.tasks.doc&#45;&gt;calcipy.cli -->
<g id="edge32" class="edge">
<title>calcipy.tasks.doc&#45;&gt;calcipy.cli</title>
<path fill="none" stroke="black" d="M2230.95,-172.42C2212.64,-174.93 2192.81,-177.61 2174.5,-180 2039.99,-197.57 1881.45,-216.88 1800.65,-226.62"/>
<polygon fill="black" stroke="black" points="1790.25,-227.88 1799.64,-222.21 1795.21,-227.28 1800.18,-226.68 1800.18,-226.68 1800.18,-226.68 1795.21,-227.28 1800.72,-231.15 1790.25,-227.88 1790.25,-227.88"/>
</g>
<!-- calcipy.tasks.doc&#45;&gt;calcipy.invoke_helpers -->
<g id="edge33" class="edge">
<title>calcipy.tasks.doc&#45;&gt;calcipy.invoke_helpers</title>
<path fill="none" stroke="black" d="M2366.13,-167.07C2451.82,-176.3 2588.5,-206.48 2588.5,-305 2588.5,-305 2588.5,-305 2588.5,-379 2588.5,-491.52 2460.98,-442.03 2351.5,-468 2216.13,-500.12 2055.29,-512.8 1954.53,-517.79"/>
<polygon fill="black" stroke="black" points="1944.36,-518.28 1954.13,-513.3 1949.36,-518.04 1954.35,-517.8 1954.35,-517.8 1954.35,-517.8 1949.36,-518.04 1954.57,-522.29 1944.36,-518.28 1944.36,-518.28"/>
</g>
<!-- calcipy.tasks.doc&#45;&gt;calcipy.md_writer -->
<g id="edge34" class="edge">
<title>calcipy.tasks.doc&#45;&gt;calcipy.md_writer</title>
<path fill="none" stroke="black" d="M2335.44,-180.12C2355.99,-189.65 2381.75,-201.59 2403.59,-211.72"/>
<polygon fill="black" stroke="black" points="2412.68,-215.93 2401.72,-215.81 2408.14,-213.83 2403.61,-211.73 2403.61,-211.73 2403.61,-211.73 2408.14,-213.83 2405.5,-207.64 2412.68,-215.93 2412.68,-215.93"/>
</g>
<!-- calcipy.tasks.doc&#45;&gt;calcipy.tasks.executable_utils -->
<g id="edge35" class="edge">
<title>calcipy.tasks.doc&#45;&gt;calcipy.tasks.executable_utils</title>
<path fill="none" stroke="black" d="M2297.81,-180.21C2295.5,-213.53 2285.39,-286.82 2241.5,-324 2155.25,-397.05 1836.39,-429.33 1657.78,-441.95"/>
<polygon fill="black" stroke="black" points="1647.54,-442.66 1657.2,-437.48 1652.52,-442.31 1657.51,-441.97 1657.51,-441.97 1657.51,-441.97 1652.52,-442.31 1657.83,-446.46 1647.54,-442.66 1647.54,-442.66"/>
</g>
<!-- calcipy.tasks.executable_utils&#45;&gt;calcipy.invoke_helpers -->
<g id="edge36" class="edge">
<title>calcipy.tasks.executable_utils&#45;&gt;calcipy.invoke_helpers</title>
<path fill="none" stroke="black" d="M1612.86,-468.03C1659.79,-478.24 1719.59,-491.24 1768.19,-501.8"/>
<polygon fill="black" stroke="black" points="1778.07,-503.95 1767.34,-506.22 1773.18,-502.89 1768.3,-501.83 1768.3,-501.83 1768.3,-501.83 1773.18,-502.89 1769.25,-497.43 1778.07,-503.95 1778.07,-503.95"/>
</g>
<!-- calcipy.tasks.lint&#45;&gt;calcipy.cli -->
<g id="edge37" class="edge">
<title>calcipy.tasks.lint&#45;&gt;calcipy.cli</title>
<path fill="none" stroke="black" d="M975.84,-170.73C1005.2,-173.92 1040.02,-177.45 1071.5,-180 1345.14,-202.15 1420.77,-165.29 1695.04,-216.25"/>
<polygon fill="black" stroke="black" points="1704.88,-218.1 1694.22,-220.67 1699.97,-217.18 1695.05,-216.25 1695.05,-216.25 1695.05,-216.25 1699.97,-217.18 1695.88,-211.83 1704.88,-218.1 1704.88,-218.1"/>
</g>
<!-- calcipy.tasks.lint&#45;&gt;calcipy.invoke_helpers -->
<g id="edge38" class="edge">
<title>calcipy.tasks.lint&#45;&gt;calcipy.invoke_helpers</title>
<path fill="none" stroke="black" d="M861.94,-180.13C813.46,-201.33 744.5,-242.48 744.5,-305 744.5,-305 744.5,-305 744.5,-379 744.5,-480.78 1486.98,-511.04 1758.54,-518.7"/>
<polygon fill="black" stroke="black" points="1768.78,-518.99 1758.66,-523.21 1763.78,-518.85 1758.78,-518.71 1758.78,-518.71 1758.78,-518.71 1763.78,-518.85 1758.91,-514.21 1768.78,-518.99 1768.78,-518.99"/>
</g>
<!-- calcipy.tasks.lint&#45;&gt;calcipy.tasks.executable_utils -->
<g id="edge39" class="edge">
<title>calcipy.tasks.lint&#45;&gt;calcipy.tasks.executable_utils</title>
<path fill="none" stroke="black" d="M874.66,-180.04C861.12,-188.78 846.98,-200.83 839.5,-216 832.43,-230.35 831.26,-238.29 839.5,-252 909.76,-368.9 980.46,-354.86 1110.5,-396 1208.81,-427.1 1325.36,-440.05 1411.36,-445.4"/>
<polygon fill="black" stroke="black" points="1421.43,-446 1411.18,-449.89 1416.44,-445.7 1411.45,-445.4 1411.45,-445.4 1411.45,-445.4 1416.44,-445.7 1411.71,-440.91 1421.43,-446 1421.43,-446"/>
</g>
<!-- calcipy.tasks.nox -->
<g id="node28" class="node">
<title>calcipy.tasks.nox</title>
<polygon fill="none" stroke="black" points="2000.5,-180 1864.5,-180 1864.5,-144 2000.5,-144 2000.5,-180"/>
<text text-anchor="middle" x="1932.5" y="-158.3" font-family="Times,serif" font-size="14.00">calcipy.tasks.nox</text>
</g>
<!-- calcipy.tasks.nox&#45;&gt;calcipy.cli -->
<g id="edge40" class="edge">
<title>calcipy.tasks.nox&#45;&gt;calcipy.cli</title>
<path fill="none" stroke="black" d="M1887.24,-180.12C1860.74,-190.15 1827.16,-202.86 1799.56,-213.3"/>
<polygon fill="black" stroke="black" points="1790.07,-216.89 1797.83,-209.15 1794.74,-215.12 1799.42,-213.35 1799.42,-213.35 1799.42,-213.35 1794.74,-215.12 1801.01,-217.56 1790.07,-216.89 1790.07,-216.89"/>
</g>
<!-- calcipy.tasks.nox&#45;&gt;calcipy.invoke_helpers -->
<g id="edge41" class="edge">
<title>calcipy.tasks.nox&#45;&gt;calcipy.invoke_helpers</title>
<path fill="none" stroke="black" d="M1935.07,-180.19C1941.45,-228.28 1954.38,-367.21 1908.5,-468 1903.54,-478.89 1895.35,-488.85 1886.91,-497.12"/>
<polygon fill="black" stroke="black" points="1879.51,-503.94 1883.81,-493.85 1883.19,-500.55 1886.86,-497.16 1886.86,-497.16 1886.86,-497.16 1883.19,-500.55 1889.91,-500.47 1879.51,-503.94 1879.51,-503.94"/>
</g>
<!-- calcipy.tasks.nox&#45;&gt;calcipy.tasks.executable_utils -->
<g id="edge42" class="edge">
<title>calcipy.tasks.nox&#45;&gt;calcipy.tasks.executable_utils</title>
<path fill="none" stroke="black" d="M1919.84,-180.05C1886.91,-223.15 1793.88,-337.17 1689.5,-396 1665.33,-409.62 1637.08,-420.56 1611.37,-428.87"/>
<polygon fill="black" stroke="black" points="1601.65,-431.94 1609.83,-424.64 1606.42,-430.43 1611.19,-428.93 1611.19,-428.93 1611.19,-428.93 1606.42,-430.43 1612.54,-433.22 1601.65,-431.94 1601.65,-431.94"/>
</g>
<!-- calcipy.tasks.pack&#45;&gt;calcipy -->
<g id="edge43" class="edge">
<title>calcipy.tasks.pack&#45;&gt;calcipy</title>
<path fill="none" stroke="black" d="M535.89,-171C420.1,-183.97 200.16,-208.74 148.65,-216.79"/>
<polygon fill="black" stroke="black" points="138.7,-218.62 147.72,-212.38 143.61,-217.71 148.53,-216.81 148.53,-216.81 148.53,-216.81 143.61,-217.71 149.35,-221.23 138.7,-218.62 138.7,-218.62"/>
</g>
<!-- calcipy.tasks.pack&#45;&gt;calcipy.can_skip -->
<g id="edge44" class="edge">
<title>calcipy.tasks.pack&#45;&gt;calcipy.can_skip</title>
<path fill="none" stroke="black" d="M535.7,-174.54C473.39,-184.76 380.81,-200.43 300.5,-216 299.04,-216.28 297.56,-216.57 296.07,-216.87"/>
<polygon fill="black" stroke="black" points="286.13,-218.87 295.04,-212.48 291.03,-217.88 295.93,-216.9 295.93,-216.9 295.93,-216.9 291.03,-217.88 296.82,-221.31 286.13,-218.87 286.13,-218.87"/>
</g>
<!-- calcipy.tasks.pack&#45;&gt;calcipy.cli -->
<g id="edge45" class="edge">
<title>calcipy.tasks.pack&#45;&gt;calcipy.cli</title>
<path fill="none" stroke="black" d="M679.15,-169.03C723.33,-172.6 781.17,-176.99 832.5,-180 1212.46,-202.27 1315.97,-148.64 1695.03,-216.27"/>
<polygon fill="black" stroke="black" points="1704.89,-218.04 1694.25,-220.7 1699.97,-217.16 1695.05,-216.27 1695.05,-216.27 1695.05,-216.27 1699.97,-217.16 1695.85,-211.84 1704.89,-218.04 1704.89,-218.04"/>
</g>
<!-- calcipy.tasks.pack&#45;&gt;calcipy.experiments -->
<g id="edge46" class="edge">
<title>calcipy.tasks.pack&#45;&gt;calcipy.experiments</title>
<path fill="none" stroke="black" d="M679.31,-178.71C726.82,-189.1 789.41,-202.79 839.85,-213.83"/>
<polygon fill="black" stroke="black" points="849.77,-216 839.04,-218.26 844.89,-214.93 840,-213.86 840,-213.86 840,-213.86 844.89,-214.93 840.96,-209.46 849.77,-216 849.77,-216"/>
</g>
<!-- calcipy.tasks.pack&#45;&gt;calcipy.experiments.bump_programmatically -->
<g id="edge47" class="edge">
<title>calcipy.tasks.pack&#45;&gt;calcipy.experiments.bump_programmatically</title>
<path fill="none" stroke="black" d="M583.52,-180.3C571.19,-189.2 555.98,-200.18 542.65,-209.8"/>
<polygon fill="black" stroke="black" points="534.2,-215.9 539.68,-206.39 538.26,-212.97 542.31,-210.04 542.31,-210.04 542.31,-210.04 538.26,-212.97 544.94,-213.69 534.2,-215.9 534.2,-215.9"/>
</g>
<!-- calcipy.tasks.pack&#45;&gt;calcipy.invoke_helpers -->
<g id="edge48" class="edge">
<title>calcipy.tasks.pack&#45;&gt;calcipy.invoke_helpers</title>
<path fill="none" stroke="black" d="M535.73,-172.73C459.47,-183.71 347.9,-201.88 333.5,-216 304.63,-244.32 314.5,-264.55 314.5,-305 314.5,-305 314.5,-305 314.5,-379 314.5,-614.35 602.58,-442.07 836.5,-468 1173.8,-505.39 1576.84,-516.5 1758.82,-519.72"/>
<polygon fill="black" stroke="black" points="1768.9,-519.9 1758.82,-524.22 1763.9,-519.81 1758.9,-519.72 1758.9,-519.72 1758.9,-519.72 1763.9,-519.81 1758.98,-515.22 1768.9,-519.9 1768.9,-519.9"/>
</g>
<!-- calcipy.tasks.pack&#45;&gt;calcipy.tasks.executable_utils -->
<g id="edge49" class="edge">
<title>calcipy.tasks.pack&#45;&gt;calcipy.tasks.executable_utils</title>
<path fill="none" stroke="black" d="M633.61,-180.15C714.02,-232.88 953.59,-389.5 972.5,-396 1050.82,-422.92 1270.71,-437.4 1411.08,-444.13"/>
<polygon fill="black" stroke="black" points="1421.47,-444.62 1411.26,-448.64 1416.47,-444.38 1411.48,-444.15 1411.48,-444.15 1411.48,-444.15 1416.47,-444.38 1411.69,-439.65 1421.47,-444.62 1421.47,-444.62"/>
</g>
<!-- calcipy.tasks.stale -->
<g id="node30" class="node">
<title>calcipy.tasks.stale</title>
<polygon fill="none" stroke="black" points="1598,-36 1453,-36 1453,0 1598,0 1598,-36"/>
<text text-anchor="middle" x="1525.5" y="-14.3" font-family="Times,serif" font-size="14.00">calcipy.tasks.stale</text>
</g>
<!-- calcipy.tasks.stale&#45;&gt;calcipy.check_for_stale_packages -->
<g id="edge50" class="edge">
<title>calcipy.tasks.stale&#45;&gt;calcipy.check_for_stale_packages</title>
<path fill="none" stroke="black" d="M1452.78,-24.76C1304.79,-36.48 966.56,-63.26 776.87,-78.28"/>
<polygon fill="black" stroke="black" points="766.83,-79.08 776.44,-73.8 771.82,-78.68 776.8,-78.29 776.8,-78.29 776.8,-78.29 771.82,-78.68 777.16,-82.77 766.83,-79.08 766.83,-79.08"/>
</g>
<!-- calcipy.tasks.stale&#45;&gt;calcipy.cli -->
<g id="edge51" class="edge">
<title>calcipy.tasks.stale&#45;&gt;calcipy.cli</title>
<path fill="none" stroke="black" d="M1543.29,-36.15C1582.59,-74.03 1676.88,-164.92 1722.26,-208.67"/>
<polygon fill="black" stroke="black" points="1729.62,-215.77 1719.3,-212.07 1726.02,-212.3 1722.42,-208.83 1722.42,-208.83 1722.42,-208.83 1726.02,-212.3 1725.55,-205.59 1729.62,-215.77 1729.62,-215.77"/>
</g>
<!-- calcipy.tasks.tags&#45;&gt;calcipy.cli -->
<g id="edge52" class="edge">
<title>calcipy.tasks.tags&#45;&gt;calcipy.cli</title>
<path fill="none" stroke="black" d="M2023.86,-177.25C1957.55,-190.63 1859.86,-210.33 1800.14,-222.38"/>
<polygon fill="black" stroke="black" points="1790.17,-224.39 1799.08,-218 1795.07,-223.4 1799.97,-222.41 1799.97,-222.41 1799.97,-222.41 1795.07,-223.4 1800.86,-226.83 1790.17,-224.39 1790.17,-224.39"/>
</g>
<!-- calcipy.tasks.tags&#45;&gt;calcipy.code_tag_collector -->
<g id="edge53" class="edge">
<title>calcipy.tasks.tags&#45;&gt;calcipy.code_tag_collector</title>
<path fill="none" stroke="black" d="M2095.49,-180.3C2095.93,-188.02 2096.46,-197.29 2096.95,-205.89"/>
<polygon fill="black" stroke="black" points="2097.52,-215.9 2092.46,-206.17 2097.24,-210.9 2096.95,-205.91 2096.95,-205.91 2096.95,-205.91 2097.24,-210.9 2101.44,-205.66 2097.52,-215.9 2097.52,-215.9"/>
</g>
<!-- calcipy.tasks.tags&#45;&gt;calcipy.file_search -->
<g id="edge54" class="edge">
<title>calcipy.tasks.tags&#45;&gt;calcipy.file_search</title>
<path fill="none" stroke="black" d="M2165.44,-170.8C2201.29,-177.77 2243.62,-190.98 2274.5,-216 2317.98,-251.22 2342.81,-314.18 2354.07,-350.04"/>
<polygon fill="black" stroke="black" points="2357.02,-359.82 2349.82,-351.54 2355.58,-355.03 2354.13,-350.24 2354.13,-350.24 2354.13,-350.24 2355.58,-355.03 2358.44,-348.94 2357.02,-359.82 2357.02,-359.82"/>
</g>
<!-- calcipy.tasks.tags&#45;&gt;calcipy.invoke_helpers -->
<g id="edge55" class="edge">
<title>calcipy.tasks.tags&#45;&gt;calcipy.invoke_helpers</title>
<path fill="none" stroke="black" d="M2147.03,-180.02C2167.55,-188.51 2190.24,-200.36 2207.5,-216 2241.62,-246.91 2260.5,-258.96 2260.5,-305 2260.5,-305 2260.5,-305 2260.5,-379 2260.5,-443.72 2073.64,-486.09 1954.08,-506.57"/>
<polygon fill="black" stroke="black" points="1944.16,-508.25 1953.27,-502.14 1949.09,-507.41 1954.02,-506.58 1954.02,-506.58 1954.02,-506.58 1949.09,-507.41 1954.77,-511.02 1944.16,-508.25 1944.16,-508.25"/>
</g>
<!-- calcipy.tasks.tags&#45;&gt;calcipy.tasks.defaults -->
<g id="edge56" class="edge">
<title>calcipy.tasks.tags&#45;&gt;calcipy.tasks.defaults</title>
<path fill="none" stroke="black" d="M2023.66,-177.97C2018.88,-178.73 2014.13,-179.42 2009.5,-180 1702.59,-218.43 1622.53,-187.93 1314.5,-216 1302.9,-217.06 1290.74,-218.37 1278.72,-219.8"/>
<polygon fill="black" stroke="black" points="1268.66,-221.02 1278.04,-215.35 1273.62,-220.41 1278.59,-219.81 1278.59,-219.81 1278.59,-219.81 1273.62,-220.41 1279.13,-224.28 1268.66,-221.02 1268.66,-221.02"/>
</g>
<!-- calcipy.tasks.test&#45;&gt;calcipy.cli -->
<g id="edge57" class="edge">
<title>calcipy.tasks.test&#45;&gt;calcipy.cli</title>
<path fill="none" stroke="black" d="M1446.74,-177.45C1451.39,-178.34 1456.01,-179.2 1460.5,-180 1561.36,-198.04 1590.94,-191.91 1694.86,-216.08"/>
<polygon fill="black" stroke="black" points="1704.81,-218.43 1694.04,-220.51 1699.94,-217.28 1695.08,-216.13 1695.08,-216.13 1695.08,-216.13 1699.94,-217.28 1696.11,-211.75 1704.81,-218.43 1704.81,-218.43"/>
</g>
<!-- calcipy.tasks.test&#45;&gt;calcipy.experiments -->
<g id="edge58" class="edge">
<title>calcipy.tasks.test&#45;&gt;calcipy.experiments</title>
<path fill="none" stroke="black" d="M1308.17,-173.78C1229.91,-185.96 1102.37,-205.8 1016.73,-219.12"/>
<polygon fill="black" stroke="black" points="1006.77,-220.67 1015.96,-214.69 1011.71,-219.9 1016.65,-219.13 1016.65,-219.13 1016.65,-219.13 1011.71,-219.9 1017.34,-223.58 1006.77,-220.67 1006.77,-220.67"/>
</g>
<!-- calcipy.tasks.test&#45;&gt;calcipy.experiments.check_duplicate_test_names -->
<g id="edge59" class="edge">
<title>calcipy.tasks.test&#45;&gt;calcipy.experiments.check_duplicate_test_names</title>
<path fill="none" stroke="black" d="M1408.81,-180.12C1425.7,-189.36 1446.75,-200.87 1464.88,-210.79"/>
<polygon fill="black" stroke="black" points="1474.07,-215.81 1463.13,-214.96 1469.68,-213.41 1465.29,-211.01 1465.29,-211.01 1465.29,-211.01 1469.68,-213.41 1467.45,-207.06 1474.07,-215.81 1474.07,-215.81"/>
</g>
<!-- calcipy.tasks.test&#45;&gt;calcipy.invoke_helpers -->
<g id="edge60" class="edge">
<title>calcipy.tasks.test&#45;&gt;calcipy.invoke_helpers</title>
<path fill="none" stroke="black" d="M1446.77,-173.48C1462.14,-175.71 1478.37,-178 1493.5,-180 1662.66,-202.37 1856.5,-134.37 1856.5,-305 1856.5,-305 1856.5,-305 1856.5,-379 1856.5,-419 1856.5,-465.35 1856.5,-493.92"/>
<polygon fill="black" stroke="black" points="1856.5,-503.95 1852,-493.95 1856.5,-498.95 1856.5,-493.95 1856.5,-493.95 1856.5,-493.95 1856.5,-498.95 1861,-493.95 1856.5,-503.95 1856.5,-503.95"/>
</g>
<!-- calcipy.tasks.test&#45;&gt;calcipy.tasks.defaults -->
<g id="edge61" class="edge">
<title>calcipy.tasks.test&#45;&gt;calcipy.tasks.defaults</title>
<path fill="none" stroke="black" d="M1330.29,-180.12C1303.43,-189.86 1269.62,-202.13 1241.32,-212.39"/>
<polygon fill="black" stroke="black" points="1231.56,-215.93 1239.43,-208.29 1236.26,-214.23 1240.96,-212.52 1240.96,-212.52 1240.96,-212.52 1236.26,-214.23 1242.49,-216.75 1231.56,-215.93 1231.56,-215.93"/>
</g>
<!-- calcipy.tasks.test&#45;&gt;calcipy.tasks.executable_utils -->
<g id="edge62" class="edge">
<title>calcipy.tasks.test&#45;&gt;calcipy.tasks.executable_utils</title>
<path fill="none" stroke="black" d="M1347.2,-180.2C1334.62,-189.1 1321.38,-201.23 1314.5,-216 1307.75,-230.51 1307.97,-237.39 1314.5,-252 1351.08,-333.86 1440.35,-395.81 1493.25,-426.85"/>
<polygon fill="black" stroke="black" points="1502.05,-431.93 1491.14,-430.83 1497.72,-429.43 1493.39,-426.93 1493.39,-426.93 1493.39,-426.93 1497.72,-429.43 1495.64,-423.03 1502.05,-431.93 1502.05,-431.93"/>
</g>
<!-- calcipy.tasks.types&#45;&gt;calcipy.cli -->
<g id="edge63" class="edge">
<title>calcipy.tasks.types&#45;&gt;calcipy.cli</title>
<path fill="none" stroke="black" d="M1269.22,-360.12C1365.5,-337.97 1538.12,-296.93 1694.9,-252.07"/>
<polygon fill="black" stroke="black" points="1704.73,-249.25 1696.36,-256.34 1699.92,-250.63 1695.11,-252.01 1695.11,-252.01 1695.11,-252.01 1699.92,-250.63 1693.87,-247.69 1704.73,-249.25 1704.73,-249.25"/>
</g>
<!-- calcipy.tasks.types&#45;&gt;calcipy.invoke_helpers -->
<g id="edge64" class="edge">
<title>calcipy.tasks.types&#45;&gt;calcipy.invoke_helpers</title>
<path fill="none" stroke="black" d="M1228.26,-396.13C1270.29,-416.66 1344.82,-450.49 1412.5,-468 1529.31,-498.23 1667.94,-511.29 1758.84,-516.88"/>
<polygon fill="black" stroke="black" points="1768.86,-517.48 1758.61,-521.38 1763.87,-517.18 1758.88,-516.88 1758.88,-516.88 1758.88,-516.88 1763.87,-517.18 1759.15,-512.39 1768.86,-517.48 1768.86,-517.48"/>
</g>
<!-- calcipy.tasks.types&#45;&gt;calcipy.tasks.executable_utils -->
<g id="edge65" class="edge">
<title>calcipy.tasks.types&#45;&gt;calcipy.tasks.executable_utils</title>
<path fill="none" stroke="black" d="M1269.11,-394.36C1319.91,-404.82 1387.49,-418.73 1441.75,-429.9"/>
<polygon fill="black" stroke="black" points="1451.71,-431.96 1441.01,-434.35 1446.82,-430.95 1441.92,-429.94 1441.92,-429.94 1441.92,-429.94 1446.82,-430.95 1442.83,-425.53 1451.71,-431.96 1451.71,-431.96"/>
</g>
</g>
</svg>
