<?xml version="1.0" encoding="UTF-8" standalone="no"?>
<!DOCTYPE svg PUBLIC "-//W3C//DTD SVG 1.1//EN"
 "http://www.w3.org/Graphics/SVG/1.1/DTD/svg11.dtd">
<!-- Generated by graphviz version 2.43.0 (0)
 -->
<!-- Title: packages Pages: 1 -->
<svg width="3987pt" height="188pt"
 viewBox="0.00 0.00 3986.50 188.00" xmlns="http://www.w3.org/2000/svg" xmlns:xlink="http://www.w3.org/1999/xlink">
<g id="graph0" class="graph" transform="scale(1 1) rotate(0) translate(4 184)">
<title>packages</title>
<polygon fill="white" stroke="transparent" points="-4,4 -4,-184 3982.5,-184 3982.5,4 -4,4"/>
<!-- calcipy -->
<g id="node1" class="node">
<title>calcipy</title>
<polygon fill="none" stroke="black" points="66,-36 0,-36 0,0 66,0 66,-36"/>
<text text-anchor="middle" x="33" y="-14.3" font-family="Times,serif" font-size="14.00">calcipy</text>
</g>
<!-- calcipy.can_skip -->
<g id="node2" class="node">
<title>calcipy.can_skip</title>
<polygon fill="none" stroke="black" points="213.5,-36 84.5,-36 84.5,0 213.5,0 213.5,-36"/>
<text text-anchor="middle" x="149" y="-14.3" font-family="Times,serif" font-size="14.00">calcipy.can_skip</text>
</g>
<!-- calcipy.check_for_stale_packages -->
<g id="node3" class="node">
<title>calcipy.check_for_stale_packages</title>
<polygon fill="none" stroke="black" points="482,-36 232,-36 232,0 482,0 482,-36"/>
<text text-anchor="middle" x="357" y="-14.3" font-family="Times,serif" font-size="14.00">calcipy.check_for_stale_packages</text>
</g>
<!-- calcipy.check_for_stale_packages._check_for_stale_packages -->
<g id="node4" class="node">
<title>calcipy.check_for_stale_packages._check_for_stale_packages</title>
<polygon fill="none" stroke="black" points="578.5,-108 135.5,-108 135.5,-72 578.5,-72 578.5,-108"/>
<text text-anchor="middle" x="357" y="-86.3" font-family="Times,serif" font-size="14.00">calcipy.check_for_stale_packages._check_for_stale_packages</text>
</g>
<!-- calcipy.check_for_stale_packages&#45;&gt;calcipy.check_for_stale_packages._check_for_stale_packages -->
<g id="edge1" class="edge">
<title>calcipy.check_for_stale_packages&#45;&gt;calcipy.check_for_stale_packages._check_for_stale_packages</title>
<path fill="none" stroke="black" d="M357,-36.3C357,-44.02 357,-53.29 357,-61.89"/>
<polygon fill="black" stroke="black" points="357,-71.9 352.5,-61.9 357,-66.9 357,-61.9 357,-61.9 357,-61.9 357,-66.9 361.5,-61.9 357,-71.9 357,-71.9"/>
</g>
<!-- calcipy.cli -->
<g id="node5" class="node">
<title>calcipy.cli</title>
<polygon fill="none" stroke="black" points="681.5,-108 596.5,-108 596.5,-72 681.5,-72 681.5,-108"/>
<text text-anchor="middle" x="639" y="-86.3" font-family="Times,serif" font-size="14.00">calcipy.cli</text>
</g>
<!-- calcipy.invoke_helpers -->
<g id="node13" class="node">
<title>calcipy.invoke_helpers</title>
<polygon fill="none" stroke="black" points="726.5,-180 551.5,-180 551.5,-144 726.5,-144 726.5,-180"/>
<text text-anchor="middle" x="639" y="-158.3" font-family="Times,serif" font-size="14.00">calcipy.invoke_helpers</text>
</g>
<!-- calcipy.cli&#45;&gt;calcipy.invoke_helpers -->
<g id="edge2" class="edge">
<title>calcipy.cli&#45;&gt;calcipy.invoke_helpers</title>
<path fill="none" stroke="black" d="M639,-108.3C639,-116.02 639,-125.29 639,-133.89"/>
<polygon fill="black" stroke="black" points="639,-143.9 634.5,-133.9 639,-138.9 639,-133.9 639,-133.9 639,-133.9 639,-138.9 643.5,-133.9 639,-143.9 639,-143.9"/>
</g>
<!-- calcipy.code_tag_collector -->
<g id="node6" class="node">
<title>calcipy.code_tag_collector</title>
<polygon fill="none" stroke="black" points="1923,-36 1723,-36 1723,0 1923,0 1923,-36"/>
<text text-anchor="middle" x="1823" y="-14.3" font-family="Times,serif" font-size="14.00">calcipy.code_tag_collector</text>
</g>
<!-- calcipy.code_tag_collector._collector -->
<g id="node7" class="node">
<title>calcipy.code_tag_collector._collector</title>
<polygon fill="none" stroke="black" points="1958.5,-108 1687.5,-108 1687.5,-72 1958.5,-72 1958.5,-108"/>
<text text-anchor="middle" x="1823" y="-86.3" font-family="Times,serif" font-size="14.00">calcipy.code_tag_collector._collector</text>
</g>
<!-- calcipy.code_tag_collector&#45;&gt;calcipy.code_tag_collector._collector -->
<g id="edge3" class="edge">
<title>calcipy.code_tag_collector&#45;&gt;calcipy.code_tag_collector._collector</title>
<path fill="none" stroke="black" d="M1823,-36.3C1823,-44.02 1823,-53.29 1823,-61.89"/>
<polygon fill="black" stroke="black" points="1823,-71.9 1818.5,-61.9 1823,-66.9 1823,-61.9 1823,-61.9 1823,-61.9 1823,-66.9 1827.5,-61.9 1823,-71.9 1823,-71.9"/>
</g>
<!-- calcipy.dot_dict -->
<g id="node8" class="node">
<title>calcipy.dot_dict</title>
<polygon fill="none" stroke="black" points="2136.5,-36 2011.5,-36 2011.5,0 2136.5,0 2136.5,-36"/>
<text text-anchor="middle" x="2074" y="-14.3" font-family="Times,serif" font-size="14.00">calcipy.dot_dict</text>
</g>
<!-- calcipy.dot_dict._dot_dict -->
<g id="node9" class="node">
<title>calcipy.dot_dict._dot_dict</title>
<polygon fill="none" stroke="black" points="2171,-108 1977,-108 1977,-72 2171,-72 2171,-108"/>
<text text-anchor="middle" x="2074" y="-86.3" font-family="Times,serif" font-size="14.00">calcipy.dot_dict._dot_dict</text>
</g>
<!-- calcipy.dot_dict&#45;&gt;calcipy.dot_dict._dot_dict -->
<g id="edge4" class="edge">
<title>calcipy.dot_dict&#45;&gt;calcipy.dot_dict._dot_dict</title>
<path fill="none" stroke="black" d="M2074,-36.3C2074,-44.02 2074,-53.29 2074,-61.89"/>
<polygon fill="black" stroke="black" points="2074,-71.9 2069.5,-61.9 2074,-66.9 2074,-61.9 2074,-61.9 2074,-61.9 2074,-66.9 2078.5,-61.9 2074,-71.9 2074,-71.9"/>
</g>
<!-- calcipy.experiments -->
<g id="node10" class="node">
<title>calcipy.experiments</title>
<polygon fill="none" stroke="black" points="2313,-36 2155,-36 2155,0 2313,0 2313,-36"/>
<text text-anchor="middle" x="2234" y="-14.3" font-family="Times,serif" font-size="14.00">calcipy.experiments</text>
</g>
<!-- calcipy.experiments.check_duplicate_test_names -->
<g id="node11" class="node">
<title>calcipy.experiments.check_duplicate_test_names</title>
<polygon fill="none" stroke="black" points="2693.5,-36 2330.5,-36 2330.5,0 2693.5,0 2693.5,-36"/>
<text text-anchor="middle" x="2512" y="-14.3" font-family="Times,serif" font-size="14.00">calcipy.experiments.check_duplicate_test_names</text>
</g>
<!-- calcipy.file_search -->
<g id="node12" class="node">
<title>calcipy.file_search</title>
<polygon fill="none" stroke="black" points="2856,-36 2712,-36 2712,0 2856,0 2856,-36"/>
<text text-anchor="middle" x="2784" y="-14.3" font-family="Times,serif" font-size="14.00">calcipy.file_search</text>
</g>
<!-- calcipy.md_writer -->
<g id="node14" class="node">
<title>calcipy.md_writer</title>
<polygon fill="none" stroke="black" points="3016,-36 2874,-36 2874,0 3016,0 3016,-36"/>
<text text-anchor="middle" x="2945" y="-14.3" font-family="Times,serif" font-size="14.00">calcipy.md_writer</text>
</g>
<!-- calcipy.md_writer._writer -->
<g id="node15" class="node">
<title>calcipy.md_writer._writer</title>
<polygon fill="none" stroke="black" points="3043,-108 2847,-108 2847,-72 3043,-72 3043,-108"/>
<text text-anchor="middle" x="2945" y="-86.3" font-family="Times,serif" font-size="14.00">calcipy.md_writer._writer</text>
</g>
<!-- calcipy.md_writer&#45;&gt;calcipy.md_writer._writer -->
<g id="edge5" class="edge">
<title>calcipy.md_writer&#45;&gt;calcipy.md_writer._writer</title>
<path fill="none" stroke="black" d="M2945,-36.3C2945,-44.02 2945,-53.29 2945,-61.89"/>
<polygon fill="black" stroke="black" points="2945,-71.9 2940.5,-61.9 2945,-66.9 2945,-61.9 2945,-61.9 2945,-61.9 2945,-66.9 2949.5,-61.9 2945,-71.9 2945,-71.9"/>
</g>
<!-- calcipy.noxfile -->
<g id="node16" class="node">
<title>calcipy.noxfile</title>
<polygon fill="none" stroke="black" points="3206,-36 3090,-36 3090,0 3206,0 3206,-36"/>
<text text-anchor="middle" x="3148" y="-14.3" font-family="Times,serif" font-size="14.00">calcipy.noxfile</text>
</g>
<!-- calcipy.noxfile._noxfile -->
<g id="node17" class="node">
<title>calcipy.noxfile._noxfile</title>
<polygon fill="none" stroke="black" points="3235,-108 3061,-108 3061,-72 3235,-72 3235,-108"/>
<text text-anchor="middle" x="3148" y="-86.3" font-family="Times,serif" font-size="14.00">calcipy.noxfile._noxfile</text>
</g>
<!-- calcipy.noxfile&#45;&gt;calcipy.noxfile._noxfile -->
<g id="edge6" class="edge">
<title>calcipy.noxfile&#45;&gt;calcipy.noxfile._noxfile</title>
<path fill="none" stroke="black" d="M3148,-36.3C3148,-44.02 3148,-53.29 3148,-61.89"/>
<polygon fill="black" stroke="black" points="3148,-71.9 3143.5,-61.9 3148,-66.9 3148,-61.9 3148,-61.9 3148,-61.9 3148,-66.9 3152.5,-61.9 3148,-71.9 3148,-71.9"/>
</g>
<!-- calcipy.scripts -->
<g id="node18" class="node">
<title>calcipy.scripts</title>
<polygon fill="none" stroke="black" points="1082.5,-36 965.5,-36 965.5,0 1082.5,0 1082.5,-36"/>
<text text-anchor="middle" x="1024" y="-14.3" font-family="Times,serif" font-size="14.00">calcipy.scripts</text>
</g>
<!-- calcipy.scripts&#45;&gt;calcipy.cli -->
<g id="edge7" class="edge">
<title>calcipy.scripts&#45;&gt;calcipy.cli</title>
<path fill="none" stroke="black" d="M965.4,-25.48C900.54,-33.29 792.88,-48.13 691.49,-72.1"/>
<polygon fill="black" stroke="black" points="681.69,-74.45 690.37,-67.74 686.56,-73.28 691.42,-72.12 691.42,-72.12 691.42,-72.12 686.56,-73.28 692.47,-76.49 681.69,-74.45 681.69,-74.45"/>
</g>
<!-- calcipy.tasks -->
<g id="node19" class="node">
<title>calcipy.tasks</title>
<polygon fill="none" stroke="black" points="806,-108 700,-108 700,-72 806,-72 806,-108"/>
<text text-anchor="middle" x="753" y="-86.3" font-family="Times,serif" font-size="14.00">calcipy.tasks</text>
</g>
<!-- calcipy.scripts&#45;&gt;calcipy.tasks -->
<g id="edge8" class="edge">
<title>calcipy.scripts&#45;&gt;calcipy.tasks</title>
<path fill="none" stroke="black" d="M965.36,-33.55C925.72,-43.46 871.94,-57.05 815.84,-71.8"/>
<polygon fill="black" stroke="black" points="806.08,-74.37 814.6,-67.47 810.92,-73.1 815.75,-71.82 815.75,-71.82 815.75,-71.82 810.92,-73.1 816.9,-76.18 806.08,-74.37 806.08,-74.37"/>
</g>
<!-- calcipy.tasks.all_tasks -->
<g id="node20" class="node">
<title>calcipy.tasks.all_tasks</title>
<polygon fill="none" stroke="black" points="996,-108 824,-108 824,-72 996,-72 996,-108"/>
<text text-anchor="middle" x="910" y="-86.3" font-family="Times,serif" font-size="14.00">calcipy.tasks.all_tasks</text>
</g>
<!-- calcipy.scripts&#45;&gt;calcipy.tasks.all_tasks -->
<g id="edge9" class="edge">
<title>calcipy.scripts&#45;&gt;calcipy.tasks.all_tasks</title>
<path fill="none" stroke="black" d="M996.11,-36.12C981.21,-45.28 962.67,-56.66 946.62,-66.52"/>
<polygon fill="black" stroke="black" points="937.99,-71.81 944.16,-62.74 942.26,-69.19 946.52,-66.58 946.52,-66.58 946.52,-66.58 942.26,-69.19 948.87,-70.41 937.99,-71.81 937.99,-71.81"/>
</g>
<!-- calcipy.tasks.defaults -->
<g id="node22" class="node">
<title>calcipy.tasks.defaults</title>
<polygon fill="none" stroke="black" points="1233,-180 1065,-180 1065,-144 1233,-144 1233,-180"/>
<text text-anchor="middle" x="1149" y="-158.3" font-family="Times,serif" font-size="14.00">calcipy.tasks.defaults</text>
</g>
<!-- calcipy.scripts&#45;&gt;calcipy.tasks.defaults -->
<g id="edge10" class="edge">
<title>calcipy.scripts&#45;&gt;calcipy.tasks.defaults</title>
<path fill="none" stroke="black" d="M1023.44,-36.23C1023.68,-55.62 1026.85,-87.14 1043,-108 1053.38,-121.41 1068.06,-131.67 1083.19,-139.43"/>
<polygon fill="black" stroke="black" points="1092.64,-143.95 1081.68,-143.7 1088.13,-141.79 1083.62,-139.64 1083.62,-139.64 1083.62,-139.64 1088.13,-141.79 1085.56,-135.58 1092.64,-143.95 1092.64,-143.95"/>
</g>
<!-- calcipy.tasks.lint -->
<g id="node24" class="node">
<title>calcipy.tasks.lint</title>
<polygon fill="none" stroke="black" points="1186,-108 1052,-108 1052,-72 1186,-72 1186,-108"/>
<text text-anchor="middle" x="1119" y="-86.3" font-family="Times,serif" font-size="14.00">calcipy.tasks.lint</text>
</g>
<!-- calcipy.scripts&#45;&gt;calcipy.tasks.lint -->
<g id="edge11" class="edge">
<title>calcipy.scripts&#45;&gt;calcipy.tasks.lint</title>
<path fill="none" stroke="black" d="M1047.48,-36.3C1059.56,-45.2 1074.45,-56.18 1087.52,-65.8"/>
<polygon fill="black" stroke="black" points="1095.79,-71.9 1085.07,-69.59 1091.76,-68.93 1087.74,-65.96 1087.74,-65.96 1087.74,-65.96 1091.76,-68.93 1090.41,-62.34 1095.79,-71.9 1095.79,-71.9"/>
</g>
<!-- calcipy.tasks.tags -->
<g id="node28" class="node">
<title>calcipy.tasks.tags</title>
<polygon fill="none" stroke="black" points="1345.5,-108 1204.5,-108 1204.5,-72 1345.5,-72 1345.5,-108"/>
<text text-anchor="middle" x="1275" y="-86.3" font-family="Times,serif" font-size="14.00">calcipy.tasks.tags</text>
</g>
<!-- calcipy.scripts&#45;&gt;calcipy.tasks.tags -->
<g id="edge12" class="edge">
<title>calcipy.scripts&#45;&gt;calcipy.tasks.tags</title>
<path fill="none" stroke="black" d="M1082.53,-35.32C1118.7,-45.41 1165.37,-58.42 1203.69,-69.11"/>
<polygon fill="black" stroke="black" points="1213.75,-71.92 1202.91,-73.57 1208.93,-70.57 1204.12,-69.23 1204.12,-69.23 1204.12,-69.23 1208.93,-70.57 1205.33,-64.9 1213.75,-71.92 1213.75,-71.92"/>
</g>
<!-- calcipy.tasks.types -->
<g id="node30" class="node">
<title>calcipy.tasks.types</title>
<polygon fill="none" stroke="black" points="1512.5,-108 1363.5,-108 1363.5,-72 1512.5,-72 1512.5,-108"/>
<text text-anchor="middle" x="1438" y="-86.3" font-family="Times,serif" font-size="14.00">calcipy.tasks.types</text>
</g>
<!-- calcipy.scripts&#45;&gt;calcipy.tasks.types -->
<g id="edge13" class="edge">
<title>calcipy.scripts&#45;&gt;calcipy.tasks.types</title>
<path fill="none" stroke="black" d="M1082.54,-27.67C1146.48,-37.3 1252.14,-53.71 1353.29,-71.91"/>
<polygon fill="black" stroke="black" points="1363.38,-73.73 1352.73,-76.38 1358.45,-72.84 1353.53,-71.95 1353.53,-71.95 1353.53,-71.95 1358.45,-72.84 1354.34,-67.53 1363.38,-73.73 1363.38,-73.73"/>
</g>
<!-- calcipy.tasks.all_tasks&#45;&gt;calcipy.tasks.defaults -->
<g id="edge14" class="edge">
<title>calcipy.tasks.all_tasks&#45;&gt;calcipy.tasks.defaults</title>
<path fill="none" stroke="black" d="M968.16,-108.03C1002.13,-117.99 1045.18,-130.59 1080.76,-141.01"/>
<polygon fill="black" stroke="black" points="1090.58,-143.89 1079.72,-145.4 1085.78,-142.48 1080.98,-141.08 1080.98,-141.08 1080.98,-141.08 1085.78,-142.48 1082.25,-136.76 1090.58,-143.89 1090.58,-143.89"/>
</g>
<!-- calcipy.tasks.cl -->
<g id="node21" class="node">
<title>calcipy.tasks.cl</title>
<polygon fill="none" stroke="black" points="3346,-36 3224,-36 3224,0 3346,0 3346,-36"/>
<text text-anchor="middle" x="3285" y="-14.3" font-family="Times,serif" font-size="14.00">calcipy.tasks.cl</text>
</g>
<!-- calcipy.tasks.doc -->
<g id="node23" class="node">
<title>calcipy.tasks.doc</title>
<polygon fill="none" stroke="black" points="3499.5,-36 3364.5,-36 3364.5,0 3499.5,0 3499.5,-36"/>
<text text-anchor="middle" x="3432" y="-14.3" font-family="Times,serif" font-size="14.00">calcipy.tasks.doc</text>
</g>
<!-- calcipy.tasks.nox -->
<g id="node25" class="node">
<title>calcipy.tasks.nox</title>
<polygon fill="none" stroke="black" points="3654,-36 3518,-36 3518,0 3654,0 3654,-36"/>
<text text-anchor="middle" x="3586" y="-14.3" font-family="Times,serif" font-size="14.00">calcipy.tasks.nox</text>
</g>
<!-- calcipy.tasks.pack -->
<g id="node26" class="node">
<title>calcipy.tasks.pack</title>
<polygon fill="none" stroke="black" points="3815.5,-36 3672.5,-36 3672.5,0 3815.5,0 3815.5,-36"/>
<text text-anchor="middle" x="3744" y="-14.3" font-family="Times,serif" font-size="14.00">calcipy.tasks.pack</text>
</g>
<!-- calcipy.tasks.stale -->
<g id="node27" class="node">
<title>calcipy.tasks.stale</title>
<polygon fill="none" stroke="black" points="3978.5,-36 3833.5,-36 3833.5,0 3978.5,0 3978.5,-36"/>
<text text-anchor="middle" x="3906" y="-14.3" font-family="Times,serif" font-size="14.00">calcipy.tasks.stale</text>
</g>
<!-- calcipy.tasks.tags&#45;&gt;calcipy.tasks.defaults -->
<g id="edge15" class="edge">
<title>calcipy.tasks.tags&#45;&gt;calcipy.tasks.defaults</title>
<path fill="none" stroke="black" d="M1244.18,-108.12C1227.55,-117.36 1206.84,-128.87 1188.98,-138.79"/>
<polygon fill="black" stroke="black" points="1179.94,-143.81 1186.5,-135.02 1184.31,-141.38 1188.68,-138.95 1188.68,-138.95 1188.68,-138.95 1184.31,-141.38 1190.87,-142.89 1179.94,-143.81 1179.94,-143.81"/>
</g>
<!-- calcipy.tasks.test -->
<g id="node29" class="node">
<title>calcipy.tasks.test</title>
<polygon fill="none" stroke="black" points="1669,-108 1531,-108 1531,-72 1669,-72 1669,-108"/>
<text text-anchor="middle" x="1600" y="-86.3" font-family="Times,serif" font-size="14.00">calcipy.tasks.test</text>
</g>
<!-- calcipy.tasks.test&#45;&gt;calcipy.tasks.defaults -->
<g id="edge16" class="edge">
<title>calcipy.tasks.test&#45;&gt;calcipy.tasks.defaults</title>
<path fill="none" stroke="black" d="M1530.69,-106.2C1527.42,-106.83 1524.18,-107.43 1521,-108 1426.81,-124.82 1318.45,-139.77 1243.06,-149.46"/>
<polygon fill="black" stroke="black" points="1233.11,-150.73 1242.46,-145 1238.07,-150.1 1243.03,-149.46 1243.03,-149.46 1243.03,-149.46 1238.07,-150.1 1243.6,-153.93 1233.11,-150.73 1233.11,-150.73"/>
</g>
</g>
</svg>
