<?xml version="1.0" encoding="UTF-8" standalone="no"?>
<!DOCTYPE svg PUBLIC "-//W3C//DTD SVG 1.1//EN"
 "http://www.w3.org/Graphics/SVG/1.1/DTD/svg11.dtd">
<!-- Generated by graphviz version 11.0.0 (20240428.1522)
 -->
<!-- Title: packages Pages: 1 -->
<svg width="2213pt" height="548pt"
 viewBox="0.00 0.00 2213.00 548.00" xmlns="http://www.w3.org/2000/svg" xmlns:xlink="http://www.w3.org/1999/xlink">
<g id="graph0" class="graph" transform="scale(1 1) rotate(0) translate(4 544)">
<title>packages</title>
<polygon fill="white" stroke="none" points="-4,4 -4,-544 2209,-544 2209,4 -4,4"/>
<!-- calcipy -->
<g id="node1" class="node">
<title>calcipy</title>
<polygon fill="none" stroke="black" points="104.5,-252 49.5,-252 49.5,-216 104.5,-216 104.5,-252"/>
<text text-anchor="middle" x="77" y="-228.95" font-family="Times,serif" font-size="14.00">calcipy</text>
</g>
<!-- calcipy.can_skip -->
<g id="node2" class="node">
<title>calcipy.can_skip</title>
<polygon fill="none" stroke="black" points="229,-252 123,-252 123,-216 229,-216 229,-252"/>
<text text-anchor="middle" x="176" y="-228.95" font-family="Times,serif" font-size="14.00">calcipy.can_skip</text>
</g>
<!-- calcipy.check_for_stale_packages -->
<g id="node3" class="node">
<title>calcipy.check_for_stale_packages</title>
<polygon fill="none" stroke="black" points="636.88,-108 437.12,-108 437.12,-72 636.88,-72 636.88,-108"/>
<text text-anchor="middle" x="537" y="-84.95" font-family="Times,serif" font-size="14.00">calcipy.check_for_stale_packages</text>
</g>
<!-- calcipy.check_for_stale_packages._check_for_stale_packages -->
<g id="node4" class="node">
<title>calcipy.check_for_stale_packages._check_for_stale_packages</title>
<polygon fill="none" stroke="black" points="352,-180 0,-180 0,-144 352,-144 352,-180"/>
<text text-anchor="middle" x="176" y="-156.95" font-family="Times,serif" font-size="14.00">calcipy.check_for_stale_packages._check_for_stale_packages</text>
</g>
<!-- calcipy.check_for_stale_packages&#45;&gt;calcipy.check_for_stale_packages._check_for_stale_packages -->
<g id="edge1" class="edge">
<title>calcipy.check_for_stale_packages&#45;&gt;calcipy.check_for_stale_packages._check_for_stale_packages</title>
<path fill="none" stroke="black" d="M446.84,-108.48C395.16,-118.5 330.17,-131.11 276.81,-141.45"/>
<polygon fill="black" stroke="black" points="267.15,-143.33 276.11,-137 270.86,-142.61 276.97,-141.42 276.97,-141.42 276.97,-141.42 270.86,-142.61 277.82,-145.84 267.15,-143.33"/>
</g>
<!-- calcipy.check_for_stale_packages._check_for_stale_packages&#45;&gt;calcipy -->
<g id="edge2" class="edge">
<title>calcipy.check_for_stale_packages._check_for_stale_packages&#45;&gt;calcipy</title>
<path fill="none" stroke="black" d="M151.27,-180.48C138.9,-189.24 123.73,-199.96 110.34,-209.42"/>
<polygon fill="black" stroke="black" points="102.41,-215.04 107.97,-205.59 105.49,-212.85 110.57,-209.26 110.57,-209.26 110.57,-209.26 105.49,-212.85 113.17,-212.94 102.41,-215.04"/>
</g>
<!-- calcipy.check_for_stale_packages._check_for_stale_packages&#45;&gt;calcipy.can_skip -->
<g id="edge3" class="edge">
<title>calcipy.check_for_stale_packages._check_for_stale_packages&#45;&gt;calcipy.can_skip</title>
<path fill="none" stroke="black" d="M176,-180.3C176,-187.68 176,-196.48 176,-204.75"/>
<polygon fill="black" stroke="black" points="176,-214.68 171.5,-204.68 176,-210.9 176,-204.68 176,-204.68 176,-204.68 176,-210.9 180.5,-204.68 176,-214.68"/>
</g>
<!-- calcipy.cli -->
<g id="node5" class="node">
<title>calcipy.cli</title>
<polygon fill="none" stroke="black" points="1498.75,-252 1427.25,-252 1427.25,-216 1498.75,-216 1498.75,-252"/>
<text text-anchor="middle" x="1463" y="-228.95" font-family="Times,serif" font-size="14.00">calcipy.cli</text>
</g>
<!-- calcipy.invoke_helpers -->
<g id="node14" class="node">
<title>calcipy.invoke_helpers</title>
<polygon fill="none" stroke="black" points="1635.25,-540 1494.75,-540 1494.75,-504 1635.25,-504 1635.25,-540"/>
<text text-anchor="middle" x="1565" y="-516.95" font-family="Times,serif" font-size="14.00">calcipy.invoke_helpers</text>
</g>
<!-- calcipy.cli&#45;&gt;calcipy.invoke_helpers -->
<g id="edge4" class="edge">
<title>calcipy.cli&#45;&gt;calcipy.invoke_helpers</title>
<path fill="none" stroke="black" d="M1469.23,-252.46C1486.37,-300.54 1534.39,-435.17 1555.19,-493.49"/>
<polygon fill="black" stroke="black" points="1558.45,-502.62 1550.85,-494.71 1557.17,-499.06 1555.09,-493.2 1555.09,-493.2 1555.09,-493.2 1557.17,-499.06 1559.32,-491.69 1558.45,-502.62"/>
</g>
<!-- calcipy.tasks._invoke -->
<g id="node21" class="node">
<title>calcipy.tasks._invoke</title>
<polygon fill="none" stroke="black" points="1031.12,-324 898.88,-324 898.88,-288 1031.12,-288 1031.12,-324"/>
<text text-anchor="middle" x="965" y="-300.95" font-family="Times,serif" font-size="14.00">calcipy.tasks._invoke</text>
</g>
<!-- calcipy.cli&#45;&gt;calcipy.tasks._invoke -->
<g id="edge5" class="edge">
<title>calcipy.cli&#45;&gt;calcipy.tasks._invoke</title>
<path fill="none" stroke="black" d="M1426.91,-249.58C1423.92,-250.49 1420.93,-251.32 1418,-252 1255.79,-289.76 1209.61,-262.65 1045,-288 1044.02,-288.15 1043.03,-288.31 1042.04,-288.47"/>
<polygon fill="black" stroke="black" points="1032.45,-290.11 1041.54,-283.99 1036.18,-289.47 1042.3,-288.42 1042.3,-288.42 1042.3,-288.42 1036.18,-289.47 1043.07,-292.86 1032.45,-290.11"/>
</g>
<!-- calcipy.code_tag_collector -->
<g id="node6" class="node">
<title>calcipy.code_tag_collector</title>
<polygon fill="none" stroke="black" points="1867.38,-252 1706.62,-252 1706.62,-216 1867.38,-216 1867.38,-252"/>
<text text-anchor="middle" x="1787" y="-228.95" font-family="Times,serif" font-size="14.00">calcipy.code_tag_collector</text>
</g>
<!-- calcipy.code_tag_collector._collector -->
<g id="node7" class="node">
<title>calcipy.code_tag_collector._collector</title>
<polygon fill="none" stroke="black" points="1886.88,-324 1669.12,-324 1669.12,-288 1886.88,-288 1886.88,-324"/>
<text text-anchor="middle" x="1778" y="-300.95" font-family="Times,serif" font-size="14.00">calcipy.code_tag_collector._collector</text>
</g>
<!-- calcipy.code_tag_collector&#45;&gt;calcipy.code_tag_collector._collector -->
<g id="edge6" class="edge">
<title>calcipy.code_tag_collector&#45;&gt;calcipy.code_tag_collector._collector</title>
<path fill="none" stroke="black" d="M1784.78,-252.3C1783.82,-259.76 1782.67,-268.68 1781.6,-277.03"/>
<polygon fill="black" stroke="black" points="1780.35,-286.69 1777.17,-276.19 1780.84,-282.94 1781.63,-276.77 1781.63,-276.77 1781.63,-276.77 1780.84,-282.94 1786.09,-277.34 1780.35,-286.69"/>
</g>
<!-- calcipy.dot_dict -->
<g id="node8" class="node">
<title>calcipy.dot_dict</title>
<polygon fill="none" stroke="black" points="1684.12,-36 1581.88,-36 1581.88,0 1684.12,0 1684.12,-36"/>
<text text-anchor="middle" x="1633" y="-12.95" font-family="Times,serif" font-size="14.00">calcipy.dot_dict</text>
</g>
<!-- calcipy.dot_dict._dot_dict -->
<g id="node9" class="node">
<title>calcipy.dot_dict._dot_dict</title>
<polygon fill="none" stroke="black" points="1711.5,-108 1554.5,-108 1554.5,-72 1711.5,-72 1711.5,-108"/>
<text text-anchor="middle" x="1633" y="-84.95" font-family="Times,serif" font-size="14.00">calcipy.dot_dict._dot_dict</text>
</g>
<!-- calcipy.dot_dict&#45;&gt;calcipy.dot_dict._dot_dict -->
<g id="edge7" class="edge">
<title>calcipy.dot_dict&#45;&gt;calcipy.dot_dict._dot_dict</title>
<path fill="none" stroke="black" d="M1633,-36.3C1633,-43.68 1633,-52.48 1633,-60.75"/>
<polygon fill="black" stroke="black" points="1633,-70.68 1628.5,-60.68 1633,-66.9 1633,-60.68 1633,-60.68 1633,-60.68 1633,-66.9 1637.5,-60.68 1633,-70.68"/>
</g>
<!-- calcipy.experiments -->
<g id="node10" class="node">
<title>calcipy.experiments</title>
<polygon fill="none" stroke="black" points="843.38,-252 718.62,-252 718.62,-216 843.38,-216 843.38,-252"/>
<text text-anchor="middle" x="781" y="-228.95" font-family="Times,serif" font-size="14.00">calcipy.experiments</text>
</g>
<!-- calcipy.experiments.bump_programmatically -->
<g id="node11" class="node">
<title>calcipy.experiments.bump_programmatically</title>
<polygon fill="none" stroke="black" points="549.12,-252 284.88,-252 284.88,-216 549.12,-216 549.12,-252"/>
<text text-anchor="middle" x="417" y="-228.95" font-family="Times,serif" font-size="14.00">calcipy.experiments.bump_programmatically</text>
</g>
<!-- calcipy.experiments.check_duplicate_test_names -->
<g id="node12" class="node">
<title>calcipy.experiments.check_duplicate_test_names</title>
<polygon fill="none" stroke="black" points="1408.88,-252 1125.12,-252 1125.12,-216 1408.88,-216 1408.88,-252"/>
<text text-anchor="middle" x="1267" y="-228.95" font-family="Times,serif" font-size="14.00">calcipy.experiments.check_duplicate_test_names</text>
</g>
<!-- calcipy.file_search -->
<g id="node13" class="node">
<title>calcipy.file_search</title>
<polygon fill="none" stroke="black" points="2063.62,-396 1946.38,-396 1946.38,-360 2063.62,-360 2063.62,-396"/>
<text text-anchor="middle" x="2005" y="-372.95" font-family="Times,serif" font-size="14.00">calcipy.file_search</text>
</g>
<!-- calcipy.md_writer -->
<g id="node15" class="node">
<title>calcipy.md_writer</title>
<polygon fill="none" stroke="black" points="2144.5,-252 2029.5,-252 2029.5,-216 2144.5,-216 2144.5,-252"/>
<text text-anchor="middle" x="2087" y="-228.95" font-family="Times,serif" font-size="14.00">calcipy.md_writer</text>
</g>
<!-- calcipy.md_writer._writer -->
<g id="node16" class="node">
<title>calcipy.md_writer._writer</title>
<polygon fill="none" stroke="black" points="2176.5,-324 2019.5,-324 2019.5,-288 2176.5,-288 2176.5,-324"/>
<text text-anchor="middle" x="2098" y="-300.95" font-family="Times,serif" font-size="14.00">calcipy.md_writer._writer</text>
</g>
<!-- calcipy.md_writer&#45;&gt;calcipy.md_writer._writer -->
<g id="edge8" class="edge">
<title>calcipy.md_writer&#45;&gt;calcipy.md_writer._writer</title>
<path fill="none" stroke="black" d="M2089.72,-252.3C2090.89,-259.76 2092.29,-268.68 2093.61,-277.03"/>
<polygon fill="black" stroke="black" points="2095.12,-286.69 2089.13,-277.51 2094.54,-282.96 2093.57,-276.81 2093.57,-276.81 2093.57,-276.81 2094.54,-282.96 2098.02,-276.11 2095.12,-286.69"/>
</g>
<!-- calcipy.md_writer._writer&#45;&gt;calcipy.file_search -->
<g id="edge9" class="edge">
<title>calcipy.md_writer._writer&#45;&gt;calcipy.file_search</title>
<path fill="none" stroke="black" d="M2075.01,-324.3C2063.5,-332.97 2049.37,-343.6 2036.84,-353.04"/>
<polygon fill="black" stroke="black" points="2029.02,-358.92 2034.3,-349.31 2032.04,-356.65 2037.01,-352.91 2037.01,-352.91 2037.01,-352.91 2032.04,-356.65 2039.72,-356.5 2029.02,-358.92"/>
</g>
<!-- calcipy.md_writer._writer&#45;&gt;calcipy.invoke_helpers -->
<g id="edge10" class="edge">
<title>calcipy.md_writer._writer&#45;&gt;calcipy.invoke_helpers</title>
<path fill="none" stroke="black" d="M2097.23,-324.3C2095.51,-343.76 2090.07,-375.34 2073,-396 2027.43,-451.16 1997.27,-446.57 1929,-468 1834.63,-497.62 1721.21,-510.8 1646.34,-516.59"/>
<polygon fill="black" stroke="black" points="1636.79,-517.3 1646.43,-512.07 1640.56,-517.02 1646.76,-516.56 1646.76,-516.56 1646.76,-516.56 1640.56,-517.02 1647.1,-521.04 1636.79,-517.3"/>
</g>
<!-- calcipy.noxfile -->
<g id="node17" class="node">
<title>calcipy.noxfile</title>
<polygon fill="none" stroke="black" points="1850.12,-36 1753.88,-36 1753.88,0 1850.12,0 1850.12,-36"/>
<text text-anchor="middle" x="1802" y="-12.95" font-family="Times,serif" font-size="14.00">calcipy.noxfile</text>
</g>
<!-- calcipy.noxfile._noxfile -->
<g id="node18" class="node">
<title>calcipy.noxfile._noxfile</title>
<polygon fill="none" stroke="black" points="1874.5,-108 1729.5,-108 1729.5,-72 1874.5,-72 1874.5,-108"/>
<text text-anchor="middle" x="1802" y="-84.95" font-family="Times,serif" font-size="14.00">calcipy.noxfile._noxfile</text>
</g>
<!-- calcipy.noxfile&#45;&gt;calcipy.noxfile._noxfile -->
<g id="edge11" class="edge">
<title>calcipy.noxfile&#45;&gt;calcipy.noxfile._noxfile</title>
<path fill="none" stroke="black" d="M1802,-36.3C1802,-43.68 1802,-52.48 1802,-60.75"/>
<polygon fill="black" stroke="black" points="1802,-70.68 1797.5,-60.68 1802,-66.9 1802,-60.68 1802,-60.68 1802,-60.68 1802,-66.9 1806.5,-60.68 1802,-70.68"/>
</g>
<!-- calcipy.scripts -->
<g id="node19" class="node">
<title>calcipy.scripts</title>
<polygon fill="none" stroke="black" points="1168.62,-108 1075.38,-108 1075.38,-72 1168.62,-72 1168.62,-108"/>
<text text-anchor="middle" x="1122" y="-84.95" font-family="Times,serif" font-size="14.00">calcipy.scripts</text>
</g>
<!-- calcipy.scripts&#45;&gt;calcipy.cli -->
<g id="edge12" class="edge">
<title>calcipy.scripts&#45;&gt;calcipy.cli</title>
<path fill="none" stroke="black" d="M1162.8,-108.46C1182.64,-117.76 1206.38,-130.15 1226,-144 1245,-157.42 1243.52,-168.97 1264,-180 1322.98,-211.77 1348.34,-197.09 1416.43,-215.84"/>
<polygon fill="black" stroke="black" points="1425.62,-218.51 1414.76,-220.04 1421.99,-217.46 1416.02,-215.72 1416.02,-215.72 1416.02,-215.72 1421.99,-217.46 1417.28,-211.4 1425.62,-218.51"/>
</g>
<!-- calcipy.tasks -->
<g id="node20" class="node">
<title>calcipy.tasks</title>
<polygon fill="none" stroke="black" points="1358.5,-180 1273.5,-180 1273.5,-144 1358.5,-144 1358.5,-180"/>
<text text-anchor="middle" x="1316" y="-156.95" font-family="Times,serif" font-size="14.00">calcipy.tasks</text>
</g>
<!-- calcipy.scripts&#45;&gt;calcipy.tasks -->
<g id="edge13" class="edge">
<title>calcipy.scripts&#45;&gt;calcipy.tasks</title>
<path fill="none" stroke="black" d="M1168.96,-107.95C1197.23,-118.14 1233.3,-131.16 1262.64,-141.74"/>
<polygon fill="black" stroke="black" points="1271.97,-145.11 1261.03,-145.95 1268.41,-143.83 1262.56,-141.72 1262.56,-141.72 1262.56,-141.72 1268.41,-143.83 1264.09,-137.49 1271.97,-145.11"/>
</g>
<!-- calcipy.scripts&#45;&gt;calcipy.tasks._invoke -->
<g id="edge14" class="edge">
<title>calcipy.scripts&#45;&gt;calcipy.tasks._invoke</title>
<path fill="none" stroke="black" d="M1075.04,-95.94C1018.44,-102.98 928.34,-118 908,-144 894.86,-160.79 911.98,-234.73 920,-252 924.55,-261.81 931.43,-271.24 938.45,-279.37"/>
<polygon fill="black" stroke="black" points="945.19,-286.72 935.12,-282.39 942.64,-283.93 938.43,-279.35 938.43,-279.35 938.43,-279.35 942.64,-283.93 941.75,-276.31 945.19,-286.72"/>
</g>
<!-- calcipy.tasks.all_tasks -->
<g id="node22" class="node">
<title>calcipy.tasks.all_tasks</title>
<polygon fill="none" stroke="black" points="1053,-180 917,-180 917,-144 1053,-144 1053,-180"/>
<text text-anchor="middle" x="985" y="-156.95" font-family="Times,serif" font-size="14.00">calcipy.tasks.all_tasks</text>
</g>
<!-- calcipy.scripts&#45;&gt;calcipy.tasks.all_tasks -->
<g id="edge15" class="edge">
<title>calcipy.scripts&#45;&gt;calcipy.tasks.all_tasks</title>
<path fill="none" stroke="black" d="M1087.78,-108.48C1069.91,-117.61 1047.85,-128.89 1028.75,-138.65"/>
<polygon fill="black" stroke="black" points="1019.87,-143.19 1026.72,-134.63 1023.23,-141.46 1028.77,-138.64 1028.77,-138.64 1028.77,-138.64 1023.23,-141.46 1030.82,-142.64 1019.87,-143.19"/>
</g>
<!-- calcipy.tasks.cl -->
<g id="node23" class="node">
<title>calcipy.tasks.cl</title>
<polygon fill="none" stroke="black" points="1559.25,-180 1460.75,-180 1460.75,-144 1559.25,-144 1559.25,-180"/>
<text text-anchor="middle" x="1510" y="-156.95" font-family="Times,serif" font-size="14.00">calcipy.tasks.cl</text>
</g>
<!-- calcipy.scripts&#45;&gt;calcipy.tasks.cl -->
<g id="edge16" class="edge">
<title>calcipy.scripts&#45;&gt;calcipy.tasks.cl</title>
<path fill="none" stroke="black" d="M1168.8,-99.44C1239.02,-112.11 1371.64,-136.04 1449.24,-150.04"/>
<polygon fill="black" stroke="black" points="1459.08,-151.81 1448.44,-154.47 1455.36,-151.14 1449.24,-150.04 1449.24,-150.04 1449.24,-150.04 1455.36,-151.14 1450.04,-145.61 1459.08,-151.81"/>
</g>
<!-- calcipy.tasks.defaults -->
<g id="node24" class="node">
<title>calcipy.tasks.defaults</title>
<polygon fill="none" stroke="black" points="1068.75,-252 937.25,-252 937.25,-216 1068.75,-216 1068.75,-252"/>
<text text-anchor="middle" x="1003" y="-228.95" font-family="Times,serif" font-size="14.00">calcipy.tasks.defaults</text>
</g>
<!-- calcipy.scripts&#45;&gt;calcipy.tasks.defaults -->
<g id="edge17" class="edge">
<title>calcipy.scripts&#45;&gt;calcipy.tasks.defaults</title>
<path fill="none" stroke="black" d="M1112.09,-108.29C1101.04,-126.9 1082.06,-156.94 1062,-180 1053.33,-189.96 1042.88,-199.9 1033.19,-208.43"/>
<polygon fill="black" stroke="black" points="1025.87,-214.74 1030.51,-204.8 1028.73,-212.27 1033.45,-208.21 1033.45,-208.21 1033.45,-208.21 1028.73,-212.27 1036.38,-211.62 1025.87,-214.74"/>
</g>
<!-- calcipy.tasks.doc -->
<g id="node25" class="node">
<title>calcipy.tasks.doc</title>
<polygon fill="none" stroke="black" points="2007.12,-180 1898.88,-180 1898.88,-144 2007.12,-144 2007.12,-180"/>
<text text-anchor="middle" x="1953" y="-156.95" font-family="Times,serif" font-size="14.00">calcipy.tasks.doc</text>
</g>
<!-- calcipy.scripts&#45;&gt;calcipy.tasks.doc -->
<g id="edge18" class="edge">
<title>calcipy.scripts&#45;&gt;calcipy.tasks.doc</title>
<path fill="none" stroke="black" d="M1168.87,-93.17C1283.83,-98.78 1588.87,-115.34 1842,-144 1856.89,-145.69 1872.84,-147.89 1887.87,-150.15"/>
<polygon fill="black" stroke="black" points="1897.43,-151.62 1886.86,-154.55 1893.69,-151.04 1887.54,-150.1 1887.54,-150.1 1887.54,-150.1 1893.69,-151.04 1888.23,-145.65 1897.43,-151.62"/>
</g>
<!-- calcipy.tasks.lint -->
<g id="node27" class="node">
<title>calcipy.tasks.lint</title>
<polygon fill="none" stroke="black" points="815.38,-180 708.62,-180 708.62,-144 815.38,-144 815.38,-180"/>
<text text-anchor="middle" x="762" y="-156.95" font-family="Times,serif" font-size="14.00">calcipy.tasks.lint</text>
</g>
<!-- calcipy.scripts&#45;&gt;calcipy.tasks.lint -->
<g id="edge19" class="edge">
<title>calcipy.scripts&#45;&gt;calcipy.tasks.lint</title>
<path fill="none" stroke="black" d="M1074.94,-100.15C1011.4,-112.51 897.92,-134.57 826.48,-148.46"/>
<polygon fill="black" stroke="black" points="817.02,-150.3 825.98,-143.98 820.73,-149.58 826.84,-148.39 826.84,-148.39 826.84,-148.39 820.73,-149.58 827.7,-152.81 817.02,-150.3"/>
</g>
<!-- calcipy.tasks.pack -->
<g id="node29" class="node">
<title>calcipy.tasks.pack</title>
<polygon fill="none" stroke="black" points="555.12,-180 440.88,-180 440.88,-144 555.12,-144 555.12,-180"/>
<text text-anchor="middle" x="498" y="-156.95" font-family="Times,serif" font-size="14.00">calcipy.tasks.pack</text>
</g>
<!-- calcipy.scripts&#45;&gt;calcipy.tasks.pack -->
<g id="edge20" class="edge">
<title>calcipy.scripts&#45;&gt;calcipy.tasks.pack</title>
<path fill="none" stroke="black" d="M1075.02,-95.99C988.65,-105.19 798.86,-125.59 639,-144 615.42,-146.71 589.64,-149.79 566.65,-152.57"/>
<polygon fill="black" stroke="black" points="556.82,-153.77 566.2,-148.09 560.57,-153.31 566.75,-152.56 566.75,-152.56 566.75,-152.56 560.57,-153.31 567.29,-157.03 556.82,-153.77"/>
</g>
<!-- calcipy.tasks.tags -->
<g id="node31" class="node">
<title>calcipy.tasks.tags</title>
<polygon fill="none" stroke="black" points="1833.25,-180 1722.75,-180 1722.75,-144 1833.25,-144 1833.25,-180"/>
<text text-anchor="middle" x="1778" y="-156.95" font-family="Times,serif" font-size="14.00">calcipy.tasks.tags</text>
</g>
<!-- calcipy.scripts&#45;&gt;calcipy.tasks.tags -->
<g id="edge21" class="edge">
<title>calcipy.scripts&#45;&gt;calcipy.tasks.tags</title>
<path fill="none" stroke="black" d="M1169.04,-93.13C1268.37,-98.09 1506.62,-112.49 1704,-144 1706.43,-144.39 1708.9,-144.81 1711.4,-145.26"/>
<polygon fill="black" stroke="black" points="1721.2,-147.15 1710.53,-149.68 1717.49,-146.43 1711.38,-145.26 1711.38,-145.26 1711.38,-145.26 1717.49,-146.43 1712.23,-140.84 1721.2,-147.15"/>
</g>
<!-- calcipy.tasks.test -->
<g id="node32" class="node">
<title>calcipy.tasks.test</title>
<polygon fill="none" stroke="black" points="1216.75,-180 1109.25,-180 1109.25,-144 1216.75,-144 1216.75,-180"/>
<text text-anchor="middle" x="1163" y="-156.95" font-family="Times,serif" font-size="14.00">calcipy.tasks.test</text>
</g>
<!-- calcipy.scripts&#45;&gt;calcipy.tasks.test -->
<g id="edge22" class="edge">
<title>calcipy.scripts&#45;&gt;calcipy.tasks.test</title>
<path fill="none" stroke="black" d="M1132.13,-108.3C1136.75,-116.19 1142.32,-125.7 1147.45,-134.45"/>
<polygon fill="black" stroke="black" points="1152.37,-142.84 1143.43,-136.49 1150.45,-139.58 1147.31,-134.22 1147.31,-134.22 1147.31,-134.22 1150.45,-139.58 1151.19,-131.94 1152.37,-142.84"/>
</g>
<!-- calcipy.tasks.types -->
<g id="node33" class="node">
<title>calcipy.tasks.types</title>
<polygon fill="none" stroke="black" points="1068.62,-396 951.38,-396 951.38,-360 1068.62,-360 1068.62,-396"/>
<text text-anchor="middle" x="1010" y="-372.95" font-family="Times,serif" font-size="14.00">calcipy.tasks.types</text>
</g>
<!-- calcipy.scripts&#45;&gt;calcipy.tasks.types -->
<g id="edge23" class="edge">
<title>calcipy.scripts&#45;&gt;calcipy.tasks.types</title>
<path fill="none" stroke="black" d="M1074.94,-93.46C970.09,-99.41 724.52,-116.21 700,-144 685.64,-160.27 696.54,-234.55 710,-252 765.61,-324.09 870.31,-354.97 940.12,-367.94"/>
<polygon fill="black" stroke="black" points="949.81,-369.66 939.18,-372.34 946.09,-369 939.97,-367.91 939.97,-367.91 939.97,-367.91 946.09,-369 940.75,-363.48 949.81,-369.66"/>
</g>
<!-- calcipy.tasks._invoke&#45;&gt;calcipy.tasks.types -->
<g id="edge24" class="edge">
<title>calcipy.tasks._invoke&#45;&gt;calcipy.tasks.types</title>
<path fill="none" stroke="black" d="M976.12,-324.3C981.25,-332.27 987.44,-341.9 993.12,-350.74"/>
<polygon fill="black" stroke="black" points="998.35,-358.87 989.15,-352.89 996.3,-355.69 992.94,-350.46 992.94,-350.46 992.94,-350.46 996.3,-355.69 996.72,-348.03 998.35,-358.87"/>
</g>
<!-- calcipy.tasks.all_tasks&#45;&gt;calcipy.cli -->
<g id="edge25" class="edge">
<title>calcipy.tasks.all_tasks&#45;&gt;calcipy.cli</title>
<path fill="none" stroke="black" d="M1053.36,-173.5C1068.69,-175.74 1084.89,-178.03 1100,-180 1237.6,-197.95 1277.79,-183.36 1416.31,-215.94"/>
<polygon fill="black" stroke="black" points="1425.71,-218.19 1414.94,-220.24 1422.03,-217.31 1415.98,-215.86 1415.98,-215.86 1415.98,-215.86 1422.03,-217.31 1417.03,-211.49 1425.71,-218.19"/>
</g>
<!-- calcipy.tasks.all_tasks&#45;&gt;calcipy.tasks._invoke -->
<g id="edge26" class="edge">
<title>calcipy.tasks.all_tasks&#45;&gt;calcipy.tasks._invoke</title>
<path fill="none" stroke="black" d="M958.12,-180.32C946.55,-189.4 934.26,-201.63 928,-216 921.61,-230.67 923.2,-236.74 928,-252 931,-261.54 936.4,-270.86 942.16,-278.96"/>
<polygon fill="black" stroke="black" points="948.22,-286.88 938.57,-281.68 945.92,-283.88 942.14,-278.94 942.14,-278.94 942.14,-278.94 945.92,-283.88 945.71,-276.2 948.22,-286.88"/>
</g>
<!-- calcipy.tasks.all_tasks&#45;&gt;calcipy.tasks.defaults -->
<g id="edge27" class="edge">
<title>calcipy.tasks.all_tasks&#45;&gt;calcipy.tasks.defaults</title>
<path fill="none" stroke="black" d="M989.45,-180.3C991.37,-187.76 993.66,-196.68 995.81,-205.03"/>
<polygon fill="black" stroke="black" points="998.3,-214.72 991.45,-206.15 997.36,-211.05 995.81,-205.03 995.81,-205.03 995.81,-205.03 997.36,-211.05 1000.17,-203.91 998.3,-214.72"/>
</g>
<!-- calcipy.tasks.cl&#45;&gt;calcipy.cli -->
<g id="edge28" class="edge">
<title>calcipy.tasks.cl&#45;&gt;calcipy.cli</title>
<path fill="none" stroke="black" d="M1498.38,-180.3C1493.03,-188.27 1486.57,-197.9 1480.63,-206.74"/>
<polygon fill="black" stroke="black" points="1475.16,-214.88 1477,-204.07 1477.27,-211.74 1480.74,-206.58 1480.74,-206.58 1480.74,-206.58 1477.27,-211.74 1484.47,-209.09 1475.16,-214.88"/>
</g>
<!-- calcipy.tasks.cl&#45;&gt;calcipy.invoke_helpers -->
<g id="edge29" class="edge">
<title>calcipy.tasks.cl&#45;&gt;calcipy.invoke_helpers</title>
<path fill="none" stroke="black" d="M1540.95,-180.38C1554.44,-189.4 1569.34,-201.56 1579,-216 1601.78,-250.05 1603,-264.03 1603,-305 1603,-305 1603,-305 1603,-379 1603,-420 1588.03,-465.47 1576.88,-493.65"/>
<polygon fill="black" stroke="black" points="1573.15,-502.78 1572.77,-491.82 1574.58,-499.28 1576.94,-493.52 1576.94,-493.52 1576.94,-493.52 1574.58,-499.28 1581.1,-495.23 1573.15,-502.78"/>
</g>
<!-- calcipy.tasks.executable_utils -->
<g id="node26" class="node">
<title>calcipy.tasks.executable_utils</title>
<polygon fill="none" stroke="black" points="1371.25,-468 1194.75,-468 1194.75,-432 1371.25,-432 1371.25,-468"/>
<text text-anchor="middle" x="1283" y="-444.95" font-family="Times,serif" font-size="14.00">calcipy.tasks.executable_utils</text>
</g>
<!-- calcipy.tasks.cl&#45;&gt;calcipy.tasks.executable_utils -->
<g id="edge30" class="edge">
<title>calcipy.tasks.cl&#45;&gt;calcipy.tasks.executable_utils</title>
<path fill="none" stroke="black" d="M1513.57,-180.32C1516.53,-198.97 1518.73,-229.04 1508,-252 1469.93,-333.48 1380.37,-394.89 1326.42,-426.08"/>
<polygon fill="black" stroke="black" points="1317.85,-430.95 1324.32,-422.1 1321.13,-429.09 1326.54,-426.02 1326.54,-426.02 1326.54,-426.02 1321.13,-429.09 1328.76,-429.93 1317.85,-430.95"/>
</g>
<!-- calcipy.tasks.defaults&#45;&gt;calcipy.tasks._invoke -->
<g id="edge31" class="edge">
<title>calcipy.tasks.defaults&#45;&gt;calcipy.tasks._invoke</title>
<path fill="none" stroke="black" d="M993.61,-252.3C989.37,-260.1 984.28,-269.49 979.56,-278.17"/>
<polygon fill="black" stroke="black" points="974.87,-286.82 975.68,-275.89 976.67,-283.5 979.64,-278.04 979.64,-278.04 979.64,-278.04 976.67,-283.5 983.59,-280.18 974.87,-286.82"/>
</g>
<!-- calcipy.tasks.doc&#45;&gt;calcipy.cli -->
<g id="edge32" class="edge">
<title>calcipy.tasks.doc&#45;&gt;calcipy.cli</title>
<path fill="none" stroke="black" d="M1898.54,-171.49C1880.55,-174.25 1860.42,-177.3 1842,-180 1722.51,-197.5 1581.62,-216.87 1509.97,-226.63"/>
<polygon fill="black" stroke="black" points="1500.29,-227.95 1509.59,-222.14 1504.03,-227.44 1510.2,-226.6 1510.2,-226.6 1510.2,-226.6 1504.03,-227.44 1510.8,-231.06 1500.29,-227.95"/>
</g>
<!-- calcipy.tasks.doc&#45;&gt;calcipy.invoke_helpers -->
<g id="edge33" class="edge">
<title>calcipy.tasks.doc&#45;&gt;calcipy.invoke_helpers</title>
<path fill="none" stroke="black" d="M2007.51,-165.99C2051.06,-170.86 2111.61,-183.5 2154,-216 2190.18,-243.74 2205,-259.41 2205,-305 2205,-305 2205,-305 2205,-379 2205,-492.11 1819.2,-515.18 1646.68,-519.84"/>
<polygon fill="black" stroke="black" points="1636.85,-520.09 1646.73,-515.34 1640.63,-520 1646.84,-519.84 1646.84,-519.84 1646.84,-519.84 1640.63,-520 1646.96,-524.34 1636.85,-520.09"/>
</g>
<!-- calcipy.tasks.doc&#45;&gt;calcipy.md_writer -->
<g id="edge34" class="edge">
<title>calcipy.tasks.doc&#45;&gt;calcipy.md_writer</title>
<path fill="none" stroke="black" d="M1986.47,-180.48C2003.95,-189.61 2025.53,-200.89 2044.21,-210.65"/>
<polygon fill="black" stroke="black" points="2052.88,-215.18 2041.93,-214.53 2049.53,-213.42 2044.01,-210.55 2044.01,-210.55 2044.01,-210.55 2049.53,-213.42 2046.1,-206.56 2052.88,-215.18"/>
</g>
<!-- calcipy.tasks.doc&#45;&gt;calcipy.tasks.executable_utils -->
<g id="edge35" class="edge">
<title>calcipy.tasks.doc&#45;&gt;calcipy.tasks.executable_utils</title>
<path fill="none" stroke="black" d="M1952.21,-180.37C1949.7,-213.63 1939.29,-286.35 1896,-324 1820.47,-389.69 1535.91,-425.59 1382.48,-440.54"/>
<polygon fill="black" stroke="black" points="1372.88,-441.46 1382.41,-436.03 1376.65,-441.1 1382.84,-440.51 1382.84,-440.51 1382.84,-440.51 1376.65,-441.1 1383.27,-444.99 1372.88,-441.46"/>
</g>
<!-- calcipy.tasks.executable_utils&#45;&gt;calcipy.invoke_helpers -->
<g id="edge36" class="edge">
<title>calcipy.tasks.executable_utils&#45;&gt;calcipy.invoke_helpers</title>
<path fill="none" stroke="black" d="M1353.43,-468.48C1393.12,-478.33 1442.85,-490.68 1484.13,-500.93"/>
<polygon fill="black" stroke="black" points="1493.79,-503.32 1483,-505.28 1490.12,-502.41 1484.09,-500.92 1484.09,-500.92 1484.09,-500.92 1490.12,-502.41 1485.17,-496.55 1493.79,-503.32"/>
</g>
<!-- calcipy.tasks.lint&#45;&gt;calcipy.cli -->
<g id="edge37" class="edge">
<title>calcipy.tasks.lint&#45;&gt;calcipy.cli</title>
<path fill="none" stroke="black" d="M815.68,-169.84C843.24,-173.2 877.38,-177.14 908,-180 1130.71,-200.82 1194.07,-168.38 1416.23,-216.01"/>
<polygon fill="black" stroke="black" points="1425.74,-218.08 1415.01,-220.35 1422.04,-217.28 1415.96,-215.95 1415.96,-215.95 1415.96,-215.95 1422.04,-217.28 1416.92,-211.56 1425.74,-218.08"/>
</g>
<!-- calcipy.tasks.lint&#45;&gt;calcipy.invoke_helpers -->
<g id="edge38" class="edge">
<title>calcipy.tasks.lint&#45;&gt;calcipy.invoke_helpers</title>
<path fill="none" stroke="black" d="M722.22,-180.47C678.69,-202.61 615,-245.21 615,-305 615,-305 615,-305 615,-379 615,-466.47 1253.13,-505.95 1483.39,-517.34"/>
<polygon fill="black" stroke="black" points="1493.15,-517.82 1482.95,-521.83 1489.38,-517.64 1483.17,-517.33 1483.17,-517.33 1483.17,-517.33 1489.38,-517.64 1483.39,-512.84 1493.15,-517.82"/>
</g>
<!-- calcipy.tasks.lint&#45;&gt;calcipy.tasks.executable_utils -->
<g id="edge39" class="edge">
<title>calcipy.tasks.lint&#45;&gt;calcipy.tasks.executable_utils</title>
<path fill="none" stroke="black" d="M737.98,-180.32C727.25,-189.56 715.75,-201.92 710,-216 703.95,-230.81 702.22,-238.02 710,-252 769,-358.05 828.2,-353.83 942,-396 1020.12,-424.95 1113.99,-438.08 1183.45,-444.05"/>
<polygon fill="black" stroke="black" points="1193.17,-444.84 1182.83,-448.51 1189.4,-444.53 1183.2,-444.03 1183.2,-444.03 1183.2,-444.03 1189.4,-444.53 1183.57,-439.54 1193.17,-444.84"/>
</g>
<!-- calcipy.tasks.nox -->
<g id="node28" class="node">
<title>calcipy.tasks.nox</title>
<polygon fill="none" stroke="black" points="1695.5,-180 1586.5,-180 1586.5,-144 1695.5,-144 1695.5,-180"/>
<text text-anchor="middle" x="1641" y="-156.95" font-family="Times,serif" font-size="14.00">calcipy.tasks.nox</text>
</g>
<!-- calcipy.tasks.nox&#45;&gt;calcipy.cli -->
<g id="edge40" class="edge">
<title>calcipy.tasks.nox&#45;&gt;calcipy.cli</title>
<path fill="none" stroke="black" d="M1596.54,-180.48C1570,-190.92 1536.33,-204.16 1509.44,-214.74"/>
<polygon fill="black" stroke="black" points="1500.26,-218.35 1507.92,-210.5 1503.78,-216.96 1509.56,-214.69 1509.56,-214.69 1509.56,-214.69 1503.78,-216.96 1511.21,-218.88 1500.26,-218.35"/>
</g>
<!-- calcipy.tasks.nox&#45;&gt;calcipy.invoke_helpers -->
<g id="edge41" class="edge">
<title>calcipy.tasks.nox&#45;&gt;calcipy.invoke_helpers</title>
<path fill="none" stroke="black" d="M1642.38,-180.4C1645.49,-228.44 1649.68,-366.11 1606,-468 1601.83,-477.74 1595.43,-487.25 1588.93,-495.47"/>
<polygon fill="black" stroke="black" points="1582.71,-502.9 1585.68,-492.34 1585.14,-500 1589.13,-495.23 1589.13,-495.23 1589.13,-495.23 1585.14,-500 1592.58,-498.12 1582.71,-502.9"/>
</g>
<!-- calcipy.tasks.nox&#45;&gt;calcipy.tasks.executable_utils -->
<g id="edge42" class="edge">
<title>calcipy.tasks.nox&#45;&gt;calcipy.tasks.executable_utils</title>
<path fill="none" stroke="black" d="M1628.19,-180.44C1596.14,-222.95 1508.04,-333.05 1411,-396 1391.49,-408.66 1368.46,-419.31 1347.35,-427.67"/>
<polygon fill="black" stroke="black" points="1338.31,-431.15 1346.02,-423.36 1341.84,-429.8 1347.64,-427.56 1347.64,-427.56 1347.64,-427.56 1341.84,-429.8 1349.26,-431.76 1338.31,-431.15"/>
</g>
<!-- calcipy.tasks.pack&#45;&gt;calcipy -->
<g id="edge43" class="edge">
<title>calcipy.tasks.pack&#45;&gt;calcipy</title>
<path fill="none" stroke="black" d="M440.5,-170.49C346.49,-182.78 165.97,-206.66 115.79,-216.61"/>
<polygon fill="black" stroke="black" points="106.14,-218.85 114.86,-212.21 109.82,-218 115.88,-216.59 115.88,-216.59 115.88,-216.59 109.82,-218 116.9,-220.97 106.14,-218.85"/>
</g>
<!-- calcipy.tasks.pack&#45;&gt;calcipy.can_skip -->
<g id="edge44" class="edge">
<title>calcipy.tasks.pack&#45;&gt;calcipy.can_skip</title>
<path fill="none" stroke="black" d="M440.62,-174.18C388.84,-184.45 310.63,-200.4 243,-216 242.03,-216.22 241.05,-216.45 240.06,-216.68"/>
<polygon fill="black" stroke="black" points="230.53,-218.96 239.21,-212.26 234.21,-218.08 240.25,-216.64 240.25,-216.64 240.25,-216.64 234.21,-218.08 241.3,-221.01 230.53,-218.96"/>
</g>
<!-- calcipy.tasks.pack&#45;&gt;calcipy.cli -->
<g id="edge45" class="edge">
<title>calcipy.tasks.pack&#45;&gt;calcipy.cli</title>
<path fill="none" stroke="black" d="M555.43,-168.35C595.83,-171.99 651.19,-176.72 700,-180 1015.21,-201.16 1103.25,-151.88 1416.19,-216.04"/>
<polygon fill="black" stroke="black" points="1425.75,-218.03 1415.04,-220.4 1422.04,-217.26 1415.96,-216 1415.96,-216 1415.96,-216 1422.04,-217.26 1416.87,-211.59 1425.75,-218.03"/>
</g>
<!-- calcipy.tasks.pack&#45;&gt;calcipy.experiments -->
<g id="edge46" class="edge">
<title>calcipy.tasks.pack&#45;&gt;calcipy.experiments</title>
<path fill="none" stroke="black" d="M555.61,-177.25C599.54,-188.12 660.35,-203.16 707.74,-214.88"/>
<polygon fill="black" stroke="black" points="717.37,-217.26 706.59,-219.23 713.7,-216.35 707.67,-214.86 707.67,-214.86 707.67,-214.86 713.7,-216.35 708.75,-210.49 717.37,-217.26"/>
</g>
<!-- calcipy.tasks.pack&#45;&gt;calcipy.experiments.bump_programmatically -->
<g id="edge47" class="edge">
<title>calcipy.tasks.pack&#45;&gt;calcipy.experiments.bump_programmatically</title>
<path fill="none" stroke="black" d="M477.98,-180.3C468.14,-188.8 456.13,-199.19 445.37,-208.49"/>
<polygon fill="black" stroke="black" points="437.99,-214.86 442.62,-204.91 440.86,-212.38 445.56,-208.32 445.56,-208.32 445.56,-208.32 440.86,-212.38 448.5,-211.72 437.99,-214.86"/>
</g>
<!-- calcipy.tasks.pack&#45;&gt;calcipy.invoke_helpers -->
<g id="edge48" class="edge">
<title>calcipy.tasks.pack&#45;&gt;calcipy.invoke_helpers</title>
<path fill="none" stroke="black" d="M440.59,-169.72C382.65,-177.68 298.59,-192.86 276,-216 247.75,-244.94 257,-264.55 257,-305 257,-305 257,-305 257,-379 257,-502.97 1197.69,-518.8 1483.57,-520.75"/>
<polygon fill="black" stroke="black" points="1493.46,-520.81 1483.43,-525.25 1489.68,-520.79 1483.46,-520.75 1483.46,-520.75 1483.46,-520.75 1489.68,-520.79 1483.49,-516.25 1493.46,-520.81"/>
</g>
<!-- calcipy.tasks.pack&#45;&gt;calcipy.tasks.executable_utils -->
<g id="edge49" class="edge">
<title>calcipy.tasks.pack&#45;&gt;calcipy.tasks.executable_utils</title>
<path fill="none" stroke="black" d="M519.82,-180.31C582.58,-229.73 763.45,-369.62 833,-396 895.11,-419.55 1071.1,-435.1 1183.7,-442.95"/>
<polygon fill="black" stroke="black" points="1193.51,-443.62 1183.23,-447.42 1189.74,-443.36 1183.53,-442.94 1183.53,-442.94 1183.53,-442.94 1189.74,-443.36 1183.84,-438.45 1193.51,-443.62"/>
</g>
<!-- calcipy.tasks.stale -->
<g id="node30" class="node">
<title>calcipy.tasks.stale</title>
<polygon fill="none" stroke="black" points="1360.75,-36 1247.25,-36 1247.25,0 1360.75,0 1360.75,-36"/>
<text text-anchor="middle" x="1304" y="-12.95" font-family="Times,serif" font-size="14.00">calcipy.tasks.stale</text>
</g>
<!-- calcipy.tasks.stale&#45;&gt;calcipy.check_for_stale_packages -->
<g id="edge50" class="edge">
<title>calcipy.tasks.stale&#45;&gt;calcipy.check_for_stale_packages</title>
<path fill="none" stroke="black" d="M1246.98,-24.2C1120.35,-35.76 813.83,-63.74 647.98,-78.87"/>
<polygon fill="black" stroke="black" points="638.48,-79.74 648.03,-74.35 642.25,-79.39 648.44,-78.83 648.44,-78.83 648.44,-78.83 642.25,-79.39 648.85,-83.31 638.48,-79.74"/>
</g>
<!-- calcipy.tasks.stale&#45;&gt;calcipy.cli -->
<g id="edge51" class="edge">
<title>calcipy.tasks.stale&#45;&gt;calcipy.cli</title>
<path fill="none" stroke="black" d="M1316.74,-36.15C1344.54,-73.56 1410.75,-162.68 1443.7,-207.02"/>
<polygon fill="black" stroke="black" points="1449.47,-214.79 1439.89,-209.45 1447.21,-211.75 1443.51,-206.76 1443.51,-206.76 1443.51,-206.76 1447.21,-211.75 1447.12,-204.08 1449.47,-214.79"/>
</g>
<!-- calcipy.tasks.tags&#45;&gt;calcipy.cli -->
<g id="edge52" class="edge">
<title>calcipy.tasks.tags&#45;&gt;calcipy.cli</title>
<path fill="none" stroke="black" d="M1722.25,-175.87C1716.1,-177.27 1709.92,-178.67 1704,-180 1636.53,-195.17 1558.32,-212.28 1509.75,-222.85"/>
<polygon fill="black" stroke="black" points="1500.14,-224.94 1508.96,-218.42 1503.84,-224.14 1509.92,-222.82 1509.92,-222.82 1509.92,-222.82 1503.84,-224.14 1510.87,-227.22 1500.14,-224.94"/>
</g>
<!-- calcipy.tasks.tags&#45;&gt;calcipy.code_tag_collector -->
<g id="edge53" class="edge">
<title>calcipy.tasks.tags&#45;&gt;calcipy.code_tag_collector</title>
<path fill="none" stroke="black" d="M1780.22,-180.3C1781.18,-187.76 1782.33,-196.68 1783.4,-205.03"/>
<polygon fill="black" stroke="black" points="1784.65,-214.69 1778.91,-205.34 1784.16,-210.94 1783.37,-204.77 1783.37,-204.77 1783.37,-204.77 1784.16,-210.94 1787.83,-204.19 1784.65,-214.69"/>
</g>
<!-- calcipy.tasks.tags&#45;&gt;calcipy.file_search -->
<g id="edge54" class="edge">
<title>calcipy.tasks.tags&#45;&gt;calcipy.file_search</title>
<path fill="none" stroke="black" d="M1833.69,-171.64C1864.84,-178.94 1902.59,-192.19 1929,-216 1968.88,-251.95 1989.63,-313.24 1998.85,-348.93"/>
<polygon fill="black" stroke="black" points="2001.16,-358.37 1994.41,-349.72 2000.26,-354.69 1998.78,-348.65 1998.78,-348.65 1998.78,-348.65 2000.26,-354.69 2003.15,-347.58 2001.16,-358.37"/>
</g>
<!-- calcipy.tasks.tags&#45;&gt;calcipy.invoke_helpers -->
<g id="edge55" class="edge">
<title>calcipy.tasks.tags&#45;&gt;calcipy.invoke_helpers</title>
<path fill="none" stroke="black" d="M1824.71,-180.49C1842.56,-189.02 1861.98,-200.77 1876,-216 1905.25,-247.77 1915,-261.81 1915,-305 1915,-305 1915,-305 1915,-379 1915,-436.71 1749.53,-482.19 1646.14,-504.98"/>
<polygon fill="black" stroke="black" points="1636.6,-507.05 1645.41,-500.53 1640.29,-506.25 1646.37,-504.93 1646.37,-504.93 1646.37,-504.93 1640.29,-506.25 1647.33,-509.33 1636.6,-507.05"/>
</g>
<!-- calcipy.tasks.tags&#45;&gt;calcipy.tasks.defaults -->
<g id="edge56" class="edge">
<title>calcipy.tasks.tags&#45;&gt;calcipy.tasks.defaults</title>
<path fill="none" stroke="black" d="M1722.42,-176.8C1716.24,-178.03 1710,-179.13 1704,-180 1444.87,-217.44 1376.37,-188.5 1116,-216 1104.37,-217.23 1092.1,-218.79 1080.11,-220.47"/>
<polygon fill="black" stroke="black" points="1070.41,-221.87 1079.66,-215.99 1074.15,-221.33 1080.3,-220.45 1080.3,-220.45 1080.3,-220.45 1074.15,-221.33 1080.94,-224.9 1070.41,-221.87"/>
</g>
<!-- calcipy.tasks.test&#45;&gt;calcipy.cli -->
<g id="edge57" class="edge">
<title>calcipy.tasks.test&#45;&gt;calcipy.cli</title>
<path fill="none" stroke="black" d="M1217.13,-176.82C1221.81,-177.93 1226.48,-179 1231,-180 1310.25,-197.52 1334.58,-193.36 1416.05,-215.71"/>
<polygon fill="black" stroke="black" points="1425.66,-218.4 1414.81,-220.04 1422.01,-217.38 1416.03,-215.7 1416.03,-215.7 1416.03,-215.7 1422.01,-217.38 1417.24,-211.37 1425.66,-218.4"/>
</g>
<!-- calcipy.tasks.test&#45;&gt;calcipy.experiments -->
<g id="edge58" class="edge">
<title>calcipy.tasks.test&#45;&gt;calcipy.experiments</title>
<path fill="none" stroke="black" d="M1109.08,-172.88C1042.53,-185.08 929.06,-205.87 854.55,-219.52"/>
<polygon fill="black" stroke="black" points="845.05,-221.26 854.07,-215.03 848.77,-220.58 854.89,-219.46 854.89,-219.46 854.89,-219.46 848.77,-220.58 855.7,-223.89 845.05,-221.26"/>
</g>
<!-- calcipy.tasks.test&#45;&gt;calcipy.experiments.check_duplicate_test_names -->
<g id="edge59" class="edge">
<title>calcipy.tasks.test&#45;&gt;calcipy.experiments.check_duplicate_test_names</title>
<path fill="none" stroke="black" d="M1188.98,-180.48C1202.1,-189.32 1218.21,-200.16 1232.38,-209.7"/>
<polygon fill="black" stroke="black" points="1240.34,-215.06 1229.54,-213.21 1237.21,-212.95 1232.05,-209.48 1232.05,-209.48 1232.05,-209.48 1237.21,-212.95 1234.56,-205.74 1240.34,-215.06"/>
</g>
<!-- calcipy.tasks.test&#45;&gt;calcipy.invoke_helpers -->
<g id="edge60" class="edge">
<title>calcipy.tasks.test&#45;&gt;calcipy.invoke_helpers</title>
<path fill="none" stroke="black" d="M1217.22,-172.33C1232.35,-174.88 1248.81,-177.6 1264,-180 1372.28,-197.1 1415.94,-156.49 1508,-216 1547.45,-241.5 1565,-258.03 1565,-305 1565,-305 1565,-305 1565,-379 1565,-418.26 1565,-463.62 1565,-492.31"/>
<polygon fill="black" stroke="black" points="1565,-502.29 1560.5,-492.29 1565,-498.51 1565,-492.29 1565,-492.29 1565,-492.29 1565,-498.51 1569.5,-492.29 1565,-502.29"/>
</g>
<!-- calcipy.tasks.test&#45;&gt;calcipy.tasks.defaults -->
<g id="edge61" class="edge">
<title>calcipy.tasks.test&#45;&gt;calcipy.tasks.defaults</title>
<path fill="none" stroke="black" d="M1123.04,-180.48C1101.77,-189.79 1075.41,-201.32 1052.81,-211.21"/>
<polygon fill="black" stroke="black" points="1043.85,-215.13 1051.2,-207 1047.31,-213.61 1053.01,-211.12 1053.01,-211.12 1053.01,-211.12 1047.31,-213.61 1054.81,-215.24 1043.85,-215.13"/>
</g>
<!-- calcipy.tasks.test&#45;&gt;calcipy.tasks.executable_utils -->
<g id="edge62" class="edge">
<title>calcipy.tasks.test&#45;&gt;calcipy.tasks.executable_utils</title>
<path fill="none" stroke="black" d="M1141.73,-180.3C1131.89,-189.69 1121.24,-202.2 1116,-216 1110.32,-230.96 1110.49,-236.98 1116,-252 1143.06,-325.77 1211.33,-390.86 1251.71,-424.58"/>
<polygon fill="black" stroke="black" points="1259.42,-430.91 1248.84,-428.04 1256.5,-428.51 1251.69,-424.57 1251.69,-424.57 1251.69,-424.57 1256.5,-428.51 1254.55,-421.09 1259.42,-430.91"/>
</g>
<!-- calcipy.tasks.types&#45;&gt;calcipy.cli -->
<g id="edge63" class="edge">
<title>calcipy.tasks.types&#45;&gt;calcipy.cli</title>
<path fill="none" stroke="black" d="M1068.82,-360.26C1146.36,-337.91 1287.12,-296.36 1416.71,-252.34"/>
<polygon fill="black" stroke="black" points="1426.06,-249.15 1418.05,-256.64 1422.48,-250.37 1416.6,-252.38 1416.6,-252.38 1416.6,-252.38 1422.48,-250.37 1415.14,-248.12 1426.06,-249.15"/>
</g>
<!-- calcipy.tasks.types&#45;&gt;calcipy.invoke_helpers -->
<g id="edge64" class="edge">
<title>calcipy.tasks.types&#45;&gt;calcipy.invoke_helpers</title>
<path fill="none" stroke="black" d="M1037.44,-396.49C1071.07,-417.06 1130.45,-450.6 1186,-468 1285.41,-499.14 1405.21,-512.02 1483.14,-517.32"/>
<polygon fill="black" stroke="black" points="1493.11,-517.97 1482.84,-521.81 1489.34,-517.72 1483.14,-517.32 1483.14,-517.32 1483.14,-517.32 1489.34,-517.72 1483.43,-512.83 1493.11,-517.97"/>
</g>
<!-- calcipy.tasks.types&#45;&gt;calcipy.tasks.executable_utils -->
<g id="edge65" class="edge">
<title>calcipy.tasks.types&#45;&gt;calcipy.tasks.executable_utils</title>
<path fill="none" stroke="black" d="M1068.9,-394.1C1108.49,-404.25 1161.13,-417.75 1204.3,-428.82"/>
<polygon fill="black" stroke="black" points="1213.88,-431.28 1203.08,-433.15 1210.22,-430.34 1204.2,-428.79 1204.2,-428.79 1204.2,-428.79 1210.22,-430.34 1205.31,-424.43 1213.88,-431.28"/>
</g>
</g>
</svg>
