<?xml version="1.0" encoding="UTF-8" standalone="no"?>
<!DOCTYPE svg PUBLIC "-//W3C//DTD SVG 1.1//EN"
 "http://www.w3.org/Graphics/SVG/1.1/DTD/svg11.dtd">
<!-- Generated by graphviz version 8.1.0 (20230707.0739)
 -->
<!-- Title: packages Pages: 1 -->
<svg width="2987pt" height="404pt"
 viewBox="0.00 0.00 2987.00 404.00" xmlns="http://www.w3.org/2000/svg" xmlns:xlink="http://www.w3.org/1999/xlink">
<g id="graph0" class="graph" transform="scale(1 1) rotate(0) translate(4 400)">
<title>packages</title>
<polygon fill="white" stroke="none" points="-4,4 -4,-400 2983,-400 2983,4 -4,4"/>
<!-- calcipy -->
<g id="node1" class="node">
<title>calcipy</title>
<polygon fill="none" stroke="black" points="55,-36 0,-36 0,0 55,0 55,-36"/>
<text text-anchor="middle" x="27.5" y="-12.95" font-family="Times,serif" font-size="14.00">calcipy</text>
</g>
<!-- calcipy.can_skip -->
<g id="node2" class="node">
<title>calcipy.can_skip</title>
<polygon fill="none" stroke="black" points="179.5,-36 73.5,-36 73.5,0 179.5,0 179.5,-36"/>
<text text-anchor="middle" x="126.5" y="-12.95" font-family="Times,serif" font-size="14.00">calcipy.can_skip</text>
</g>
<!-- calcipy.check_for_stale_packages -->
<g id="node3" class="node">
<title>calcipy.check_for_stale_packages</title>
<polygon fill="none" stroke="black" points="397.38,-36 197.62,-36 197.62,0 397.38,0 397.38,-36"/>
<text text-anchor="middle" x="297.5" y="-12.95" font-family="Times,serif" font-size="14.00">calcipy.check_for_stale_packages</text>
</g>
<!-- calcipy.check_for_stale_packages._check_for_stale_packages -->
<g id="node4" class="node">
<title>calcipy.check_for_stale_packages._check_for_stale_packages</title>
<polygon fill="none" stroke="black" points="473.5,-108 121.5,-108 121.5,-72 473.5,-72 473.5,-108"/>
<text text-anchor="middle" x="297.5" y="-84.95" font-family="Times,serif" font-size="14.00">calcipy.check_for_stale_packages._check_for_stale_packages</text>
</g>
<!-- calcipy.check_for_stale_packages&#45;&gt;calcipy.check_for_stale_packages._check_for_stale_packages -->
<g id="edge1" class="edge">
<title>calcipy.check_for_stale_packages&#45;&gt;calcipy.check_for_stale_packages._check_for_stale_packages</title>
<path fill="none" stroke="black" d="M297.5,-36.3C297.5,-44.1 297.5,-53.49 297.5,-62.17"/>
<polygon fill="black" stroke="black" points="297.5,-71.9 293,-61.9 297.5,-66.9 297.5,-61.9 297.5,-61.9 297.5,-61.9 297.5,-66.9 302,-61.9 297.5,-71.9 297.5,-71.9"/>
</g>
<!-- calcipy.cli -->
<g id="node5" class="node">
<title>calcipy.cli</title>
<polygon fill="none" stroke="black" points="790.25,-108 718.75,-108 718.75,-72 790.25,-72 790.25,-108"/>
<text text-anchor="middle" x="754.5" y="-84.95" font-family="Times,serif" font-size="14.00">calcipy.cli</text>
</g>
<!-- calcipy.invoke_helpers -->
<g id="node14" class="node">
<title>calcipy.invoke_helpers</title>
<polygon fill="none" stroke="black" points="927.75,-180 787.25,-180 787.25,-144 927.75,-144 927.75,-180"/>
<text text-anchor="middle" x="857.5" y="-156.95" font-family="Times,serif" font-size="14.00">calcipy.invoke_helpers</text>
</g>
<!-- calcipy.cli&#45;&gt;calcipy.invoke_helpers -->
<g id="edge2" class="edge">
<title>calcipy.cli&#45;&gt;calcipy.invoke_helpers</title>
<path fill="none" stroke="black" d="M780.23,-108.48C793.47,-117.49 809.79,-128.58 824.01,-138.24"/>
<polygon fill="black" stroke="black" points="832.1,-143.74 821.3,-141.84 827.97,-140.93 823.83,-138.12 823.83,-138.12 823.83,-138.12 827.97,-140.93 826.36,-134.4 832.1,-143.74 832.1,-143.74"/>
</g>
<!-- calcipy.tasks._invoke -->
<g id="node21" class="node">
<title>calcipy.tasks._invoke</title>
<polygon fill="none" stroke="black" points="1141.62,-252 1009.38,-252 1009.38,-216 1141.62,-216 1141.62,-252"/>
<text text-anchor="middle" x="1075.5" y="-228.95" font-family="Times,serif" font-size="14.00">calcipy.tasks._invoke</text>
</g>
<!-- calcipy.cli&#45;&gt;calcipy.tasks._invoke -->
<g id="edge3" class="edge">
<title>calcipy.cli&#45;&gt;calcipy.tasks._invoke</title>
<path fill="none" stroke="black" d="M754.02,-108.16C754.44,-128.4 758.45,-161.62 778.5,-180 810.02,-208.89 922.14,-222.49 999.23,-228.55"/>
<polygon fill="black" stroke="black" points="1008.92,-229.29 998.6,-233.01 1003.93,-228.91 998.95,-228.53 998.95,-228.53 998.95,-228.53 1003.93,-228.91 999.29,-224.04 1008.92,-229.29 1008.92,-229.29"/>
</g>
<!-- calcipy.code_tag_collector -->
<g id="node6" class="node">
<title>calcipy.code_tag_collector</title>
<polygon fill="none" stroke="black" points="1622.88,-36 1462.12,-36 1462.12,0 1622.88,0 1622.88,-36"/>
<text text-anchor="middle" x="1542.5" y="-12.95" font-family="Times,serif" font-size="14.00">calcipy.code_tag_collector</text>
</g>
<!-- calcipy.code_tag_collector._collector -->
<g id="node7" class="node">
<title>calcipy.code_tag_collector._collector</title>
<polygon fill="none" stroke="black" points="1651.38,-108 1433.62,-108 1433.62,-72 1651.38,-72 1651.38,-108"/>
<text text-anchor="middle" x="1542.5" y="-84.95" font-family="Times,serif" font-size="14.00">calcipy.code_tag_collector._collector</text>
</g>
<!-- calcipy.code_tag_collector&#45;&gt;calcipy.code_tag_collector._collector -->
<g id="edge4" class="edge">
<title>calcipy.code_tag_collector&#45;&gt;calcipy.code_tag_collector._collector</title>
<path fill="none" stroke="black" d="M1542.5,-36.3C1542.5,-44.1 1542.5,-53.49 1542.5,-62.17"/>
<polygon fill="black" stroke="black" points="1542.5,-71.9 1538,-61.9 1542.5,-66.9 1542.5,-61.9 1542.5,-61.9 1542.5,-61.9 1542.5,-66.9 1547,-61.9 1542.5,-71.9 1542.5,-71.9"/>
</g>
<!-- calcipy.dot_dict -->
<g id="node8" class="node">
<title>calcipy.dot_dict</title>
<polygon fill="none" stroke="black" points="1798.62,-36 1696.38,-36 1696.38,0 1798.62,0 1798.62,-36"/>
<text text-anchor="middle" x="1747.5" y="-12.95" font-family="Times,serif" font-size="14.00">calcipy.dot_dict</text>
</g>
<!-- calcipy.dot_dict._dot_dict -->
<g id="node9" class="node">
<title>calcipy.dot_dict._dot_dict</title>
<polygon fill="none" stroke="black" points="1826,-108 1669,-108 1669,-72 1826,-72 1826,-108"/>
<text text-anchor="middle" x="1747.5" y="-84.95" font-family="Times,serif" font-size="14.00">calcipy.dot_dict._dot_dict</text>
</g>
<!-- calcipy.dot_dict&#45;&gt;calcipy.dot_dict._dot_dict -->
<g id="edge5" class="edge">
<title>calcipy.dot_dict&#45;&gt;calcipy.dot_dict._dot_dict</title>
<path fill="none" stroke="black" d="M1747.5,-36.3C1747.5,-44.1 1747.5,-53.49 1747.5,-62.17"/>
<polygon fill="black" stroke="black" points="1747.5,-71.9 1743,-61.9 1747.5,-66.9 1747.5,-61.9 1747.5,-61.9 1747.5,-61.9 1747.5,-66.9 1752,-61.9 1747.5,-71.9 1747.5,-71.9"/>
</g>
<!-- calcipy.experiments -->
<g id="node10" class="node">
<title>calcipy.experiments</title>
<polygon fill="none" stroke="black" points="1941.88,-36 1817.12,-36 1817.12,0 1941.88,0 1941.88,-36"/>
<text text-anchor="middle" x="1879.5" y="-12.95" font-family="Times,serif" font-size="14.00">calcipy.experiments</text>
</g>
<!-- calcipy.experiments.bump_programmatically -->
<g id="node11" class="node">
<title>calcipy.experiments.bump_programmatically</title>
<polygon fill="none" stroke="black" points="2224.62,-36 1960.38,-36 1960.38,0 2224.62,0 2224.62,-36"/>
<text text-anchor="middle" x="2092.5" y="-12.95" font-family="Times,serif" font-size="14.00">calcipy.experiments.bump_programmatically</text>
</g>
<!-- calcipy.experiments.check_duplicate_test_names -->
<g id="node12" class="node">
<title>calcipy.experiments.check_duplicate_test_names</title>
<polygon fill="none" stroke="black" points="2526.38,-36 2242.62,-36 2242.62,0 2526.38,0 2526.38,-36"/>
<text text-anchor="middle" x="2384.5" y="-12.95" font-family="Times,serif" font-size="14.00">calcipy.experiments.check_duplicate_test_names</text>
</g>
<!-- calcipy.file_search -->
<g id="node13" class="node">
<title>calcipy.file_search</title>
<polygon fill="none" stroke="black" points="2662.12,-36 2544.88,-36 2544.88,0 2662.12,0 2662.12,-36"/>
<text text-anchor="middle" x="2603.5" y="-12.95" font-family="Times,serif" font-size="14.00">calcipy.file_search</text>
</g>
<!-- calcipy.md_writer -->
<g id="node15" class="node">
<title>calcipy.md_writer</title>
<polygon fill="none" stroke="black" points="2795,-36 2680,-36 2680,0 2795,0 2795,-36"/>
<text text-anchor="middle" x="2737.5" y="-12.95" font-family="Times,serif" font-size="14.00">calcipy.md_writer</text>
</g>
<!-- calcipy.md_writer._writer -->
<g id="node16" class="node">
<title>calcipy.md_writer._writer</title>
<polygon fill="none" stroke="black" points="2816,-108 2659,-108 2659,-72 2816,-72 2816,-108"/>
<text text-anchor="middle" x="2737.5" y="-84.95" font-family="Times,serif" font-size="14.00">calcipy.md_writer._writer</text>
</g>
<!-- calcipy.md_writer&#45;&gt;calcipy.md_writer._writer -->
<g id="edge6" class="edge">
<title>calcipy.md_writer&#45;&gt;calcipy.md_writer._writer</title>
<path fill="none" stroke="black" d="M2737.5,-36.3C2737.5,-44.1 2737.5,-53.49 2737.5,-62.17"/>
<polygon fill="black" stroke="black" points="2737.5,-71.9 2733,-61.9 2737.5,-66.9 2737.5,-61.9 2737.5,-61.9 2737.5,-61.9 2737.5,-66.9 2742,-61.9 2737.5,-71.9 2737.5,-71.9"/>
</g>
<!-- calcipy.noxfile -->
<g id="node17" class="node">
<title>calcipy.noxfile</title>
<polygon fill="none" stroke="black" points="2954.62,-36 2858.38,-36 2858.38,0 2954.62,0 2954.62,-36"/>
<text text-anchor="middle" x="2906.5" y="-12.95" font-family="Times,serif" font-size="14.00">calcipy.noxfile</text>
</g>
<!-- calcipy.noxfile._noxfile -->
<g id="node18" class="node">
<title>calcipy.noxfile._noxfile</title>
<polygon fill="none" stroke="black" points="2979,-108 2834,-108 2834,-72 2979,-72 2979,-108"/>
<text text-anchor="middle" x="2906.5" y="-84.95" font-family="Times,serif" font-size="14.00">calcipy.noxfile._noxfile</text>
</g>
<!-- calcipy.noxfile&#45;&gt;calcipy.noxfile._noxfile -->
<g id="edge7" class="edge">
<title>calcipy.noxfile&#45;&gt;calcipy.noxfile._noxfile</title>
<path fill="none" stroke="black" d="M2906.5,-36.3C2906.5,-44.1 2906.5,-53.49 2906.5,-62.17"/>
<polygon fill="black" stroke="black" points="2906.5,-71.9 2902,-61.9 2906.5,-66.9 2906.5,-61.9 2906.5,-61.9 2906.5,-61.9 2906.5,-66.9 2911,-61.9 2906.5,-71.9 2906.5,-71.9"/>
</g>
<!-- calcipy.scripts -->
<g id="node19" class="node">
<title>calcipy.scripts</title>
<polygon fill="none" stroke="black" points="993.12,-36 899.88,-36 899.88,0 993.12,0 993.12,-36"/>
<text text-anchor="middle" x="946.5" y="-12.95" font-family="Times,serif" font-size="14.00">calcipy.scripts</text>
</g>
<!-- calcipy.scripts&#45;&gt;calcipy.cli -->
<g id="edge8" class="edge">
<title>calcipy.scripts&#45;&gt;calcipy.cli</title>
<path fill="none" stroke="black" d="M899.43,-35.77C872.58,-45.38 838.1,-57.8 799.23,-72.12"/>
<polygon fill="black" stroke="black" points="790.34,-75.4 798.17,-67.72 795.03,-73.67 799.72,-71.94 799.72,-71.94 799.72,-71.94 795.03,-73.67 801.28,-76.16 790.34,-75.4 790.34,-75.4"/>
</g>
<!-- calcipy.tasks -->
<g id="node20" class="node">
<title>calcipy.tasks</title>
<polygon fill="none" stroke="black" points="1416,-108 1331,-108 1331,-72 1416,-72 1416,-108"/>
<text text-anchor="middle" x="1373.5" y="-84.95" font-family="Times,serif" font-size="14.00">calcipy.tasks</text>
</g>
<!-- calcipy.scripts&#45;&gt;calcipy.tasks -->
<g id="edge9" class="edge">
<title>calcipy.scripts&#45;&gt;calcipy.tasks</title>
<path fill="none" stroke="black" d="M993.62,-23.5C1064.32,-30.75 1201.78,-46.82 1316.5,-72 1318.09,-72.35 1319.71,-72.72 1321.34,-73.11"/>
<polygon fill="black" stroke="black" points="1330.73,-75.51 1319.92,-77.39 1325.88,-74.27 1321.04,-73.03 1321.04,-73.03 1321.04,-73.03 1325.88,-74.27 1322.15,-68.67 1330.73,-75.51 1330.73,-75.51"/>
</g>
<!-- calcipy.scripts&#45;&gt;calcipy.tasks._invoke -->
<g id="edge10" class="edge">
<title>calcipy.scripts&#45;&gt;calcipy.tasks._invoke</title>
<path fill="none" stroke="black" d="M993.36,-20.26C1069.27,-23.39 1213.87,-34.28 1245.5,-72 1291.39,-126.74 1194.17,-182.2 1128.69,-211.59"/>
<polygon fill="black" stroke="black" points="1119.68,-215.56 1127.02,-207.41 1124.26,-213.54 1128.83,-211.53 1128.83,-211.53 1128.83,-211.53 1124.26,-213.54 1130.65,-215.64 1119.68,-215.56 1119.68,-215.56"/>
</g>
<!-- calcipy.tasks.all_tasks -->
<g id="node22" class="node">
<title>calcipy.tasks.all_tasks</title>
<polygon fill="none" stroke="black" points="944.5,-108 808.5,-108 808.5,-72 944.5,-72 944.5,-108"/>
<text text-anchor="middle" x="876.5" y="-84.95" font-family="Times,serif" font-size="14.00">calcipy.tasks.all_tasks</text>
</g>
<!-- calcipy.scripts&#45;&gt;calcipy.tasks.all_tasks -->
<g id="edge11" class="edge">
<title>calcipy.scripts&#45;&gt;calcipy.tasks.all_tasks</title>
<path fill="none" stroke="black" d="M929.2,-36.3C920.55,-44.95 909.95,-55.55 900.53,-64.97"/>
<polygon fill="black" stroke="black" points="893.6,-71.9 897.49,-61.64 897.14,-68.36 900.68,-64.82 900.68,-64.82 900.68,-64.82 897.14,-68.36 903.86,-68.01 893.6,-71.9 893.6,-71.9"/>
</g>
<!-- calcipy.tasks.cl -->
<g id="node23" class="node">
<title>calcipy.tasks.cl</title>
<polygon fill="none" stroke="black" points="530.75,-180 432.25,-180 432.25,-144 530.75,-144 530.75,-180"/>
<text text-anchor="middle" x="481.5" y="-156.95" font-family="Times,serif" font-size="14.00">calcipy.tasks.cl</text>
</g>
<!-- calcipy.scripts&#45;&gt;calcipy.tasks.cl -->
<g id="edge12" class="edge">
<title>calcipy.scripts&#45;&gt;calcipy.tasks.cl</title>
<path fill="none" stroke="black" d="M899.41,-20.59C806.68,-24.46 604.32,-36.79 545.5,-72 521.29,-86.49 503.65,-114.06 493.1,-134.69"/>
<polygon fill="black" stroke="black" points="488.75,-143.61 489.08,-132.65 490.94,-139.11 493.13,-134.62 493.13,-134.62 493.13,-134.62 490.94,-139.11 497.17,-136.59 488.75,-143.61 488.75,-143.61"/>
</g>
<!-- calcipy.tasks.defaults -->
<g id="node24" class="node">
<title>calcipy.tasks.defaults</title>
<polygon fill="none" stroke="black" points="1141.25,-180 1009.75,-180 1009.75,-144 1141.25,-144 1141.25,-180"/>
<text text-anchor="middle" x="1075.5" y="-156.95" font-family="Times,serif" font-size="14.00">calcipy.tasks.defaults</text>
</g>
<!-- calcipy.scripts&#45;&gt;calcipy.tasks.defaults -->
<g id="edge13" class="edge">
<title>calcipy.scripts&#45;&gt;calcipy.tasks.defaults</title>
<path fill="none" stroke="black" d="M993.3,-24.04C1023.95,-30.04 1061.86,-43.19 1081.5,-72 1093.77,-90.01 1090.74,-115.11 1085.52,-134.06"/>
<polygon fill="black" stroke="black" points="1082.57,-143.61 1081.23,-132.73 1084.05,-138.83 1085.52,-134.06 1085.52,-134.06 1085.52,-134.06 1084.05,-138.83 1089.82,-135.38 1082.57,-143.61 1082.57,-143.61"/>
</g>
<!-- calcipy.tasks.doc -->
<g id="node25" class="node">
<title>calcipy.tasks.doc</title>
<polygon fill="none" stroke="black" points="615.62,-252 507.38,-252 507.38,-216 615.62,-216 615.62,-252"/>
<text text-anchor="middle" x="561.5" y="-228.95" font-family="Times,serif" font-size="14.00">calcipy.tasks.doc</text>
</g>
<!-- calcipy.scripts&#45;&gt;calcipy.tasks.doc -->
<g id="edge14" class="edge">
<title>calcipy.scripts&#45;&gt;calcipy.tasks.doc</title>
<path fill="none" stroke="black" d="M899.49,-18.63C838.23,-20.04 729.39,-29.09 648.5,-72 609.07,-92.92 599.11,-104.41 578.5,-144 568.49,-163.22 564.33,-187.52 562.63,-205.87"/>
<polygon fill="black" stroke="black" points="561.89,-215.64 558.15,-205.34 562.27,-210.66 562.64,-205.67 562.64,-205.67 562.64,-205.67 562.27,-210.66 567.13,-206.01 561.89,-215.64 561.89,-215.64"/>
</g>
<!-- calcipy.tasks.lint -->
<g id="node27" class="node">
<title>calcipy.tasks.lint</title>
<polygon fill="none" stroke="black" points="693.88,-180 587.12,-180 587.12,-144 693.88,-144 693.88,-180"/>
<text text-anchor="middle" x="640.5" y="-156.95" font-family="Times,serif" font-size="14.00">calcipy.tasks.lint</text>
</g>
<!-- calcipy.scripts&#45;&gt;calcipy.tasks.lint -->
<g id="edge15" class="edge">
<title>calcipy.scripts&#45;&gt;calcipy.tasks.lint</title>
<path fill="none" stroke="black" d="M899.42,-22.87C831.34,-29.34 709.88,-44.44 676.5,-72 657.81,-87.43 648.73,-114.05 644.38,-134.17"/>
<polygon fill="black" stroke="black" points="642.56,-143.72 640.02,-133.06 643.5,-138.81 644.44,-133.9 644.44,-133.9 644.44,-133.9 643.5,-138.81 648.86,-134.74 642.56,-143.72 642.56,-143.72"/>
</g>
<!-- calcipy.tasks.pack -->
<g id="node29" class="node">
<title>calcipy.tasks.pack</title>
<polygon fill="none" stroke="black" points="826.62,-252 712.38,-252 712.38,-216 826.62,-216 826.62,-252"/>
<text text-anchor="middle" x="769.5" y="-228.95" font-family="Times,serif" font-size="14.00">calcipy.tasks.pack</text>
</g>
<!-- calcipy.scripts&#45;&gt;calcipy.tasks.pack -->
<g id="edge16" class="edge">
<title>calcipy.scripts&#45;&gt;calcipy.tasks.pack</title>
<path fill="none" stroke="black" d="M899.39,-22.71C837.19,-28.69 732.83,-42.88 709.5,-72 676.38,-113.34 718.08,-174.79 746.73,-208.57"/>
<polygon fill="black" stroke="black" points="752.97,-215.73 743.01,-211.15 749.69,-211.96 746.4,-208.19 746.4,-208.19 746.4,-208.19 749.69,-211.96 749.8,-205.24 752.97,-215.73 752.97,-215.73"/>
</g>
<!-- calcipy.tasks.tags -->
<g id="node31" class="node">
<title>calcipy.tasks.tags</title>
<polygon fill="none" stroke="black" points="1072.75,-108 962.25,-108 962.25,-72 1072.75,-72 1072.75,-108"/>
<text text-anchor="middle" x="1017.5" y="-84.95" font-family="Times,serif" font-size="14.00">calcipy.tasks.tags</text>
</g>
<!-- calcipy.scripts&#45;&gt;calcipy.tasks.tags -->
<g id="edge17" class="edge">
<title>calcipy.scripts&#45;&gt;calcipy.tasks.tags</title>
<path fill="none" stroke="black" d="M964.05,-36.3C972.82,-44.95 983.57,-55.55 993.13,-64.97"/>
<polygon fill="black" stroke="black" points="1000.15,-71.9 989.87,-68.08 996.59,-68.39 993.03,-64.87 993.03,-64.87 993.03,-64.87 996.59,-68.39 996.19,-61.67 1000.15,-71.9 1000.15,-71.9"/>
</g>
<!-- calcipy.tasks.test -->
<g id="node32" class="node">
<title>calcipy.tasks.test</title>
<polygon fill="none" stroke="black" points="1236.25,-108 1128.75,-108 1128.75,-72 1236.25,-72 1236.25,-108"/>
<text text-anchor="middle" x="1182.5" y="-84.95" font-family="Times,serif" font-size="14.00">calcipy.tasks.test</text>
</g>
<!-- calcipy.scripts&#45;&gt;calcipy.tasks.test -->
<g id="edge18" class="edge">
<title>calcipy.scripts&#45;&gt;calcipy.tasks.test</title>
<path fill="none" stroke="black" d="M993.41,-32.91C1029.42,-43.6 1079.52,-58.46 1119.1,-70.2"/>
<polygon fill="black" stroke="black" points="1128.67,-73.03 1117.8,-74.5 1123.87,-71.61 1119.08,-70.19 1119.08,-70.19 1119.08,-70.19 1123.87,-71.61 1120.36,-65.87 1128.67,-73.03 1128.67,-73.03"/>
</g>
<!-- calcipy.tasks.types -->
<g id="node33" class="node">
<title>calcipy.tasks.types</title>
<polygon fill="none" stroke="black" points="1358.12,-324 1240.88,-324 1240.88,-288 1358.12,-288 1358.12,-324"/>
<text text-anchor="middle" x="1299.5" y="-300.95" font-family="Times,serif" font-size="14.00">calcipy.tasks.types</text>
</g>
<!-- calcipy.scripts&#45;&gt;calcipy.tasks.types -->
<g id="edge19" class="edge">
<title>calcipy.scripts&#45;&gt;calcipy.tasks.types</title>
<path fill="none" stroke="black" d="M993.61,-20.23C1073.01,-23.34 1228.46,-34.22 1265.5,-72 1320.03,-127.61 1312.22,-229.5 1304.67,-277.98"/>
<polygon fill="black" stroke="black" points="1303.03,-287.75 1300.24,-277.15 1303.86,-282.82 1304.68,-277.89 1304.68,-277.89 1304.68,-277.89 1303.86,-282.82 1309.12,-278.63 1303.03,-287.75 1303.03,-287.75"/>
</g>
<!-- calcipy.tasks._invoke&#45;&gt;calcipy.tasks.types -->
<g id="edge20" class="edge">
<title>calcipy.tasks._invoke&#45;&gt;calcipy.tasks.types</title>
<path fill="none" stroke="black" d="M1131.45,-252.48C1162.7,-262.25 1201.8,-274.47 1234.42,-284.66"/>
<polygon fill="black" stroke="black" points="1243.88,-287.62 1232.99,-288.93 1239.11,-286.13 1234.33,-284.64 1234.33,-284.64 1234.33,-284.64 1239.11,-286.13 1235.68,-280.34 1243.88,-287.62 1243.88,-287.62"/>
</g>
<!-- calcipy.tasks.all_tasks&#45;&gt;calcipy.tasks._invoke -->
<g id="edge21" class="edge">
<title>calcipy.tasks.all_tasks&#45;&gt;calcipy.tasks._invoke</title>
<path fill="none" stroke="black" d="M900.7,-108.45C925.66,-126.43 965.75,-155.25 1000.5,-180 1014.37,-189.88 1029.73,-200.74 1042.91,-210.05"/>
<polygon fill="black" stroke="black" points="1050.81,-215.62 1040.04,-213.53 1046.72,-212.74 1042.64,-209.86 1042.64,-209.86 1042.64,-209.86 1046.72,-212.74 1045.23,-206.18 1050.81,-215.62 1050.81,-215.62"/>
</g>
<!-- calcipy.tasks.all_tasks&#45;&gt;calcipy.tasks.defaults -->
<g id="edge22" class="edge">
<title>calcipy.tasks.all_tasks&#45;&gt;calcipy.tasks.defaults</title>
<path fill="none" stroke="black" d="M926.2,-108.48C953.73,-118.17 988.11,-130.26 1016.94,-140.4"/>
<polygon fill="black" stroke="black" points="1026.09,-143.62 1015.16,-144.54 1021.37,-141.96 1016.65,-140.3 1016.65,-140.3 1016.65,-140.3 1021.37,-141.96 1018.15,-136.05 1026.09,-143.62 1026.09,-143.62"/>
</g>
<!-- calcipy.tasks.executable_utils -->
<g id="node26" class="node">
<title>calcipy.tasks.executable_utils</title>
<polygon fill="none" stroke="black" points="855.75,-396 679.25,-396 679.25,-360 855.75,-360 855.75,-396"/>
<text text-anchor="middle" x="767.5" y="-372.95" font-family="Times,serif" font-size="14.00">calcipy.tasks.executable_utils</text>
</g>
<!-- calcipy.tasks.cl&#45;&gt;calcipy.tasks.executable_utils -->
<g id="edge23" class="edge">
<title>calcipy.tasks.cl&#45;&gt;calcipy.tasks.executable_utils</title>
<path fill="none" stroke="black" d="M481.27,-180.36C481.79,-199.3 484.93,-229.88 498.5,-252 525.84,-296.55 545.03,-300.06 591.5,-324 618.39,-337.85 649.49,-348.71 678.01,-356.9"/>
<polygon fill="black" stroke="black" points="687.57,-359.57 676.73,-361.21 682.75,-358.22 677.94,-356.88 677.94,-356.88 677.94,-356.88 682.75,-358.22 679.15,-352.54 687.57,-359.57 687.57,-359.57"/>
</g>
<!-- calcipy.tasks.defaults&#45;&gt;calcipy.tasks._invoke -->
<g id="edge24" class="edge">
<title>calcipy.tasks.defaults&#45;&gt;calcipy.tasks._invoke</title>
<path fill="none" stroke="black" d="M1075.5,-180.3C1075.5,-188.1 1075.5,-197.49 1075.5,-206.17"/>
<polygon fill="black" stroke="black" points="1075.5,-215.9 1071,-205.9 1075.5,-210.9 1075.5,-205.9 1075.5,-205.9 1075.5,-205.9 1075.5,-210.9 1080,-205.9 1075.5,-215.9 1075.5,-215.9"/>
</g>
<!-- calcipy.tasks.doc&#45;&gt;calcipy.tasks.executable_utils -->
<g id="edge25" class="edge">
<title>calcipy.tasks.doc&#45;&gt;calcipy.tasks.executable_utils</title>
<path fill="none" stroke="black" d="M570.81,-252.38C582.23,-272.21 603.35,-304.42 629.5,-324 647.76,-337.66 669.96,-348.23 691.18,-356.2"/>
<polygon fill="black" stroke="black" points="700.52,-359.57 689.58,-360.41 695.81,-357.87 691.11,-356.17 691.11,-356.17 691.11,-356.17 695.81,-357.87 692.64,-351.94 700.52,-359.57 700.52,-359.57"/>
</g>
<!-- calcipy.tasks.lint&#45;&gt;calcipy.tasks.executable_utils -->
<g id="edge26" class="edge">
<title>calcipy.tasks.lint&#45;&gt;calcipy.tasks.executable_utils</title>
<path fill="none" stroke="black" d="M637.98,-180.38C634.36,-212.1 631.21,-280.13 662.5,-324 672.07,-337.41 686.03,-347.63 700.67,-355.34"/>
<polygon fill="black" stroke="black" points="709.34,-359.6 698.38,-359.23 704.85,-357.39 700.36,-355.19 700.36,-355.19 700.36,-355.19 704.85,-357.39 702.34,-351.15 709.34,-359.6 709.34,-359.6"/>
</g>
<!-- calcipy.tasks.nox -->
<g id="node28" class="node">
<title>calcipy.tasks.nox</title>
<polygon fill="none" stroke="black" points="781,-324 672,-324 672,-288 781,-288 781,-324"/>
<text text-anchor="middle" x="726.5" y="-300.95" font-family="Times,serif" font-size="14.00">calcipy.tasks.nox</text>
</g>
<!-- calcipy.tasks.nox&#45;&gt;calcipy.tasks.executable_utils -->
<g id="edge27" class="edge">
<title>calcipy.tasks.nox&#45;&gt;calcipy.tasks.executable_utils</title>
<path fill="none" stroke="black" d="M736.63,-324.3C741.4,-332.44 747.18,-342.31 752.45,-351.3"/>
<polygon fill="black" stroke="black" points="757.48,-359.9 748.54,-353.54 754.95,-355.58 752.43,-351.27 752.43,-351.27 752.43,-351.27 754.95,-355.58 756.31,-348.99 757.48,-359.9 757.48,-359.9"/>
</g>
<!-- calcipy.tasks.pack&#45;&gt;calcipy.tasks.executable_utils -->
<g id="edge28" class="edge">
<title>calcipy.tasks.pack&#45;&gt;calcipy.tasks.executable_utils</title>
<path fill="none" stroke="black" d="M777.81,-252.21C782.24,-262.37 787.24,-275.62 789.5,-288 792.37,-303.74 792.63,-308.31 789.5,-324 787.69,-333.09 784.29,-342.57 780.7,-350.95"/>
<polygon fill="black" stroke="black" points="776.63,-359.88 776.68,-348.91 778.7,-355.33 780.78,-350.78 780.78,-350.78 780.78,-350.78 778.7,-355.33 784.87,-352.64 776.63,-359.88 776.63,-359.88"/>
</g>
<!-- calcipy.tasks.stale -->
<g id="node30" class="node">
<title>calcipy.tasks.stale</title>
<polygon fill="none" stroke="black" points="951.25,-324 837.75,-324 837.75,-288 951.25,-288 951.25,-324"/>
<text text-anchor="middle" x="894.5" y="-300.95" font-family="Times,serif" font-size="14.00">calcipy.tasks.stale</text>
</g>
<!-- calcipy.tasks.stale&#45;&gt;calcipy.tasks.executable_utils -->
<g id="edge29" class="edge">
<title>calcipy.tasks.stale&#45;&gt;calcipy.tasks.executable_utils</title>
<path fill="none" stroke="black" d="M862.78,-324.48C845.99,-333.74 825.19,-345.2 807.32,-355.05"/>
<polygon fill="black" stroke="black" points="798.82,-359.74 805.4,-350.97 803.19,-357.33 807.57,-354.91 807.57,-354.91 807.57,-354.91 803.19,-357.33 809.75,-358.85 798.82,-359.74 798.82,-359.74"/>
</g>
<!-- calcipy.tasks.tags&#45;&gt;calcipy.tasks.defaults -->
<g id="edge30" class="edge">
<title>calcipy.tasks.tags&#45;&gt;calcipy.tasks.defaults</title>
<path fill="none" stroke="black" d="M1031.84,-108.3C1038.86,-116.78 1047.44,-127.14 1055.13,-136.42"/>
<polygon fill="black" stroke="black" points="1061.33,-143.9 1051.48,-139.07 1058.14,-140.05 1054.95,-136.2 1054.95,-136.2 1054.95,-136.2 1058.14,-140.05 1058.41,-133.32 1061.33,-143.9 1061.33,-143.9"/>
</g>
<!-- calcipy.tasks.test&#45;&gt;calcipy.tasks.defaults -->
<g id="edge31" class="edge">
<title>calcipy.tasks.test&#45;&gt;calcipy.tasks.defaults</title>
<path fill="none" stroke="black" d="M1155.78,-108.48C1141.88,-117.57 1124.74,-128.78 1109.88,-138.51"/>
<polygon fill="black" stroke="black" points="1101.88,-143.74 1107.79,-134.5 1106.07,-141 1110.25,-138.26 1110.25,-138.26 1110.25,-138.26 1106.07,-141 1112.72,-142.03 1101.88,-143.74 1101.88,-143.74"/>
</g>
<!-- calcipy.tasks.test&#45;&gt;calcipy.tasks.executable_utils -->
<g id="edge32" class="edge">
<title>calcipy.tasks.test&#45;&gt;calcipy.tasks.executable_utils</title>
<path fill="none" stroke="black" d="M1184.13,-108.33C1186.17,-140.55 1185.85,-210.23 1150.5,-252 1080.27,-334.98 954.14,-363.28 865.88,-372.7"/>
<polygon fill="black" stroke="black" points="856.12,-373.68 865.62,-368.21 861.09,-373.18 866.07,-372.68 866.07,-372.68 866.07,-372.68 861.09,-373.18 866.52,-377.16 856.12,-373.68 856.12,-373.68"/>
</g>
<!-- calcipy.tasks.types&#45;&gt;calcipy.tasks.executable_utils -->
<g id="edge33" class="edge">
<title>calcipy.tasks.types&#45;&gt;calcipy.tasks.executable_utils</title>
<path fill="none" stroke="black" d="M1240.65,-321.31C1235.88,-322.29 1231.12,-323.2 1226.5,-324 1102.84,-345.47 958.88,-360.49 865.63,-368.93"/>
<polygon fill="black" stroke="black" points="855.92,-369.8 865.48,-364.42 860.9,-369.35 865.88,-368.91 865.88,-368.91 865.88,-368.91 860.9,-369.35 866.28,-373.39 855.92,-369.8 855.92,-369.8"/>
</g>
</g>
</svg>
