<?xml version="1.0" encoding="UTF-8" standalone="no"?>
<!DOCTYPE svg PUBLIC "-//W3C//DTD SVG 1.1//EN"
 "http://www.w3.org/Graphics/SVG/1.1/DTD/svg11.dtd">
<!-- Generated by graphviz version 8.0.5 (20230430.1635)
 -->
<!-- Title: packages Pages: 1 -->
<svg width="3270pt" height="188pt"
 viewBox="0.00 0.00 3270.25 188.00" xmlns="http://www.w3.org/2000/svg" xmlns:xlink="http://www.w3.org/1999/xlink">
<g id="graph0" class="graph" transform="scale(1 1) rotate(0) translate(4 184)">
<title>packages</title>
<polygon fill="white" stroke="none" points="-4,4 -4,-184 3266.25,-184 3266.25,4 -4,4"/>
<!-- calcipy -->
<g id="node1" class="node">
<title>calcipy</title>
<polygon fill="none" stroke="black" points="55,-36 0,-36 0,0 55,0 55,-36"/>
<text text-anchor="middle" x="27.5" y="-12.95" font-family="Times,serif" font-size="14.00">calcipy</text>
</g>
<!-- calcipy.can_skip -->
<g id="node2" class="node">
<title>calcipy.can_skip</title>
<polygon fill="none" stroke="black" points="179.5,-36 73.5,-36 73.5,0 179.5,0 179.5,-36"/>
<text text-anchor="middle" x="126.5" y="-12.95" font-family="Times,serif" font-size="14.00">calcipy.can_skip</text>
</g>
<!-- calcipy.check_for_stale_packages -->
<g id="node3" class="node">
<title>calcipy.check_for_stale_packages</title>
<polygon fill="none" stroke="black" points="397.38,-36 197.62,-36 197.62,0 397.38,0 397.38,-36"/>
<text text-anchor="middle" x="297.5" y="-12.95" font-family="Times,serif" font-size="14.00">calcipy.check_for_stale_packages</text>
</g>
<!-- calcipy.check_for_stale_packages._check_for_stale_packages -->
<g id="node4" class="node">
<title>calcipy.check_for_stale_packages._check_for_stale_packages</title>
<polygon fill="none" stroke="black" points="473.5,-108 121.5,-108 121.5,-72 473.5,-72 473.5,-108"/>
<text text-anchor="middle" x="297.5" y="-84.95" font-family="Times,serif" font-size="14.00">calcipy.check_for_stale_packages._check_for_stale_packages</text>
</g>
<!-- calcipy.check_for_stale_packages&#45;&gt;calcipy.check_for_stale_packages._check_for_stale_packages -->
<g id="edge1" class="edge">
<title>calcipy.check_for_stale_packages&#45;&gt;calcipy.check_for_stale_packages._check_for_stale_packages</title>
<path fill="none" stroke="black" d="M297.5,-36.3C297.5,-44.1 297.5,-53.49 297.5,-62.17"/>
<polygon fill="black" stroke="black" points="297.5,-71.9 293,-61.9 297.5,-66.9 297.5,-61.9 297.5,-61.9 297.5,-61.9 297.5,-66.9 302,-61.9 297.5,-71.9 297.5,-71.9"/>
</g>
<!-- calcipy.cli -->
<g id="node5" class="node">
<title>calcipy.cli</title>
<polygon fill="none" stroke="black" points="563.25,-108 491.75,-108 491.75,-72 563.25,-72 563.25,-108"/>
<text text-anchor="middle" x="527.5" y="-84.95" font-family="Times,serif" font-size="14.00">calcipy.cli</text>
</g>
<!-- calcipy.invoke_helpers -->
<g id="node13" class="node">
<title>calcipy.invoke_helpers</title>
<polygon fill="none" stroke="black" points="597.75,-180 457.25,-180 457.25,-144 597.75,-144 597.75,-180"/>
<text text-anchor="middle" x="527.5" y="-156.95" font-family="Times,serif" font-size="14.00">calcipy.invoke_helpers</text>
</g>
<!-- calcipy.cli&#45;&gt;calcipy.invoke_helpers -->
<g id="edge2" class="edge">
<title>calcipy.cli&#45;&gt;calcipy.invoke_helpers</title>
<path fill="none" stroke="black" d="M527.5,-108.3C527.5,-116.1 527.5,-125.49 527.5,-134.17"/>
<polygon fill="black" stroke="black" points="527.5,-143.9 523,-133.9 527.5,-138.9 527.5,-133.9 527.5,-133.9 527.5,-133.9 527.5,-138.9 532,-133.9 527.5,-143.9 527.5,-143.9"/>
</g>
<!-- calcipy.code_tag_collector -->
<g id="node6" class="node">
<title>calcipy.code_tag_collector</title>
<polygon fill="none" stroke="black" points="1579.88,-36 1419.12,-36 1419.12,0 1579.88,0 1579.88,-36"/>
<text text-anchor="middle" x="1499.5" y="-12.95" font-family="Times,serif" font-size="14.00">calcipy.code_tag_collector</text>
</g>
<!-- calcipy.code_tag_collector._collector -->
<g id="node7" class="node">
<title>calcipy.code_tag_collector._collector</title>
<polygon fill="none" stroke="black" points="1608.38,-108 1390.62,-108 1390.62,-72 1608.38,-72 1608.38,-108"/>
<text text-anchor="middle" x="1499.5" y="-84.95" font-family="Times,serif" font-size="14.00">calcipy.code_tag_collector._collector</text>
</g>
<!-- calcipy.code_tag_collector&#45;&gt;calcipy.code_tag_collector._collector -->
<g id="edge3" class="edge">
<title>calcipy.code_tag_collector&#45;&gt;calcipy.code_tag_collector._collector</title>
<path fill="none" stroke="black" d="M1499.5,-36.3C1499.5,-44.1 1499.5,-53.49 1499.5,-62.17"/>
<polygon fill="black" stroke="black" points="1499.5,-71.9 1495,-61.9 1499.5,-66.9 1499.5,-61.9 1499.5,-61.9 1499.5,-61.9 1499.5,-66.9 1504,-61.9 1499.5,-71.9 1499.5,-71.9"/>
</g>
<!-- calcipy.dot_dict -->
<g id="node8" class="node">
<title>calcipy.dot_dict</title>
<polygon fill="none" stroke="black" points="1755.62,-36 1653.38,-36 1653.38,0 1755.62,0 1755.62,-36"/>
<text text-anchor="middle" x="1704.5" y="-12.95" font-family="Times,serif" font-size="14.00">calcipy.dot_dict</text>
</g>
<!-- calcipy.dot_dict._dot_dict -->
<g id="node9" class="node">
<title>calcipy.dot_dict._dot_dict</title>
<polygon fill="none" stroke="black" points="1783,-108 1626,-108 1626,-72 1783,-72 1783,-108"/>
<text text-anchor="middle" x="1704.5" y="-84.95" font-family="Times,serif" font-size="14.00">calcipy.dot_dict._dot_dict</text>
</g>
<!-- calcipy.dot_dict&#45;&gt;calcipy.dot_dict._dot_dict -->
<g id="edge4" class="edge">
<title>calcipy.dot_dict&#45;&gt;calcipy.dot_dict._dot_dict</title>
<path fill="none" stroke="black" d="M1704.5,-36.3C1704.5,-44.1 1704.5,-53.49 1704.5,-62.17"/>
<polygon fill="black" stroke="black" points="1704.5,-71.9 1700,-61.9 1704.5,-66.9 1704.5,-61.9 1704.5,-61.9 1704.5,-61.9 1704.5,-66.9 1709,-61.9 1704.5,-71.9 1704.5,-71.9"/>
</g>
<!-- calcipy.experiments -->
<g id="node10" class="node">
<title>calcipy.experiments</title>
<polygon fill="none" stroke="black" points="1898.88,-36 1774.12,-36 1774.12,0 1898.88,0 1898.88,-36"/>
<text text-anchor="middle" x="1836.5" y="-12.95" font-family="Times,serif" font-size="14.00">calcipy.experiments</text>
</g>
<!-- calcipy.experiments.check_duplicate_test_names -->
<g id="node11" class="node">
<title>calcipy.experiments.check_duplicate_test_names</title>
<polygon fill="none" stroke="black" points="2200.38,-36 1916.62,-36 1916.62,0 2200.38,0 2200.38,-36"/>
<text text-anchor="middle" x="2058.5" y="-12.95" font-family="Times,serif" font-size="14.00">calcipy.experiments.check_duplicate_test_names</text>
</g>
<!-- calcipy.file_search -->
<g id="node12" class="node">
<title>calcipy.file_search</title>
<polygon fill="none" stroke="black" points="2336.12,-36 2218.88,-36 2218.88,0 2336.12,0 2336.12,-36"/>
<text text-anchor="middle" x="2277.5" y="-12.95" font-family="Times,serif" font-size="14.00">calcipy.file_search</text>
</g>
<!-- calcipy.md_writer -->
<g id="node14" class="node">
<title>calcipy.md_writer</title>
<polygon fill="none" stroke="black" points="2469,-36 2354,-36 2354,0 2469,0 2469,-36"/>
<text text-anchor="middle" x="2411.5" y="-12.95" font-family="Times,serif" font-size="14.00">calcipy.md_writer</text>
</g>
<!-- calcipy.md_writer._writer -->
<g id="node15" class="node">
<title>calcipy.md_writer._writer</title>
<polygon fill="none" stroke="black" points="2490,-108 2333,-108 2333,-72 2490,-72 2490,-108"/>
<text text-anchor="middle" x="2411.5" y="-84.95" font-family="Times,serif" font-size="14.00">calcipy.md_writer._writer</text>
</g>
<!-- calcipy.md_writer&#45;&gt;calcipy.md_writer._writer -->
<g id="edge5" class="edge">
<title>calcipy.md_writer&#45;&gt;calcipy.md_writer._writer</title>
<path fill="none" stroke="black" d="M2411.5,-36.3C2411.5,-44.1 2411.5,-53.49 2411.5,-62.17"/>
<polygon fill="black" stroke="black" points="2411.5,-71.9 2407,-61.9 2411.5,-66.9 2411.5,-61.9 2411.5,-61.9 2411.5,-61.9 2411.5,-66.9 2416,-61.9 2411.5,-71.9 2411.5,-71.9"/>
</g>
<!-- calcipy.noxfile -->
<g id="node16" class="node">
<title>calcipy.noxfile</title>
<polygon fill="none" stroke="black" points="2628.62,-36 2532.38,-36 2532.38,0 2628.62,0 2628.62,-36"/>
<text text-anchor="middle" x="2580.5" y="-12.95" font-family="Times,serif" font-size="14.00">calcipy.noxfile</text>
</g>
<!-- calcipy.noxfile._noxfile -->
<g id="node17" class="node">
<title>calcipy.noxfile._noxfile</title>
<polygon fill="none" stroke="black" points="2653,-108 2508,-108 2508,-72 2653,-72 2653,-108"/>
<text text-anchor="middle" x="2580.5" y="-84.95" font-family="Times,serif" font-size="14.00">calcipy.noxfile._noxfile</text>
</g>
<!-- calcipy.noxfile&#45;&gt;calcipy.noxfile._noxfile -->
<g id="edge6" class="edge">
<title>calcipy.noxfile&#45;&gt;calcipy.noxfile._noxfile</title>
<path fill="none" stroke="black" d="M2580.5,-36.3C2580.5,-44.1 2580.5,-53.49 2580.5,-62.17"/>
<polygon fill="black" stroke="black" points="2580.5,-71.9 2576,-61.9 2580.5,-66.9 2580.5,-61.9 2580.5,-61.9 2580.5,-61.9 2580.5,-66.9 2585,-61.9 2580.5,-71.9 2580.5,-71.9"/>
</g>
<!-- calcipy.scripts -->
<g id="node18" class="node">
<title>calcipy.scripts</title>
<polygon fill="none" stroke="black" points="895.12,-36 801.88,-36 801.88,0 895.12,0 895.12,-36"/>
<text text-anchor="middle" x="848.5" y="-12.95" font-family="Times,serif" font-size="14.00">calcipy.scripts</text>
</g>
<!-- calcipy.scripts&#45;&gt;calcipy.cli -->
<g id="edge7" class="edge">
<title>calcipy.scripts&#45;&gt;calcipy.cli</title>
<path fill="none" stroke="black" d="M801.83,-25.31C748.29,-33.13 657.88,-48.09 572.87,-71.84"/>
<polygon fill="black" stroke="black" points="563.34,-74.55 571.73,-67.49 568.15,-73.18 572.96,-71.82 572.96,-71.82 572.96,-71.82 568.15,-73.18 574.19,-76.15 563.34,-74.55 563.34,-74.55"/>
</g>
<!-- calcipy.tasks -->
<g id="node19" class="node">
<title>calcipy.tasks</title>
<polygon fill="none" stroke="black" points="666,-108 581,-108 581,-72 666,-72 666,-108"/>
<text text-anchor="middle" x="623.5" y="-84.95" font-family="Times,serif" font-size="14.00">calcipy.tasks</text>
</g>
<!-- calcipy.scripts&#45;&gt;calcipy.tasks -->
<g id="edge8" class="edge">
<title>calcipy.scripts&#45;&gt;calcipy.tasks</title>
<path fill="none" stroke="black" d="M801.43,-33.16C768.71,-43.06 723.86,-56.76 675.68,-71.97"/>
<polygon fill="black" stroke="black" points="666.33,-74.93 674.5,-67.62 671.1,-73.42 675.86,-71.91 675.86,-71.91 675.86,-71.91 671.1,-73.42 677.22,-76.2 666.33,-74.93 666.33,-74.93"/>
</g>
<!-- calcipy.tasks.all_tasks -->
<g id="node20" class="node">
<title>calcipy.tasks.all_tasks</title>
<polygon fill="none" stroke="black" points="820.5,-108 684.5,-108 684.5,-72 820.5,-72 820.5,-108"/>
<text text-anchor="middle" x="752.5" y="-84.95" font-family="Times,serif" font-size="14.00">calcipy.tasks.all_tasks</text>
</g>
<!-- calcipy.scripts&#45;&gt;calcipy.tasks.all_tasks -->
<g id="edge9" class="edge">
<title>calcipy.scripts&#45;&gt;calcipy.tasks.all_tasks</title>
<path fill="none" stroke="black" d="M824.77,-36.3C812.54,-45.22 797.45,-56.22 784.24,-65.86"/>
<polygon fill="black" stroke="black" points="776.29,-71.65 781.72,-62.13 780.33,-68.71 784.37,-65.76 784.37,-65.76 784.37,-65.76 780.33,-68.71 787.02,-69.4 776.29,-71.65 776.29,-71.65"/>
</g>
<!-- calcipy.tasks.defaults -->
<g id="node22" class="node">
<title>calcipy.tasks.defaults</title>
<polygon fill="none" stroke="black" points="1018.25,-180 886.75,-180 886.75,-144 1018.25,-144 1018.25,-180"/>
<text text-anchor="middle" x="952.5" y="-156.95" font-family="Times,serif" font-size="14.00">calcipy.tasks.defaults</text>
</g>
<!-- calcipy.scripts&#45;&gt;calcipy.tasks.defaults -->
<g id="edge10" class="edge">
<title>calcipy.scripts&#45;&gt;calcipy.tasks.defaults</title>
<path fill="none" stroke="black" d="M848.31,-36.3C848.92,-55.48 852.44,-86.53 867.5,-108 876.27,-120.5 889.01,-130.65 901.98,-138.61"/>
<polygon fill="black" stroke="black" points="910.5,-143.52 899.59,-142.42 906.16,-141.02 901.83,-138.52 901.83,-138.52 901.83,-138.52 906.16,-141.02 904.08,-134.62 910.5,-143.52 910.5,-143.52"/>
</g>
<!-- calcipy.tasks.lint -->
<g id="node24" class="node">
<title>calcipy.tasks.lint</title>
<polygon fill="none" stroke="black" points="982.88,-108 876.12,-108 876.12,-72 982.88,-72 982.88,-108"/>
<text text-anchor="middle" x="929.5" y="-84.95" font-family="Times,serif" font-size="14.00">calcipy.tasks.lint</text>
</g>
<!-- calcipy.scripts&#45;&gt;calcipy.tasks.lint -->
<g id="edge11" class="edge">
<title>calcipy.scripts&#45;&gt;calcipy.tasks.lint</title>
<path fill="none" stroke="black" d="M868.52,-36.3C878.65,-45.05 891.09,-55.81 902.09,-65.31"/>
<polygon fill="black" stroke="black" points="909.43,-71.65 898.92,-68.52 905.64,-68.38 901.86,-65.11 901.86,-65.11 901.86,-65.11 905.64,-68.38 904.8,-61.71 909.43,-71.65 909.43,-71.65"/>
</g>
<!-- calcipy.tasks.tags -->
<g id="node28" class="node">
<title>calcipy.tasks.tags</title>
<polygon fill="none" stroke="black" points="1111.75,-108 1001.25,-108 1001.25,-72 1111.75,-72 1111.75,-108"/>
<text text-anchor="middle" x="1056.5" y="-84.95" font-family="Times,serif" font-size="14.00">calcipy.tasks.tags</text>
</g>
<!-- calcipy.scripts&#45;&gt;calcipy.tasks.tags -->
<g id="edge12" class="edge">
<title>calcipy.scripts&#45;&gt;calcipy.tasks.tags</title>
<path fill="none" stroke="black" d="M895.44,-34.8C924.99,-44.74 963.45,-57.69 995.37,-68.43"/>
<polygon fill="black" stroke="black" points="1004.62,-71.54 993.71,-72.62 999.88,-69.95 995.14,-68.35 995.14,-68.35 995.14,-68.35 999.88,-69.95 996.58,-64.09 1004.62,-71.54 1004.62,-71.54"/>
</g>
<!-- calcipy.tasks.types -->
<g id="node30" class="node">
<title>calcipy.tasks.types</title>
<polygon fill="none" stroke="black" points="1247.12,-108 1129.88,-108 1129.88,-72 1247.12,-72 1247.12,-108"/>
<text text-anchor="middle" x="1188.5" y="-84.95" font-family="Times,serif" font-size="14.00">calcipy.tasks.types</text>
</g>
<!-- calcipy.scripts&#45;&gt;calcipy.tasks.types -->
<g id="edge13" class="edge">
<title>calcipy.scripts&#45;&gt;calcipy.tasks.types</title>
<path fill="none" stroke="black" d="M895.34,-27.35C947.7,-36.87 1035.22,-53.28 1120.05,-71.96"/>
<polygon fill="black" stroke="black" points="1129.57,-74.07 1118.84,-76.3 1124.69,-72.99 1119.81,-71.9 1119.81,-71.9 1119.81,-71.9 1124.69,-72.99 1120.78,-67.51 1129.57,-74.07 1129.57,-74.07"/>
</g>
<!-- calcipy.tasks.all_tasks&#45;&gt;calcipy.tasks.defaults -->
<g id="edge14" class="edge">
<title>calcipy.tasks.all_tasks&#45;&gt;calcipy.tasks.defaults</title>
<path fill="none" stroke="black" d="M802.45,-108.48C830.12,-118.17 864.67,-130.26 893.64,-140.4"/>
<polygon fill="black" stroke="black" points="902.84,-143.62 891.91,-144.56 898.12,-141.97 893.4,-140.31 893.4,-140.31 893.4,-140.31 898.12,-141.97 894.89,-136.07 902.84,-143.62 902.84,-143.62"/>
</g>
<!-- calcipy.tasks.cl -->
<g id="node21" class="node">
<title>calcipy.tasks.cl</title>
<polygon fill="none" stroke="black" points="2744.75,-36 2646.25,-36 2646.25,0 2744.75,0 2744.75,-36"/>
<text text-anchor="middle" x="2695.5" y="-12.95" font-family="Times,serif" font-size="14.00">calcipy.tasks.cl</text>
</g>
<!-- calcipy.tasks.doc -->
<g id="node23" class="node">
<title>calcipy.tasks.doc</title>
<polygon fill="none" stroke="black" points="2870.62,-36 2762.38,-36 2762.38,0 2870.62,0 2870.62,-36"/>
<text text-anchor="middle" x="2816.5" y="-12.95" font-family="Times,serif" font-size="14.00">calcipy.tasks.doc</text>
</g>
<!-- calcipy.tasks.nox -->
<g id="node25" class="node">
<title>calcipy.tasks.nox</title>
<polygon fill="none" stroke="black" points="2998,-36 2889,-36 2889,0 2998,0 2998,-36"/>
<text text-anchor="middle" x="2943.5" y="-12.95" font-family="Times,serif" font-size="14.00">calcipy.tasks.nox</text>
</g>
<!-- calcipy.tasks.pack -->
<g id="node26" class="node">
<title>calcipy.tasks.pack</title>
<polygon fill="none" stroke="black" points="3130.62,-36 3016.38,-36 3016.38,0 3130.62,0 3130.62,-36"/>
<text text-anchor="middle" x="3073.5" y="-12.95" font-family="Times,serif" font-size="14.00">calcipy.tasks.pack</text>
</g>
<!-- calcipy.tasks.stale -->
<g id="node27" class="node">
<title>calcipy.tasks.stale</title>
<polygon fill="none" stroke="black" points="3262.25,-36 3148.75,-36 3148.75,0 3262.25,0 3262.25,-36"/>
<text text-anchor="middle" x="3205.5" y="-12.95" font-family="Times,serif" font-size="14.00">calcipy.tasks.stale</text>
</g>
<!-- calcipy.tasks.tags&#45;&gt;calcipy.tasks.defaults -->
<g id="edge15" class="edge">
<title>calcipy.tasks.tags&#45;&gt;calcipy.tasks.defaults</title>
<path fill="none" stroke="black" d="M1030.52,-108.48C1017.15,-117.49 1000.67,-128.58 986.31,-138.24"/>
<polygon fill="black" stroke="black" points="978.14,-143.74 983.93,-134.42 982.29,-140.95 986.44,-138.16 986.44,-138.16 986.44,-138.16 982.29,-140.95 988.95,-141.89 978.14,-143.74 978.14,-143.74"/>
</g>
<!-- calcipy.tasks.test -->
<g id="node29" class="node">
<title>calcipy.tasks.test</title>
<polygon fill="none" stroke="black" points="1372.25,-108 1264.75,-108 1264.75,-72 1372.25,-72 1372.25,-108"/>
<text text-anchor="middle" x="1318.5" y="-84.95" font-family="Times,serif" font-size="14.00">calcipy.tasks.test</text>
</g>
<!-- calcipy.tasks.test&#45;&gt;calcipy.tasks.defaults -->
<g id="edge16" class="edge">
<title>calcipy.tasks.test&#45;&gt;calcipy.tasks.defaults</title>
<path fill="none" stroke="black" d="M1264.47,-106.14C1261.78,-106.79 1259.11,-107.42 1256.5,-108 1179.33,-125.27 1090.09,-140.24 1028.35,-149.83"/>
<polygon fill="black" stroke="black" points="1018.68,-151.32 1027.88,-145.35 1023.62,-150.56 1028.56,-149.79 1028.56,-149.79 1028.56,-149.79 1023.62,-150.56 1029.25,-154.24 1018.68,-151.32 1018.68,-151.32"/>
</g>
</g>
</svg>
