<?xml version="1.0" encoding="UTF-8" standalone="no"?>
<!DOCTYPE svg PUBLIC "-//W3C//DTD SVG 1.1//EN"
 "http://www.w3.org/Graphics/SVG/1.1/DTD/svg11.dtd">
<!-- Generated by graphviz version 2.43.0 (0)
 -->
<!-- Title: packages Pages: 1 -->
<svg width="3758pt" height="404pt"
 viewBox="0.00 0.00 3757.50 404.00" xmlns="http://www.w3.org/2000/svg" xmlns:xlink="http://www.w3.org/1999/xlink">
<g id="graph0" class="graph" transform="scale(1 1) rotate(0) translate(4 400)">
<title>packages</title>
<polygon fill="white" stroke="transparent" points="-4,4 -4,-400 3753.5,-400 3753.5,4 -4,4"/>
<!-- calcipy -->
<g id="node1" class="node">
<title>calcipy</title>
<polygon fill="none" stroke="black" points="66,-36 0,-36 0,0 66,0 66,-36"/>
<text text-anchor="middle" x="33" y="-14.3" font-family="Times,serif" font-size="14.00">calcipy</text>
</g>
<!-- calcipy.can_skip -->
<g id="node2" class="node">
<title>calcipy.can_skip</title>
<polygon fill="none" stroke="black" points="213.5,-36 84.5,-36 84.5,0 213.5,0 213.5,-36"/>
<text text-anchor="middle" x="149" y="-14.3" font-family="Times,serif" font-size="14.00">calcipy.can_skip</text>
</g>
<!-- calcipy.check_for_stale_packages -->
<g id="node3" class="node">
<title>calcipy.check_for_stale_packages</title>
<polygon fill="none" stroke="black" points="482,-36 232,-36 232,0 482,0 482,-36"/>
<text text-anchor="middle" x="357" y="-14.3" font-family="Times,serif" font-size="14.00">calcipy.check_for_stale_packages</text>
</g>
<!-- calcipy.check_for_stale_packages._check_for_stale_packages -->
<g id="node4" class="node">
<title>calcipy.check_for_stale_packages._check_for_stale_packages</title>
<polygon fill="none" stroke="black" points="578.5,-108 135.5,-108 135.5,-72 578.5,-72 578.5,-108"/>
<text text-anchor="middle" x="357" y="-86.3" font-family="Times,serif" font-size="14.00">calcipy.check_for_stale_packages._check_for_stale_packages</text>
</g>
<!-- calcipy.check_for_stale_packages&#45;&gt;calcipy.check_for_stale_packages._check_for_stale_packages -->
<g id="edge1" class="edge">
<title>calcipy.check_for_stale_packages&#45;&gt;calcipy.check_for_stale_packages._check_for_stale_packages</title>
<path fill="none" stroke="black" d="M357,-36.3C357,-44.02 357,-53.29 357,-61.89"/>
<polygon fill="black" stroke="black" points="357,-71.9 352.5,-61.9 357,-66.9 357,-61.9 357,-61.9 357,-61.9 357,-66.9 361.5,-61.9 357,-71.9 357,-71.9"/>
</g>
<!-- calcipy.cli -->
<g id="node5" class="node">
<title>calcipy.cli</title>
<polygon fill="none" stroke="black" points="950.5,-108 865.5,-108 865.5,-72 950.5,-72 950.5,-108"/>
<text text-anchor="middle" x="908" y="-86.3" font-family="Times,serif" font-size="14.00">calcipy.cli</text>
</g>
<!-- calcipy.invoke_helpers -->
<g id="node14" class="node">
<title>calcipy.invoke_helpers</title>
<polygon fill="none" stroke="black" points="1040.5,-180 865.5,-180 865.5,-144 1040.5,-144 1040.5,-180"/>
<text text-anchor="middle" x="953" y="-158.3" font-family="Times,serif" font-size="14.00">calcipy.invoke_helpers</text>
</g>
<!-- calcipy.cli&#45;&gt;calcipy.invoke_helpers -->
<g id="edge2" class="edge">
<title>calcipy.cli&#45;&gt;calcipy.invoke_helpers</title>
<path fill="none" stroke="black" d="M919.12,-108.3C924.36,-116.44 930.7,-126.31 936.48,-135.3"/>
<polygon fill="black" stroke="black" points="942,-143.9 932.81,-137.92 939.3,-139.69 936.6,-135.48 936.6,-135.48 936.6,-135.48 939.3,-139.69 940.38,-133.05 942,-143.9 942,-143.9"/>
</g>
<!-- calcipy.tasks._invoke -->
<g id="node21" class="node">
<title>calcipy.tasks._invoke</title>
<polygon fill="none" stroke="black" points="1352,-252 1188,-252 1188,-216 1352,-216 1352,-252"/>
<text text-anchor="middle" x="1270" y="-230.3" font-family="Times,serif" font-size="14.00">calcipy.tasks._invoke</text>
</g>
<!-- calcipy.cli&#45;&gt;calcipy.tasks._invoke -->
<g id="edge3" class="edge">
<title>calcipy.cli&#45;&gt;calcipy.tasks._invoke</title>
<path fill="none" stroke="black" d="M950.67,-106.75C978.69,-117.16 1016.1,-131.19 1049,-144 1107.53,-166.78 1174.39,-193.85 1219.1,-212.11"/>
<polygon fill="black" stroke="black" points="1228.57,-215.98 1217.61,-216.36 1223.94,-214.09 1219.31,-212.2 1219.31,-212.2 1219.31,-212.2 1223.94,-214.09 1221.01,-208.03 1228.57,-215.98 1228.57,-215.98"/>
</g>
<!-- calcipy.code_tag_collector -->
<g id="node6" class="node">
<title>calcipy.code_tag_collector</title>
<polygon fill="none" stroke="black" points="1949,-36 1749,-36 1749,0 1949,0 1949,-36"/>
<text text-anchor="middle" x="1849" y="-14.3" font-family="Times,serif" font-size="14.00">calcipy.code_tag_collector</text>
</g>
<!-- calcipy.code_tag_collector._collector -->
<g id="node7" class="node">
<title>calcipy.code_tag_collector._collector</title>
<polygon fill="none" stroke="black" points="1984.5,-108 1713.5,-108 1713.5,-72 1984.5,-72 1984.5,-108"/>
<text text-anchor="middle" x="1849" y="-86.3" font-family="Times,serif" font-size="14.00">calcipy.code_tag_collector._collector</text>
</g>
<!-- calcipy.code_tag_collector&#45;&gt;calcipy.code_tag_collector._collector -->
<g id="edge4" class="edge">
<title>calcipy.code_tag_collector&#45;&gt;calcipy.code_tag_collector._collector</title>
<path fill="none" stroke="black" d="M1849,-36.3C1849,-44.02 1849,-53.29 1849,-61.89"/>
<polygon fill="black" stroke="black" points="1849,-71.9 1844.5,-61.9 1849,-66.9 1849,-61.9 1849,-61.9 1849,-61.9 1849,-66.9 1853.5,-61.9 1849,-71.9 1849,-71.9"/>
</g>
<!-- calcipy.dot_dict -->
<g id="node8" class="node">
<title>calcipy.dot_dict</title>
<polygon fill="none" stroke="black" points="2162.5,-36 2037.5,-36 2037.5,0 2162.5,0 2162.5,-36"/>
<text text-anchor="middle" x="2100" y="-14.3" font-family="Times,serif" font-size="14.00">calcipy.dot_dict</text>
</g>
<!-- calcipy.dot_dict._dot_dict -->
<g id="node9" class="node">
<title>calcipy.dot_dict._dot_dict</title>
<polygon fill="none" stroke="black" points="2197,-108 2003,-108 2003,-72 2197,-72 2197,-108"/>
<text text-anchor="middle" x="2100" y="-86.3" font-family="Times,serif" font-size="14.00">calcipy.dot_dict._dot_dict</text>
</g>
<!-- calcipy.dot_dict&#45;&gt;calcipy.dot_dict._dot_dict -->
<g id="edge5" class="edge">
<title>calcipy.dot_dict&#45;&gt;calcipy.dot_dict._dot_dict</title>
<path fill="none" stroke="black" d="M2100,-36.3C2100,-44.02 2100,-53.29 2100,-61.89"/>
<polygon fill="black" stroke="black" points="2100,-71.9 2095.5,-61.9 2100,-66.9 2100,-61.9 2100,-61.9 2100,-61.9 2100,-66.9 2104.5,-61.9 2100,-71.9 2100,-71.9"/>
</g>
<!-- calcipy.experiments -->
<g id="node10" class="node">
<title>calcipy.experiments</title>
<polygon fill="none" stroke="black" points="2339,-36 2181,-36 2181,0 2339,0 2339,-36"/>
<text text-anchor="middle" x="2260" y="-14.3" font-family="Times,serif" font-size="14.00">calcipy.experiments</text>
</g>
<!-- calcipy.experiments.bump_programmatically -->
<g id="node11" class="node">
<title>calcipy.experiments.bump_programmatically</title>
<polygon fill="none" stroke="black" points="2693,-36 2357,-36 2357,0 2693,0 2693,-36"/>
<text text-anchor="middle" x="2525" y="-14.3" font-family="Times,serif" font-size="14.00">calcipy.experiments.bump_programmatically</text>
</g>
<!-- calcipy.experiments.check_duplicate_test_names -->
<g id="node12" class="node">
<title>calcipy.experiments.check_duplicate_test_names</title>
<polygon fill="none" stroke="black" points="3073.5,-36 2710.5,-36 2710.5,0 3073.5,0 3073.5,-36"/>
<text text-anchor="middle" x="2892" y="-14.3" font-family="Times,serif" font-size="14.00">calcipy.experiments.check_duplicate_test_names</text>
</g>
<!-- calcipy.file_search -->
<g id="node13" class="node">
<title>calcipy.file_search</title>
<polygon fill="none" stroke="black" points="3236,-36 3092,-36 3092,0 3236,0 3236,-36"/>
<text text-anchor="middle" x="3164" y="-14.3" font-family="Times,serif" font-size="14.00">calcipy.file_search</text>
</g>
<!-- calcipy.md_writer -->
<g id="node15" class="node">
<title>calcipy.md_writer</title>
<polygon fill="none" stroke="black" points="3396,-36 3254,-36 3254,0 3396,0 3396,-36"/>
<text text-anchor="middle" x="3325" y="-14.3" font-family="Times,serif" font-size="14.00">calcipy.md_writer</text>
</g>
<!-- calcipy.md_writer._writer -->
<g id="node16" class="node">
<title>calcipy.md_writer._writer</title>
<polygon fill="none" stroke="black" points="3423,-108 3227,-108 3227,-72 3423,-72 3423,-108"/>
<text text-anchor="middle" x="3325" y="-86.3" font-family="Times,serif" font-size="14.00">calcipy.md_writer._writer</text>
</g>
<!-- calcipy.md_writer&#45;&gt;calcipy.md_writer._writer -->
<g id="edge6" class="edge">
<title>calcipy.md_writer&#45;&gt;calcipy.md_writer._writer</title>
<path fill="none" stroke="black" d="M3325,-36.3C3325,-44.02 3325,-53.29 3325,-61.89"/>
<polygon fill="black" stroke="black" points="3325,-71.9 3320.5,-61.9 3325,-66.9 3325,-61.9 3325,-61.9 3325,-61.9 3325,-66.9 3329.5,-61.9 3325,-71.9 3325,-71.9"/>
</g>
<!-- calcipy.noxfile -->
<g id="node17" class="node">
<title>calcipy.noxfile</title>
<polygon fill="none" stroke="black" points="3586,-36 3470,-36 3470,0 3586,0 3586,-36"/>
<text text-anchor="middle" x="3528" y="-14.3" font-family="Times,serif" font-size="14.00">calcipy.noxfile</text>
</g>
<!-- calcipy.noxfile._noxfile -->
<g id="node18" class="node">
<title>calcipy.noxfile._noxfile</title>
<polygon fill="none" stroke="black" points="3615,-108 3441,-108 3441,-72 3615,-72 3615,-108"/>
<text text-anchor="middle" x="3528" y="-86.3" font-family="Times,serif" font-size="14.00">calcipy.noxfile._noxfile</text>
</g>
<!-- calcipy.noxfile&#45;&gt;calcipy.noxfile._noxfile -->
<g id="edge7" class="edge">
<title>calcipy.noxfile&#45;&gt;calcipy.noxfile._noxfile</title>
<path fill="none" stroke="black" d="M3528,-36.3C3528,-44.02 3528,-53.29 3528,-61.89"/>
<polygon fill="black" stroke="black" points="3528,-71.9 3523.5,-61.9 3528,-66.9 3528,-61.9 3528,-61.9 3528,-61.9 3528,-66.9 3532.5,-61.9 3528,-71.9 3528,-71.9"/>
</g>
<!-- calcipy.scripts -->
<g id="node19" class="node">
<title>calcipy.scripts</title>
<polygon fill="none" stroke="black" points="1182.5,-36 1065.5,-36 1065.5,0 1182.5,0 1182.5,-36"/>
<text text-anchor="middle" x="1124" y="-14.3" font-family="Times,serif" font-size="14.00">calcipy.scripts</text>
</g>
<!-- calcipy.scripts&#45;&gt;calcipy.cli -->
<g id="edge8" class="edge">
<title>calcipy.scripts&#45;&gt;calcipy.cli</title>
<path fill="none" stroke="black" d="M1071.18,-36.02C1041.29,-45.66 1002.98,-58.04 960.32,-71.9"/>
<polygon fill="black" stroke="black" points="950.56,-75.07 958.68,-67.7 955.32,-73.53 960.07,-71.98 960.07,-71.98 960.07,-71.98 955.32,-73.53 961.46,-76.26 950.56,-75.07 950.56,-75.07"/>
</g>
<!-- calcipy.tasks -->
<g id="node20" class="node">
<title>calcipy.tasks</title>
<polygon fill="none" stroke="black" points="1695,-108 1589,-108 1589,-72 1695,-72 1695,-108"/>
<text text-anchor="middle" x="1642" y="-86.3" font-family="Times,serif" font-size="14.00">calcipy.tasks</text>
</g>
<!-- calcipy.scripts&#45;&gt;calcipy.tasks -->
<g id="edge9" class="edge">
<title>calcipy.scripts&#45;&gt;calcipy.tasks</title>
<path fill="none" stroke="black" d="M1182.75,-23.42C1269.18,-30.49 1435.46,-46.21 1575,-72 1576.26,-72.23 1577.53,-72.48 1578.81,-72.73"/>
<polygon fill="black" stroke="black" points="1588.75,-74.82 1578.03,-77.16 1583.85,-73.79 1578.96,-72.76 1578.96,-72.76 1578.96,-72.76 1583.85,-73.79 1579.89,-68.35 1588.75,-74.82 1588.75,-74.82"/>
</g>
<!-- calcipy.scripts&#45;&gt;calcipy.tasks._invoke -->
<g id="edge10" class="edge">
<title>calcipy.scripts&#45;&gt;calcipy.tasks._invoke</title>
<path fill="none" stroke="black" d="M1182.87,-18.26C1278.79,-18.45 1462.23,-25.13 1503,-72 1558.6,-135.92 1433.82,-186.72 1346.28,-213.12"/>
<polygon fill="black" stroke="black" points="1336.6,-215.98 1344.91,-208.83 1341.4,-214.56 1346.19,-213.14 1346.19,-213.14 1346.19,-213.14 1341.4,-214.56 1347.47,-217.46 1336.6,-215.98 1336.6,-215.98"/>
</g>
<!-- calcipy.tasks.all_tasks -->
<g id="node22" class="node">
<title>calcipy.tasks.all_tasks</title>
<polygon fill="none" stroke="black" points="1297,-108 1125,-108 1125,-72 1297,-72 1297,-108"/>
<text text-anchor="middle" x="1211" y="-86.3" font-family="Times,serif" font-size="14.00">calcipy.tasks.all_tasks</text>
</g>
<!-- calcipy.scripts&#45;&gt;calcipy.tasks.all_tasks -->
<g id="edge11" class="edge">
<title>calcipy.scripts&#45;&gt;calcipy.tasks.all_tasks</title>
<path fill="none" stroke="black" d="M1145.51,-36.3C1156.46,-45.12 1169.95,-55.97 1181.82,-65.53"/>
<polygon fill="black" stroke="black" points="1189.74,-71.9 1179.13,-69.13 1185.85,-68.76 1181.95,-65.63 1181.95,-65.63 1181.95,-65.63 1185.85,-68.76 1184.77,-62.12 1189.74,-71.9 1189.74,-71.9"/>
</g>
<!-- calcipy.tasks.cl -->
<g id="node23" class="node">
<title>calcipy.tasks.cl</title>
<polygon fill="none" stroke="black" points="668,-252 546,-252 546,-216 668,-216 668,-252"/>
<text text-anchor="middle" x="607" y="-230.3" font-family="Times,serif" font-size="14.00">calcipy.tasks.cl</text>
</g>
<!-- calcipy.scripts&#45;&gt;calcipy.tasks.cl -->
<g id="edge12" class="edge">
<title>calcipy.scripts&#45;&gt;calcipy.tasks.cl</title>
<path fill="none" stroke="black" d="M1065.21,-19.26C987.85,-21.33 848.72,-31.09 738,-72 682.49,-92.51 659.65,-95.32 626,-144 613.47,-162.12 608.96,-186.9 607.44,-205.71"/>
<polygon fill="black" stroke="black" points="606.86,-215.73 602.94,-205.49 607.15,-210.74 607.44,-205.75 607.44,-205.75 607.44,-205.75 607.15,-210.74 611.93,-206.01 606.86,-215.73 606.86,-215.73"/>
</g>
<!-- calcipy.tasks.defaults -->
<g id="node24" class="node">
<title>calcipy.tasks.defaults</title>
<polygon fill="none" stroke="black" points="1407,-180 1239,-180 1239,-144 1407,-144 1407,-180"/>
<text text-anchor="middle" x="1323" y="-158.3" font-family="Times,serif" font-size="14.00">calcipy.tasks.defaults</text>
</g>
<!-- calcipy.scripts&#45;&gt;calcipy.tasks.defaults -->
<g id="edge13" class="edge">
<title>calcipy.scripts&#45;&gt;calcipy.tasks.defaults</title>
<path fill="none" stroke="black" d="M1182.71,-20.74C1223.11,-25.17 1274.89,-37.79 1306,-72 1321.09,-88.59 1324.65,-114.31 1324.83,-133.85"/>
<polygon fill="black" stroke="black" points="1324.64,-143.96 1320.33,-133.88 1324.74,-138.96 1324.83,-133.97 1324.83,-133.97 1324.83,-133.97 1324.74,-138.96 1329.33,-134.05 1324.64,-143.96 1324.64,-143.96"/>
</g>
<!-- calcipy.tasks.doc -->
<g id="node25" class="node">
<title>calcipy.tasks.doc</title>
<polygon fill="none" stroke="black" points="770.5,-180 635.5,-180 635.5,-144 770.5,-144 770.5,-180"/>
<text text-anchor="middle" x="703" y="-158.3" font-family="Times,serif" font-size="14.00">calcipy.tasks.doc</text>
</g>
<!-- calcipy.scripts&#45;&gt;calcipy.tasks.doc -->
<g id="edge14" class="edge">
<title>calcipy.scripts&#45;&gt;calcipy.tasks.doc</title>
<path fill="none" stroke="black" d="M1065.31,-23.5C981.5,-30.71 832.42,-46.67 785,-72 757.27,-86.81 733.95,-114.71 719.35,-135.34"/>
<polygon fill="black" stroke="black" points="713.64,-143.68 715.58,-132.89 716.46,-139.55 719.29,-135.43 719.29,-135.43 719.29,-135.43 716.46,-139.55 723,-137.97 713.64,-143.68 713.64,-143.68"/>
</g>
<!-- calcipy.tasks.lint -->
<g id="node27" class="node">
<title>calcipy.tasks.lint</title>
<polygon fill="none" stroke="black" points="858,-252 724,-252 724,-216 858,-216 858,-252"/>
<text text-anchor="middle" x="791" y="-230.3" font-family="Times,serif" font-size="14.00">calcipy.tasks.lint</text>
</g>
<!-- calcipy.scripts&#45;&gt;calcipy.tasks.lint -->
<g id="edge15" class="edge">
<title>calcipy.scripts&#45;&gt;calcipy.tasks.lint</title>
<path fill="none" stroke="black" d="M1065.29,-21.64C987.61,-26.4 856.57,-39.16 823,-72 787.28,-106.95 785.48,-169.56 787.89,-205.54"/>
<polygon fill="black" stroke="black" points="788.74,-215.79 783.43,-206.2 788.33,-210.81 787.92,-205.83 787.92,-205.83 787.92,-205.83 788.33,-210.81 792.4,-205.45 788.74,-215.79 788.74,-215.79"/>
</g>
<!-- calcipy.tasks.pack -->
<g id="node29" class="node">
<title>calcipy.tasks.pack</title>
<polygon fill="none" stroke="black" points="1068.5,-324 925.5,-324 925.5,-288 1068.5,-288 1068.5,-324"/>
<text text-anchor="middle" x="997" y="-302.3" font-family="Times,serif" font-size="14.00">calcipy.tasks.pack</text>
</g>
<!-- calcipy.scripts&#45;&gt;calcipy.tasks.pack -->
<g id="edge16" class="edge">
<title>calcipy.scripts&#45;&gt;calcipy.tasks.pack</title>
<path fill="none" stroke="black" d="M1065.35,-22.15C994.62,-27.32 881.97,-40.39 856,-72 825.53,-109.09 836.31,-136.23 856,-180 876.45,-225.46 922.51,-261.09 956.45,-282.49"/>
<polygon fill="black" stroke="black" points="965.23,-287.88 954.36,-286.48 960.97,-285.26 956.71,-282.64 956.71,-282.64 956.71,-282.64 960.97,-285.26 959.07,-278.81 965.23,-287.88 965.23,-287.88"/>
</g>
<!-- calcipy.tasks.tags -->
<g id="node31" class="node">
<title>calcipy.tasks.tags</title>
<polygon fill="none" stroke="black" points="1494.5,-108 1353.5,-108 1353.5,-72 1494.5,-72 1494.5,-108"/>
<text text-anchor="middle" x="1424" y="-86.3" font-family="Times,serif" font-size="14.00">calcipy.tasks.tags</text>
</g>
<!-- calcipy.scripts&#45;&gt;calcipy.tasks.tags -->
<g id="edge17" class="edge">
<title>calcipy.scripts&#45;&gt;calcipy.tasks.tags</title>
<path fill="none" stroke="black" d="M1182.56,-32.66C1228.44,-43.37 1292.77,-58.38 1343.5,-70.22"/>
<polygon fill="black" stroke="black" points="1353.45,-72.54 1342.69,-74.65 1348.58,-71.4 1343.71,-70.27 1343.71,-70.27 1343.71,-70.27 1348.58,-71.4 1344.74,-65.88 1353.45,-72.54 1353.45,-72.54"/>
</g>
<!-- calcipy.tasks.test -->
<g id="node32" class="node">
<title>calcipy.tasks.test</title>
<polygon fill="none" stroke="black" points="1107,-108 969,-108 969,-72 1107,-72 1107,-108"/>
<text text-anchor="middle" x="1038" y="-86.3" font-family="Times,serif" font-size="14.00">calcipy.tasks.test</text>
</g>
<!-- calcipy.scripts&#45;&gt;calcipy.tasks.test -->
<g id="edge18" class="edge">
<title>calcipy.scripts&#45;&gt;calcipy.tasks.test</title>
<path fill="none" stroke="black" d="M1102.74,-36.3C1091.91,-45.12 1078.58,-55.97 1066.84,-65.53"/>
<polygon fill="black" stroke="black" points="1059.01,-71.9 1063.93,-62.09 1062.89,-68.74 1066.77,-65.58 1066.77,-65.58 1066.77,-65.58 1062.89,-68.74 1069.61,-69.07 1059.01,-71.9 1059.01,-71.9"/>
</g>
<!-- calcipy.tasks.types -->
<g id="node33" class="node">
<title>calcipy.tasks.types</title>
<polygon fill="none" stroke="black" points="1344.5,-324 1195.5,-324 1195.5,-288 1344.5,-288 1344.5,-324"/>
<text text-anchor="middle" x="1270" y="-302.3" font-family="Times,serif" font-size="14.00">calcipy.tasks.types</text>
</g>
<!-- calcipy.scripts&#45;&gt;calcipy.tasks.types -->
<g id="edge19" class="edge">
<title>calcipy.scripts&#45;&gt;calcipy.tasks.types</title>
<path fill="none" stroke="black" d="M1182.76,-22.57C1288.48,-29.59 1501.87,-46.74 1524,-72 1599.3,-157.94 1420.97,-245.3 1325.46,-284.16"/>
<polygon fill="black" stroke="black" points="1315.93,-287.98 1323.53,-280.08 1320.57,-286.12 1325.21,-284.26 1325.21,-284.26 1325.21,-284.26 1320.57,-286.12 1326.89,-288.43 1315.93,-287.98 1315.93,-287.98"/>
</g>
<!-- calcipy.tasks._invoke&#45;&gt;calcipy.tasks.types -->
<g id="edge20" class="edge">
<title>calcipy.tasks._invoke&#45;&gt;calcipy.tasks.types</title>
<path fill="none" stroke="black" d="M1270,-252.3C1270,-260.02 1270,-269.29 1270,-277.89"/>
<polygon fill="black" stroke="black" points="1270,-287.9 1265.5,-277.9 1270,-282.9 1270,-277.9 1270,-277.9 1270,-277.9 1270,-282.9 1274.5,-277.9 1270,-287.9 1270,-287.9"/>
</g>
<!-- calcipy.tasks.all_tasks&#45;&gt;calcipy.tasks._invoke -->
<g id="edge21" class="edge">
<title>calcipy.tasks.all_tasks&#45;&gt;calcipy.tasks._invoke</title>
<path fill="none" stroke="black" d="M1212.43,-108.09C1214.47,-126.53 1219.24,-156.43 1230,-180 1234.45,-189.75 1240.95,-199.41 1247.42,-207.76"/>
<polygon fill="black" stroke="black" points="1253.8,-215.63 1244,-210.7 1250.65,-211.75 1247.5,-207.86 1247.5,-207.86 1247.5,-207.86 1250.65,-211.75 1250.99,-205.03 1253.8,-215.63 1253.8,-215.63"/>
</g>
<!-- calcipy.tasks.all_tasks&#45;&gt;calcipy.tasks.defaults -->
<g id="edge22" class="edge">
<title>calcipy.tasks.all_tasks&#45;&gt;calcipy.tasks.defaults</title>
<path fill="none" stroke="black" d="M1238.4,-108.12C1252.91,-117.19 1270.92,-128.45 1286.59,-138.24"/>
<polygon fill="black" stroke="black" points="1295.5,-143.81 1284.63,-142.33 1291.26,-141.16 1287.02,-138.51 1287.02,-138.51 1287.02,-138.51 1291.26,-141.16 1289.4,-134.69 1295.5,-143.81 1295.5,-143.81"/>
</g>
<!-- calcipy.tasks.executable_utils -->
<g id="node26" class="node">
<title>calcipy.tasks.executable_utils</title>
<polygon fill="none" stroke="black" points="952,-396 726,-396 726,-360 952,-360 952,-396"/>
<text text-anchor="middle" x="839" y="-374.3" font-family="Times,serif" font-size="14.00">calcipy.tasks.executable_utils</text>
</g>
<!-- calcipy.tasks.cl&#45;&gt;calcipy.tasks.executable_utils -->
<g id="edge23" class="edge">
<title>calcipy.tasks.cl&#45;&gt;calcipy.tasks.executable_utils</title>
<path fill="none" stroke="black" d="M617.32,-252.19C630.13,-272.14 653.78,-304.77 682,-324 702.9,-338.24 727.95,-348.94 751.84,-356.87"/>
<polygon fill="black" stroke="black" points="761.64,-359.99 750.74,-361.24 756.87,-358.47 752.11,-356.95 752.11,-356.95 752.11,-356.95 756.87,-358.47 753.48,-352.67 761.64,-359.99 761.64,-359.99"/>
</g>
<!-- calcipy.tasks.defaults&#45;&gt;calcipy.tasks._invoke -->
<g id="edge24" class="edge">
<title>calcipy.tasks.defaults&#45;&gt;calcipy.tasks._invoke</title>
<path fill="none" stroke="black" d="M1309.9,-180.3C1303.61,-188.61 1295.95,-198.72 1289.04,-207.86"/>
<polygon fill="black" stroke="black" points="1282.95,-215.9 1285.4,-205.21 1285.97,-211.91 1288.99,-207.92 1288.99,-207.92 1288.99,-207.92 1285.97,-211.91 1292.57,-210.64 1282.95,-215.9 1282.95,-215.9"/>
</g>
<!-- calcipy.tasks.doc&#45;&gt;calcipy.tasks.executable_utils -->
<g id="edge25" class="edge">
<title>calcipy.tasks.doc&#45;&gt;calcipy.tasks.executable_utils</title>
<path fill="none" stroke="black" d="M703.48,-180.14C704.41,-198.36 707.12,-227.84 715,-252 726.28,-286.6 729.06,-297.49 754,-324 765.34,-336.05 779.99,-346.47 793.93,-354.8"/>
<polygon fill="black" stroke="black" points="802.94,-359.97 792.03,-358.9 798.6,-357.48 794.27,-354.99 794.27,-354.99 794.27,-354.99 798.6,-357.48 796.51,-351.09 802.94,-359.97 802.94,-359.97"/>
</g>
<!-- calcipy.tasks.lint&#45;&gt;calcipy.tasks.executable_utils -->
<g id="edge26" class="edge">
<title>calcipy.tasks.lint&#45;&gt;calcipy.tasks.executable_utils</title>
<path fill="none" stroke="black" d="M777.65,-252.08C764.99,-270.52 749.6,-300.41 762,-324 768.56,-336.48 779.54,-346.6 791.19,-354.52"/>
<polygon fill="black" stroke="black" points="799.73,-359.9 788.87,-358.37 795.5,-357.23 791.27,-354.57 791.27,-354.57 791.27,-354.57 795.5,-357.23 793.66,-350.76 799.73,-359.9 799.73,-359.9"/>
</g>
<!-- calcipy.tasks.nox -->
<g id="node28" class="node">
<title>calcipy.tasks.nox</title>
<polygon fill="none" stroke="black" points="907,-324 771,-324 771,-288 907,-288 907,-324"/>
<text text-anchor="middle" x="839" y="-302.3" font-family="Times,serif" font-size="14.00">calcipy.tasks.nox</text>
</g>
<!-- calcipy.tasks.nox&#45;&gt;calcipy.tasks.executable_utils -->
<g id="edge27" class="edge">
<title>calcipy.tasks.nox&#45;&gt;calcipy.tasks.executable_utils</title>
<path fill="none" stroke="black" d="M839,-324.3C839,-332.02 839,-341.29 839,-349.89"/>
<polygon fill="black" stroke="black" points="839,-359.9 834.5,-349.9 839,-354.9 839,-349.9 839,-349.9 839,-349.9 839,-354.9 843.5,-349.9 839,-359.9 839,-359.9"/>
</g>
<!-- calcipy.tasks.pack&#45;&gt;calcipy.tasks.executable_utils -->
<g id="edge28" class="edge">
<title>calcipy.tasks.pack&#45;&gt;calcipy.tasks.executable_utils</title>
<path fill="none" stroke="black" d="M958.35,-324.12C936.75,-333.69 909.65,-345.7 886.73,-355.85"/>
<polygon fill="black" stroke="black" points="877.53,-359.93 884.85,-351.77 882.1,-357.91 886.67,-355.88 886.67,-355.88 886.67,-355.88 882.1,-357.91 888.49,-360 877.53,-359.93 877.53,-359.93"/>
</g>
<!-- calcipy.tasks.stale -->
<g id="node30" class="node">
<title>calcipy.tasks.stale</title>
<polygon fill="none" stroke="black" points="3749.5,-36 3604.5,-36 3604.5,0 3749.5,0 3749.5,-36"/>
<text text-anchor="middle" x="3677" y="-14.3" font-family="Times,serif" font-size="14.00">calcipy.tasks.stale</text>
</g>
<!-- calcipy.tasks.tags&#45;&gt;calcipy.tasks.defaults -->
<g id="edge29" class="edge">
<title>calcipy.tasks.tags&#45;&gt;calcipy.tasks.defaults</title>
<path fill="none" stroke="black" d="M1399.29,-108.12C1386.33,-117.11 1370.27,-128.24 1356.23,-137.97"/>
<polygon fill="black" stroke="black" points="1347.8,-143.81 1353.46,-134.42 1351.91,-140.96 1356.02,-138.11 1356.02,-138.11 1356.02,-138.11 1351.91,-140.96 1358.58,-141.81 1347.8,-143.81 1347.8,-143.81"/>
</g>
<!-- calcipy.tasks.test&#45;&gt;calcipy.tasks.defaults -->
<g id="edge30" class="edge">
<title>calcipy.tasks.test&#45;&gt;calcipy.tasks.defaults</title>
<path fill="none" stroke="black" d="M1107.35,-108.03C1148.47,-118.13 1200.74,-130.97 1243.52,-141.48"/>
<polygon fill="black" stroke="black" points="1253.33,-143.89 1242.55,-145.87 1248.48,-142.7 1243.62,-141.5 1243.62,-141.5 1243.62,-141.5 1248.48,-142.7 1244.7,-137.13 1253.33,-143.89 1253.33,-143.89"/>
</g>
<!-- calcipy.tasks.test&#45;&gt;calcipy.tasks.executable_utils -->
<g id="edge31" class="edge">
<title>calcipy.tasks.test&#45;&gt;calcipy.tasks.executable_utils</title>
<path fill="none" stroke="black" d="M1048.84,-108.16C1073.77,-150.06 1129.21,-258.88 1077,-324 1061.76,-343 1012.13,-355.63 962.11,-363.78"/>
<polygon fill="black" stroke="black" points="952.11,-365.35 961.29,-359.35 957.05,-364.57 961.99,-363.79 961.99,-363.79 961.99,-363.79 957.05,-364.57 962.68,-368.24 952.11,-365.35 952.11,-365.35"/>
</g>
<!-- calcipy.tasks.types&#45;&gt;calcipy.tasks.executable_utils -->
<g id="edge32" class="edge">
<title>calcipy.tasks.types&#45;&gt;calcipy.tasks.executable_utils</title>
<path fill="none" stroke="black" d="M1195.42,-319.11C1128.9,-329.92 1030.47,-345.9 953.9,-358.34"/>
<polygon fill="black" stroke="black" points="943.72,-359.99 952.87,-353.95 948.65,-359.19 953.59,-358.39 953.59,-358.39 953.59,-358.39 948.65,-359.19 954.31,-362.83 943.72,-359.99 943.72,-359.99"/>
</g>
</g>
</svg>
