<?xml version="1.0" encoding="UTF-8" standalone="no"?>
<!DOCTYPE svg PUBLIC "-//W3C//DTD SVG 1.1//EN"
 "http://www.w3.org/Graphics/SVG/1.1/DTD/svg11.dtd">
<!-- Generated by graphviz version 8.0.1 (20230327.1645)
 -->
<!-- Title: packages Pages: 1 -->
<svg width="3289pt" height="188pt"
 viewBox="0.00 0.00 3289.00 188.00" xmlns="http://www.w3.org/2000/svg" xmlns:xlink="http://www.w3.org/1999/xlink">
<g id="graph0" class="graph" transform="scale(1 1) rotate(0) translate(4 184)">
<title>packages</title>
<polygon fill="white" stroke="none" points="-4,4 -4,-184 3285,-184 3285,4 -4,4"/>
<!-- calcipy -->
<g id="node1" class="node">
<title>calcipy</title>
<polygon fill="none" stroke="black" points="56,-36 0,-36 0,0 56,0 56,-36"/>
<text text-anchor="middle" x="28" y="-14.3" font-family="Times,serif" font-size="14.00">calcipy</text>
</g>
<!-- calcipy.can_skip -->
<g id="node2" class="node">
<title>calcipy.can_skip</title>
<polygon fill="none" stroke="black" points="181.5,-36 74.5,-36 74.5,0 181.5,0 181.5,-36"/>
<text text-anchor="middle" x="128" y="-14.3" font-family="Times,serif" font-size="14.00">calcipy.can_skip</text>
</g>
<!-- calcipy.check_for_stale_packages -->
<g id="node3" class="node">
<title>calcipy.check_for_stale_packages</title>
<polygon fill="none" stroke="black" points="400,-36 200,-36 200,0 400,0 400,-36"/>
<text text-anchor="middle" x="300" y="-14.3" font-family="Times,serif" font-size="14.00">calcipy.check_for_stale_packages</text>
</g>
<!-- calcipy.check_for_stale_packages._check_for_stale_packages -->
<g id="node4" class="node">
<title>calcipy.check_for_stale_packages._check_for_stale_packages</title>
<polygon fill="none" stroke="black" points="476.5,-108 123.5,-108 123.5,-72 476.5,-72 476.5,-108"/>
<text text-anchor="middle" x="300" y="-86.3" font-family="Times,serif" font-size="14.00">calcipy.check_for_stale_packages._check_for_stale_packages</text>
</g>
<!-- calcipy.check_for_stale_packages&#45;&gt;calcipy.check_for_stale_packages._check_for_stale_packages -->
<g id="edge1" class="edge">
<title>calcipy.check_for_stale_packages&#45;&gt;calcipy.check_for_stale_packages._check_for_stale_packages</title>
<path fill="none" stroke="black" d="M300,-36.3C300,-44.1 300,-53.49 300,-62.17"/>
<polygon fill="black" stroke="black" points="300,-71.9 295.5,-61.9 300,-66.9 300,-61.9 300,-61.9 300,-61.9 300,-66.9 304.5,-61.9 300,-71.9 300,-71.9"/>
</g>
<!-- calcipy.cli -->
<g id="node5" class="node">
<title>calcipy.cli</title>
<polygon fill="none" stroke="black" points="567,-108 495,-108 495,-72 567,-72 567,-108"/>
<text text-anchor="middle" x="531" y="-86.3" font-family="Times,serif" font-size="14.00">calcipy.cli</text>
</g>
<!-- calcipy.invoke_helpers -->
<g id="node13" class="node">
<title>calcipy.invoke_helpers</title>
<polygon fill="none" stroke="black" points="601.5,-180 460.5,-180 460.5,-144 601.5,-144 601.5,-180"/>
<text text-anchor="middle" x="531" y="-158.3" font-family="Times,serif" font-size="14.00">calcipy.invoke_helpers</text>
</g>
<!-- calcipy.cli&#45;&gt;calcipy.invoke_helpers -->
<g id="edge2" class="edge">
<title>calcipy.cli&#45;&gt;calcipy.invoke_helpers</title>
<path fill="none" stroke="black" d="M531,-108.3C531,-116.1 531,-125.49 531,-134.17"/>
<polygon fill="black" stroke="black" points="531,-143.9 526.5,-133.9 531,-138.9 531,-133.9 531,-133.9 531,-133.9 531,-138.9 535.5,-133.9 531,-143.9 531,-143.9"/>
</g>
<!-- calcipy.code_tag_collector -->
<g id="node6" class="node">
<title>calcipy.code_tag_collector</title>
<polygon fill="none" stroke="black" points="1589.5,-36 1428.5,-36 1428.5,0 1589.5,0 1589.5,-36"/>
<text text-anchor="middle" x="1509" y="-14.3" font-family="Times,serif" font-size="14.00">calcipy.code_tag_collector</text>
</g>
<!-- calcipy.code_tag_collector._collector -->
<g id="node7" class="node">
<title>calcipy.code_tag_collector._collector</title>
<polygon fill="none" stroke="black" points="1618,-108 1400,-108 1400,-72 1618,-72 1618,-108"/>
<text text-anchor="middle" x="1509" y="-86.3" font-family="Times,serif" font-size="14.00">calcipy.code_tag_collector._collector</text>
</g>
<!-- calcipy.code_tag_collector&#45;&gt;calcipy.code_tag_collector._collector -->
<g id="edge3" class="edge">
<title>calcipy.code_tag_collector&#45;&gt;calcipy.code_tag_collector._collector</title>
<path fill="none" stroke="black" d="M1509,-36.3C1509,-44.1 1509,-53.49 1509,-62.17"/>
<polygon fill="black" stroke="black" points="1509,-71.9 1504.5,-61.9 1509,-66.9 1509,-61.9 1509,-61.9 1509,-61.9 1509,-66.9 1513.5,-61.9 1509,-71.9 1509,-71.9"/>
</g>
<!-- calcipy.dot_dict -->
<g id="node8" class="node">
<title>calcipy.dot_dict</title>
<polygon fill="none" stroke="black" points="1766.5,-36 1663.5,-36 1663.5,0 1766.5,0 1766.5,-36"/>
<text text-anchor="middle" x="1715" y="-14.3" font-family="Times,serif" font-size="14.00">calcipy.dot_dict</text>
</g>
<!-- calcipy.dot_dict._dot_dict -->
<g id="node9" class="node">
<title>calcipy.dot_dict._dot_dict</title>
<polygon fill="none" stroke="black" points="1794,-108 1636,-108 1636,-72 1794,-72 1794,-108"/>
<text text-anchor="middle" x="1715" y="-86.3" font-family="Times,serif" font-size="14.00">calcipy.dot_dict._dot_dict</text>
</g>
<!-- calcipy.dot_dict&#45;&gt;calcipy.dot_dict._dot_dict -->
<g id="edge4" class="edge">
<title>calcipy.dot_dict&#45;&gt;calcipy.dot_dict._dot_dict</title>
<path fill="none" stroke="black" d="M1715,-36.3C1715,-44.1 1715,-53.49 1715,-62.17"/>
<polygon fill="black" stroke="black" points="1715,-71.9 1710.5,-61.9 1715,-66.9 1715,-61.9 1715,-61.9 1715,-61.9 1715,-66.9 1719.5,-61.9 1715,-71.9 1715,-71.9"/>
</g>
<!-- calcipy.experiments -->
<g id="node10" class="node">
<title>calcipy.experiments</title>
<polygon fill="none" stroke="black" points="1909.5,-36 1784.5,-36 1784.5,0 1909.5,0 1909.5,-36"/>
<text text-anchor="middle" x="1847" y="-14.3" font-family="Times,serif" font-size="14.00">calcipy.experiments</text>
</g>
<!-- calcipy.experiments.check_duplicate_test_names -->
<g id="node11" class="node">
<title>calcipy.experiments.check_duplicate_test_names</title>
<polygon fill="none" stroke="black" points="2212,-36 1928,-36 1928,0 2212,0 2212,-36"/>
<text text-anchor="middle" x="2070" y="-14.3" font-family="Times,serif" font-size="14.00">calcipy.experiments.check_duplicate_test_names</text>
</g>
<!-- calcipy.file_search -->
<g id="node12" class="node">
<title>calcipy.file_search</title>
<polygon fill="none" stroke="black" points="2348,-36 2230,-36 2230,0 2348,0 2348,-36"/>
<text text-anchor="middle" x="2289" y="-14.3" font-family="Times,serif" font-size="14.00">calcipy.file_search</text>
</g>
<!-- calcipy.md_writer -->
<g id="node14" class="node">
<title>calcipy.md_writer</title>
<polygon fill="none" stroke="black" points="2482,-36 2366,-36 2366,0 2482,0 2482,-36"/>
<text text-anchor="middle" x="2424" y="-14.3" font-family="Times,serif" font-size="14.00">calcipy.md_writer</text>
</g>
<!-- calcipy.md_writer._writer -->
<g id="node15" class="node">
<title>calcipy.md_writer._writer</title>
<polygon fill="none" stroke="black" points="2503,-108 2345,-108 2345,-72 2503,-72 2503,-108"/>
<text text-anchor="middle" x="2424" y="-86.3" font-family="Times,serif" font-size="14.00">calcipy.md_writer._writer</text>
</g>
<!-- calcipy.md_writer&#45;&gt;calcipy.md_writer._writer -->
<g id="edge5" class="edge">
<title>calcipy.md_writer&#45;&gt;calcipy.md_writer._writer</title>
<path fill="none" stroke="black" d="M2424,-36.3C2424,-44.1 2424,-53.49 2424,-62.17"/>
<polygon fill="black" stroke="black" points="2424,-71.9 2419.5,-61.9 2424,-66.9 2424,-61.9 2424,-61.9 2424,-61.9 2424,-66.9 2428.5,-61.9 2424,-71.9 2424,-71.9"/>
</g>
<!-- calcipy.noxfile -->
<g id="node16" class="node">
<title>calcipy.noxfile</title>
<polygon fill="none" stroke="black" points="2642.5,-36 2545.5,-36 2545.5,0 2642.5,0 2642.5,-36"/>
<text text-anchor="middle" x="2594" y="-14.3" font-family="Times,serif" font-size="14.00">calcipy.noxfile</text>
</g>
<!-- calcipy.noxfile._noxfile -->
<g id="node17" class="node">
<title>calcipy.noxfile._noxfile</title>
<polygon fill="none" stroke="black" points="2667,-108 2521,-108 2521,-72 2667,-72 2667,-108"/>
<text text-anchor="middle" x="2594" y="-86.3" font-family="Times,serif" font-size="14.00">calcipy.noxfile._noxfile</text>
</g>
<!-- calcipy.noxfile&#45;&gt;calcipy.noxfile._noxfile -->
<g id="edge6" class="edge">
<title>calcipy.noxfile&#45;&gt;calcipy.noxfile._noxfile</title>
<path fill="none" stroke="black" d="M2594,-36.3C2594,-44.1 2594,-53.49 2594,-62.17"/>
<polygon fill="black" stroke="black" points="2594,-71.9 2589.5,-61.9 2594,-66.9 2594,-61.9 2594,-61.9 2594,-61.9 2594,-66.9 2598.5,-61.9 2594,-71.9 2594,-71.9"/>
</g>
<!-- calcipy.scripts -->
<g id="node18" class="node">
<title>calcipy.scripts</title>
<polygon fill="none" stroke="black" points="902,-36 808,-36 808,0 902,0 902,-36"/>
<text text-anchor="middle" x="855" y="-14.3" font-family="Times,serif" font-size="14.00">calcipy.scripts</text>
</g>
<!-- calcipy.scripts&#45;&gt;calcipy.cli -->
<g id="edge7" class="edge">
<title>calcipy.scripts&#45;&gt;calcipy.cli</title>
<path fill="none" stroke="black" d="M807.53,-25.45C753.5,-33.36 662.64,-48.38 576.56,-72.09"/>
<polygon fill="black" stroke="black" points="567.17,-74.72 575.59,-67.69 571.98,-73.37 576.8,-72.02 576.8,-72.02 576.8,-72.02 571.98,-73.37 578.01,-76.36 567.17,-74.72 567.17,-74.72"/>
</g>
<!-- calcipy.tasks -->
<g id="node19" class="node">
<title>calcipy.tasks</title>
<polygon fill="none" stroke="black" points="671,-108 585,-108 585,-72 671,-72 671,-108"/>
<text text-anchor="middle" x="628" y="-86.3" font-family="Times,serif" font-size="14.00">calcipy.tasks</text>
</g>
<!-- calcipy.scripts&#45;&gt;calcipy.tasks -->
<g id="edge8" class="edge">
<title>calcipy.scripts&#45;&gt;calcipy.tasks</title>
<path fill="none" stroke="black" d="M807.75,-33.01C774.62,-42.89 729.07,-56.63 680.76,-71.79"/>
<polygon fill="black" stroke="black" points="671.39,-74.74 679.58,-67.44 676.16,-73.24 680.93,-71.74 680.93,-71.74 680.93,-71.74 676.16,-73.24 682.28,-76.03 671.39,-74.74 671.39,-74.74"/>
</g>
<!-- calcipy.tasks.all_tasks -->
<g id="node20" class="node">
<title>calcipy.tasks.all_tasks</title>
<polygon fill="none" stroke="black" points="826.5,-108 689.5,-108 689.5,-72 826.5,-72 826.5,-108"/>
<text text-anchor="middle" x="758" y="-86.3" font-family="Times,serif" font-size="14.00">calcipy.tasks.all_tasks</text>
</g>
<!-- calcipy.scripts&#45;&gt;calcipy.tasks.all_tasks -->
<g id="edge9" class="edge">
<title>calcipy.scripts&#45;&gt;calcipy.tasks.all_tasks</title>
<path fill="none" stroke="black" d="M831.02,-36.3C818.66,-45.22 803.42,-56.22 790.07,-65.86"/>
<polygon fill="black" stroke="black" points="782.04,-71.65 787.51,-62.15 786.09,-68.73 790.15,-65.8 790.15,-65.8 790.15,-65.8 786.09,-68.73 792.78,-69.45 782.04,-71.65 782.04,-71.65"/>
</g>
<!-- calcipy.tasks.defaults -->
<g id="node22" class="node">
<title>calcipy.tasks.defaults</title>
<polygon fill="none" stroke="black" points="1025,-180 893,-180 893,-144 1025,-144 1025,-180"/>
<text text-anchor="middle" x="959" y="-158.3" font-family="Times,serif" font-size="14.00">calcipy.tasks.defaults</text>
</g>
<!-- calcipy.scripts&#45;&gt;calcipy.tasks.defaults -->
<g id="edge10" class="edge">
<title>calcipy.scripts&#45;&gt;calcipy.tasks.defaults</title>
<path fill="none" stroke="black" d="M854.81,-36.3C855.42,-55.48 858.94,-86.53 874,-108 882.77,-120.5 895.51,-130.65 908.48,-138.61"/>
<polygon fill="black" stroke="black" points="917,-143.52 906.09,-142.42 912.66,-141.02 908.33,-138.52 908.33,-138.52 908.33,-138.52 912.66,-141.02 910.58,-134.62 917,-143.52 917,-143.52"/>
</g>
<!-- calcipy.tasks.lint -->
<g id="node24" class="node">
<title>calcipy.tasks.lint</title>
<polygon fill="none" stroke="black" points="990.5,-108 883.5,-108 883.5,-72 990.5,-72 990.5,-108"/>
<text text-anchor="middle" x="937" y="-86.3" font-family="Times,serif" font-size="14.00">calcipy.tasks.lint</text>
</g>
<!-- calcipy.scripts&#45;&gt;calcipy.tasks.lint -->
<g id="edge11" class="edge">
<title>calcipy.scripts&#45;&gt;calcipy.tasks.lint</title>
<path fill="none" stroke="black" d="M875.27,-36.3C885.52,-45.05 898.12,-55.81 909.25,-65.31"/>
<polygon fill="black" stroke="black" points="916.68,-71.65 906.15,-68.58 912.88,-68.41 909.07,-65.16 909.07,-65.16 909.07,-65.16 912.88,-68.41 912,-61.74 916.68,-71.65 916.68,-71.65"/>
</g>
<!-- calcipy.tasks.tags -->
<g id="node28" class="node">
<title>calcipy.tasks.tags</title>
<polygon fill="none" stroke="black" points="1119.5,-108 1008.5,-108 1008.5,-72 1119.5,-72 1119.5,-108"/>
<text text-anchor="middle" x="1064" y="-86.3" font-family="Times,serif" font-size="14.00">calcipy.tasks.tags</text>
</g>
<!-- calcipy.scripts&#45;&gt;calcipy.tasks.tags -->
<g id="edge12" class="edge">
<title>calcipy.scripts&#45;&gt;calcipy.tasks.tags</title>
<path fill="none" stroke="black" d="M902.43,-34.88C932.13,-44.83 970.71,-57.76 1002.73,-68.48"/>
<polygon fill="black" stroke="black" points="1012,-71.58 1001.09,-72.67 1007.26,-70 1002.52,-68.41 1002.52,-68.41 1002.52,-68.41 1007.26,-70 1003.95,-64.14 1012,-71.58 1012,-71.58"/>
</g>
<!-- calcipy.tasks.types -->
<g id="node30" class="node">
<title>calcipy.tasks.types</title>
<polygon fill="none" stroke="black" points="1256,-108 1138,-108 1138,-72 1256,-72 1256,-108"/>
<text text-anchor="middle" x="1197" y="-86.3" font-family="Times,serif" font-size="14.00">calcipy.tasks.types</text>
</g>
<!-- calcipy.scripts&#45;&gt;calcipy.tasks.types -->
<g id="edge13" class="edge">
<title>calcipy.scripts&#45;&gt;calcipy.tasks.types</title>
<path fill="none" stroke="black" d="M902.49,-27.48C955.1,-37.04 1042.64,-53.43 1127.99,-72.06"/>
<polygon fill="black" stroke="black" points="1137.58,-74.16 1126.84,-76.41 1132.69,-73.09 1127.81,-72.02 1127.81,-72.02 1127.81,-72.02 1132.69,-73.09 1128.77,-67.62 1137.58,-74.16 1137.58,-74.16"/>
</g>
<!-- calcipy.tasks.all_tasks&#45;&gt;calcipy.tasks.defaults -->
<g id="edge14" class="edge">
<title>calcipy.tasks.all_tasks&#45;&gt;calcipy.tasks.defaults</title>
<path fill="none" stroke="black" d="M808.2,-108.48C836.01,-118.17 870.73,-130.26 899.85,-140.4"/>
<polygon fill="black" stroke="black" points="909.09,-143.62 898.17,-144.58 904.37,-141.97 899.65,-140.33 899.65,-140.33 899.65,-140.33 904.37,-141.97 901.13,-136.08 909.09,-143.62 909.09,-143.62"/>
</g>
<!-- calcipy.tasks.cl -->
<g id="node21" class="node">
<title>calcipy.tasks.cl</title>
<polygon fill="none" stroke="black" points="2759.5,-36 2660.5,-36 2660.5,0 2759.5,0 2759.5,-36"/>
<text text-anchor="middle" x="2710" y="-14.3" font-family="Times,serif" font-size="14.00">calcipy.tasks.cl</text>
</g>
<!-- calcipy.tasks.doc -->
<g id="node23" class="node">
<title>calcipy.tasks.doc</title>
<polygon fill="none" stroke="black" points="2886.5,-36 2777.5,-36 2777.5,0 2886.5,0 2886.5,-36"/>
<text text-anchor="middle" x="2832" y="-14.3" font-family="Times,serif" font-size="14.00">calcipy.tasks.doc</text>
</g>
<!-- calcipy.tasks.nox -->
<g id="node25" class="node">
<title>calcipy.tasks.nox</title>
<polygon fill="none" stroke="black" points="3015,-36 2905,-36 2905,0 3015,0 3015,-36"/>
<text text-anchor="middle" x="2960" y="-14.3" font-family="Times,serif" font-size="14.00">calcipy.tasks.nox</text>
</g>
<!-- calcipy.tasks.pack -->
<g id="node26" class="node">
<title>calcipy.tasks.pack</title>
<polygon fill="none" stroke="black" points="3148.5,-36 3033.5,-36 3033.5,0 3148.5,0 3148.5,-36"/>
<text text-anchor="middle" x="3091" y="-14.3" font-family="Times,serif" font-size="14.00">calcipy.tasks.pack</text>
</g>
<!-- calcipy.tasks.stale -->
<g id="node27" class="node">
<title>calcipy.tasks.stale</title>
<polygon fill="none" stroke="black" points="3281,-36 3167,-36 3167,0 3281,0 3281,-36"/>
<text text-anchor="middle" x="3224" y="-14.3" font-family="Times,serif" font-size="14.00">calcipy.tasks.stale</text>
</g>
<!-- calcipy.tasks.tags&#45;&gt;calcipy.tasks.defaults -->
<g id="edge15" class="edge">
<title>calcipy.tasks.tags&#45;&gt;calcipy.tasks.defaults</title>
<path fill="none" stroke="black" d="M1037.77,-108.48C1024.27,-117.49 1007.64,-128.58 993.14,-138.24"/>
<polygon fill="black" stroke="black" points="984.89,-143.74 990.72,-134.45 989.05,-140.97 993.21,-138.19 993.21,-138.19 993.21,-138.19 989.05,-140.97 995.71,-141.94 984.89,-143.74 984.89,-143.74"/>
</g>
<!-- calcipy.tasks.test -->
<g id="node29" class="node">
<title>calcipy.tasks.test</title>
<polygon fill="none" stroke="black" points="1382,-108 1274,-108 1274,-72 1382,-72 1382,-108"/>
<text text-anchor="middle" x="1328" y="-86.3" font-family="Times,serif" font-size="14.00">calcipy.tasks.test</text>
</g>
<!-- calcipy.tasks.test&#45;&gt;calcipy.tasks.defaults -->
<g id="edge16" class="edge">
<title>calcipy.tasks.test&#45;&gt;calcipy.tasks.defaults</title>
<path fill="none" stroke="black" d="M1273.78,-105.97C1270.82,-106.68 1267.88,-107.36 1265,-108 1187.17,-125.2 1097.18,-140.21 1035.03,-149.82"/>
<polygon fill="black" stroke="black" points="1025.3,-151.32 1034.5,-145.35 1030.24,-150.56 1035.19,-149.8 1035.19,-149.8 1035.19,-149.8 1030.24,-150.56 1035.87,-154.25 1025.3,-151.32 1025.3,-151.32"/>
</g>
</g>
</svg>
