<?xml version="1.0" encoding="UTF-8" standalone="no"?>
<!DOCTYPE svg PUBLIC "-//W3C//DTD SVG 1.1//EN"
 "http://www.w3.org/Graphics/SVG/1.1/DTD/svg11.dtd">
<!-- Generated by graphviz version 11.0.0 (20240428.1522)
 -->
<!-- Title: packages Pages: 1 -->
<svg width="2161pt" height="404pt"
 viewBox="0.00 0.00 2160.92 404.00" xmlns="http://www.w3.org/2000/svg" xmlns:xlink="http://www.w3.org/1999/xlink">
<g id="graph0" class="graph" transform="scale(1 1) rotate(0) translate(4 400)">
<title>packages</title>
<polygon fill="white" stroke="none" points="-4,4 -4,-400 2156.92,-400 2156.92,4 -4,4"/>
<!-- calcipy -->
<g id="node1" class="node">
<title>calcipy</title>
<polygon fill="none" stroke="black" points="2004.42,-252 1949.42,-252 1949.42,-216 2004.42,-216 2004.42,-252"/>
<text text-anchor="middle" x="1976.92" y="-228.95" font-family="Times,serif" font-size="14.00">calcipy</text>
</g>
<!-- calcipy._runtime_type_check_setup -->
<g id="node2" class="node">
<title>calcipy._runtime_type_check_setup</title>
<polygon fill="none" stroke="black" points="2082.42,-324 1871.42,-324 1871.42,-288 2082.42,-288 2082.42,-324"/>
<text text-anchor="middle" x="1976.92" y="-300.95" font-family="Times,serif" font-size="14.00">calcipy._runtime_type_check_setup</text>
</g>
<!-- calcipy&#45;&gt;calcipy._runtime_type_check_setup -->
<g id="edge1" class="edge">
<title>calcipy&#45;&gt;calcipy._runtime_type_check_setup</title>
<path fill="none" stroke="black" d="M1976.92,-252.3C1976.92,-259.68 1976.92,-268.48 1976.92,-276.75"/>
<polygon fill="black" stroke="black" points="1976.92,-286.68 1972.42,-276.68 1976.92,-282.9 1976.92,-276.68 1976.92,-276.68 1976.92,-276.68 1976.92,-282.9 1981.42,-276.68 1976.92,-286.68"/>
</g>
<!-- calcipy.can_skip -->
<g id="node3" class="node">
<title>calcipy.can_skip</title>
<polygon fill="none" stroke="black" points="2128.92,-252 2022.92,-252 2022.92,-216 2128.92,-216 2128.92,-252"/>
<text text-anchor="middle" x="2075.92" y="-228.95" font-family="Times,serif" font-size="14.00">calcipy.can_skip</text>
</g>
<!-- calcipy.check_for_stale_packages -->
<g id="node4" class="node">
<title>calcipy.check_for_stale_packages</title>
<polygon fill="none" stroke="black" points="1540.79,-108 1341.04,-108 1341.04,-72 1540.79,-72 1540.79,-108"/>
<text text-anchor="middle" x="1440.92" y="-84.95" font-family="Times,serif" font-size="14.00">calcipy.check_for_stale_packages</text>
</g>
<!-- calcipy.check_for_stale_packages._check_for_stale_packages -->
<g id="node5" class="node">
<title>calcipy.check_for_stale_packages._check_for_stale_packages</title>
<polygon fill="none" stroke="black" points="2152.92,-180 1800.92,-180 1800.92,-144 2152.92,-144 2152.92,-180"/>
<text text-anchor="middle" x="1976.92" y="-156.95" font-family="Times,serif" font-size="14.00">calcipy.check_for_stale_packages._check_for_stale_packages</text>
</g>
<!-- calcipy.check_for_stale_packages&#45;&gt;calcipy.check_for_stale_packages._check_for_stale_packages -->
<g id="edge2" class="edge">
<title>calcipy.check_for_stale_packages&#45;&gt;calcipy.check_for_stale_packages._check_for_stale_packages</title>
<path fill="none" stroke="black" d="M1541.22,-106.9C1543.81,-107.28 1546.38,-107.64 1548.92,-108 1636.73,-120.34 1734.89,-132.61 1815.04,-142.23"/>
<polygon fill="black" stroke="black" points="1824.51,-143.36 1814.05,-146.64 1820.76,-142.91 1814.59,-142.17 1814.59,-142.17 1814.59,-142.17 1820.76,-142.91 1815.12,-137.71 1824.51,-143.36"/>
</g>
<!-- calcipy.check_for_stale_packages._check_for_stale_packages&#45;&gt;calcipy -->
<g id="edge3" class="edge">
<title>calcipy.check_for_stale_packages._check_for_stale_packages&#45;&gt;calcipy</title>
<path fill="none" stroke="black" d="M1976.92,-180.3C1976.92,-187.68 1976.92,-196.48 1976.92,-204.75"/>
<polygon fill="black" stroke="black" points="1976.92,-214.68 1972.42,-204.68 1976.92,-210.9 1976.92,-204.68 1976.92,-204.68 1976.92,-204.68 1976.92,-210.9 1981.42,-204.68 1976.92,-214.68"/>
</g>
<!-- calcipy.check_for_stale_packages._check_for_stale_packages&#45;&gt;calcipy.can_skip -->
<g id="edge4" class="edge">
<title>calcipy.check_for_stale_packages._check_for_stale_packages&#45;&gt;calcipy.can_skip</title>
<path fill="none" stroke="black" d="M2001.64,-180.48C2014.02,-189.24 2029.18,-199.96 2042.58,-209.42"/>
<polygon fill="black" stroke="black" points="2050.51,-215.04 2039.75,-212.94 2047.42,-212.85 2042.35,-209.26 2042.35,-209.26 2042.35,-209.26 2047.42,-212.85 2044.94,-205.59 2050.51,-215.04"/>
</g>
<!-- calcipy.cli -->
<g id="node6" class="node">
<title>calcipy.cli</title>
<polygon fill="none" stroke="black" points="782.67,-252 711.17,-252 711.17,-216 782.67,-216 782.67,-252"/>
<text text-anchor="middle" x="746.92" y="-228.95" font-family="Times,serif" font-size="14.00">calcipy.cli</text>
</g>
<!-- calcipy.collection -->
<g id="node9" class="node">
<title>calcipy.collection</title>
<polygon fill="none" stroke="black" points="485.54,-324 374.29,-324 374.29,-288 485.54,-288 485.54,-324"/>
<text text-anchor="middle" x="429.92" y="-300.95" font-family="Times,serif" font-size="14.00">calcipy.collection</text>
</g>
<!-- calcipy.cli&#45;&gt;calcipy.collection -->
<g id="edge5" class="edge">
<title>calcipy.cli&#45;&gt;calcipy.collection</title>
<path fill="none" stroke="black" d="M710.75,-241.95C663.6,-251.14 578.32,-268.24 496.46,-287.45"/>
<polygon fill="black" stroke="black" points="486.91,-289.71 495.6,-283.03 490.59,-288.84 496.64,-287.41 496.64,-287.41 496.64,-287.41 490.59,-288.84 497.67,-291.79 486.91,-289.71"/>
</g>
<!-- calcipy.invoke_helpers -->
<g id="node16" class="node">
<title>calcipy.invoke_helpers</title>
<polygon fill="none" stroke="black" points="919.17,-396 778.67,-396 778.67,-360 919.17,-360 919.17,-396"/>
<text text-anchor="middle" x="848.92" y="-372.95" font-family="Times,serif" font-size="14.00">calcipy.invoke_helpers</text>
</g>
<!-- calcipy.cli&#45;&gt;calcipy.invoke_helpers -->
<g id="edge6" class="edge">
<title>calcipy.cli&#45;&gt;calcipy.invoke_helpers</title>
<path fill="none" stroke="black" d="M754.89,-252.21C763.86,-270.77 779.47,-300.75 796.92,-324 804.31,-333.84 813.42,-343.72 821.94,-352.23"/>
<polygon fill="black" stroke="black" points="828.98,-359.08 818.67,-355.33 826.27,-356.44 821.81,-352.11 821.81,-352.11 821.81,-352.11 826.27,-356.44 824.95,-348.88 828.98,-359.08"/>
</g>
<!-- calcipy.code_tag_collector -->
<g id="node7" class="node">
<title>calcipy.code_tag_collector</title>
<polygon fill="none" stroke="black" points="219.29,-252 58.54,-252 58.54,-216 219.29,-216 219.29,-252"/>
<text text-anchor="middle" x="138.92" y="-228.95" font-family="Times,serif" font-size="14.00">calcipy.code_tag_collector</text>
</g>
<!-- calcipy.code_tag_collector._collector -->
<g id="node8" class="node">
<title>calcipy.code_tag_collector._collector</title>
<polygon fill="none" stroke="black" points="240.79,-324 23.04,-324 23.04,-288 240.79,-288 240.79,-324"/>
<text text-anchor="middle" x="131.92" y="-300.95" font-family="Times,serif" font-size="14.00">calcipy.code_tag_collector._collector</text>
</g>
<!-- calcipy.code_tag_collector&#45;&gt;calcipy.code_tag_collector._collector -->
<g id="edge7" class="edge">
<title>calcipy.code_tag_collector&#45;&gt;calcipy.code_tag_collector._collector</title>
<path fill="none" stroke="black" d="M137.19,-252.3C136.45,-259.68 135.57,-268.48 134.74,-276.75"/>
<polygon fill="black" stroke="black" points="133.75,-286.68 130.27,-276.29 134.13,-282.92 134.74,-276.73 134.74,-276.73 134.74,-276.73 134.13,-282.92 139.22,-277.18 133.75,-286.68"/>
</g>
<!-- calcipy.dot_dict -->
<g id="node10" class="node">
<title>calcipy.dot_dict</title>
<polygon fill="none" stroke="black" points="1688.04,-36 1585.79,-36 1585.79,0 1688.04,0 1688.04,-36"/>
<text text-anchor="middle" x="1636.92" y="-12.95" font-family="Times,serif" font-size="14.00">calcipy.dot_dict</text>
</g>
<!-- calcipy.dot_dict._dot_dict -->
<g id="node11" class="node">
<title>calcipy.dot_dict._dot_dict</title>
<polygon fill="none" stroke="black" points="1715.42,-108 1558.42,-108 1558.42,-72 1715.42,-72 1715.42,-108"/>
<text text-anchor="middle" x="1636.92" y="-84.95" font-family="Times,serif" font-size="14.00">calcipy.dot_dict._dot_dict</text>
</g>
<!-- calcipy.dot_dict&#45;&gt;calcipy.dot_dict._dot_dict -->
<g id="edge8" class="edge">
<title>calcipy.dot_dict&#45;&gt;calcipy.dot_dict._dot_dict</title>
<path fill="none" stroke="black" d="M1636.92,-36.3C1636.92,-43.68 1636.92,-52.48 1636.92,-60.75"/>
<polygon fill="black" stroke="black" points="1636.92,-70.68 1632.42,-60.68 1636.92,-66.9 1636.92,-60.68 1636.92,-60.68 1636.92,-60.68 1636.92,-66.9 1641.42,-60.68 1636.92,-70.68"/>
</g>
<!-- calcipy.experiments -->
<g id="node12" class="node">
<title>calcipy.experiments</title>
<polygon fill="none" stroke="black" points="1611.29,-252 1486.54,-252 1486.54,-216 1611.29,-216 1611.29,-252"/>
<text text-anchor="middle" x="1548.92" y="-228.95" font-family="Times,serif" font-size="14.00">calcipy.experiments</text>
</g>
<!-- calcipy.experiments.bump_programmatically -->
<g id="node13" class="node">
<title>calcipy.experiments.bump_programmatically</title>
<polygon fill="none" stroke="black" points="1931.04,-252 1666.79,-252 1666.79,-216 1931.04,-216 1931.04,-252"/>
<text text-anchor="middle" x="1798.92" y="-228.95" font-family="Times,serif" font-size="14.00">calcipy.experiments.bump_programmatically</text>
</g>
<!-- calcipy.experiments.check_duplicate_test_names -->
<g id="node14" class="node">
<title>calcipy.experiments.check_duplicate_test_names</title>
<polygon fill="none" stroke="black" points="1430.79,-252 1147.04,-252 1147.04,-216 1430.79,-216 1430.79,-252"/>
<text text-anchor="middle" x="1288.92" y="-228.95" font-family="Times,serif" font-size="14.00">calcipy.experiments.check_duplicate_test_names</text>
</g>
<!-- calcipy.file_search -->
<g id="node15" class="node">
<title>calcipy.file_search</title>
<polygon fill="none" stroke="black" points="347.54,-396 230.29,-396 230.29,-360 347.54,-360 347.54,-396"/>
<text text-anchor="middle" x="288.92" y="-372.95" font-family="Times,serif" font-size="14.00">calcipy.file_search</text>
</g>
<!-- calcipy.md_writer -->
<g id="node17" class="node">
<title>calcipy.md_writer</title>
<polygon fill="none" stroke="black" points="644.42,-252 529.42,-252 529.42,-216 644.42,-216 644.42,-252"/>
<text text-anchor="middle" x="586.92" y="-228.95" font-family="Times,serif" font-size="14.00">calcipy.md_writer</text>
</g>
<!-- calcipy.md_writer._writer -->
<g id="node18" class="node">
<title>calcipy.md_writer._writer</title>
<polygon fill="none" stroke="black" points="660.42,-324 503.42,-324 503.42,-288 660.42,-288 660.42,-324"/>
<text text-anchor="middle" x="581.92" y="-300.95" font-family="Times,serif" font-size="14.00">calcipy.md_writer._writer</text>
</g>
<!-- calcipy.md_writer&#45;&gt;calcipy.md_writer._writer -->
<g id="edge9" class="edge">
<title>calcipy.md_writer&#45;&gt;calcipy.md_writer._writer</title>
<path fill="none" stroke="black" d="M585.68,-252.3C585.16,-259.68 584.53,-268.48 583.94,-276.75"/>
<polygon fill="black" stroke="black" points="583.23,-286.68 579.45,-276.39 583.5,-282.91 583.94,-276.71 583.94,-276.71 583.94,-276.71 583.5,-282.91 588.43,-277.03 583.23,-286.68"/>
</g>
<!-- calcipy.md_writer._writer&#45;&gt;calcipy.file_search -->
<g id="edge10" class="edge">
<title>calcipy.md_writer._writer&#45;&gt;calcipy.file_search</title>
<path fill="none" stroke="black" d="M508.74,-324.48C462.86,-335.44 404.05,-349.49 358.81,-360.3"/>
<polygon fill="black" stroke="black" points="349.09,-362.62 357.77,-355.92 352.77,-361.75 358.82,-360.3 358.82,-360.3 358.82,-360.3 352.77,-361.75 359.86,-364.68 349.09,-362.62"/>
</g>
<!-- calcipy.md_writer._writer&#45;&gt;calcipy.invoke_helpers -->
<g id="edge11" class="edge">
<title>calcipy.md_writer._writer&#45;&gt;calcipy.invoke_helpers</title>
<path fill="none" stroke="black" d="M648.6,-324.48C686.02,-334.29 732.87,-346.57 771.85,-356.79"/>
<polygon fill="black" stroke="black" points="781.44,-359.31 770.63,-361.13 777.78,-358.35 771.77,-356.77 771.77,-356.77 771.77,-356.77 777.78,-358.35 772.91,-352.42 781.44,-359.31"/>
</g>
<!-- calcipy.noxfile -->
<g id="node19" class="node">
<title>calcipy.noxfile</title>
<polygon fill="none" stroke="black" points="1854.04,-36 1757.79,-36 1757.79,0 1854.04,0 1854.04,-36"/>
<text text-anchor="middle" x="1805.92" y="-12.95" font-family="Times,serif" font-size="14.00">calcipy.noxfile</text>
</g>
<!-- calcipy.noxfile._noxfile -->
<g id="node20" class="node">
<title>calcipy.noxfile._noxfile</title>
<polygon fill="none" stroke="black" points="1878.42,-108 1733.42,-108 1733.42,-72 1878.42,-72 1878.42,-108"/>
<text text-anchor="middle" x="1805.92" y="-84.95" font-family="Times,serif" font-size="14.00">calcipy.noxfile._noxfile</text>
</g>
<!-- calcipy.noxfile&#45;&gt;calcipy.noxfile._noxfile -->
<g id="edge12" class="edge">
<title>calcipy.noxfile&#45;&gt;calcipy.noxfile._noxfile</title>
<path fill="none" stroke="black" d="M1805.92,-36.3C1805.92,-43.68 1805.92,-52.48 1805.92,-60.75"/>
<polygon fill="black" stroke="black" points="1805.92,-70.68 1801.42,-60.68 1805.92,-66.9 1805.92,-60.68 1805.92,-60.68 1805.92,-60.68 1805.92,-66.9 1810.42,-60.68 1805.92,-70.68"/>
</g>
<!-- calcipy.scripts -->
<g id="node21" class="node">
<title>calcipy.scripts</title>
<polygon fill="none" stroke="black" points="773.54,-108 680.29,-108 680.29,-72 773.54,-72 773.54,-108"/>
<text text-anchor="middle" x="726.92" y="-84.95" font-family="Times,serif" font-size="14.00">calcipy.scripts</text>
</g>
<!-- calcipy.scripts&#45;&gt;calcipy.cli -->
<g id="edge13" class="edge">
<title>calcipy.scripts&#45;&gt;calcipy.cli</title>
<path fill="none" stroke="black" d="M717.88,-108.35C709.66,-126.5 699.93,-155.68 707.92,-180 711.08,-189.62 716.72,-198.93 722.76,-207"/>
<polygon fill="black" stroke="black" points="728.86,-214.57 719.08,-209.61 726.48,-211.63 722.58,-206.78 722.58,-206.78 722.58,-206.78 726.48,-211.63 726.09,-203.96 728.86,-214.57"/>
</g>
<!-- calcipy.scripts&#45;&gt;calcipy.collection -->
<g id="edge14" class="edge">
<title>calcipy.scripts&#45;&gt;calcipy.collection</title>
<path fill="none" stroke="black" d="M679.96,-95.88C640.6,-101.9 584.48,-115.15 543.92,-144 494.89,-178.87 459.47,-241.69 442.07,-277.69"/>
<polygon fill="black" stroke="black" points="437.96,-286.41 438.15,-275.44 439.57,-282.98 442.22,-277.36 442.22,-277.36 442.22,-277.36 439.57,-282.98 446.29,-279.27 437.96,-286.41"/>
</g>
<!-- calcipy.tasks -->
<g id="node22" class="node">
<title>calcipy.tasks</title>
<polygon fill="none" stroke="black" points="918.42,-180 833.42,-180 833.42,-144 918.42,-144 918.42,-180"/>
<text text-anchor="middle" x="875.92" y="-156.95" font-family="Times,serif" font-size="14.00">calcipy.tasks</text>
</g>
<!-- calcipy.scripts&#45;&gt;calcipy.tasks -->
<g id="edge15" class="edge">
<title>calcipy.scripts&#45;&gt;calcipy.tasks</title>
<path fill="none" stroke="black" d="M764.13,-108.48C783.76,-117.71 808.05,-129.11 828.96,-138.94"/>
<polygon fill="black" stroke="black" points="837.82,-143.1 826.85,-142.92 834.39,-141.49 828.77,-138.85 828.77,-138.85 828.77,-138.85 834.39,-141.49 830.68,-134.78 837.82,-143.1"/>
</g>
<!-- calcipy.tasks.all_tasks -->
<g id="node23" class="node">
<title>calcipy.tasks.all_tasks</title>
<polygon fill="none" stroke="black" points="458.92,-180 322.92,-180 322.92,-144 458.92,-144 458.92,-180"/>
<text text-anchor="middle" x="390.92" y="-156.95" font-family="Times,serif" font-size="14.00">calcipy.tasks.all_tasks</text>
</g>
<!-- calcipy.scripts&#45;&gt;calcipy.tasks.all_tasks -->
<g id="edge16" class="edge">
<title>calcipy.scripts&#45;&gt;calcipy.tasks.all_tasks</title>
<path fill="none" stroke="black" d="M679.84,-100.81C625.44,-112.14 535.04,-130.97 469.83,-144.56"/>
<polygon fill="black" stroke="black" points="460.38,-146.53 469.25,-140.08 464.08,-145.76 470.17,-144.49 470.17,-144.49 470.17,-144.49 464.08,-145.76 471.09,-148.89 460.38,-146.53"/>
</g>
<!-- calcipy.tasks.cl -->
<g id="node24" class="node">
<title>calcipy.tasks.cl</title>
<polygon fill="none" stroke="black" points="815.17,-180 716.67,-180 716.67,-144 815.17,-144 815.17,-180"/>
<text text-anchor="middle" x="765.92" y="-156.95" font-family="Times,serif" font-size="14.00">calcipy.tasks.cl</text>
</g>
<!-- calcipy.scripts&#45;&gt;calcipy.tasks.cl -->
<g id="edge17" class="edge">
<title>calcipy.scripts&#45;&gt;calcipy.tasks.cl</title>
<path fill="none" stroke="black" d="M736.56,-108.3C740.9,-116.1 746.13,-125.49 750.97,-134.17"/>
<polygon fill="black" stroke="black" points="755.8,-142.83 747,-136.29 753.95,-139.53 750.93,-134.1 750.93,-134.1 750.93,-134.1 753.95,-139.53 754.86,-131.91 755.8,-142.83"/>
</g>
<!-- calcipy.tasks.defaults -->
<g id="node25" class="node">
<title>calcipy.tasks.defaults</title>
<polygon fill="none" stroke="black" points="420.67,-252 289.17,-252 289.17,-216 420.67,-216 420.67,-252"/>
<text text-anchor="middle" x="354.92" y="-228.95" font-family="Times,serif" font-size="14.00">calcipy.tasks.defaults</text>
</g>
<!-- calcipy.scripts&#45;&gt;calcipy.tasks.defaults -->
<g id="edge18" class="edge">
<title>calcipy.scripts&#45;&gt;calcipy.tasks.defaults</title>
<path fill="none" stroke="black" d="M680.09,-93.58C577.04,-99.74 337.82,-116.83 313.92,-144 297.74,-162.39 312.72,-188.24 328.93,-207.34"/>
<polygon fill="black" stroke="black" points="335.55,-214.69 325.51,-210.27 333.02,-211.88 328.86,-207.26 328.86,-207.26 328.86,-207.26 333.02,-211.88 332.2,-204.25 335.55,-214.69"/>
</g>
<!-- calcipy.tasks.doc -->
<g id="node26" class="node">
<title>calcipy.tasks.doc</title>
<polygon fill="none" stroke="black" points="661.04,-180 552.79,-180 552.79,-144 661.04,-144 661.04,-180"/>
<text text-anchor="middle" x="606.92" y="-156.95" font-family="Times,serif" font-size="14.00">calcipy.tasks.doc</text>
</g>
<!-- calcipy.scripts&#45;&gt;calcipy.tasks.doc -->
<g id="edge19" class="edge">
<title>calcipy.scripts&#45;&gt;calcipy.tasks.doc</title>
<path fill="none" stroke="black" d="M696.95,-108.48C681.51,-117.49 662.5,-128.58 645.93,-138.24"/>
<polygon fill="black" stroke="black" points="637.56,-143.13 643.93,-134.2 640.83,-141.22 646.2,-138.09 646.2,-138.09 646.2,-138.09 640.83,-141.22 648.46,-141.97 637.56,-143.13"/>
</g>
<!-- calcipy.tasks.lint -->
<g id="node28" class="node">
<title>calcipy.tasks.lint</title>
<polygon fill="none" stroke="black" points="1170.29,-180 1063.54,-180 1063.54,-144 1170.29,-144 1170.29,-180"/>
<text text-anchor="middle" x="1116.92" y="-156.95" font-family="Times,serif" font-size="14.00">calcipy.tasks.lint</text>
</g>
<!-- calcipy.scripts&#45;&gt;calcipy.tasks.lint -->
<g id="edge20" class="edge">
<title>calcipy.scripts&#45;&gt;calcipy.tasks.lint</title>
<path fill="none" stroke="black" d="M774.04,-97.09C835.73,-105.39 947.38,-121.6 1052.27,-143.77"/>
<polygon fill="black" stroke="black" points="1061.86,-145.82 1051.14,-148.13 1058.16,-145.03 1052.08,-143.73 1052.08,-143.73 1052.08,-143.73 1058.16,-145.03 1053.02,-139.33 1061.86,-145.82"/>
</g>
<!-- calcipy.tasks.pack -->
<g id="node30" class="node">
<title>calcipy.tasks.pack</title>
<polygon fill="none" stroke="black" points="1651.04,-180 1536.79,-180 1536.79,-144 1651.04,-144 1651.04,-180"/>
<text text-anchor="middle" x="1593.92" y="-156.95" font-family="Times,serif" font-size="14.00">calcipy.tasks.pack</text>
</g>
<!-- calcipy.scripts&#45;&gt;calcipy.tasks.pack -->
<g id="edge21" class="edge">
<title>calcipy.scripts&#45;&gt;calcipy.tasks.pack</title>
<path fill="none" stroke="black" d="M773.68,-93.9C887.69,-101.08 1189.01,-120.83 1439.92,-144 1468.05,-146.6 1499.02,-149.93 1525.76,-152.95"/>
<polygon fill="black" stroke="black" points="1535.35,-154.04 1524.9,-157.38 1531.59,-153.61 1525.41,-152.91 1525.41,-152.91 1525.41,-152.91 1531.59,-153.61 1525.92,-148.44 1535.35,-154.04"/>
</g>
<!-- calcipy.tasks.tags -->
<g id="node32" class="node">
<title>calcipy.tasks.tags</title>
<polygon fill="none" stroke="black" points="267.17,-180 156.67,-180 156.67,-144 267.17,-144 267.17,-180"/>
<text text-anchor="middle" x="211.92" y="-156.95" font-family="Times,serif" font-size="14.00">calcipy.tasks.tags</text>
</g>
<!-- calcipy.scripts&#45;&gt;calcipy.tasks.tags -->
<g id="edge22" class="edge">
<title>calcipy.scripts&#45;&gt;calcipy.tasks.tags</title>
<path fill="none" stroke="black" d="M680.08,-94.65C598.53,-101.44 425.34,-117.73 280.92,-144 280.1,-144.15 279.27,-144.3 278.45,-144.46"/>
<polygon fill="black" stroke="black" points="268.72,-146.43 277.63,-140.03 272.43,-145.68 278.52,-144.44 278.52,-144.44 278.52,-144.44 272.43,-145.68 279.42,-148.85 268.72,-146.43"/>
</g>
<!-- calcipy.tasks.test -->
<g id="node33" class="node">
<title>calcipy.tasks.test</title>
<polygon fill="none" stroke="black" points="1430.67,-180 1323.17,-180 1323.17,-144 1430.67,-144 1430.67,-180"/>
<text text-anchor="middle" x="1376.92" y="-156.95" font-family="Times,serif" font-size="14.00">calcipy.tasks.test</text>
</g>
<!-- calcipy.scripts&#45;&gt;calcipy.tasks.test -->
<g id="edge23" class="edge">
<title>calcipy.scripts&#45;&gt;calcipy.tasks.test</title>
<path fill="none" stroke="black" d="M773.79,-92.4C872.14,-95.94 1107.25,-107.59 1311.99,-143.64"/>
<polygon fill="black" stroke="black" points="1321.75,-145.38 1311.11,-148.05 1318.02,-144.71 1311.9,-143.62 1311.9,-143.62 1311.9,-143.62 1318.02,-144.71 1312.69,-139.19 1321.75,-145.38"/>
</g>
<!-- calcipy.tasks.types -->
<g id="node34" class="node">
<title>calcipy.tasks.types</title>
<polygon fill="none" stroke="black" points="1305.54,-180 1188.29,-180 1188.29,-144 1305.54,-144 1305.54,-180"/>
<text text-anchor="middle" x="1246.92" y="-156.95" font-family="Times,serif" font-size="14.00">calcipy.tasks.types</text>
</g>
<!-- calcipy.scripts&#45;&gt;calcipy.tasks.types -->
<g id="edge24" class="edge">
<title>calcipy.scripts&#45;&gt;calcipy.tasks.types</title>
<path fill="none" stroke="black" d="M773.74,-94.5C854.2,-100.94 1024.02,-116.43 1177.06,-143.8"/>
<polygon fill="black" stroke="black" points="1186.85,-145.57 1176.21,-148.22 1183.13,-144.9 1177.01,-143.79 1177.01,-143.79 1177.01,-143.79 1183.13,-144.9 1177.81,-139.36 1186.85,-145.57"/>
</g>
<!-- calcipy.tasks.all_tasks&#45;&gt;calcipy.cli -->
<g id="edge25" class="edge">
<title>calcipy.tasks.all_tasks&#45;&gt;calcipy.cli</title>
<path fill="none" stroke="black" d="M459.14,-176.41C529.84,-190.32 638.46,-211.67 700.05,-223.78"/>
<polygon fill="black" stroke="black" points="709.79,-225.7 699.1,-228.18 706.07,-224.97 699.97,-223.77 699.97,-223.77 699.97,-223.77 706.07,-224.97 700.84,-219.35 709.79,-225.7"/>
</g>
<!-- calcipy.tasks.all_tasks&#45;&gt;calcipy.collection -->
<g id="edge26" class="edge">
<title>calcipy.tasks.all_tasks&#45;&gt;calcipy.collection</title>
<path fill="none" stroke="black" d="M408.21,-180.48C416.51,-190.1 425.57,-202.76 429.92,-216 436.33,-235.54 436.08,-258.81 434.35,-276.66"/>
<polygon fill="black" stroke="black" points="433.17,-286.56 429.89,-276.1 433.62,-282.81 434.36,-276.63 434.36,-276.63 434.36,-276.63 433.62,-282.81 438.83,-277.16 433.17,-286.56"/>
</g>
<!-- calcipy.tasks.all_tasks&#45;&gt;calcipy.tasks.defaults -->
<g id="edge27" class="edge">
<title>calcipy.tasks.all_tasks&#45;&gt;calcipy.tasks.defaults</title>
<path fill="none" stroke="black" d="M382.02,-180.3C378.01,-188.1 373.18,-197.49 368.72,-206.17"/>
<polygon fill="black" stroke="black" points="364.27,-214.81 364.84,-203.86 366,-211.45 368.85,-205.92 368.85,-205.92 368.85,-205.92 366,-211.45 372.85,-207.98 364.27,-214.81"/>
</g>
<!-- calcipy.tasks.cl&#45;&gt;calcipy.cli -->
<g id="edge28" class="edge">
<title>calcipy.tasks.cl&#45;&gt;calcipy.cli</title>
<path fill="none" stroke="black" d="M761.22,-180.3C759.17,-187.85 756.72,-196.88 754.43,-205.32"/>
<polygon fill="black" stroke="black" points="751.88,-214.72 750.16,-203.89 752.87,-211.07 754.5,-205.07 754.5,-205.07 754.5,-205.07 752.87,-211.07 758.84,-206.25 751.88,-214.72"/>
</g>
<!-- calcipy.tasks.cl&#45;&gt;calcipy.invoke_helpers -->
<g id="edge29" class="edge">
<title>calcipy.tasks.cl&#45;&gt;calcipy.invoke_helpers</title>
<path fill="none" stroke="black" d="M775.1,-180.43C780.33,-190.66 786.83,-203.91 791.92,-216 811.25,-261.96 829.78,-317.02 840.22,-349.38"/>
<polygon fill="black" stroke="black" points="843.19,-358.67 835.86,-350.52 842.04,-355.07 840.15,-349.15 840.15,-349.15 840.15,-349.15 842.04,-355.07 844.43,-347.78 843.19,-358.67"/>
</g>
<!-- calcipy.tasks.executable_utils -->
<g id="node27" class="node">
<title>calcipy.tasks.executable_utils</title>
<polygon fill="none" stroke="black" points="1053.17,-252 876.67,-252 876.67,-216 1053.17,-216 1053.17,-252"/>
<text text-anchor="middle" x="964.92" y="-228.95" font-family="Times,serif" font-size="14.00">calcipy.tasks.executable_utils</text>
</g>
<!-- calcipy.tasks.cl&#45;&gt;calcipy.tasks.executable_utils -->
<g id="edge30" class="edge">
<title>calcipy.tasks.cl&#45;&gt;calcipy.tasks.executable_utils</title>
<path fill="none" stroke="black" d="M815.62,-180.48C842.79,-190.04 876.64,-201.95 905.23,-212"/>
<polygon fill="black" stroke="black" points="914.35,-215.21 903.43,-216.14 910.79,-213.96 904.92,-211.9 904.92,-211.9 904.92,-211.9 910.79,-213.96 906.41,-207.65 914.35,-215.21"/>
</g>
<!-- calcipy.tasks.defaults&#45;&gt;calcipy.collection -->
<g id="edge31" class="edge">
<title>calcipy.tasks.defaults&#45;&gt;calcipy.collection</title>
<path fill="none" stroke="black" d="M373.46,-252.3C382.47,-260.72 393.47,-270.98 403.36,-280.21"/>
<polygon fill="black" stroke="black" points="410.44,-286.82 400.06,-283.29 407.68,-284.24 403.13,-280 403.13,-280 403.13,-280 407.68,-284.24 406.2,-276.71 410.44,-286.82"/>
</g>
<!-- calcipy.tasks.doc&#45;&gt;calcipy.cli -->
<g id="edge32" class="edge">
<title>calcipy.tasks.doc&#45;&gt;calcipy.cli</title>
<path fill="none" stroke="black" d="M641.88,-180.48C660.23,-189.66 682.9,-200.99 702.48,-210.78"/>
<polygon fill="black" stroke="black" points="711.31,-215.19 700.35,-214.75 707.92,-213.5 702.36,-210.72 702.36,-210.72 702.36,-210.72 707.92,-213.5 704.38,-206.7 711.31,-215.19"/>
</g>
<!-- calcipy.tasks.doc&#45;&gt;calcipy.invoke_helpers -->
<g id="edge33" class="edge">
<title>calcipy.tasks.doc&#45;&gt;calcipy.invoke_helpers</title>
<path fill="none" stroke="black" d="M622.75,-180.49C651,-211.23 712.59,-276.2 770.92,-324 783.55,-334.35 798.19,-344.69 811.35,-353.45"/>
<polygon fill="black" stroke="black" points="819.6,-358.85 808.77,-357.14 816.43,-356.78 811.23,-353.37 811.23,-353.37 811.23,-353.37 816.43,-356.78 813.7,-349.61 819.6,-358.85"/>
</g>
<!-- calcipy.tasks.doc&#45;&gt;calcipy.md_writer -->
<g id="edge34" class="edge">
<title>calcipy.tasks.doc&#45;&gt;calcipy.md_writer</title>
<path fill="none" stroke="black" d="M601.97,-180.3C599.82,-187.85 597.24,-196.88 594.83,-205.32"/>
<polygon fill="black" stroke="black" points="592.14,-214.72 590.56,-203.87 593.18,-211.09 594.89,-205.11 594.89,-205.11 594.89,-205.11 593.18,-211.09 599.21,-206.35 592.14,-214.72"/>
</g>
<!-- calcipy.tasks.doc&#45;&gt;calcipy.tasks.executable_utils -->
<g id="edge35" class="edge">
<title>calcipy.tasks.doc&#45;&gt;calcipy.tasks.executable_utils</title>
<path fill="none" stroke="black" d="M661.29,-173.63C715.3,-184.19 799.37,-200.63 865.36,-213.53"/>
<polygon fill="black" stroke="black" points="875.01,-215.42 864.33,-217.92 871.3,-214.69 865.2,-213.5 865.2,-213.5 865.2,-213.5 871.3,-214.69 866.06,-209.08 875.01,-215.42"/>
</g>
<!-- calcipy.tasks.executable_utils&#45;&gt;calcipy.invoke_helpers -->
<g id="edge36" class="edge">
<title>calcipy.tasks.executable_utils&#45;&gt;calcipy.invoke_helpers</title>
<path fill="none" stroke="black" d="M950.69,-252.41C930.5,-277.14 893.36,-322.59 869.97,-351.23"/>
<polygon fill="black" stroke="black" points="863.67,-358.95 866.51,-348.35 866.06,-356.02 869.99,-351.2 869.99,-351.2 869.99,-351.2 866.06,-356.02 873.48,-354.05 863.67,-358.95"/>
</g>
<!-- calcipy.tasks.lint&#45;&gt;calcipy.cli -->
<g id="edge37" class="edge">
<title>calcipy.tasks.lint&#45;&gt;calcipy.cli</title>
<path fill="none" stroke="black" d="M1063.38,-177.81C1060.19,-178.58 1057.02,-179.32 1053.92,-180 962.62,-200.15 854.64,-217.25 794.14,-226.24"/>
<polygon fill="black" stroke="black" points="784.25,-227.69 793.49,-221.78 788,-227.14 794.15,-226.24 794.15,-226.24 794.15,-226.24 788,-227.14 794.8,-230.69 784.25,-227.69"/>
</g>
<!-- calcipy.tasks.lint&#45;&gt;calcipy.invoke_helpers -->
<g id="edge38" class="edge">
<title>calcipy.tasks.lint&#45;&gt;calcipy.invoke_helpers</title>
<path fill="none" stroke="black" d="M1109.3,-180.45C1100.2,-199.76 1083.48,-230.92 1061.92,-252 1014.88,-297.97 947.74,-333.73 901.47,-355.01"/>
<polygon fill="black" stroke="black" points="892.46,-359.09 899.71,-350.87 895.9,-357.53 901.57,-354.97 901.57,-354.97 901.57,-354.97 895.9,-357.53 903.42,-359.07 892.46,-359.09"/>
</g>
<!-- calcipy.tasks.lint&#45;&gt;calcipy.tasks.executable_utils -->
<g id="edge39" class="edge">
<title>calcipy.tasks.lint&#45;&gt;calcipy.tasks.executable_utils</title>
<path fill="none" stroke="black" d="M1078.95,-180.48C1058.93,-189.71 1034.16,-201.11 1012.82,-210.94"/>
<polygon fill="black" stroke="black" points="1003.77,-215.11 1010.97,-206.84 1007.2,-213.53 1012.85,-210.93 1012.85,-210.93 1012.85,-210.93 1007.2,-213.53 1014.73,-215.01 1003.77,-215.11"/>
</g>
<!-- calcipy.tasks.nox -->
<g id="node29" class="node">
<title>calcipy.tasks.nox</title>
<polygon fill="none" stroke="black" points="1045.42,-180 936.42,-180 936.42,-144 1045.42,-144 1045.42,-180"/>
<text text-anchor="middle" x="990.92" y="-156.95" font-family="Times,serif" font-size="14.00">calcipy.tasks.nox</text>
</g>
<!-- calcipy.tasks.nox&#45;&gt;calcipy.cli -->
<g id="edge40" class="edge">
<title>calcipy.tasks.nox&#45;&gt;calcipy.cli</title>
<path fill="none" stroke="black" d="M936.16,-178.71C893.3,-191.01 834.34,-207.92 793.68,-219.59"/>
<polygon fill="black" stroke="black" points="784.15,-222.32 792.52,-215.24 787.79,-221.28 793.76,-219.56 793.76,-219.56 793.76,-219.56 787.79,-221.28 795,-223.89 784.15,-222.32"/>
</g>
<!-- calcipy.tasks.nox&#45;&gt;calcipy.invoke_helpers -->
<g id="edge41" class="edge">
<title>calcipy.tasks.nox&#45;&gt;calcipy.invoke_helpers</title>
<path fill="none" stroke="black" d="M936.42,-180.43C907.8,-190.72 876.85,-204.02 867.92,-216 838.97,-254.82 840.35,-314.18 844.37,-348.94"/>
<polygon fill="black" stroke="black" points="845.63,-358.51 839.86,-349.19 845.14,-354.76 844.32,-348.6 844.32,-348.6 844.32,-348.6 845.14,-354.76 848.78,-348.01 845.63,-358.51"/>
</g>
<!-- calcipy.tasks.nox&#45;&gt;calcipy.tasks.executable_utils -->
<g id="edge42" class="edge">
<title>calcipy.tasks.nox&#45;&gt;calcipy.tasks.executable_utils</title>
<path fill="none" stroke="black" d="M984.49,-180.3C981.66,-187.93 978.26,-197.08 975.09,-205.6"/>
<polygon fill="black" stroke="black" points="971.7,-214.75 970.96,-203.81 973.01,-211.21 975.18,-205.38 975.18,-205.38 975.18,-205.38 973.01,-211.21 979.4,-206.95 971.7,-214.75"/>
</g>
<!-- calcipy.tasks.pack&#45;&gt;calcipy -->
<g id="edge43" class="edge">
<title>calcipy.tasks.pack&#45;&gt;calcipy</title>
<path fill="none" stroke="black" d="M1651.32,-166.88C1718.61,-172.5 1833.27,-185.45 1938.47,-216.06"/>
<polygon fill="black" stroke="black" points="1947.78,-218.82 1936.91,-220.29 1944.16,-217.75 1938.2,-215.97 1938.2,-215.97 1938.2,-215.97 1944.16,-217.75 1939.48,-211.66 1947.78,-218.82"/>
</g>
<!-- calcipy.tasks.pack&#45;&gt;calcipy.can_skip -->
<g id="edge44" class="edge">
<title>calcipy.tasks.pack&#45;&gt;calcipy.can_skip</title>
<path fill="none" stroke="black" d="M1651.4,-167.65C1730.54,-174.62 1877.6,-189.63 2011.73,-215.72"/>
<polygon fill="black" stroke="black" points="2021.4,-217.63 2010.72,-220.11 2017.69,-216.9 2011.59,-215.69 2011.59,-215.69 2011.59,-215.69 2017.69,-216.9 2012.46,-211.28 2021.4,-217.63"/>
</g>
<!-- calcipy.tasks.pack&#45;&gt;calcipy.cli -->
<g id="edge45" class="edge">
<title>calcipy.tasks.pack&#45;&gt;calcipy.cli</title>
<path fill="none" stroke="black" d="M1536.57,-169.98C1507.62,-173.34 1471.94,-177.23 1439.92,-180 1186.14,-201.98 1121.34,-190.26 867.92,-216 843.45,-218.48 816.34,-222.2 793.98,-225.53"/>
<polygon fill="black" stroke="black" points="784.3,-226.99 793.52,-221.05 788.04,-226.43 794.19,-225.5 794.19,-225.5 794.19,-225.5 788.04,-226.43 794.86,-229.95 784.3,-226.99"/>
</g>
<!-- calcipy.tasks.pack&#45;&gt;calcipy.experiments -->
<g id="edge46" class="edge">
<title>calcipy.tasks.pack&#45;&gt;calcipy.experiments</title>
<path fill="none" stroke="black" d="M1582.79,-180.3C1577.67,-188.27 1571.48,-197.9 1565.8,-206.74"/>
<polygon fill="black" stroke="black" points="1560.57,-214.87 1562.19,-204.03 1562.62,-211.69 1565.98,-206.46 1565.98,-206.46 1565.98,-206.46 1562.62,-211.69 1569.77,-208.89 1560.57,-214.87"/>
</g>
<!-- calcipy.tasks.pack&#45;&gt;calcipy.experiments.bump_programmatically -->
<g id="edge47" class="edge">
<title>calcipy.tasks.pack&#45;&gt;calcipy.experiments.bump_programmatically</title>
<path fill="none" stroke="black" d="M1645.12,-180.48C1673.11,-190.04 1707.97,-201.95 1737.43,-212"/>
<polygon fill="black" stroke="black" points="1746.86,-215.22 1735.94,-216.25 1743.28,-214 1737.4,-211.99 1737.4,-211.99 1737.4,-211.99 1743.28,-214 1738.85,-207.73 1746.86,-215.22"/>
</g>
<!-- calcipy.tasks.pack&#45;&gt;calcipy.invoke_helpers -->
<g id="edge48" class="edge">
<title>calcipy.tasks.pack&#45;&gt;calcipy.invoke_helpers</title>
<path fill="none" stroke="black" d="M1607.33,-180.4C1620.42,-199.67 1636.18,-230.8 1619.92,-252 1537.23,-359.84 1111.42,-375.44 930.45,-377.13"/>
<polygon fill="black" stroke="black" points="920.63,-377.21 930.59,-372.63 924.41,-377.18 930.63,-377.13 930.63,-377.13 930.63,-377.13 924.41,-377.18 930.66,-381.63 920.63,-377.21"/>
</g>
<!-- calcipy.tasks.pack&#45;&gt;calcipy.tasks.executable_utils -->
<g id="edge49" class="edge">
<title>calcipy.tasks.pack&#45;&gt;calcipy.tasks.executable_utils</title>
<path fill="none" stroke="black" d="M1536.43,-169.4C1429.21,-181.33 1197.54,-207.11 1064.43,-221.93"/>
<polygon fill="black" stroke="black" points="1054.65,-223.01 1064.09,-217.44 1058.41,-222.6 1064.59,-221.91 1064.59,-221.91 1064.59,-221.91 1058.41,-222.6 1065.09,-226.38 1054.65,-223.01"/>
</g>
<!-- calcipy.tasks.stale -->
<g id="node31" class="node">
<title>calcipy.tasks.stale</title>
<polygon fill="none" stroke="black" points="1333.67,-36 1220.17,-36 1220.17,0 1333.67,0 1333.67,-36"/>
<text text-anchor="middle" x="1276.92" y="-12.95" font-family="Times,serif" font-size="14.00">calcipy.tasks.stale</text>
</g>
<!-- calcipy.tasks.stale&#45;&gt;calcipy.check_for_stale_packages -->
<g id="edge50" class="edge">
<title>calcipy.tasks.stale&#45;&gt;calcipy.check_for_stale_packages</title>
<path fill="none" stroke="black" d="M1317.88,-36.48C1339.78,-45.83 1366.94,-57.43 1390.17,-67.34"/>
<polygon fill="black" stroke="black" points="1399.07,-71.14 1388.11,-71.35 1395.6,-69.66 1389.88,-67.21 1389.88,-67.21 1389.88,-67.21 1395.6,-69.66 1391.64,-63.08 1399.07,-71.14"/>
</g>
<!-- calcipy.tasks.stale&#45;&gt;calcipy.cli -->
<g id="edge51" class="edge">
<title>calcipy.tasks.stale&#45;&gt;calcipy.cli</title>
<path fill="none" stroke="black" d="M1219.89,-18.31C1059.55,-17.84 611.99,-27.16 543.92,-144 535.86,-157.82 534.14,-167.34 543.92,-180 553.57,-192.5 643.32,-212.39 700.21,-223.92"/>
<polygon fill="black" stroke="black" points="709.92,-225.87 699.23,-228.31 706.21,-225.12 700.11,-223.9 700.11,-223.9 700.11,-223.9 706.21,-225.12 701,-219.49 709.92,-225.87"/>
</g>
<!-- calcipy.tasks.tags&#45;&gt;calcipy.cli -->
<g id="edge52" class="edge">
<title>calcipy.tasks.tags&#45;&gt;calcipy.cli</title>
<path fill="none" stroke="black" d="M267.41,-172.86C282.47,-175.37 298.8,-177.94 313.92,-180 464.04,-200.46 502.94,-194.5 652.92,-216 668.37,-218.22 685.17,-221.1 700.24,-223.86"/>
<polygon fill="black" stroke="black" points="709.66,-225.62 699.01,-228.21 705.95,-224.93 699.83,-223.79 699.83,-223.79 699.83,-223.79 705.95,-224.93 700.66,-219.36 709.66,-225.62"/>
</g>
<!-- calcipy.tasks.tags&#45;&gt;calcipy.code_tag_collector -->
<g id="edge53" class="edge">
<title>calcipy.tasks.tags&#45;&gt;calcipy.code_tag_collector</title>
<path fill="none" stroke="black" d="M193.87,-180.3C185.19,-188.63 174.61,-198.78 165.06,-207.93"/>
<polygon fill="black" stroke="black" points="157.89,-214.81 161.99,-204.64 160.62,-212.19 165.11,-207.89 165.11,-207.89 165.11,-207.89 160.62,-212.19 168.22,-211.14 157.89,-214.81"/>
</g>
<!-- calcipy.tasks.tags&#45;&gt;calcipy.file_search -->
<g id="edge54" class="edge">
<title>calcipy.tasks.tags&#45;&gt;calcipy.file_search</title>
<path fill="none" stroke="black" d="M156.3,-170.15C122.28,-176.99 79.72,-190.3 49.92,-216 11.6,-249.04 -18.3,-284.98 13.92,-324 39.46,-354.94 146.35,-368.01 219.1,-373.4"/>
<polygon fill="black" stroke="black" points="228.8,-374.08 218.51,-377.87 225.02,-373.82 218.82,-373.38 218.82,-373.38 218.82,-373.38 225.02,-373.82 219.14,-368.89 228.8,-374.08"/>
</g>
<!-- calcipy.tasks.tags&#45;&gt;calcipy.invoke_helpers -->
<g id="edge55" class="edge">
<title>calcipy.tasks.tags&#45;&gt;calcipy.invoke_helpers</title>
<path fill="none" stroke="black" d="M221.75,-180.47C242.68,-215.64 295.48,-294.16 364.92,-324 435.26,-354.23 648.42,-368.22 767.04,-373.81"/>
<polygon fill="black" stroke="black" points="777,-374.27 766.8,-378.3 773.22,-374.1 767.01,-373.81 767.01,-373.81 767.01,-373.81 773.22,-374.1 767.21,-369.31 777,-374.27"/>
</g>
<!-- calcipy.tasks.tags&#45;&gt;calcipy.tasks.defaults -->
<g id="edge56" class="edge">
<title>calcipy.tasks.tags&#45;&gt;calcipy.tasks.defaults</title>
<path fill="none" stroke="black" d="M247.63,-180.48C266.46,-189.7 289.74,-201.1 309.8,-210.92"/>
<polygon fill="black" stroke="black" points="318.56,-215.2 307.6,-214.85 315.17,-213.54 309.58,-210.81 309.58,-210.81 309.58,-210.81 315.17,-213.54 311.56,-206.77 318.56,-215.2"/>
</g>
<!-- calcipy.tasks.test&#45;&gt;calcipy.cli -->
<g id="edge57" class="edge">
<title>calcipy.tasks.test&#45;&gt;calcipy.cli</title>
<path fill="none" stroke="black" d="M1322.95,-178.44C1320.24,-179.01 1317.56,-179.54 1314.92,-180 1118.62,-214.5 1066.02,-194.13 867.92,-216 843.48,-218.7 816.36,-222.44 794,-225.72"/>
<polygon fill="black" stroke="black" points="784.32,-227.16 793.55,-221.24 788.06,-226.61 794.21,-225.69 794.21,-225.69 794.21,-225.69 788.06,-226.61 794.87,-230.14 784.32,-227.16"/>
</g>
<!-- calcipy.tasks.test&#45;&gt;calcipy.experiments -->
<g id="edge58" class="edge">
<title>calcipy.tasks.test&#45;&gt;calcipy.experiments</title>
<path fill="none" stroke="black" d="M1419.88,-180.48C1442.95,-189.87 1471.59,-201.53 1496.02,-211.47"/>
<polygon fill="black" stroke="black" points="1505.08,-215.16 1494.12,-215.56 1501.58,-213.73 1495.82,-211.39 1495.82,-211.39 1495.82,-211.39 1501.58,-213.73 1497.51,-207.22 1505.08,-215.16"/>
</g>
<!-- calcipy.tasks.test&#45;&gt;calcipy.experiments.check_duplicate_test_names -->
<g id="edge59" class="edge">
<title>calcipy.tasks.test&#45;&gt;calcipy.experiments.check_duplicate_test_names</title>
<path fill="none" stroke="black" d="M1355.16,-180.3C1344.38,-188.89 1331.17,-199.39 1319.39,-208.76"/>
<polygon fill="black" stroke="black" points="1311.68,-214.89 1316.7,-205.15 1314.64,-212.54 1319.5,-208.67 1319.5,-208.67 1319.5,-208.67 1314.64,-212.54 1322.31,-212.19 1311.68,-214.89"/>
</g>
<!-- calcipy.tasks.test&#45;&gt;calcipy.invoke_helpers -->
<g id="edge60" class="edge">
<title>calcipy.tasks.test&#45;&gt;calcipy.invoke_helpers</title>
<path fill="none" stroke="black" d="M1407.55,-180.43C1420.03,-189.32 1433.1,-201.36 1439.92,-216 1446.67,-230.51 1449.99,-239.57 1439.92,-252 1376.72,-329.96 1077.69,-361.22 930.78,-372.03"/>
<polygon fill="black" stroke="black" points="920.83,-372.75 930.48,-367.54 924.6,-372.48 930.8,-372.03 930.8,-372.03 930.8,-372.03 924.6,-372.48 931.12,-376.52 920.83,-372.75"/>
</g>
<!-- calcipy.tasks.test&#45;&gt;calcipy.tasks.defaults -->
<g id="edge61" class="edge">
<title>calcipy.tasks.test&#45;&gt;calcipy.tasks.defaults</title>
<path fill="none" stroke="black" d="M1322.97,-178.55C1320.26,-179.09 1317.56,-179.58 1314.92,-180 965.54,-235.1 872.65,-189.86 519.92,-216 491.14,-218.13 459.61,-221.2 431.9,-224.14"/>
<polygon fill="black" stroke="black" points="422.29,-225.18 431.75,-219.63 426.05,-224.77 432.23,-224.11 432.23,-224.11 432.23,-224.11 426.05,-224.77 432.71,-228.58 422.29,-225.18"/>
</g>
<!-- calcipy.tasks.test&#45;&gt;calcipy.tasks.executable_utils -->
<g id="edge62" class="edge">
<title>calcipy.tasks.test&#45;&gt;calcipy.tasks.executable_utils</title>
<path fill="none" stroke="black" d="M1322.91,-178.21C1320.21,-178.84 1317.54,-179.44 1314.92,-180 1231.17,-197.76 1134.94,-211.88 1064.6,-221.07"/>
<polygon fill="black" stroke="black" points="1054.75,-222.35 1064.08,-216.6 1058.5,-221.86 1064.66,-221.06 1064.66,-221.06 1064.66,-221.06 1058.5,-221.86 1065.24,-225.52 1054.75,-222.35"/>
</g>
<!-- calcipy.tasks.types&#45;&gt;calcipy.cli -->
<g id="edge63" class="edge">
<title>calcipy.tasks.types&#45;&gt;calcipy.cli</title>
<path fill="none" stroke="black" d="M1188.05,-178.21C1184.97,-178.85 1181.91,-179.46 1178.92,-180 1042.02,-204.93 1005.94,-198.32 867.92,-216 843.53,-219.12 816.42,-222.9 794.05,-226.11"/>
<polygon fill="black" stroke="black" points="784.36,-227.5 793.62,-221.62 788.1,-226.96 794.26,-226.08 794.26,-226.08 794.26,-226.08 788.1,-226.96 794.9,-230.53 784.36,-227.5"/>
</g>
<!-- calcipy.tasks.types&#45;&gt;calcipy.invoke_helpers -->
<g id="edge64" class="edge">
<title>calcipy.tasks.types&#45;&gt;calcipy.invoke_helpers</title>
<path fill="none" stroke="black" d="M1205.32,-180.46C1184.47,-189.9 1159.19,-202.39 1137.92,-216 1074.07,-256.85 1072.23,-287.28 1005.92,-324 981.92,-337.29 954.01,-348.03 928.44,-356.28"/>
<polygon fill="black" stroke="black" points="919.18,-359.18 927.38,-351.9 922.79,-358.05 928.73,-356.19 928.73,-356.19 928.73,-356.19 922.79,-358.05 930.07,-360.49 919.18,-359.18"/>
</g>
<!-- calcipy.tasks.types&#45;&gt;calcipy.tasks.executable_utils -->
<g id="edge65" class="edge">
<title>calcipy.tasks.types&#45;&gt;calcipy.tasks.executable_utils</title>
<path fill="none" stroke="black" d="M1187.95,-177.75C1184.89,-178.51 1181.87,-179.27 1178.92,-180 1135.03,-190.92 1086.06,-203.05 1046.05,-212.95"/>
<polygon fill="black" stroke="black" points="1036.47,-215.32 1045.1,-208.55 1040.14,-214.41 1046.18,-212.92 1046.18,-212.92 1046.18,-212.92 1040.14,-214.41 1047.26,-217.29 1036.47,-215.32"/>
</g>
</g>
</svg>
