<?xml version="1.0" encoding="UTF-8" standalone="no"?>
<!DOCTYPE svg PUBLIC "-//W3C//DTD SVG 1.1//EN"
 "http://www.w3.org/Graphics/SVG/1.1/DTD/svg11.dtd">
<!-- Generated by graphviz version 2.43.0 (0)
 -->
<!-- Title: packages Pages: 1 -->
<svg width="3507pt" height="404pt"
 viewBox="0.00 0.00 3507.00 404.00" xmlns="http://www.w3.org/2000/svg" xmlns:xlink="http://www.w3.org/1999/xlink">
<g id="graph0" class="graph" transform="scale(1 1) rotate(0) translate(4 400)">
<title>packages</title>
<polygon fill="white" stroke="transparent" points="-4,4 -4,-400 3503,-400 3503,4 -4,4"/>
<!-- calcipy -->
<g id="node1" class="node">
<title>calcipy</title>
<polygon fill="none" stroke="black" points="66,-36 0,-36 0,0 66,0 66,-36"/>
<text text-anchor="middle" x="33" y="-14.3" font-family="Times,serif" font-size="14.00">calcipy</text>
</g>
<!-- calcipy.can_skip -->
<g id="node2" class="node">
<title>calcipy.can_skip</title>
<polygon fill="none" stroke="black" points="213.5,-36 84.5,-36 84.5,0 213.5,0 213.5,-36"/>
<text text-anchor="middle" x="149" y="-14.3" font-family="Times,serif" font-size="14.00">calcipy.can_skip</text>
</g>
<!-- calcipy.check_for_stale_packages -->
<g id="node3" class="node">
<title>calcipy.check_for_stale_packages</title>
<polygon fill="none" stroke="black" points="482,-36 232,-36 232,0 482,0 482,-36"/>
<text text-anchor="middle" x="357" y="-14.3" font-family="Times,serif" font-size="14.00">calcipy.check_for_stale_packages</text>
</g>
<!-- calcipy.check_for_stale_packages._check_for_stale_packages -->
<g id="node4" class="node">
<title>calcipy.check_for_stale_packages._check_for_stale_packages</title>
<polygon fill="none" stroke="black" points="578.5,-108 135.5,-108 135.5,-72 578.5,-72 578.5,-108"/>
<text text-anchor="middle" x="357" y="-86.3" font-family="Times,serif" font-size="14.00">calcipy.check_for_stale_packages._check_for_stale_packages</text>
</g>
<!-- calcipy.check_for_stale_packages&#45;&gt;calcipy.check_for_stale_packages._check_for_stale_packages -->
<g id="edge1" class="edge">
<title>calcipy.check_for_stale_packages&#45;&gt;calcipy.check_for_stale_packages._check_for_stale_packages</title>
<path fill="none" stroke="black" d="M357,-36.3C357,-44.02 357,-53.29 357,-61.89"/>
<polygon fill="black" stroke="black" points="357,-71.9 352.5,-61.9 357,-66.9 357,-61.9 357,-61.9 357,-61.9 357,-66.9 361.5,-61.9 357,-71.9 357,-71.9"/>
</g>
<!-- calcipy.cli -->
<g id="node5" class="node">
<title>calcipy.cli</title>
<polygon fill="none" stroke="black" points="1426.5,-108 1341.5,-108 1341.5,-72 1426.5,-72 1426.5,-108"/>
<text text-anchor="middle" x="1384" y="-86.3" font-family="Times,serif" font-size="14.00">calcipy.cli</text>
</g>
<!-- calcipy.invoke_helpers -->
<g id="node14" class="node">
<title>calcipy.invoke_helpers</title>
<polygon fill="none" stroke="black" points="1471.5,-180 1296.5,-180 1296.5,-144 1471.5,-144 1471.5,-180"/>
<text text-anchor="middle" x="1384" y="-158.3" font-family="Times,serif" font-size="14.00">calcipy.invoke_helpers</text>
</g>
<!-- calcipy.cli&#45;&gt;calcipy.invoke_helpers -->
<g id="edge2" class="edge">
<title>calcipy.cli&#45;&gt;calcipy.invoke_helpers</title>
<path fill="none" stroke="black" d="M1384,-108.3C1384,-116.02 1384,-125.29 1384,-133.89"/>
<polygon fill="black" stroke="black" points="1384,-143.9 1379.5,-133.9 1384,-138.9 1384,-133.9 1384,-133.9 1384,-133.9 1384,-138.9 1388.5,-133.9 1384,-143.9 1384,-143.9"/>
</g>
<!-- calcipy.tasks._invoke -->
<g id="node21" class="node">
<title>calcipy.tasks._invoke</title>
<polygon fill="none" stroke="black" points="1293,-252 1129,-252 1129,-216 1293,-216 1293,-252"/>
<text text-anchor="middle" x="1211" y="-230.3" font-family="Times,serif" font-size="14.00">calcipy.tasks._invoke</text>
</g>
<!-- calcipy.cli&#45;&gt;calcipy.tasks._invoke -->
<g id="edge3" class="edge">
<title>calcipy.cli&#45;&gt;calcipy.tasks._invoke</title>
<path fill="none" stroke="black" d="M1345.15,-108.16C1326.56,-117.35 1304.58,-129.73 1287,-144 1264.16,-162.55 1242.84,-188.59 1228.63,-207.72"/>
<polygon fill="black" stroke="black" points="1222.62,-215.96 1224.87,-205.23 1225.56,-211.92 1228.51,-207.88 1228.51,-207.88 1228.51,-207.88 1225.56,-211.92 1232.14,-210.53 1222.62,-215.96 1222.62,-215.96"/>
</g>
<!-- calcipy.code_tag_collector -->
<g id="node6" class="node">
<title>calcipy.code_tag_collector</title>
<polygon fill="none" stroke="black" points="1833,-36 1633,-36 1633,0 1833,0 1833,-36"/>
<text text-anchor="middle" x="1733" y="-14.3" font-family="Times,serif" font-size="14.00">calcipy.code_tag_collector</text>
</g>
<!-- calcipy.code_tag_collector._collector -->
<g id="node7" class="node">
<title>calcipy.code_tag_collector._collector</title>
<polygon fill="none" stroke="black" points="1868.5,-108 1597.5,-108 1597.5,-72 1868.5,-72 1868.5,-108"/>
<text text-anchor="middle" x="1733" y="-86.3" font-family="Times,serif" font-size="14.00">calcipy.code_tag_collector._collector</text>
</g>
<!-- calcipy.code_tag_collector&#45;&gt;calcipy.code_tag_collector._collector -->
<g id="edge4" class="edge">
<title>calcipy.code_tag_collector&#45;&gt;calcipy.code_tag_collector._collector</title>
<path fill="none" stroke="black" d="M1733,-36.3C1733,-44.02 1733,-53.29 1733,-61.89"/>
<polygon fill="black" stroke="black" points="1733,-71.9 1728.5,-61.9 1733,-66.9 1733,-61.9 1733,-61.9 1733,-61.9 1733,-66.9 1737.5,-61.9 1733,-71.9 1733,-71.9"/>
</g>
<!-- calcipy.dot_dict -->
<g id="node8" class="node">
<title>calcipy.dot_dict</title>
<polygon fill="none" stroke="black" points="2046.5,-36 1921.5,-36 1921.5,0 2046.5,0 2046.5,-36"/>
<text text-anchor="middle" x="1984" y="-14.3" font-family="Times,serif" font-size="14.00">calcipy.dot_dict</text>
</g>
<!-- calcipy.dot_dict._dot_dict -->
<g id="node9" class="node">
<title>calcipy.dot_dict._dot_dict</title>
<polygon fill="none" stroke="black" points="2081,-108 1887,-108 1887,-72 2081,-72 2081,-108"/>
<text text-anchor="middle" x="1984" y="-86.3" font-family="Times,serif" font-size="14.00">calcipy.dot_dict._dot_dict</text>
</g>
<!-- calcipy.dot_dict&#45;&gt;calcipy.dot_dict._dot_dict -->
<g id="edge5" class="edge">
<title>calcipy.dot_dict&#45;&gt;calcipy.dot_dict._dot_dict</title>
<path fill="none" stroke="black" d="M1984,-36.3C1984,-44.02 1984,-53.29 1984,-61.89"/>
<polygon fill="black" stroke="black" points="1984,-71.9 1979.5,-61.9 1984,-66.9 1984,-61.9 1984,-61.9 1984,-61.9 1984,-66.9 1988.5,-61.9 1984,-71.9 1984,-71.9"/>
</g>
<!-- calcipy.experiments -->
<g id="node10" class="node">
<title>calcipy.experiments</title>
<polygon fill="none" stroke="black" points="2223,-36 2065,-36 2065,0 2223,0 2223,-36"/>
<text text-anchor="middle" x="2144" y="-14.3" font-family="Times,serif" font-size="14.00">calcipy.experiments</text>
</g>
<!-- calcipy.experiments.bump_programmatically -->
<g id="node11" class="node">
<title>calcipy.experiments.bump_programmatically</title>
<polygon fill="none" stroke="black" points="2577,-36 2241,-36 2241,0 2577,0 2577,-36"/>
<text text-anchor="middle" x="2409" y="-14.3" font-family="Times,serif" font-size="14.00">calcipy.experiments.bump_programmatically</text>
</g>
<!-- calcipy.experiments.check_duplicate_test_names -->
<g id="node12" class="node">
<title>calcipy.experiments.check_duplicate_test_names</title>
<polygon fill="none" stroke="black" points="2957.5,-36 2594.5,-36 2594.5,0 2957.5,0 2957.5,-36"/>
<text text-anchor="middle" x="2776" y="-14.3" font-family="Times,serif" font-size="14.00">calcipy.experiments.check_duplicate_test_names</text>
</g>
<!-- calcipy.file_search -->
<g id="node13" class="node">
<title>calcipy.file_search</title>
<polygon fill="none" stroke="black" points="3120,-36 2976,-36 2976,0 3120,0 3120,-36"/>
<text text-anchor="middle" x="3048" y="-14.3" font-family="Times,serif" font-size="14.00">calcipy.file_search</text>
</g>
<!-- calcipy.md_writer -->
<g id="node15" class="node">
<title>calcipy.md_writer</title>
<polygon fill="none" stroke="black" points="3280,-36 3138,-36 3138,0 3280,0 3280,-36"/>
<text text-anchor="middle" x="3209" y="-14.3" font-family="Times,serif" font-size="14.00">calcipy.md_writer</text>
</g>
<!-- calcipy.md_writer._writer -->
<g id="node16" class="node">
<title>calcipy.md_writer._writer</title>
<polygon fill="none" stroke="black" points="3307,-108 3111,-108 3111,-72 3307,-72 3307,-108"/>
<text text-anchor="middle" x="3209" y="-86.3" font-family="Times,serif" font-size="14.00">calcipy.md_writer._writer</text>
</g>
<!-- calcipy.md_writer&#45;&gt;calcipy.md_writer._writer -->
<g id="edge6" class="edge">
<title>calcipy.md_writer&#45;&gt;calcipy.md_writer._writer</title>
<path fill="none" stroke="black" d="M3209,-36.3C3209,-44.02 3209,-53.29 3209,-61.89"/>
<polygon fill="black" stroke="black" points="3209,-71.9 3204.5,-61.9 3209,-66.9 3209,-61.9 3209,-61.9 3209,-61.9 3209,-66.9 3213.5,-61.9 3209,-71.9 3209,-71.9"/>
</g>
<!-- calcipy.noxfile -->
<g id="node17" class="node">
<title>calcipy.noxfile</title>
<polygon fill="none" stroke="black" points="3470,-36 3354,-36 3354,0 3470,0 3470,-36"/>
<text text-anchor="middle" x="3412" y="-14.3" font-family="Times,serif" font-size="14.00">calcipy.noxfile</text>
</g>
<!-- calcipy.noxfile._noxfile -->
<g id="node18" class="node">
<title>calcipy.noxfile._noxfile</title>
<polygon fill="none" stroke="black" points="3499,-108 3325,-108 3325,-72 3499,-72 3499,-108"/>
<text text-anchor="middle" x="3412" y="-86.3" font-family="Times,serif" font-size="14.00">calcipy.noxfile._noxfile</text>
</g>
<!-- calcipy.noxfile&#45;&gt;calcipy.noxfile._noxfile -->
<g id="edge7" class="edge">
<title>calcipy.noxfile&#45;&gt;calcipy.noxfile._noxfile</title>
<path fill="none" stroke="black" d="M3412,-36.3C3412,-44.02 3412,-53.29 3412,-61.89"/>
<polygon fill="black" stroke="black" points="3412,-71.9 3407.5,-61.9 3412,-66.9 3412,-61.9 3412,-61.9 3412,-61.9 3412,-66.9 3416.5,-61.9 3412,-71.9 3412,-71.9"/>
</g>
<!-- calcipy.scripts -->
<g id="node19" class="node">
<title>calcipy.scripts</title>
<polygon fill="none" stroke="black" points="1257.5,-36 1140.5,-36 1140.5,0 1257.5,0 1257.5,-36"/>
<text text-anchor="middle" x="1199" y="-14.3" font-family="Times,serif" font-size="14.00">calcipy.scripts</text>
</g>
<!-- calcipy.scripts&#45;&gt;calcipy.cli -->
<g id="edge8" class="edge">
<title>calcipy.scripts&#45;&gt;calcipy.cli</title>
<path fill="none" stroke="black" d="M1244.26,-36.12C1270.76,-46.15 1304.34,-58.86 1331.94,-69.3"/>
<polygon fill="black" stroke="black" points="1341.43,-72.89 1330.49,-73.56 1336.76,-71.12 1332.08,-69.35 1332.08,-69.35 1332.08,-69.35 1336.76,-71.12 1333.67,-65.15 1341.43,-72.89 1341.43,-72.89"/>
</g>
<!-- calcipy.tasks -->
<g id="node20" class="node">
<title>calcipy.tasks</title>
<polygon fill="none" stroke="black" points="703,-108 597,-108 597,-72 703,-72 703,-108"/>
<text text-anchor="middle" x="650" y="-86.3" font-family="Times,serif" font-size="14.00">calcipy.tasks</text>
</g>
<!-- calcipy.scripts&#45;&gt;calcipy.tasks -->
<g id="edge9" class="edge">
<title>calcipy.scripts&#45;&gt;calcipy.tasks</title>
<path fill="none" stroke="black" d="M1140.38,-22.81C1049.27,-29.32 868.39,-44.61 717,-72 715.74,-72.23 714.46,-72.47 713.18,-72.72"/>
<polygon fill="black" stroke="black" points="703.25,-74.78 712.12,-68.34 708.14,-73.76 713.04,-72.75 713.04,-72.75 713.04,-72.75 708.14,-73.76 713.95,-77.15 703.25,-74.78 703.25,-74.78"/>
</g>
<!-- calcipy.scripts&#45;&gt;calcipy.tasks._invoke -->
<g id="edge10" class="edge">
<title>calcipy.scripts&#45;&gt;calcipy.tasks._invoke</title>
<path fill="none" stroke="black" d="M1251.68,-36.16C1268.18,-44.3 1284.53,-55.88 1294,-72 1302.1,-85.8 1300.93,-93.58 1294,-108 1282.9,-131.08 1264.5,-123.61 1249,-144 1234.76,-162.74 1224.73,-187.61 1218.56,-206.3"/>
<polygon fill="black" stroke="black" points="1215.53,-215.97 1214.23,-205.08 1217.03,-211.2 1218.52,-206.43 1218.52,-206.43 1218.52,-206.43 1217.03,-211.2 1222.82,-207.77 1215.53,-215.97 1215.53,-215.97"/>
</g>
<!-- calcipy.tasks.all_tasks -->
<g id="node22" class="node">
<title>calcipy.tasks.all_tasks</title>
<polygon fill="none" stroke="black" points="1285,-108 1113,-108 1113,-72 1285,-72 1285,-108"/>
<text text-anchor="middle" x="1199" y="-86.3" font-family="Times,serif" font-size="14.00">calcipy.tasks.all_tasks</text>
</g>
<!-- calcipy.scripts&#45;&gt;calcipy.tasks.all_tasks -->
<g id="edge11" class="edge">
<title>calcipy.scripts&#45;&gt;calcipy.tasks.all_tasks</title>
<path fill="none" stroke="black" d="M1199,-36.3C1199,-44.02 1199,-53.29 1199,-61.89"/>
<polygon fill="black" stroke="black" points="1199,-71.9 1194.5,-61.9 1199,-66.9 1199,-61.9 1199,-61.9 1199,-61.9 1199,-66.9 1203.5,-61.9 1199,-71.9 1199,-71.9"/>
</g>
<!-- calcipy.tasks.defaults -->
<g id="node24" class="node">
<title>calcipy.tasks.defaults</title>
<polygon fill="none" stroke="black" points="1164,-180 996,-180 996,-144 1164,-144 1164,-180"/>
<text text-anchor="middle" x="1080" y="-158.3" font-family="Times,serif" font-size="14.00">calcipy.tasks.defaults</text>
</g>
<!-- calcipy.scripts&#45;&gt;calcipy.tasks.defaults -->
<g id="edge12" class="edge">
<title>calcipy.scripts&#45;&gt;calcipy.tasks.defaults</title>
<path fill="none" stroke="black" d="M1140.21,-22.83C1072.75,-28.6 968.25,-42.19 944,-72 933.9,-84.41 934.97,-94.79 944,-108 954.32,-123.09 969.62,-133.89 986.28,-141.61"/>
<polygon fill="black" stroke="black" points="995.65,-145.59 984.68,-145.82 991.05,-143.63 986.44,-141.68 986.44,-141.68 986.44,-141.68 991.05,-143.63 988.2,-137.54 995.65,-145.59 995.65,-145.59"/>
</g>
<!-- calcipy.tasks.lint -->
<g id="node27" class="node">
<title>calcipy.tasks.lint</title>
<polygon fill="none" stroke="black" points="869,-252 735,-252 735,-216 869,-216 869,-252"/>
<text text-anchor="middle" x="802" y="-230.3" font-family="Times,serif" font-size="14.00">calcipy.tasks.lint</text>
</g>
<!-- calcipy.scripts&#45;&gt;calcipy.tasks.lint -->
<g id="edge13" class="edge">
<title>calcipy.scripts&#45;&gt;calcipy.tasks.lint</title>
<path fill="none" stroke="black" d="M1140.34,-21.65C1024.54,-27.5 775.52,-43.29 750,-72 715.46,-110.86 753.54,-172.95 780.33,-207.57"/>
<polygon fill="black" stroke="black" points="786.85,-215.75 777.1,-210.73 783.73,-211.84 780.62,-207.93 780.62,-207.93 780.62,-207.93 783.73,-211.84 784.14,-205.12 786.85,-215.75 786.85,-215.75"/>
</g>
<!-- calcipy.tasks.pack -->
<g id="node29" class="node">
<title>calcipy.tasks.pack</title>
<polygon fill="none" stroke="black" points="1671.5,-180 1528.5,-180 1528.5,-144 1671.5,-144 1671.5,-180"/>
<text text-anchor="middle" x="1600" y="-158.3" font-family="Times,serif" font-size="14.00">calcipy.tasks.pack</text>
</g>
<!-- calcipy.scripts&#45;&gt;calcipy.tasks.pack -->
<g id="edge14" class="edge">
<title>calcipy.scripts&#45;&gt;calcipy.tasks.pack</title>
<path fill="none" stroke="black" d="M1257.74,-24.46C1336.24,-32.51 1470.51,-49.1 1514,-72 1542.45,-86.98 1567.02,-114.85 1582.53,-135.43"/>
<polygon fill="black" stroke="black" points="1588.61,-143.74 1579.07,-138.32 1585.65,-139.7 1582.7,-135.67 1582.7,-135.67 1582.7,-135.67 1585.65,-139.7 1586.34,-133.01 1588.61,-143.74 1588.61,-143.74"/>
</g>
<!-- calcipy.tasks.tags -->
<g id="node31" class="node">
<title>calcipy.tasks.tags</title>
<polygon fill="none" stroke="black" points="1094.5,-108 953.5,-108 953.5,-72 1094.5,-72 1094.5,-108"/>
<text text-anchor="middle" x="1024" y="-86.3" font-family="Times,serif" font-size="14.00">calcipy.tasks.tags</text>
</g>
<!-- calcipy.scripts&#45;&gt;calcipy.tasks.tags -->
<g id="edge15" class="edge">
<title>calcipy.scripts&#45;&gt;calcipy.tasks.tags</title>
<path fill="none" stroke="black" d="M1156.19,-36.12C1132.05,-45.78 1101.72,-57.91 1076.19,-68.12"/>
<polygon fill="black" stroke="black" points="1066.67,-71.93 1074.28,-64.04 1071.31,-70.07 1075.96,-68.22 1075.96,-68.22 1075.96,-68.22 1071.31,-70.07 1077.63,-72.4 1066.67,-71.93 1066.67,-71.93"/>
</g>
<!-- calcipy.tasks.types -->
<g id="node33" class="node">
<title>calcipy.tasks.types</title>
<polygon fill="none" stroke="black" points="1285.5,-324 1136.5,-324 1136.5,-288 1285.5,-288 1285.5,-324"/>
<text text-anchor="middle" x="1211" y="-302.3" font-family="Times,serif" font-size="14.00">calcipy.tasks.types</text>
</g>
<!-- calcipy.scripts&#45;&gt;calcipy.tasks.types -->
<g id="edge16" class="edge">
<title>calcipy.scripts&#45;&gt;calcipy.tasks.types</title>
<path fill="none" stroke="black" d="M1257.66,-19.81C1308.76,-23.21 1382.67,-34.91 1435,-72 1465.79,-93.82 1469.6,-107.73 1480,-144 1504.99,-231.15 1383.56,-273.05 1295.68,-291.69"/>
<polygon fill="black" stroke="black" points="1285.68,-293.74 1294.57,-287.33 1290.58,-292.74 1295.48,-291.73 1295.48,-291.73 1295.48,-291.73 1290.58,-292.74 1296.38,-296.14 1285.68,-293.74 1285.68,-293.74"/>
</g>
<!-- calcipy.tasks._invoke&#45;&gt;calcipy.tasks.types -->
<g id="edge17" class="edge">
<title>calcipy.tasks._invoke&#45;&gt;calcipy.tasks.types</title>
<path fill="none" stroke="black" d="M1211,-252.3C1211,-260.02 1211,-269.29 1211,-277.89"/>
<polygon fill="black" stroke="black" points="1211,-287.9 1206.5,-277.9 1211,-282.9 1211,-277.9 1211,-277.9 1211,-277.9 1211,-282.9 1215.5,-277.9 1211,-287.9 1211,-287.9"/>
</g>
<!-- calcipy.tasks.all_tasks&#45;&gt;calcipy.tasks._invoke -->
<g id="edge18" class="edge">
<title>calcipy.tasks.all_tasks&#45;&gt;calcipy.tasks._invoke</title>
<path fill="none" stroke="black" d="M1200.45,-108.13C1202.49,-132.33 1206.25,-176.79 1208.69,-205.61"/>
<polygon fill="black" stroke="black" points="1209.55,-215.81 1204.22,-206.23 1209.13,-210.83 1208.71,-205.85 1208.71,-205.85 1208.71,-205.85 1209.13,-210.83 1213.19,-205.47 1209.55,-215.81 1209.55,-215.81"/>
</g>
<!-- calcipy.tasks.all_tasks&#45;&gt;calcipy.tasks.defaults -->
<g id="edge19" class="edge">
<title>calcipy.tasks.all_tasks&#45;&gt;calcipy.tasks.defaults</title>
<path fill="none" stroke="black" d="M1169.89,-108.12C1154.33,-117.28 1134.98,-128.66 1118.22,-138.52"/>
<polygon fill="black" stroke="black" points="1109.22,-143.81 1115.56,-134.86 1113.53,-141.28 1117.84,-138.74 1117.84,-138.74 1117.84,-138.74 1113.53,-141.28 1120.12,-142.62 1109.22,-143.81 1109.22,-143.81"/>
</g>
<!-- calcipy.tasks.cl -->
<g id="node23" class="node">
<title>calcipy.tasks.cl</title>
<polygon fill="none" stroke="black" points="748,-324 626,-324 626,-288 748,-288 748,-324"/>
<text text-anchor="middle" x="687" y="-302.3" font-family="Times,serif" font-size="14.00">calcipy.tasks.cl</text>
</g>
<!-- calcipy.tasks.executable_utils -->
<g id="node26" class="node">
<title>calcipy.tasks.executable_utils</title>
<polygon fill="none" stroke="black" points="1193,-396 967,-396 967,-360 1193,-360 1193,-396"/>
<text text-anchor="middle" x="1080" y="-374.3" font-family="Times,serif" font-size="14.00">calcipy.tasks.executable_utils</text>
</g>
<!-- calcipy.tasks.cl&#45;&gt;calcipy.tasks.executable_utils -->
<g id="edge20" class="edge">
<title>calcipy.tasks.cl&#45;&gt;calcipy.tasks.executable_utils</title>
<path fill="none" stroke="black" d="M748.02,-322.11C751.05,-322.77 754.06,-323.4 757,-324 822.68,-337.34 896.39,-349.64 956.8,-359.02"/>
<polygon fill="black" stroke="black" points="966.76,-360.56 956.19,-363.48 961.82,-359.8 956.88,-359.04 956.88,-359.04 956.88,-359.04 961.82,-359.8 957.56,-354.59 966.76,-360.56 966.76,-360.56"/>
</g>
<!-- calcipy.tasks.defaults&#45;&gt;calcipy.tasks._invoke -->
<g id="edge21" class="edge">
<title>calcipy.tasks.defaults&#45;&gt;calcipy.tasks._invoke</title>
<path fill="none" stroke="black" d="M1112.05,-180.12C1129.49,-189.45 1151.27,-201.08 1169.94,-211.06"/>
<polygon fill="black" stroke="black" points="1178.83,-215.81 1167.89,-215.07 1174.42,-213.45 1170.01,-211.1 1170.01,-211.1 1170.01,-211.1 1174.42,-213.45 1172.13,-207.13 1178.83,-215.81 1178.83,-215.81"/>
</g>
<!-- calcipy.tasks.doc -->
<g id="node25" class="node">
<title>calcipy.tasks.doc</title>
<polygon fill="none" stroke="black" points="901.5,-324 766.5,-324 766.5,-288 901.5,-288 901.5,-324"/>
<text text-anchor="middle" x="834" y="-302.3" font-family="Times,serif" font-size="14.00">calcipy.tasks.doc</text>
</g>
<!-- calcipy.tasks.doc&#45;&gt;calcipy.tasks.executable_utils -->
<g id="edge22" class="edge">
<title>calcipy.tasks.doc&#45;&gt;calcipy.tasks.executable_utils</title>
<path fill="none" stroke="black" d="M893.86,-324.03C928.98,-334.03 973.52,-346.7 1010.23,-357.15"/>
<polygon fill="black" stroke="black" points="1019.87,-359.89 1009.02,-361.48 1015.06,-358.52 1010.25,-357.15 1010.25,-357.15 1010.25,-357.15 1015.06,-358.52 1011.48,-352.82 1019.87,-359.89 1019.87,-359.89"/>
</g>
<!-- calcipy.tasks.lint&#45;&gt;calcipy.tasks.executable_utils -->
<g id="edge23" class="edge">
<title>calcipy.tasks.lint&#45;&gt;calcipy.tasks.executable_utils</title>
<path fill="none" stroke="black" d="M842.17,-252.04C863.03,-261.55 888.56,-274.23 910,-288 931.26,-301.66 932.35,-310.97 954,-324 974.9,-336.58 999.33,-347.6 1021.08,-356.29"/>
<polygon fill="black" stroke="black" points="1030.55,-359.99 1019.59,-360.54 1025.89,-358.17 1021.23,-356.35 1021.23,-356.35 1021.23,-356.35 1025.89,-358.17 1022.87,-352.16 1030.55,-359.99 1030.55,-359.99"/>
</g>
<!-- calcipy.tasks.nox -->
<g id="node28" class="node">
<title>calcipy.tasks.nox</title>
<polygon fill="none" stroke="black" points="1702,-324 1566,-324 1566,-288 1702,-288 1702,-324"/>
<text text-anchor="middle" x="1634" y="-302.3" font-family="Times,serif" font-size="14.00">calcipy.tasks.nox</text>
</g>
<!-- calcipy.tasks.nox&#45;&gt;calcipy.tasks.executable_utils -->
<g id="edge24" class="edge">
<title>calcipy.tasks.nox&#45;&gt;calcipy.tasks.executable_utils</title>
<path fill="none" stroke="black" d="M1565.63,-321.67C1561.03,-322.5 1556.45,-323.29 1552,-324 1434.23,-342.78 1298.87,-357.26 1203.39,-366.3"/>
<polygon fill="black" stroke="black" points="1193.41,-367.24 1202.94,-361.82 1198.39,-366.77 1203.37,-366.3 1203.37,-366.3 1203.37,-366.3 1198.39,-366.77 1203.79,-370.78 1193.41,-367.24 1193.41,-367.24"/>
</g>
<!-- calcipy.tasks.pack&#45;&gt;calcipy.tasks.executable_utils -->
<g id="edge25" class="edge">
<title>calcipy.tasks.pack&#45;&gt;calcipy.tasks.executable_utils</title>
<path fill="none" stroke="black" d="M1587.62,-180.17C1572.4,-200.12 1544.78,-232.73 1514,-252 1418.88,-311.56 1294.45,-343.59 1203.22,-360.26"/>
<polygon fill="black" stroke="black" points="1193.11,-362.07 1202.16,-355.88 1198.03,-361.19 1202.95,-360.31 1202.95,-360.31 1202.95,-360.31 1198.03,-361.19 1203.74,-364.74 1193.11,-362.07 1193.11,-362.07"/>
</g>
<!-- calcipy.tasks.stale -->
<g id="node30" class="node">
<title>calcipy.tasks.stale</title>
<polygon fill="none" stroke="black" points="1865.5,-324 1720.5,-324 1720.5,-288 1865.5,-288 1865.5,-324"/>
<text text-anchor="middle" x="1793" y="-302.3" font-family="Times,serif" font-size="14.00">calcipy.tasks.stale</text>
</g>
<!-- calcipy.tasks.stale&#45;&gt;calcipy.tasks.executable_utils -->
<g id="edge26" class="edge">
<title>calcipy.tasks.stale&#45;&gt;calcipy.tasks.executable_utils</title>
<path fill="none" stroke="black" d="M1720.2,-322.57C1717.1,-323.08 1714.02,-323.56 1711,-324 1535.56,-349.46 1330.77,-363.87 1203.22,-371.06"/>
<polygon fill="black" stroke="black" points="1193.03,-371.62 1202.76,-366.57 1198.02,-371.35 1203.01,-371.07 1203.01,-371.07 1203.01,-371.07 1198.02,-371.35 1203.26,-375.56 1193.03,-371.62 1193.03,-371.62"/>
</g>
<!-- calcipy.tasks.tags&#45;&gt;calcipy.tasks.defaults -->
<g id="edge27" class="edge">
<title>calcipy.tasks.tags&#45;&gt;calcipy.tasks.defaults</title>
<path fill="none" stroke="black" d="M1037.84,-108.3C1044.49,-116.61 1052.58,-126.72 1059.89,-135.86"/>
<polygon fill="black" stroke="black" points="1066.32,-143.9 1056.56,-138.9 1063.19,-139.99 1060.07,-136.09 1060.07,-136.09 1060.07,-136.09 1063.19,-139.99 1063.58,-133.28 1066.32,-143.9 1066.32,-143.9"/>
</g>
<!-- calcipy.tasks.test -->
<g id="node32" class="node">
<title>calcipy.tasks.test</title>
<polygon fill="none" stroke="black" points="897,-108 759,-108 759,-72 897,-72 897,-108"/>
<text text-anchor="middle" x="828" y="-86.3" font-family="Times,serif" font-size="14.00">calcipy.tasks.test</text>
</g>
<!-- calcipy.tasks.test&#45;&gt;calcipy.tasks.defaults -->
<g id="edge28" class="edge">
<title>calcipy.tasks.test&#45;&gt;calcipy.tasks.defaults</title>
<path fill="none" stroke="black" d="M889.32,-108.03C925.3,-118.03 970.93,-130.7 1008.53,-141.15"/>
<polygon fill="black" stroke="black" points="1018.4,-143.89 1007.56,-145.55 1013.58,-142.55 1008.77,-141.21 1008.77,-141.21 1008.77,-141.21 1013.58,-142.55 1009.97,-136.88 1018.4,-143.89 1018.4,-143.89"/>
</g>
<!-- calcipy.tasks.test&#45;&gt;calcipy.tasks.executable_utils -->
<g id="edge29" class="edge">
<title>calcipy.tasks.test&#45;&gt;calcipy.tasks.executable_utils</title>
<path fill="none" stroke="black" d="M843.01,-108.03C885.63,-156.4 1007.54,-294.77 1057.86,-351.88"/>
<polygon fill="black" stroke="black" points="1064.75,-359.69 1054.76,-355.17 1061.45,-355.94 1058.14,-352.19 1058.14,-352.19 1058.14,-352.19 1061.45,-355.94 1061.52,-349.22 1064.75,-359.69 1064.75,-359.69"/>
</g>
<!-- calcipy.tasks.types&#45;&gt;calcipy.tasks.executable_utils -->
<g id="edge30" class="edge">
<title>calcipy.tasks.types&#45;&gt;calcipy.tasks.executable_utils</title>
<path fill="none" stroke="black" d="M1178.95,-324.12C1161.51,-333.45 1139.73,-345.08 1121.06,-355.06"/>
<polygon fill="black" stroke="black" points="1112.17,-359.81 1118.87,-351.13 1116.58,-357.45 1120.99,-355.1 1120.99,-355.1 1120.99,-355.1 1116.58,-357.45 1123.11,-359.07 1112.17,-359.81 1112.17,-359.81"/>
</g>
</g>
</svg>
