<?xml version="1.0" encoding="UTF-8" standalone="no"?>
<!DOCTYPE svg PUBLIC "-//W3C//DTD SVG 1.1//EN"
 "http://www.w3.org/Graphics/SVG/1.1/DTD/svg11.dtd">
<!-- Generated by graphviz version 8.1.0 (20230707.0739)
 -->
<!-- Title: packages Pages: 1 -->
<svg width="2894pt" height="404pt"
 viewBox="0.00 0.00 2894.00 404.00" xmlns="http://www.w3.org/2000/svg" xmlns:xlink="http://www.w3.org/1999/xlink">
<g id="graph0" class="graph" transform="scale(1 1) rotate(0) translate(4 400)">
<title>packages</title>
<polygon fill="white" stroke="none" points="-4,4 -4,-400 2890,-400 2890,4 -4,4"/>
<!-- calcipy -->
<g id="node1" class="node">
<title>calcipy</title>
<polygon fill="none" stroke="black" points="55,-36 0,-36 0,0 55,0 55,-36"/>
<text text-anchor="middle" x="27.5" y="-12.95" font-family="Times,serif" font-size="14.00">calcipy</text>
</g>
<!-- calcipy.can_skip -->
<g id="node2" class="node">
<title>calcipy.can_skip</title>
<polygon fill="none" stroke="black" points="179.5,-36 73.5,-36 73.5,0 179.5,0 179.5,-36"/>
<text text-anchor="middle" x="126.5" y="-12.95" font-family="Times,serif" font-size="14.00">calcipy.can_skip</text>
</g>
<!-- calcipy.check_for_stale_packages -->
<g id="node3" class="node">
<title>calcipy.check_for_stale_packages</title>
<polygon fill="none" stroke="black" points="397.38,-36 197.62,-36 197.62,0 397.38,0 397.38,-36"/>
<text text-anchor="middle" x="297.5" y="-12.95" font-family="Times,serif" font-size="14.00">calcipy.check_for_stale_packages</text>
</g>
<!-- calcipy.check_for_stale_packages._check_for_stale_packages -->
<g id="node4" class="node">
<title>calcipy.check_for_stale_packages._check_for_stale_packages</title>
<polygon fill="none" stroke="black" points="473.5,-108 121.5,-108 121.5,-72 473.5,-72 473.5,-108"/>
<text text-anchor="middle" x="297.5" y="-84.95" font-family="Times,serif" font-size="14.00">calcipy.check_for_stale_packages._check_for_stale_packages</text>
</g>
<!-- calcipy.check_for_stale_packages&#45;&gt;calcipy.check_for_stale_packages._check_for_stale_packages -->
<g id="edge1" class="edge">
<title>calcipy.check_for_stale_packages&#45;&gt;calcipy.check_for_stale_packages._check_for_stale_packages</title>
<path fill="none" stroke="black" d="M297.5,-36.3C297.5,-44.1 297.5,-53.49 297.5,-62.17"/>
<polygon fill="black" stroke="black" points="297.5,-71.9 293,-61.9 297.5,-66.9 297.5,-61.9 297.5,-61.9 297.5,-61.9 297.5,-66.9 302,-61.9 297.5,-71.9 297.5,-71.9"/>
</g>
<!-- calcipy.cli -->
<g id="node5" class="node">
<title>calcipy.cli</title>
<polygon fill="none" stroke="black" points="1189.25,-108 1117.75,-108 1117.75,-72 1189.25,-72 1189.25,-108"/>
<text text-anchor="middle" x="1153.5" y="-84.95" font-family="Times,serif" font-size="14.00">calcipy.cli</text>
</g>
<!-- calcipy.invoke_helpers -->
<g id="node14" class="node">
<title>calcipy.invoke_helpers</title>
<polygon fill="none" stroke="black" points="1223.75,-180 1083.25,-180 1083.25,-144 1223.75,-144 1223.75,-180"/>
<text text-anchor="middle" x="1153.5" y="-156.95" font-family="Times,serif" font-size="14.00">calcipy.invoke_helpers</text>
</g>
<!-- calcipy.cli&#45;&gt;calcipy.invoke_helpers -->
<g id="edge2" class="edge">
<title>calcipy.cli&#45;&gt;calcipy.invoke_helpers</title>
<path fill="none" stroke="black" d="M1153.5,-108.3C1153.5,-116.1 1153.5,-125.49 1153.5,-134.17"/>
<polygon fill="black" stroke="black" points="1153.5,-143.9 1149,-133.9 1153.5,-138.9 1153.5,-133.9 1153.5,-133.9 1153.5,-133.9 1153.5,-138.9 1158,-133.9 1153.5,-143.9 1153.5,-143.9"/>
</g>
<!-- calcipy.tasks._invoke -->
<g id="node21" class="node">
<title>calcipy.tasks._invoke</title>
<polygon fill="none" stroke="black" points="1064.62,-252 932.38,-252 932.38,-216 1064.62,-216 1064.62,-252"/>
<text text-anchor="middle" x="998.5" y="-228.95" font-family="Times,serif" font-size="14.00">calcipy.tasks._invoke</text>
</g>
<!-- calcipy.cli&#45;&gt;calcipy.tasks._invoke -->
<g id="edge3" class="edge">
<title>calcipy.cli&#45;&gt;calcipy.tasks._invoke</title>
<path fill="none" stroke="black" d="M1123.59,-108.35C1108.2,-117.94 1089.55,-130.6 1074.5,-144 1052.69,-163.42 1031.41,-189.09 1016.95,-207.87"/>
<polygon fill="black" stroke="black" points="1010.99,-215.71 1013.45,-205.02 1014.01,-211.73 1017.04,-207.74 1017.04,-207.74 1017.04,-207.74 1014.01,-211.73 1020.62,-210.47 1010.99,-215.71 1010.99,-215.71"/>
</g>
<!-- calcipy.code_tag_collector -->
<g id="node6" class="node">
<title>calcipy.code_tag_collector</title>
<polygon fill="none" stroke="black" points="1529.88,-36 1369.12,-36 1369.12,0 1529.88,0 1529.88,-36"/>
<text text-anchor="middle" x="1449.5" y="-12.95" font-family="Times,serif" font-size="14.00">calcipy.code_tag_collector</text>
</g>
<!-- calcipy.code_tag_collector._collector -->
<g id="node7" class="node">
<title>calcipy.code_tag_collector._collector</title>
<polygon fill="none" stroke="black" points="1558.38,-108 1340.62,-108 1340.62,-72 1558.38,-72 1558.38,-108"/>
<text text-anchor="middle" x="1449.5" y="-84.95" font-family="Times,serif" font-size="14.00">calcipy.code_tag_collector._collector</text>
</g>
<!-- calcipy.code_tag_collector&#45;&gt;calcipy.code_tag_collector._collector -->
<g id="edge4" class="edge">
<title>calcipy.code_tag_collector&#45;&gt;calcipy.code_tag_collector._collector</title>
<path fill="none" stroke="black" d="M1449.5,-36.3C1449.5,-44.1 1449.5,-53.49 1449.5,-62.17"/>
<polygon fill="black" stroke="black" points="1449.5,-71.9 1445,-61.9 1449.5,-66.9 1449.5,-61.9 1449.5,-61.9 1449.5,-61.9 1449.5,-66.9 1454,-61.9 1449.5,-71.9 1449.5,-71.9"/>
</g>
<!-- calcipy.dot_dict -->
<g id="node8" class="node">
<title>calcipy.dot_dict</title>
<polygon fill="none" stroke="black" points="1705.62,-36 1603.38,-36 1603.38,0 1705.62,0 1705.62,-36"/>
<text text-anchor="middle" x="1654.5" y="-12.95" font-family="Times,serif" font-size="14.00">calcipy.dot_dict</text>
</g>
<!-- calcipy.dot_dict._dot_dict -->
<g id="node9" class="node">
<title>calcipy.dot_dict._dot_dict</title>
<polygon fill="none" stroke="black" points="1733,-108 1576,-108 1576,-72 1733,-72 1733,-108"/>
<text text-anchor="middle" x="1654.5" y="-84.95" font-family="Times,serif" font-size="14.00">calcipy.dot_dict._dot_dict</text>
</g>
<!-- calcipy.dot_dict&#45;&gt;calcipy.dot_dict._dot_dict -->
<g id="edge5" class="edge">
<title>calcipy.dot_dict&#45;&gt;calcipy.dot_dict._dot_dict</title>
<path fill="none" stroke="black" d="M1654.5,-36.3C1654.5,-44.1 1654.5,-53.49 1654.5,-62.17"/>
<polygon fill="black" stroke="black" points="1654.5,-71.9 1650,-61.9 1654.5,-66.9 1654.5,-61.9 1654.5,-61.9 1654.5,-61.9 1654.5,-66.9 1659,-61.9 1654.5,-71.9 1654.5,-71.9"/>
</g>
<!-- calcipy.experiments -->
<g id="node10" class="node">
<title>calcipy.experiments</title>
<polygon fill="none" stroke="black" points="1848.88,-36 1724.12,-36 1724.12,0 1848.88,0 1848.88,-36"/>
<text text-anchor="middle" x="1786.5" y="-12.95" font-family="Times,serif" font-size="14.00">calcipy.experiments</text>
</g>
<!-- calcipy.experiments.bump_programmatically -->
<g id="node11" class="node">
<title>calcipy.experiments.bump_programmatically</title>
<polygon fill="none" stroke="black" points="2131.62,-36 1867.38,-36 1867.38,0 2131.62,0 2131.62,-36"/>
<text text-anchor="middle" x="1999.5" y="-12.95" font-family="Times,serif" font-size="14.00">calcipy.experiments.bump_programmatically</text>
</g>
<!-- calcipy.experiments.check_duplicate_test_names -->
<g id="node12" class="node">
<title>calcipy.experiments.check_duplicate_test_names</title>
<polygon fill="none" stroke="black" points="2433.38,-36 2149.62,-36 2149.62,0 2433.38,0 2433.38,-36"/>
<text text-anchor="middle" x="2291.5" y="-12.95" font-family="Times,serif" font-size="14.00">calcipy.experiments.check_duplicate_test_names</text>
</g>
<!-- calcipy.file_search -->
<g id="node13" class="node">
<title>calcipy.file_search</title>
<polygon fill="none" stroke="black" points="2569.12,-36 2451.88,-36 2451.88,0 2569.12,0 2569.12,-36"/>
<text text-anchor="middle" x="2510.5" y="-12.95" font-family="Times,serif" font-size="14.00">calcipy.file_search</text>
</g>
<!-- calcipy.md_writer -->
<g id="node15" class="node">
<title>calcipy.md_writer</title>
<polygon fill="none" stroke="black" points="2702,-36 2587,-36 2587,0 2702,0 2702,-36"/>
<text text-anchor="middle" x="2644.5" y="-12.95" font-family="Times,serif" font-size="14.00">calcipy.md_writer</text>
</g>
<!-- calcipy.md_writer._writer -->
<g id="node16" class="node">
<title>calcipy.md_writer._writer</title>
<polygon fill="none" stroke="black" points="2723,-108 2566,-108 2566,-72 2723,-72 2723,-108"/>
<text text-anchor="middle" x="2644.5" y="-84.95" font-family="Times,serif" font-size="14.00">calcipy.md_writer._writer</text>
</g>
<!-- calcipy.md_writer&#45;&gt;calcipy.md_writer._writer -->
<g id="edge6" class="edge">
<title>calcipy.md_writer&#45;&gt;calcipy.md_writer._writer</title>
<path fill="none" stroke="black" d="M2644.5,-36.3C2644.5,-44.1 2644.5,-53.49 2644.5,-62.17"/>
<polygon fill="black" stroke="black" points="2644.5,-71.9 2640,-61.9 2644.5,-66.9 2644.5,-61.9 2644.5,-61.9 2644.5,-61.9 2644.5,-66.9 2649,-61.9 2644.5,-71.9 2644.5,-71.9"/>
</g>
<!-- calcipy.noxfile -->
<g id="node17" class="node">
<title>calcipy.noxfile</title>
<polygon fill="none" stroke="black" points="2861.62,-36 2765.38,-36 2765.38,0 2861.62,0 2861.62,-36"/>
<text text-anchor="middle" x="2813.5" y="-12.95" font-family="Times,serif" font-size="14.00">calcipy.noxfile</text>
</g>
<!-- calcipy.noxfile._noxfile -->
<g id="node18" class="node">
<title>calcipy.noxfile._noxfile</title>
<polygon fill="none" stroke="black" points="2886,-108 2741,-108 2741,-72 2886,-72 2886,-108"/>
<text text-anchor="middle" x="2813.5" y="-84.95" font-family="Times,serif" font-size="14.00">calcipy.noxfile._noxfile</text>
</g>
<!-- calcipy.noxfile&#45;&gt;calcipy.noxfile._noxfile -->
<g id="edge7" class="edge">
<title>calcipy.noxfile&#45;&gt;calcipy.noxfile._noxfile</title>
<path fill="none" stroke="black" d="M2813.5,-36.3C2813.5,-44.1 2813.5,-53.49 2813.5,-62.17"/>
<polygon fill="black" stroke="black" points="2813.5,-71.9 2809,-61.9 2813.5,-66.9 2813.5,-61.9 2813.5,-61.9 2813.5,-61.9 2813.5,-66.9 2818,-61.9 2813.5,-71.9 2813.5,-71.9"/>
</g>
<!-- calcipy.scripts -->
<g id="node19" class="node">
<title>calcipy.scripts</title>
<polygon fill="none" stroke="black" points="1040.12,-36 946.88,-36 946.88,0 1040.12,0 1040.12,-36"/>
<text text-anchor="middle" x="993.5" y="-12.95" font-family="Times,serif" font-size="14.00">calcipy.scripts</text>
</g>
<!-- calcipy.scripts&#45;&gt;calcipy.cli -->
<g id="edge8" class="edge">
<title>calcipy.scripts&#45;&gt;calcipy.cli</title>
<path fill="none" stroke="black" d="M1033.46,-36.48C1056.18,-46.42 1084.7,-58.9 1108.24,-69.2"/>
<polygon fill="black" stroke="black" points="1117.32,-73.17 1106.36,-73.29 1112.74,-71.17 1108.16,-69.16 1108.16,-69.16 1108.16,-69.16 1112.74,-71.17 1109.97,-65.04 1117.32,-73.17 1117.32,-73.17"/>
</g>
<!-- calcipy.tasks -->
<g id="node20" class="node">
<title>calcipy.tasks</title>
<polygon fill="none" stroke="black" points="577,-108 492,-108 492,-72 577,-72 577,-108"/>
<text text-anchor="middle" x="534.5" y="-84.95" font-family="Times,serif" font-size="14.00">calcipy.tasks</text>
</g>
<!-- calcipy.scripts&#45;&gt;calcipy.tasks -->
<g id="edge9" class="edge">
<title>calcipy.scripts&#45;&gt;calcipy.tasks</title>
<path fill="none" stroke="black" d="M946.66,-22.74C871.25,-29.31 718.51,-44.87 591.5,-72 589.9,-72.34 588.29,-72.7 586.66,-73.09"/>
<polygon fill="black" stroke="black" points="577.26,-75.45 585.86,-68.65 582.11,-74.23 586.96,-73.01 586.96,-73.01 586.96,-73.01 582.11,-74.23 588.06,-77.38 577.26,-75.45 577.26,-75.45"/>
</g>
<!-- calcipy.scripts&#45;&gt;calcipy.tasks._invoke -->
<g id="edge10" class="edge">
<title>calcipy.scripts&#45;&gt;calcipy.tasks._invoke</title>
<path fill="none" stroke="black" d="M1033.18,-36.34C1047.64,-44.85 1062.42,-56.63 1070.5,-72 1077.94,-86.16 1076.3,-93.09 1070.5,-108 1062.63,-128.23 1049.35,-125.81 1037.5,-144 1024.7,-163.65 1014.3,-188.2 1007.47,-206.54"/>
<polygon fill="black" stroke="black" points="1004.14,-215.76 1003.3,-204.83 1005.84,-211.06 1007.54,-206.35 1007.54,-206.35 1007.54,-206.35 1005.84,-211.06 1011.77,-207.88 1004.14,-215.76 1004.14,-215.76"/>
</g>
<!-- calcipy.tasks.all_tasks -->
<g id="node22" class="node">
<title>calcipy.tasks.all_tasks</title>
<polygon fill="none" stroke="black" points="1061.5,-108 925.5,-108 925.5,-72 1061.5,-72 1061.5,-108"/>
<text text-anchor="middle" x="993.5" y="-84.95" font-family="Times,serif" font-size="14.00">calcipy.tasks.all_tasks</text>
</g>
<!-- calcipy.scripts&#45;&gt;calcipy.tasks.all_tasks -->
<g id="edge11" class="edge">
<title>calcipy.scripts&#45;&gt;calcipy.tasks.all_tasks</title>
<path fill="none" stroke="black" d="M993.5,-36.3C993.5,-44.1 993.5,-53.49 993.5,-62.17"/>
<polygon fill="black" stroke="black" points="993.5,-71.9 989,-61.9 993.5,-66.9 993.5,-61.9 993.5,-61.9 993.5,-61.9 993.5,-66.9 998,-61.9 993.5,-71.9 993.5,-71.9"/>
</g>
<!-- calcipy.tasks.defaults -->
<g id="node24" class="node">
<title>calcipy.tasks.defaults</title>
<polygon fill="none" stroke="black" points="951.25,-180 819.75,-180 819.75,-144 951.25,-144 951.25,-180"/>
<text text-anchor="middle" x="885.5" y="-156.95" font-family="Times,serif" font-size="14.00">calcipy.tasks.defaults</text>
</g>
<!-- calcipy.scripts&#45;&gt;calcipy.tasks.defaults -->
<g id="edge12" class="edge">
<title>calcipy.scripts&#45;&gt;calcipy.tasks.defaults</title>
<path fill="none" stroke="black" d="M946.59,-24.5C892.25,-31.94 807.69,-47.22 788.5,-72 778.7,-84.65 780.34,-94.24 788.5,-108 796.29,-121.13 808.61,-131.22 821.89,-138.89"/>
<polygon fill="black" stroke="black" points="830.72,-143.59 819.77,-142.86 826.3,-141.24 821.89,-138.89 821.89,-138.89 821.89,-138.89 826.3,-141.24 824,-134.92 830.72,-143.59 830.72,-143.59"/>
</g>
<!-- calcipy.tasks.lint -->
<g id="node27" class="node">
<title>calcipy.tasks.lint</title>
<polygon fill="none" stroke="black" points="711.88,-252 605.12,-252 605.12,-216 711.88,-216 711.88,-252"/>
<text text-anchor="middle" x="658.5" y="-228.95" font-family="Times,serif" font-size="14.00">calcipy.tasks.lint</text>
</g>
<!-- calcipy.scripts&#45;&gt;calcipy.tasks.lint -->
<g id="edge13" class="edge">
<title>calcipy.scripts&#45;&gt;calcipy.tasks.lint</title>
<path fill="none" stroke="black" d="M946.63,-18.47C856.82,-18.57 665.67,-24.5 624.5,-72 591.38,-110.21 620.31,-172.55 641.32,-207.38"/>
<polygon fill="black" stroke="black" points="646.45,-215.62 637.35,-209.51 643.81,-211.37 641.16,-207.13 641.16,-207.13 641.16,-207.13 643.81,-211.37 644.98,-204.75 646.45,-215.62 646.45,-215.62"/>
</g>
<!-- calcipy.tasks.pack -->
<g id="node29" class="node">
<title>calcipy.tasks.pack</title>
<polygon fill="none" stroke="black" points="1393.62,-180 1279.38,-180 1279.38,-144 1393.62,-144 1393.62,-180"/>
<text text-anchor="middle" x="1336.5" y="-156.95" font-family="Times,serif" font-size="14.00">calcipy.tasks.pack</text>
</g>
<!-- calcipy.scripts&#45;&gt;calcipy.tasks.pack -->
<g id="edge14" class="edge">
<title>calcipy.scripts&#45;&gt;calcipy.tasks.pack</title>
<path fill="none" stroke="black" d="M1040.53,-18.55C1097.71,-20.06 1195.25,-29.42 1265.5,-72 1290.53,-87.17 1310.36,-114.57 1322.63,-134.98"/>
<polygon fill="black" stroke="black" points="1327.57,-143.51 1318.67,-137.11 1325.07,-139.19 1322.56,-134.86 1322.56,-134.86 1322.56,-134.86 1325.07,-139.19 1326.46,-132.6 1327.57,-143.51 1327.57,-143.51"/>
</g>
<!-- calcipy.tasks.tags -->
<g id="node31" class="node">
<title>calcipy.tasks.tags</title>
<polygon fill="none" stroke="black" points="907.75,-108 797.25,-108 797.25,-72 907.75,-72 907.75,-108"/>
<text text-anchor="middle" x="852.5" y="-84.95" font-family="Times,serif" font-size="14.00">calcipy.tasks.tags</text>
</g>
<!-- calcipy.scripts&#45;&gt;calcipy.tasks.tags -->
<g id="edge15" class="edge">
<title>calcipy.scripts&#45;&gt;calcipy.tasks.tags</title>
<path fill="none" stroke="black" d="M958.28,-36.48C939.47,-45.82 916.13,-57.41 896.17,-67.32"/>
<polygon fill="black" stroke="black" points="887.27,-71.74 894.22,-63.26 891.75,-69.52 896.22,-67.29 896.22,-67.29 896.22,-67.29 891.75,-69.52 898.23,-71.32 887.27,-71.74 887.27,-71.74"/>
</g>
<!-- calcipy.tasks.types -->
<g id="node33" class="node">
<title>calcipy.tasks.types</title>
<polygon fill="none" stroke="black" points="1057.12,-324 939.88,-324 939.88,-288 1057.12,-288 1057.12,-324"/>
<text text-anchor="middle" x="998.5" y="-300.95" font-family="Times,serif" font-size="14.00">calcipy.tasks.types</text>
</g>
<!-- calcipy.scripts&#45;&gt;calcipy.tasks.types -->
<g id="edge16" class="edge">
<title>calcipy.scripts&#45;&gt;calcipy.tasks.types</title>
<path fill="none" stroke="black" d="M1040.52,-20.04C1085.72,-23.39 1153.61,-34.85 1198.5,-72 1225.76,-94.56 1224.76,-109.47 1232.5,-144 1236,-159.61 1240.73,-166.28 1232.5,-180 1196.9,-239.37 1122.44,-272.12 1067.02,-289.03"/>
<polygon fill="black" stroke="black" points="1057.61,-291.81 1065.92,-284.67 1062.4,-290.4 1067.2,-288.98 1067.2,-288.98 1067.2,-288.98 1062.4,-290.4 1068.47,-293.3 1057.61,-291.81 1057.61,-291.81"/>
</g>
<!-- calcipy.tasks._invoke&#45;&gt;calcipy.tasks.types -->
<g id="edge17" class="edge">
<title>calcipy.tasks._invoke&#45;&gt;calcipy.tasks.types</title>
<path fill="none" stroke="black" d="M998.5,-252.3C998.5,-260.1 998.5,-269.49 998.5,-278.17"/>
<polygon fill="black" stroke="black" points="998.5,-287.9 994,-277.9 998.5,-282.9 998.5,-277.9 998.5,-277.9 998.5,-277.9 998.5,-282.9 1003,-277.9 998.5,-287.9 998.5,-287.9"/>
</g>
<!-- calcipy.tasks.all_tasks&#45;&gt;calcipy.tasks._invoke -->
<g id="edge18" class="edge">
<title>calcipy.tasks.all_tasks&#45;&gt;calcipy.tasks._invoke</title>
<path fill="none" stroke="black" d="M994.11,-108.41C994.97,-132.82 996.54,-177.42 997.55,-206.11"/>
<polygon fill="black" stroke="black" points="997.9,-215.89 993.05,-206.05 997.72,-210.89 997.55,-205.9 997.55,-205.9 997.55,-205.9 997.72,-210.89 1002.04,-205.74 997.9,-215.89 997.9,-215.89"/>
</g>
<!-- calcipy.tasks.all_tasks&#45;&gt;calcipy.tasks.defaults -->
<g id="edge19" class="edge">
<title>calcipy.tasks.all_tasks&#45;&gt;calcipy.tasks.defaults</title>
<path fill="none" stroke="black" d="M966.53,-108.48C952.5,-117.57 935.2,-128.78 920.2,-138.51"/>
<polygon fill="black" stroke="black" points="912.13,-143.74 918.07,-134.52 916.33,-141.02 920.52,-138.3 920.52,-138.3 920.52,-138.3 916.33,-141.02 922.97,-142.08 912.13,-143.74 912.13,-143.74"/>
</g>
<!-- calcipy.tasks.cl -->
<g id="node23" class="node">
<title>calcipy.tasks.cl</title>
<polygon fill="none" stroke="black" points="599.75,-324 501.25,-324 501.25,-288 599.75,-288 599.75,-324"/>
<text text-anchor="middle" x="550.5" y="-300.95" font-family="Times,serif" font-size="14.00">calcipy.tasks.cl</text>
</g>
<!-- calcipy.tasks.executable_utils -->
<g id="node26" class="node">
<title>calcipy.tasks.executable_utils</title>
<polygon fill="none" stroke="black" points="973.75,-396 797.25,-396 797.25,-360 973.75,-360 973.75,-396"/>
<text text-anchor="middle" x="885.5" y="-372.95" font-family="Times,serif" font-size="14.00">calcipy.tasks.executable_utils</text>
</g>
<!-- calcipy.tasks.cl&#45;&gt;calcipy.tasks.executable_utils -->
<g id="edge20" class="edge">
<title>calcipy.tasks.cl&#45;&gt;calcipy.tasks.executable_utils</title>
<path fill="none" stroke="black" d="M600.09,-321.88C602.93,-322.62 605.75,-323.33 608.5,-324 667.31,-338.21 733.87,-351.05 787.01,-360.53"/>
<polygon fill="black" stroke="black" points="796.77,-362.26 786.14,-364.95 791.85,-361.39 786.93,-360.52 786.93,-360.52 786.93,-360.52 791.85,-361.39 787.71,-356.08 796.77,-362.26 796.77,-362.26"/>
</g>
<!-- calcipy.tasks.defaults&#45;&gt;calcipy.tasks._invoke -->
<g id="edge21" class="edge">
<title>calcipy.tasks.defaults&#45;&gt;calcipy.tasks._invoke</title>
<path fill="none" stroke="black" d="M913.72,-180.48C928.39,-189.57 946.49,-200.78 962.2,-210.51"/>
<polygon fill="black" stroke="black" points="970.64,-215.74 959.77,-214.3 966.39,-213.11 962.14,-210.47 962.14,-210.47 962.14,-210.47 966.39,-213.11 964.51,-206.65 970.64,-215.74 970.64,-215.74"/>
</g>
<!-- calcipy.tasks.doc -->
<g id="node25" class="node">
<title>calcipy.tasks.doc</title>
<polygon fill="none" stroke="black" points="725.62,-324 617.38,-324 617.38,-288 725.62,-288 725.62,-324"/>
<text text-anchor="middle" x="671.5" y="-300.95" font-family="Times,serif" font-size="14.00">calcipy.tasks.doc</text>
</g>
<!-- calcipy.tasks.doc&#45;&gt;calcipy.tasks.executable_utils -->
<g id="edge22" class="edge">
<title>calcipy.tasks.doc&#45;&gt;calcipy.tasks.executable_utils</title>
<path fill="none" stroke="black" d="M724.95,-324.48C754.68,-334.21 791.84,-346.36 822.93,-356.53"/>
<polygon fill="black" stroke="black" points="832.36,-359.62 821.46,-360.79 827.61,-358.06 822.86,-356.51 822.86,-356.51 822.86,-356.51 827.61,-358.06 824.26,-352.23 832.36,-359.62 832.36,-359.62"/>
</g>
<!-- calcipy.tasks.lint&#45;&gt;calcipy.tasks.executable_utils -->
<g id="edge23" class="edge">
<title>calcipy.tasks.lint&#45;&gt;calcipy.tasks.executable_utils</title>
<path fill="none" stroke="black" d="M684.58,-252.36C699.44,-262.45 718.27,-275.59 734.5,-288 754.3,-303.14 756.61,-310.41 777.5,-324 795.56,-335.74 816.59,-346.63 835.27,-355.44"/>
<polygon fill="black" stroke="black" points="844.23,-359.59 833.27,-359.47 839.7,-357.49 835.16,-355.38 835.16,-355.38 835.16,-355.38 839.7,-357.49 837.05,-351.3 844.23,-359.59 844.23,-359.59"/>
</g>
<!-- calcipy.tasks.nox -->
<g id="node28" class="node">
<title>calcipy.tasks.nox</title>
<polygon fill="none" stroke="black" points="1427,-324 1318,-324 1318,-288 1427,-288 1427,-324"/>
<text text-anchor="middle" x="1372.5" y="-300.95" font-family="Times,serif" font-size="14.00">calcipy.tasks.nox</text>
</g>
<!-- calcipy.tasks.nox&#45;&gt;calcipy.tasks.executable_utils -->
<g id="edge24" class="edge">
<title>calcipy.tasks.nox&#45;&gt;calcipy.tasks.executable_utils</title>
<path fill="none" stroke="black" d="M1317.64,-321.12C1312.87,-322.17 1308.11,-323.14 1303.5,-324 1194.89,-344.2 1068.95,-359.01 983.93,-367.76"/>
<polygon fill="black" stroke="black" points="974.03,-368.77 983.52,-363.28 979,-368.26 983.98,-367.76 983.98,-367.76 983.98,-367.76 979,-368.26 984.44,-372.23 974.03,-368.77 974.03,-368.77"/>
</g>
<!-- calcipy.tasks.pack&#45;&gt;calcipy.tasks.executable_utils -->
<g id="edge25" class="edge">
<title>calcipy.tasks.pack&#45;&gt;calcipy.tasks.executable_utils</title>
<path fill="none" stroke="black" d="M1326.66,-180.46C1314.63,-200.36 1292.48,-232.64 1265.5,-252 1181.04,-312.59 1065.46,-345.06 984.01,-361.58"/>
<polygon fill="black" stroke="black" points="974.25,-363.51 983.18,-357.15 979.15,-362.54 984.05,-361.57 984.05,-361.57 984.05,-361.57 979.15,-362.54 984.93,-365.98 974.25,-363.51 974.25,-363.51"/>
</g>
<!-- calcipy.tasks.stale -->
<g id="node30" class="node">
<title>calcipy.tasks.stale</title>
<polygon fill="none" stroke="black" points="1558.25,-324 1444.75,-324 1444.75,-288 1558.25,-288 1558.25,-324"/>
<text text-anchor="middle" x="1501.5" y="-300.95" font-family="Times,serif" font-size="14.00">calcipy.tasks.stale</text>
</g>
<!-- calcipy.tasks.stale&#45;&gt;calcipy.tasks.executable_utils -->
<g id="edge26" class="edge">
<title>calcipy.tasks.stale&#45;&gt;calcipy.tasks.executable_utils</title>
<path fill="none" stroke="black" d="M1444.38,-322.29C1441.39,-322.91 1438.41,-323.49 1435.5,-324 1278.9,-351.54 1094.53,-365.64 983.99,-372.15"/>
<polygon fill="black" stroke="black" points="974.18,-372.72 983.91,-367.65 979.18,-372.43 984.17,-372.14 984.17,-372.14 984.17,-372.14 979.18,-372.43 984.43,-376.63 974.18,-372.72 974.18,-372.72"/>
</g>
<!-- calcipy.tasks.tags&#45;&gt;calcipy.tasks.defaults -->
<g id="edge27" class="edge">
<title>calcipy.tasks.tags&#45;&gt;calcipy.tasks.defaults</title>
<path fill="none" stroke="black" d="M860.66,-108.3C864.45,-116.36 869.05,-126.11 873.25,-135.02"/>
<polygon fill="black" stroke="black" points="877.44,-143.9 869.1,-136.77 875.3,-139.37 873.17,-134.85 873.17,-134.85 873.17,-134.85 875.3,-139.37 877.24,-132.93 877.44,-143.9 877.44,-143.9"/>
</g>
<!-- calcipy.tasks.test -->
<g id="node32" class="node">
<title>calcipy.tasks.test</title>
<polygon fill="none" stroke="black" points="741.25,-108 633.75,-108 633.75,-72 741.25,-72 741.25,-108"/>
<text text-anchor="middle" x="687.5" y="-84.95" font-family="Times,serif" font-size="14.00">calcipy.tasks.test</text>
</g>
<!-- calcipy.tasks.test&#45;&gt;calcipy.tasks.defaults -->
<g id="edge28" class="edge">
<title>calcipy.tasks.test&#45;&gt;calcipy.tasks.defaults</title>
<path fill="none" stroke="black" d="M736.95,-108.48C764.34,-118.17 798.55,-130.26 827.23,-140.4"/>
<polygon fill="black" stroke="black" points="836.33,-143.62 825.41,-144.53 831.62,-141.95 826.91,-140.29 826.91,-140.29 826.91,-140.29 831.62,-141.95 828.41,-136.04 836.33,-143.62 836.33,-143.62"/>
</g>
<!-- calcipy.tasks.test&#45;&gt;calcipy.tasks.executable_utils -->
<g id="edge29" class="edge">
<title>calcipy.tasks.test&#45;&gt;calcipy.tasks.executable_utils</title>
<path fill="none" stroke="black" d="M699.59,-108.46C733.29,-157.14 828.41,-294.54 867.94,-351.63"/>
<polygon fill="black" stroke="black" points="873.57,-359.77 864.18,-354.11 870.72,-355.66 867.88,-351.55 867.88,-351.55 867.88,-351.55 870.72,-355.66 871.58,-348.99 873.57,-359.77 873.57,-359.77"/>
</g>
<!-- calcipy.tasks.types&#45;&gt;calcipy.tasks.executable_utils -->
<g id="edge30" class="edge">
<title>calcipy.tasks.types&#45;&gt;calcipy.tasks.executable_utils</title>
<path fill="none" stroke="black" d="M970.28,-324.48C955.61,-333.57 937.51,-344.78 921.8,-354.51"/>
<polygon fill="black" stroke="black" points="913.36,-359.74 919.49,-350.65 917.61,-357.11 921.86,-354.47 921.86,-354.47 921.86,-354.47 917.61,-357.11 924.23,-358.3 913.36,-359.74 913.36,-359.74"/>
</g>
</g>
</svg>
