<?xml version="1.0" encoding="UTF-8" standalone="no"?>
<!DOCTYPE svg PUBLIC "-//W3C//DTD SVG 1.1//EN"
 "http://www.w3.org/Graphics/SVG/1.1/DTD/svg11.dtd">
<!-- Generated by graphviz version 2.43.0 (0)
 -->
<!-- Title: packages Pages: 1 -->
<svg width="3637pt" height="404pt"
 viewBox="0.00 0.00 3637.00 404.00" xmlns="http://www.w3.org/2000/svg" xmlns:xlink="http://www.w3.org/1999/xlink">
<g id="graph0" class="graph" transform="scale(1 1) rotate(0) translate(4 400)">
<title>packages</title>
<polygon fill="white" stroke="transparent" points="-4,4 -4,-400 3633,-400 3633,4 -4,4"/>
<!-- calcipy -->
<g id="node1" class="node">
<title>calcipy</title>
<polygon fill="none" stroke="black" points="66,-36 0,-36 0,0 66,0 66,-36"/>
<text text-anchor="middle" x="33" y="-14.3" font-family="Times,serif" font-size="14.00">calcipy</text>
</g>
<!-- calcipy.can_skip -->
<g id="node2" class="node">
<title>calcipy.can_skip</title>
<polygon fill="none" stroke="black" points="213.5,-36 84.5,-36 84.5,0 213.5,0 213.5,-36"/>
<text text-anchor="middle" x="149" y="-14.3" font-family="Times,serif" font-size="14.00">calcipy.can_skip</text>
</g>
<!-- calcipy.check_for_stale_packages -->
<g id="node3" class="node">
<title>calcipy.check_for_stale_packages</title>
<polygon fill="none" stroke="black" points="482,-36 232,-36 232,0 482,0 482,-36"/>
<text text-anchor="middle" x="357" y="-14.3" font-family="Times,serif" font-size="14.00">calcipy.check_for_stale_packages</text>
</g>
<!-- calcipy.check_for_stale_packages._check_for_stale_packages -->
<g id="node4" class="node">
<title>calcipy.check_for_stale_packages._check_for_stale_packages</title>
<polygon fill="none" stroke="black" points="578.5,-108 135.5,-108 135.5,-72 578.5,-72 578.5,-108"/>
<text text-anchor="middle" x="357" y="-86.3" font-family="Times,serif" font-size="14.00">calcipy.check_for_stale_packages._check_for_stale_packages</text>
</g>
<!-- calcipy.check_for_stale_packages&#45;&gt;calcipy.check_for_stale_packages._check_for_stale_packages -->
<g id="edge1" class="edge">
<title>calcipy.check_for_stale_packages&#45;&gt;calcipy.check_for_stale_packages._check_for_stale_packages</title>
<path fill="none" stroke="black" d="M357,-36.3C357,-44.02 357,-53.29 357,-61.89"/>
<polygon fill="black" stroke="black" points="357,-71.9 352.5,-61.9 357,-66.9 357,-61.9 357,-61.9 357,-61.9 357,-66.9 361.5,-61.9 357,-71.9 357,-71.9"/>
</g>
<!-- calcipy.cli -->
<g id="node5" class="node">
<title>calcipy.cli</title>
<polygon fill="none" stroke="black" points="964.5,-108 879.5,-108 879.5,-72 964.5,-72 964.5,-108"/>
<text text-anchor="middle" x="922" y="-86.3" font-family="Times,serif" font-size="14.00">calcipy.cli</text>
</g>
<!-- calcipy.invoke_helpers -->
<g id="node14" class="node">
<title>calcipy.invoke_helpers</title>
<polygon fill="none" stroke="black" points="1202.5,-180 1027.5,-180 1027.5,-144 1202.5,-144 1202.5,-180"/>
<text text-anchor="middle" x="1115" y="-158.3" font-family="Times,serif" font-size="14.00">calcipy.invoke_helpers</text>
</g>
<!-- calcipy.cli&#45;&gt;calcipy.invoke_helpers -->
<g id="edge2" class="edge">
<title>calcipy.cli&#45;&gt;calcipy.invoke_helpers</title>
<path fill="none" stroke="black" d="M964.83,-106.54C992.39,-116.53 1028.51,-129.63 1058.42,-140.48"/>
<polygon fill="black" stroke="black" points="1067.89,-143.91 1056.96,-144.73 1063.19,-142.21 1058.49,-140.5 1058.49,-140.5 1058.49,-140.5 1063.19,-142.21 1060.02,-136.27 1067.89,-143.91 1067.89,-143.91"/>
</g>
<!-- calcipy.tasks._invoke -->
<g id="node21" class="node">
<title>calcipy.tasks._invoke</title>
<polygon fill="none" stroke="black" points="1425,-252 1261,-252 1261,-216 1425,-216 1425,-252"/>
<text text-anchor="middle" x="1343" y="-230.3" font-family="Times,serif" font-size="14.00">calcipy.tasks._invoke</text>
</g>
<!-- calcipy.cli&#45;&gt;calcipy.tasks._invoke -->
<g id="edge3" class="edge">
<title>calcipy.cli&#45;&gt;calcipy.tasks._invoke</title>
<path fill="none" stroke="black" d="M940.37,-108.09C968.08,-133.86 1017.41,-179.71 1018,-180 1091.04,-215.7 1183.21,-228.09 1250.73,-232.05"/>
<polygon fill="black" stroke="black" points="1260.93,-232.6 1250.7,-236.56 1255.93,-232.33 1250.94,-232.07 1250.94,-232.07 1250.94,-232.07 1255.93,-232.33 1251.18,-227.57 1260.93,-232.6 1260.93,-232.6"/>
</g>
<!-- calcipy.code_tag_collector -->
<g id="node6" class="node">
<title>calcipy.code_tag_collector</title>
<polygon fill="none" stroke="black" points="1963,-36 1763,-36 1763,0 1963,0 1963,-36"/>
<text text-anchor="middle" x="1863" y="-14.3" font-family="Times,serif" font-size="14.00">calcipy.code_tag_collector</text>
</g>
<!-- calcipy.code_tag_collector._collector -->
<g id="node7" class="node">
<title>calcipy.code_tag_collector._collector</title>
<polygon fill="none" stroke="black" points="1998.5,-108 1727.5,-108 1727.5,-72 1998.5,-72 1998.5,-108"/>
<text text-anchor="middle" x="1863" y="-86.3" font-family="Times,serif" font-size="14.00">calcipy.code_tag_collector._collector</text>
</g>
<!-- calcipy.code_tag_collector&#45;&gt;calcipy.code_tag_collector._collector -->
<g id="edge4" class="edge">
<title>calcipy.code_tag_collector&#45;&gt;calcipy.code_tag_collector._collector</title>
<path fill="none" stroke="black" d="M1863,-36.3C1863,-44.02 1863,-53.29 1863,-61.89"/>
<polygon fill="black" stroke="black" points="1863,-71.9 1858.5,-61.9 1863,-66.9 1863,-61.9 1863,-61.9 1863,-61.9 1863,-66.9 1867.5,-61.9 1863,-71.9 1863,-71.9"/>
</g>
<!-- calcipy.dot_dict -->
<g id="node8" class="node">
<title>calcipy.dot_dict</title>
<polygon fill="none" stroke="black" points="2176.5,-36 2051.5,-36 2051.5,0 2176.5,0 2176.5,-36"/>
<text text-anchor="middle" x="2114" y="-14.3" font-family="Times,serif" font-size="14.00">calcipy.dot_dict</text>
</g>
<!-- calcipy.dot_dict._dot_dict -->
<g id="node9" class="node">
<title>calcipy.dot_dict._dot_dict</title>
<polygon fill="none" stroke="black" points="2211,-108 2017,-108 2017,-72 2211,-72 2211,-108"/>
<text text-anchor="middle" x="2114" y="-86.3" font-family="Times,serif" font-size="14.00">calcipy.dot_dict._dot_dict</text>
</g>
<!-- calcipy.dot_dict&#45;&gt;calcipy.dot_dict._dot_dict -->
<g id="edge5" class="edge">
<title>calcipy.dot_dict&#45;&gt;calcipy.dot_dict._dot_dict</title>
<path fill="none" stroke="black" d="M2114,-36.3C2114,-44.02 2114,-53.29 2114,-61.89"/>
<polygon fill="black" stroke="black" points="2114,-71.9 2109.5,-61.9 2114,-66.9 2114,-61.9 2114,-61.9 2114,-61.9 2114,-66.9 2118.5,-61.9 2114,-71.9 2114,-71.9"/>
</g>
<!-- calcipy.experiments -->
<g id="node10" class="node">
<title>calcipy.experiments</title>
<polygon fill="none" stroke="black" points="2353,-36 2195,-36 2195,0 2353,0 2353,-36"/>
<text text-anchor="middle" x="2274" y="-14.3" font-family="Times,serif" font-size="14.00">calcipy.experiments</text>
</g>
<!-- calcipy.experiments.bump_programmatically -->
<g id="node11" class="node">
<title>calcipy.experiments.bump_programmatically</title>
<polygon fill="none" stroke="black" points="2707,-36 2371,-36 2371,0 2707,0 2707,-36"/>
<text text-anchor="middle" x="2539" y="-14.3" font-family="Times,serif" font-size="14.00">calcipy.experiments.bump_programmatically</text>
</g>
<!-- calcipy.experiments.check_duplicate_test_names -->
<g id="node12" class="node">
<title>calcipy.experiments.check_duplicate_test_names</title>
<polygon fill="none" stroke="black" points="3087.5,-36 2724.5,-36 2724.5,0 3087.5,0 3087.5,-36"/>
<text text-anchor="middle" x="2906" y="-14.3" font-family="Times,serif" font-size="14.00">calcipy.experiments.check_duplicate_test_names</text>
</g>
<!-- calcipy.file_search -->
<g id="node13" class="node">
<title>calcipy.file_search</title>
<polygon fill="none" stroke="black" points="3250,-36 3106,-36 3106,0 3250,0 3250,-36"/>
<text text-anchor="middle" x="3178" y="-14.3" font-family="Times,serif" font-size="14.00">calcipy.file_search</text>
</g>
<!-- calcipy.md_writer -->
<g id="node15" class="node">
<title>calcipy.md_writer</title>
<polygon fill="none" stroke="black" points="3410,-36 3268,-36 3268,0 3410,0 3410,-36"/>
<text text-anchor="middle" x="3339" y="-14.3" font-family="Times,serif" font-size="14.00">calcipy.md_writer</text>
</g>
<!-- calcipy.md_writer._writer -->
<g id="node16" class="node">
<title>calcipy.md_writer._writer</title>
<polygon fill="none" stroke="black" points="3437,-108 3241,-108 3241,-72 3437,-72 3437,-108"/>
<text text-anchor="middle" x="3339" y="-86.3" font-family="Times,serif" font-size="14.00">calcipy.md_writer._writer</text>
</g>
<!-- calcipy.md_writer&#45;&gt;calcipy.md_writer._writer -->
<g id="edge6" class="edge">
<title>calcipy.md_writer&#45;&gt;calcipy.md_writer._writer</title>
<path fill="none" stroke="black" d="M3339,-36.3C3339,-44.02 3339,-53.29 3339,-61.89"/>
<polygon fill="black" stroke="black" points="3339,-71.9 3334.5,-61.9 3339,-66.9 3339,-61.9 3339,-61.9 3339,-61.9 3339,-66.9 3343.5,-61.9 3339,-71.9 3339,-71.9"/>
</g>
<!-- calcipy.noxfile -->
<g id="node17" class="node">
<title>calcipy.noxfile</title>
<polygon fill="none" stroke="black" points="3600,-36 3484,-36 3484,0 3600,0 3600,-36"/>
<text text-anchor="middle" x="3542" y="-14.3" font-family="Times,serif" font-size="14.00">calcipy.noxfile</text>
</g>
<!-- calcipy.noxfile._noxfile -->
<g id="node18" class="node">
<title>calcipy.noxfile._noxfile</title>
<polygon fill="none" stroke="black" points="3629,-108 3455,-108 3455,-72 3629,-72 3629,-108"/>
<text text-anchor="middle" x="3542" y="-86.3" font-family="Times,serif" font-size="14.00">calcipy.noxfile._noxfile</text>
</g>
<!-- calcipy.noxfile&#45;&gt;calcipy.noxfile._noxfile -->
<g id="edge7" class="edge">
<title>calcipy.noxfile&#45;&gt;calcipy.noxfile._noxfile</title>
<path fill="none" stroke="black" d="M3542,-36.3C3542,-44.02 3542,-53.29 3542,-61.89"/>
<polygon fill="black" stroke="black" points="3542,-71.9 3537.5,-61.9 3542,-66.9 3542,-61.9 3542,-61.9 3542,-61.9 3542,-66.9 3546.5,-61.9 3542,-71.9 3542,-71.9"/>
</g>
<!-- calcipy.scripts -->
<g id="node19" class="node">
<title>calcipy.scripts</title>
<polygon fill="none" stroke="black" points="1214.5,-36 1097.5,-36 1097.5,0 1214.5,0 1214.5,-36"/>
<text text-anchor="middle" x="1156" y="-14.3" font-family="Times,serif" font-size="14.00">calcipy.scripts</text>
</g>
<!-- calcipy.scripts&#45;&gt;calcipy.cli -->
<g id="edge8" class="edge">
<title>calcipy.scripts&#45;&gt;calcipy.cli</title>
<path fill="none" stroke="black" d="M1097.25,-35.58C1063.83,-45.14 1020.98,-57.59 974.24,-71.97"/>
<polygon fill="black" stroke="black" points="964.53,-74.97 972.76,-67.72 969.31,-73.5 974.09,-72.02 974.09,-72.02 974.09,-72.02 969.31,-73.5 975.41,-76.32 964.53,-74.97 964.53,-74.97"/>
</g>
<!-- calcipy.tasks -->
<g id="node20" class="node">
<title>calcipy.tasks</title>
<polygon fill="none" stroke="black" points="1709,-108 1603,-108 1603,-72 1709,-72 1709,-108"/>
<text text-anchor="middle" x="1656" y="-86.3" font-family="Times,serif" font-size="14.00">calcipy.tasks</text>
</g>
<!-- calcipy.scripts&#45;&gt;calcipy.tasks -->
<g id="edge9" class="edge">
<title>calcipy.scripts&#45;&gt;calcipy.tasks</title>
<path fill="none" stroke="black" d="M1214.84,-23.82C1298.47,-31.21 1456.31,-47.15 1589,-72 1590.26,-72.24 1591.53,-72.48 1592.81,-72.74"/>
<polygon fill="black" stroke="black" points="1602.74,-74.84 1592.03,-77.17 1597.85,-73.8 1592.96,-72.77 1592.96,-72.77 1592.96,-72.77 1597.85,-73.8 1593.89,-68.37 1602.74,-74.84 1602.74,-74.84"/>
</g>
<!-- calcipy.scripts&#45;&gt;calcipy.tasks._invoke -->
<g id="edge10" class="edge">
<title>calcipy.scripts&#45;&gt;calcipy.tasks._invoke</title>
<path fill="none" stroke="black" d="M1214.85,-18.71C1307.18,-19.64 1479.53,-27.49 1518,-72 1565.63,-127.11 1464.46,-182.74 1396.99,-211.99"/>
<polygon fill="black" stroke="black" points="1387.71,-215.94 1395.15,-207.88 1392.31,-213.98 1396.91,-212.02 1396.91,-212.02 1396.91,-212.02 1392.31,-213.98 1398.68,-216.16 1387.71,-215.94 1387.71,-215.94"/>
</g>
<!-- calcipy.tasks.all_tasks -->
<g id="node22" class="node">
<title>calcipy.tasks.all_tasks</title>
<polygon fill="none" stroke="black" points="1155,-108 983,-108 983,-72 1155,-72 1155,-108"/>
<text text-anchor="middle" x="1069" y="-86.3" font-family="Times,serif" font-size="14.00">calcipy.tasks.all_tasks</text>
</g>
<!-- calcipy.scripts&#45;&gt;calcipy.tasks.all_tasks -->
<g id="edge11" class="edge">
<title>calcipy.scripts&#45;&gt;calcipy.tasks.all_tasks</title>
<path fill="none" stroke="black" d="M1134.49,-36.3C1123.54,-45.12 1110.05,-55.97 1098.18,-65.53"/>
<polygon fill="black" stroke="black" points="1090.26,-71.9 1095.23,-62.12 1094.15,-68.76 1098.05,-65.63 1098.05,-65.63 1098.05,-65.63 1094.15,-68.76 1100.87,-69.13 1090.26,-71.9 1090.26,-71.9"/>
</g>
<!-- calcipy.tasks.cl -->
<g id="node23" class="node">
<title>calcipy.tasks.cl</title>
<polygon fill="none" stroke="black" points="672,-252 550,-252 550,-216 672,-216 672,-252"/>
<text text-anchor="middle" x="611" y="-230.3" font-family="Times,serif" font-size="14.00">calcipy.tasks.cl</text>
</g>
<!-- calcipy.scripts&#45;&gt;calcipy.tasks.cl -->
<g id="edge12" class="edge">
<title>calcipy.scripts&#45;&gt;calcipy.tasks.cl</title>
<path fill="none" stroke="black" d="M1097.31,-18.37C1014.66,-19.26 860.37,-27.51 738,-72 682.39,-92.22 658.59,-94.61 626,-144 613.97,-162.23 610.59,-187 610.01,-205.78"/>
<polygon fill="black" stroke="black" points="609.95,-215.78 605.51,-205.75 609.98,-210.78 610.01,-205.78 610.01,-205.78 610.01,-205.78 609.98,-210.78 614.51,-205.82 609.95,-215.78 609.95,-215.78"/>
</g>
<!-- calcipy.tasks.defaults -->
<g id="node24" class="node">
<title>calcipy.tasks.defaults</title>
<polygon fill="none" stroke="black" points="1427,-180 1259,-180 1259,-144 1427,-144 1427,-180"/>
<text text-anchor="middle" x="1343" y="-158.3" font-family="Times,serif" font-size="14.00">calcipy.tasks.defaults</text>
</g>
<!-- calcipy.scripts&#45;&gt;calcipy.tasks.defaults -->
<g id="edge13" class="edge">
<title>calcipy.scripts&#45;&gt;calcipy.tasks.defaults</title>
<path fill="none" stroke="black" d="M1214.86,-23.17C1250.98,-28.85 1295.45,-41.96 1323,-72 1338.26,-88.64 1342.73,-114.36 1343.69,-133.87"/>
<polygon fill="black" stroke="black" points="1343.91,-143.98 1339.19,-134.08 1343.8,-138.98 1343.69,-133.99 1343.69,-133.99 1343.69,-133.99 1343.8,-138.98 1348.19,-133.89 1343.91,-143.98 1343.91,-143.98"/>
</g>
<!-- calcipy.tasks.doc -->
<g id="node25" class="node">
<title>calcipy.tasks.doc</title>
<polygon fill="none" stroke="black" points="770.5,-180 635.5,-180 635.5,-144 770.5,-144 770.5,-180"/>
<text text-anchor="middle" x="703" y="-158.3" font-family="Times,serif" font-size="14.00">calcipy.tasks.doc</text>
</g>
<!-- calcipy.scripts&#45;&gt;calcipy.tasks.doc -->
<g id="edge14" class="edge">
<title>calcipy.scripts&#45;&gt;calcipy.tasks.doc</title>
<path fill="none" stroke="black" d="M1097.41,-22.58C1006.92,-28.91 838.05,-44.1 785,-72 757.01,-86.72 733.59,-114.89 719.04,-135.61"/>
<polygon fill="black" stroke="black" points="713.36,-143.97 715.26,-133.17 716.17,-139.84 718.98,-135.7 718.98,-135.7 718.98,-135.7 716.17,-139.84 722.7,-138.23 713.36,-143.97 713.36,-143.97"/>
</g>
<!-- calcipy.tasks.lint -->
<g id="node27" class="node">
<title>calcipy.tasks.lint</title>
<polygon fill="none" stroke="black" points="866,-252 732,-252 732,-216 866,-216 866,-252"/>
<text text-anchor="middle" x="799" y="-230.3" font-family="Times,serif" font-size="14.00">calcipy.tasks.lint</text>
</g>
<!-- calcipy.scripts&#45;&gt;calcipy.tasks.lint -->
<g id="edge15" class="edge">
<title>calcipy.scripts&#45;&gt;calcipy.tasks.lint</title>
<path fill="none" stroke="black" d="M1097.18,-23.59C1021.84,-30.46 896.49,-45.53 859,-72 815.64,-102.62 803.57,-168.45 800.24,-205.76"/>
<polygon fill="black" stroke="black" points="799.49,-215.91 795.74,-205.61 799.86,-210.92 800.23,-205.94 800.23,-205.94 800.23,-205.94 799.86,-210.92 804.71,-206.27 799.49,-215.91 799.49,-215.91"/>
</g>
<!-- calcipy.tasks.pack -->
<g id="node29" class="node">
<title>calcipy.tasks.pack</title>
<polygon fill="none" stroke="black" points="970.5,-180 827.5,-180 827.5,-144 970.5,-144 970.5,-180"/>
<text text-anchor="middle" x="899" y="-158.3" font-family="Times,serif" font-size="14.00">calcipy.tasks.pack</text>
</g>
<!-- calcipy.scripts&#45;&gt;calcipy.tasks.pack -->
<g id="edge16" class="edge">
<title>calcipy.scripts&#45;&gt;calcipy.tasks.pack</title>
<path fill="none" stroke="black" d="M1097.35,-21.32C1022.23,-25.67 898.34,-37.93 870,-72 854.95,-90.09 866.21,-116.2 878.83,-135.46"/>
<polygon fill="black" stroke="black" points="884.63,-143.77 875.22,-138.15 881.77,-139.67 878.91,-135.57 878.91,-135.57 878.91,-135.57 881.77,-139.67 882.6,-133 884.63,-143.77 884.63,-143.77"/>
</g>
<!-- calcipy.tasks.tags -->
<g id="node31" class="node">
<title>calcipy.tasks.tags</title>
<polygon fill="none" stroke="black" points="1314.5,-108 1173.5,-108 1173.5,-72 1314.5,-72 1314.5,-108"/>
<text text-anchor="middle" x="1244" y="-86.3" font-family="Times,serif" font-size="14.00">calcipy.tasks.tags</text>
</g>
<!-- calcipy.scripts&#45;&gt;calcipy.tasks.tags -->
<g id="edge17" class="edge">
<title>calcipy.scripts&#45;&gt;calcipy.tasks.tags</title>
<path fill="none" stroke="black" d="M1177.75,-36.3C1188.84,-45.12 1202.47,-55.97 1214.49,-65.53"/>
<polygon fill="black" stroke="black" points="1222.5,-71.9 1211.87,-69.19 1218.58,-68.78 1214.67,-65.67 1214.67,-65.67 1214.67,-65.67 1218.58,-68.78 1217.47,-62.15 1222.5,-71.9 1222.5,-71.9"/>
</g>
<!-- calcipy.tasks.test -->
<g id="node32" class="node">
<title>calcipy.tasks.test</title>
<polygon fill="none" stroke="black" points="1509,-108 1371,-108 1371,-72 1509,-72 1509,-108"/>
<text text-anchor="middle" x="1440" y="-86.3" font-family="Times,serif" font-size="14.00">calcipy.tasks.test</text>
</g>
<!-- calcipy.scripts&#45;&gt;calcipy.tasks.test -->
<g id="edge18" class="edge">
<title>calcipy.scripts&#45;&gt;calcipy.tasks.test</title>
<path fill="none" stroke="black" d="M1214.5,-33.42C1256.87,-43.86 1314.63,-58.1 1361.08,-69.55"/>
<polygon fill="black" stroke="black" points="1370.81,-71.95 1360.02,-73.92 1365.95,-70.75 1361.1,-69.55 1361.1,-69.55 1361.1,-69.55 1365.95,-70.75 1362.18,-65.18 1370.81,-71.95 1370.81,-71.95"/>
</g>
<!-- calcipy.tasks.types -->
<g id="node33" class="node">
<title>calcipy.tasks.types</title>
<polygon fill="none" stroke="black" points="1654.5,-324 1505.5,-324 1505.5,-288 1654.5,-288 1654.5,-324"/>
<text text-anchor="middle" x="1580" y="-302.3" font-family="Times,serif" font-size="14.00">calcipy.tasks.types</text>
</g>
<!-- calcipy.scripts&#45;&gt;calcipy.tasks.types -->
<g id="edge19" class="edge">
<title>calcipy.scripts&#45;&gt;calcipy.tasks.types</title>
<path fill="none" stroke="black" d="M1214.62,-18.98C1310.28,-20.24 1493.81,-28.44 1539,-72 1595.36,-126.33 1590.53,-228.9 1584.38,-277.78"/>
<polygon fill="black" stroke="black" points="1582.98,-287.9 1579.89,-277.38 1583.67,-282.95 1584.35,-277.99 1584.35,-277.99 1584.35,-277.99 1583.67,-282.95 1588.8,-278.61 1582.98,-287.9 1582.98,-287.9"/>
</g>
<!-- calcipy.tasks._invoke&#45;&gt;calcipy.tasks.types -->
<g id="edge20" class="edge">
<title>calcipy.tasks._invoke&#45;&gt;calcipy.tasks.types</title>
<path fill="none" stroke="black" d="M1400.67,-252.03C1434.36,-261.99 1477.05,-274.59 1512.33,-285.01"/>
<polygon fill="black" stroke="black" points="1522.07,-287.89 1511.2,-289.37 1517.27,-286.47 1512.48,-285.06 1512.48,-285.06 1512.48,-285.06 1517.27,-286.47 1513.75,-280.74 1522.07,-287.89 1522.07,-287.89"/>
</g>
<!-- calcipy.tasks.all_tasks&#45;&gt;calcipy.tasks._invoke -->
<g id="edge21" class="edge">
<title>calcipy.tasks.all_tasks&#45;&gt;calcipy.tasks._invoke</title>
<path fill="none" stroke="black" d="M1130.11,-108.02C1156.12,-116.7 1186.12,-128.7 1211,-144 1231.09,-156.36 1230.96,-166.07 1250,-180 1265.42,-191.28 1283.46,-202.05 1299.52,-210.9"/>
<polygon fill="black" stroke="black" points="1308.71,-215.88 1297.78,-215.08 1304.32,-213.5 1299.92,-211.12 1299.92,-211.12 1299.92,-211.12 1304.32,-213.5 1302.06,-207.16 1308.71,-215.88 1308.71,-215.88"/>
</g>
<!-- calcipy.tasks.all_tasks&#45;&gt;calcipy.tasks.defaults -->
<g id="edge22" class="edge">
<title>calcipy.tasks.all_tasks&#45;&gt;calcipy.tasks.defaults</title>
<path fill="none" stroke="black" d="M1135.68,-108.03C1175.13,-118.11 1225.25,-130.92 1266.33,-141.41"/>
<polygon fill="black" stroke="black" points="1276.02,-143.89 1265.22,-145.77 1271.18,-142.65 1266.33,-141.41 1266.33,-141.41 1266.33,-141.41 1271.18,-142.65 1267.45,-137.05 1276.02,-143.89 1276.02,-143.89"/>
</g>
<!-- calcipy.tasks.executable_utils -->
<g id="node26" class="node">
<title>calcipy.tasks.executable_utils</title>
<polygon fill="none" stroke="black" points="1027,-396 801,-396 801,-360 1027,-360 1027,-396"/>
<text text-anchor="middle" x="914" y="-374.3" font-family="Times,serif" font-size="14.00">calcipy.tasks.executable_utils</text>
</g>
<!-- calcipy.tasks.cl&#45;&gt;calcipy.tasks.executable_utils -->
<g id="edge23" class="edge">
<title>calcipy.tasks.cl&#45;&gt;calcipy.tasks.executable_utils</title>
<path fill="none" stroke="black" d="M621.55,-252.28C634.91,-272.65 659.85,-305.98 690,-324 720.36,-342.14 756.51,-354.08 790.81,-361.92"/>
<polygon fill="black" stroke="black" points="800.9,-364.13 790.17,-366.39 796.02,-363.06 791.14,-362 791.14,-362 791.14,-362 796.02,-363.06 792.1,-357.6 800.9,-364.13 800.9,-364.13"/>
</g>
<!-- calcipy.tasks.defaults&#45;&gt;calcipy.tasks._invoke -->
<g id="edge24" class="edge">
<title>calcipy.tasks.defaults&#45;&gt;calcipy.tasks._invoke</title>
<path fill="none" stroke="black" d="M1343,-180.3C1343,-188.02 1343,-197.29 1343,-205.89"/>
<polygon fill="black" stroke="black" points="1343,-215.9 1338.5,-205.9 1343,-210.9 1343,-205.9 1343,-205.9 1343,-205.9 1343,-210.9 1347.5,-205.9 1343,-215.9 1343,-215.9"/>
</g>
<!-- calcipy.tasks.doc&#45;&gt;calcipy.tasks.executable_utils -->
<g id="edge25" class="edge">
<title>calcipy.tasks.doc&#45;&gt;calcipy.tasks.executable_utils</title>
<path fill="none" stroke="black" d="M704.64,-180.1C706.9,-198.56 712.02,-228.47 723,-252 740.03,-288.49 745.82,-299.79 778,-324 796.26,-337.74 818.54,-348.38 839.73,-356.39"/>
<polygon fill="black" stroke="black" points="849.37,-359.89 838.44,-360.71 844.67,-358.19 839.97,-356.48 839.97,-356.48 839.97,-356.48 844.67,-358.19 841.51,-352.25 849.37,-359.89 849.37,-359.89"/>
</g>
<!-- calcipy.tasks.lint&#45;&gt;calcipy.tasks.executable_utils -->
<g id="edge26" class="edge">
<title>calcipy.tasks.lint&#45;&gt;calcipy.tasks.executable_utils</title>
<path fill="none" stroke="black" d="M790.88,-252.29C783.19,-271.45 774.75,-302.48 789,-324 798.11,-337.75 811.57,-347.95 826.34,-355.5"/>
<polygon fill="black" stroke="black" points="835.67,-359.87 824.71,-359.71 831.14,-357.75 826.62,-355.63 826.62,-355.63 826.62,-355.63 831.14,-357.75 828.52,-351.55 835.67,-359.87 835.67,-359.87"/>
</g>
<!-- calcipy.tasks.nox -->
<g id="node28" class="node">
<title>calcipy.tasks.nox</title>
<polygon fill="none" stroke="black" points="934,-324 798,-324 798,-288 934,-288 934,-324"/>
<text text-anchor="middle" x="866" y="-302.3" font-family="Times,serif" font-size="14.00">calcipy.tasks.nox</text>
</g>
<!-- calcipy.tasks.nox&#45;&gt;calcipy.tasks.executable_utils -->
<g id="edge27" class="edge">
<title>calcipy.tasks.nox&#45;&gt;calcipy.tasks.executable_utils</title>
<path fill="none" stroke="black" d="M877.87,-324.3C883.5,-332.53 890.35,-342.52 896.57,-351.58"/>
<polygon fill="black" stroke="black" points="902.27,-359.9 892.9,-354.19 899.44,-355.77 896.62,-351.65 896.62,-351.65 896.62,-351.65 899.44,-355.77 900.33,-349.1 902.27,-359.9 902.27,-359.9"/>
</g>
<!-- calcipy.tasks.pack&#45;&gt;calcipy.tasks.executable_utils -->
<g id="edge28" class="edge">
<title>calcipy.tasks.pack&#45;&gt;calcipy.tasks.executable_utils</title>
<path fill="none" stroke="black" d="M909.79,-180.34C926.76,-209.79 956.42,-271.5 943,-324 940.62,-333.3 936.24,-342.73 931.58,-351"/>
<polygon fill="black" stroke="black" points="926.31,-359.78 927.6,-348.89 928.88,-355.5 931.46,-351.21 931.46,-351.21 931.46,-351.21 928.88,-355.5 935.31,-353.53 926.31,-359.78 926.31,-359.78"/>
</g>
<!-- calcipy.tasks.stale -->
<g id="node30" class="node">
<title>calcipy.tasks.stale</title>
<polygon fill="none" stroke="black" points="1135.5,-324 990.5,-324 990.5,-288 1135.5,-288 1135.5,-324"/>
<text text-anchor="middle" x="1063" y="-302.3" font-family="Times,serif" font-size="14.00">calcipy.tasks.stale</text>
</g>
<!-- calcipy.tasks.stale&#45;&gt;calcipy.tasks.executable_utils -->
<g id="edge29" class="edge">
<title>calcipy.tasks.stale&#45;&gt;calcipy.tasks.executable_utils</title>
<path fill="none" stroke="black" d="M1026.55,-324.12C1006.36,-333.61 981.08,-345.49 959.59,-355.58"/>
<polygon fill="black" stroke="black" points="950.33,-359.93 957.47,-351.61 954.86,-357.81 959.38,-355.68 959.38,-355.68 959.38,-355.68 954.86,-357.81 961.3,-359.75 950.33,-359.93 950.33,-359.93"/>
</g>
<!-- calcipy.tasks.tags&#45;&gt;calcipy.tasks.defaults -->
<g id="edge30" class="edge">
<title>calcipy.tasks.tags&#45;&gt;calcipy.tasks.defaults</title>
<path fill="none" stroke="black" d="M1268.22,-108.12C1280.92,-117.11 1296.66,-128.24 1310.42,-137.97"/>
<polygon fill="black" stroke="black" points="1318.69,-143.81 1307.93,-141.71 1314.61,-140.92 1310.52,-138.04 1310.52,-138.04 1310.52,-138.04 1314.61,-140.92 1313.12,-134.36 1318.69,-143.81 1318.69,-143.81"/>
</g>
<!-- calcipy.tasks.test&#45;&gt;calcipy.tasks.defaults -->
<g id="edge31" class="edge">
<title>calcipy.tasks.test&#45;&gt;calcipy.tasks.defaults</title>
<path fill="none" stroke="black" d="M1416.02,-108.3C1403.69,-117.2 1388.48,-128.18 1375.15,-137.8"/>
<polygon fill="black" stroke="black" points="1366.7,-143.9 1372.18,-134.39 1370.76,-140.97 1374.81,-138.04 1374.81,-138.04 1374.81,-138.04 1370.76,-140.97 1377.44,-141.69 1366.7,-143.9 1366.7,-143.9"/>
</g>
<!-- calcipy.tasks.test&#45;&gt;calcipy.tasks.executable_utils -->
<g id="edge32" class="edge">
<title>calcipy.tasks.test&#45;&gt;calcipy.tasks.executable_utils</title>
<path fill="none" stroke="black" d="M1445.41,-108.34C1454.31,-140.6 1467.87,-210.32 1434,-252 1384.66,-312.72 1174.92,-347.67 1037.35,-364.46"/>
<polygon fill="black" stroke="black" points="1027.16,-365.69 1036.55,-360.02 1032.13,-365.09 1037.09,-364.49 1037.09,-364.49 1037.09,-364.49 1032.13,-365.09 1037.63,-368.96 1027.16,-365.69 1027.16,-365.69"/>
</g>
<!-- calcipy.tasks.types&#45;&gt;calcipy.tasks.executable_utils -->
<g id="edge33" class="edge">
<title>calcipy.tasks.types&#45;&gt;calcipy.tasks.executable_utils</title>
<path fill="none" stroke="black" d="M1505.19,-321.98C1500.74,-322.7 1496.31,-323.39 1492,-324 1335.8,-346.19 1154.48,-361.06 1037.17,-369.27"/>
<polygon fill="black" stroke="black" points="1027.08,-369.97 1036.75,-364.79 1032.07,-369.62 1037.06,-369.28 1037.06,-369.28 1037.06,-369.28 1032.07,-369.62 1037.37,-373.76 1027.08,-369.97 1027.08,-369.97"/>
</g>
</g>
</svg>
