<?xml version="1.0" encoding="UTF-8" standalone="no"?>
<!DOCTYPE svg PUBLIC "-//W3C//DTD SVG 1.1//EN"
 "http://www.w3.org/Graphics/SVG/1.1/DTD/svg11.dtd">
<!-- Generated by graphviz version 2.43.0 (0)
 -->
<!-- Title: packages Pages: 1 -->
<svg width="2580pt" height="404pt"
 viewBox="0.00 0.00 2579.87 404.00" xmlns="http://www.w3.org/2000/svg" xmlns:xlink="http://www.w3.org/1999/xlink">
<g id="graph0" class="graph" transform="scale(1 1) rotate(0) translate(4 400)">
<title>packages</title>
<polygon fill="white" stroke="transparent" points="-4,4 -4,-400 2575.87,-400 2575.87,4 -4,4"/>
<!-- calcipy -->
<g id="node1" class="node">
<title>calcipy</title>
<polygon fill="none" stroke="black" points="2383.37,-252 2317.37,-252 2317.37,-216 2383.37,-216 2383.37,-252"/>
<text text-anchor="middle" x="2350.37" y="-230.3" font-family="Times,serif" font-size="14.00">calcipy</text>
</g>
<!-- calcipy._runtime_type_check_setup -->
<g id="node2" class="node">
<title>calcipy._runtime_type_check_setup</title>
<polygon fill="none" stroke="black" points="2482.37,-324 2218.37,-324 2218.37,-288 2482.37,-288 2482.37,-324"/>
<text text-anchor="middle" x="2350.37" y="-302.3" font-family="Times,serif" font-size="14.00">calcipy._runtime_type_check_setup</text>
</g>
<!-- calcipy&#45;&gt;calcipy._runtime_type_check_setup -->
<g id="edge1" class="edge">
<title>calcipy&#45;&gt;calcipy._runtime_type_check_setup</title>
<path fill="none" stroke="black" d="M2350.37,-252.3C2350.37,-260.02 2350.37,-269.29 2350.37,-277.89"/>
<polygon fill="black" stroke="black" points="2350.37,-287.9 2345.87,-277.9 2350.37,-282.9 2350.37,-277.9 2350.37,-277.9 2350.37,-277.9 2350.37,-282.9 2354.87,-277.9 2350.37,-287.9 2350.37,-287.9"/>
</g>
<!-- calcipy.can_skip -->
<g id="node3" class="node">
<title>calcipy.can_skip</title>
<polygon fill="none" stroke="black" points="2530.87,-252 2401.87,-252 2401.87,-216 2530.87,-216 2530.87,-252"/>
<text text-anchor="middle" x="2466.37" y="-230.3" font-family="Times,serif" font-size="14.00">calcipy.can_skip</text>
</g>
<!-- calcipy.check_for_stale_packages -->
<g id="node4" class="node">
<title>calcipy.check_for_stale_packages</title>
<polygon fill="none" stroke="black" points="1832.37,-108 1582.37,-108 1582.37,-72 1832.37,-72 1832.37,-108"/>
<text text-anchor="middle" x="1707.37" y="-86.3" font-family="Times,serif" font-size="14.00">calcipy.check_for_stale_packages</text>
</g>
<!-- calcipy.check_for_stale_packages._check_for_stale_packages -->
<g id="node5" class="node">
<title>calcipy.check_for_stale_packages._check_for_stale_packages</title>
<polygon fill="none" stroke="black" points="2571.87,-180 2128.87,-180 2128.87,-144 2571.87,-144 2571.87,-180"/>
<text text-anchor="middle" x="2350.37" y="-158.3" font-family="Times,serif" font-size="14.00">calcipy.check_for_stale_packages._check_for_stale_packages</text>
</g>
<!-- calcipy.check_for_stale_packages&#45;&gt;calcipy.check_for_stale_packages._check_for_stale_packages -->
<g id="edge2" class="edge">
<title>calcipy.check_for_stale_packages&#45;&gt;calcipy.check_for_stale_packages._check_for_stale_packages</title>
<path fill="none" stroke="black" d="M1832.54,-106.97C1835.51,-107.32 1838.45,-107.66 1841.37,-108 1949.41,-120.48 2070.52,-133.14 2167.48,-142.96"/>
<polygon fill="black" stroke="black" points="2177.69,-143.99 2167.28,-147.46 2172.71,-143.49 2167.74,-142.98 2167.74,-142.98 2167.74,-142.98 2172.71,-143.49 2168.19,-138.51 2177.69,-143.99 2177.69,-143.99"/>
</g>
<!-- calcipy.check_for_stale_packages._check_for_stale_packages&#45;&gt;calcipy -->
<g id="edge3" class="edge">
<title>calcipy.check_for_stale_packages._check_for_stale_packages&#45;&gt;calcipy</title>
<path fill="none" stroke="black" d="M2350.37,-180.3C2350.37,-188.02 2350.37,-197.29 2350.37,-205.89"/>
<polygon fill="black" stroke="black" points="2350.37,-215.9 2345.87,-205.9 2350.37,-210.9 2350.37,-205.9 2350.37,-205.9 2350.37,-205.9 2350.37,-210.9 2354.87,-205.9 2350.37,-215.9 2350.37,-215.9"/>
</g>
<!-- calcipy.check_for_stale_packages._check_for_stale_packages&#45;&gt;calcipy.can_skip -->
<g id="edge4" class="edge">
<title>calcipy.check_for_stale_packages._check_for_stale_packages&#45;&gt;calcipy.can_skip</title>
<path fill="none" stroke="black" d="M2378.74,-180.12C2393.91,-189.28 2412.77,-200.66 2429.11,-210.52"/>
<polygon fill="black" stroke="black" points="2437.88,-215.81 2426.99,-214.5 2433.6,-213.23 2429.32,-210.64 2429.32,-210.64 2429.32,-210.64 2433.6,-213.23 2431.64,-206.79 2437.88,-215.81 2437.88,-215.81"/>
</g>
<!-- calcipy.cli -->
<g id="node6" class="node">
<title>calcipy.cli</title>
<polygon fill="none" stroke="black" points="916.87,-252 831.87,-252 831.87,-216 916.87,-216 916.87,-252"/>
<text text-anchor="middle" x="874.37" y="-230.3" font-family="Times,serif" font-size="14.00">calcipy.cli</text>
</g>
<!-- calcipy.collection -->
<g id="node9" class="node">
<title>calcipy.collection</title>
<polygon fill="none" stroke="black" points="567.87,-324 430.87,-324 430.87,-288 567.87,-288 567.87,-324"/>
<text text-anchor="middle" x="499.37" y="-302.3" font-family="Times,serif" font-size="14.00">calcipy.collection</text>
</g>
<!-- calcipy.cli&#45;&gt;calcipy.collection -->
<g id="edge5" class="edge">
<title>calcipy.cli&#45;&gt;calcipy.collection</title>
<path fill="none" stroke="black" d="M831.48,-242.13C775.58,-251.53 674.53,-268.93 578.15,-287.88"/>
<polygon fill="black" stroke="black" points="568.24,-289.84 577.18,-283.49 573.15,-288.87 578.05,-287.9 578.05,-287.9 578.05,-287.9 573.15,-288.87 578.92,-292.32 568.24,-289.84 568.24,-289.84"/>
</g>
<!-- calcipy.invoke_helpers -->
<g id="node16" class="node">
<title>calcipy.invoke_helpers</title>
<polygon fill="none" stroke="black" points="1070.87,-396 895.87,-396 895.87,-360 1070.87,-360 1070.87,-396"/>
<text text-anchor="middle" x="983.37" y="-374.3" font-family="Times,serif" font-size="14.00">calcipy.invoke_helpers</text>
</g>
<!-- calcipy.cli&#45;&gt;calcipy.invoke_helpers -->
<g id="edge6" class="edge">
<title>calcipy.cli&#45;&gt;calcipy.invoke_helpers</title>
<path fill="none" stroke="black" d="M883.89,-252.1C894.5,-270.56 912.61,-300.46 931.37,-324 939.19,-333.83 948.6,-343.85 957.24,-352.5"/>
<polygon fill="black" stroke="black" points="964.59,-359.71 954.3,-355.91 961.02,-356.2 957.45,-352.7 957.45,-352.7 957.45,-352.7 961.02,-356.2 960.6,-349.49 964.59,-359.71 964.59,-359.71"/>
</g>
<!-- calcipy.code_tag_collector -->
<g id="node7" class="node">
<title>calcipy.code_tag_collector</title>
<polygon fill="none" stroke="black" points="267.37,-252 67.37,-252 67.37,-216 267.37,-216 267.37,-252"/>
<text text-anchor="middle" x="167.37" y="-230.3" font-family="Times,serif" font-size="14.00">calcipy.code_tag_collector</text>
</g>
<!-- calcipy.code_tag_collector._collector -->
<g id="node8" class="node">
<title>calcipy.code_tag_collector._collector</title>
<polygon fill="none" stroke="black" points="293.87,-324 22.87,-324 22.87,-288 293.87,-288 293.87,-324"/>
<text text-anchor="middle" x="158.37" y="-302.3" font-family="Times,serif" font-size="14.00">calcipy.code_tag_collector._collector</text>
</g>
<!-- calcipy.code_tag_collector&#45;&gt;calcipy.code_tag_collector._collector -->
<g id="edge7" class="edge">
<title>calcipy.code_tag_collector&#45;&gt;calcipy.code_tag_collector._collector</title>
<path fill="none" stroke="black" d="M165.14,-252.3C164.15,-260.02 162.96,-269.29 161.85,-277.89"/>
<polygon fill="black" stroke="black" points="160.57,-287.9 157.38,-277.4 161.2,-282.94 161.84,-277.98 161.84,-277.98 161.84,-277.98 161.2,-282.94 166.3,-278.55 160.57,-287.9 160.57,-287.9"/>
</g>
<!-- calcipy.dot_dict -->
<g id="node10" class="node">
<title>calcipy.dot_dict</title>
<polygon fill="none" stroke="black" points="2009.87,-36 1884.87,-36 1884.87,0 2009.87,0 2009.87,-36"/>
<text text-anchor="middle" x="1947.37" y="-14.3" font-family="Times,serif" font-size="14.00">calcipy.dot_dict</text>
</g>
<!-- calcipy.dot_dict._dot_dict -->
<g id="node11" class="node">
<title>calcipy.dot_dict._dot_dict</title>
<polygon fill="none" stroke="black" points="2044.37,-108 1850.37,-108 1850.37,-72 2044.37,-72 2044.37,-108"/>
<text text-anchor="middle" x="1947.37" y="-86.3" font-family="Times,serif" font-size="14.00">calcipy.dot_dict._dot_dict</text>
</g>
<!-- calcipy.dot_dict&#45;&gt;calcipy.dot_dict._dot_dict -->
<g id="edge8" class="edge">
<title>calcipy.dot_dict&#45;&gt;calcipy.dot_dict._dot_dict</title>
<path fill="none" stroke="black" d="M1947.37,-36.3C1947.37,-44.02 1947.37,-53.29 1947.37,-61.89"/>
<polygon fill="black" stroke="black" points="1947.37,-71.9 1942.87,-61.9 1947.37,-66.9 1947.37,-61.9 1947.37,-61.9 1947.37,-61.9 1947.37,-66.9 1951.87,-61.9 1947.37,-71.9 1947.37,-71.9"/>
</g>
<!-- calcipy.experiments -->
<g id="node12" class="node">
<title>calcipy.experiments</title>
<polygon fill="none" stroke="black" points="1907.37,-252 1749.37,-252 1749.37,-216 1907.37,-216 1907.37,-252"/>
<text text-anchor="middle" x="1828.37" y="-230.3" font-family="Times,serif" font-size="14.00">calcipy.experiments</text>
</g>
<!-- calcipy.experiments.bump_programmatically -->
<g id="node13" class="node">
<title>calcipy.experiments.bump_programmatically</title>
<polygon fill="none" stroke="black" points="2299.37,-252 1963.37,-252 1963.37,-216 2299.37,-216 2299.37,-252"/>
<text text-anchor="middle" x="2131.37" y="-230.3" font-family="Times,serif" font-size="14.00">calcipy.experiments.bump_programmatically</text>
</g>
<!-- calcipy.experiments.check_duplicate_test_names -->
<g id="node14" class="node">
<title>calcipy.experiments.check_duplicate_test_names</title>
<polygon fill="none" stroke="black" points="1693.87,-252 1330.87,-252 1330.87,-216 1693.87,-216 1693.87,-252"/>
<text text-anchor="middle" x="1512.37" y="-230.3" font-family="Times,serif" font-size="14.00">calcipy.experiments.check_duplicate_test_names</text>
</g>
<!-- calcipy.file_search -->
<g id="node15" class="node">
<title>calcipy.file_search</title>
<polygon fill="none" stroke="black" points="416.37,-396 272.37,-396 272.37,-360 416.37,-360 416.37,-396"/>
<text text-anchor="middle" x="344.37" y="-374.3" font-family="Times,serif" font-size="14.00">calcipy.file_search</text>
</g>
<!-- calcipy.md_writer -->
<g id="node17" class="node">
<title>calcipy.md_writer</title>
<polygon fill="none" stroke="black" points="762.37,-252 620.37,-252 620.37,-216 762.37,-216 762.37,-252"/>
<text text-anchor="middle" x="691.37" y="-230.3" font-family="Times,serif" font-size="14.00">calcipy.md_writer</text>
</g>
<!-- calcipy.md_writer._writer -->
<g id="node18" class="node">
<title>calcipy.md_writer._writer</title>
<polygon fill="none" stroke="black" points="782.37,-324 586.37,-324 586.37,-288 782.37,-288 782.37,-324"/>
<text text-anchor="middle" x="684.37" y="-302.3" font-family="Times,serif" font-size="14.00">calcipy.md_writer._writer</text>
</g>
<!-- calcipy.md_writer&#45;&gt;calcipy.md_writer._writer -->
<g id="edge9" class="edge">
<title>calcipy.md_writer&#45;&gt;calcipy.md_writer._writer</title>
<path fill="none" stroke="black" d="M689.64,-252.3C688.86,-260.02 687.94,-269.29 687.08,-277.89"/>
<polygon fill="black" stroke="black" points="686.08,-287.9 682.59,-277.5 686.57,-282.92 687.07,-277.95 687.07,-277.95 687.07,-277.95 686.57,-282.92 691.55,-278.39 686.08,-287.9 686.08,-287.9"/>
</g>
<!-- calcipy.md_writer._writer&#45;&gt;calcipy.file_search -->
<g id="edge10" class="edge">
<title>calcipy.md_writer._writer&#45;&gt;calcipy.file_search</title>
<path fill="none" stroke="black" d="M601.63,-324.03C548.44,-334.98 479.63,-349.15 426.55,-360.08"/>
<polygon fill="black" stroke="black" points="416.5,-362.15 425.38,-355.73 421.39,-361.14 426.29,-360.13 426.29,-360.13 426.29,-360.13 421.39,-361.14 427.2,-364.54 416.5,-362.15 416.5,-362.15"/>
</g>
<!-- calcipy.md_writer._writer&#45;&gt;calcipy.invoke_helpers -->
<g id="edge11" class="edge">
<title>calcipy.md_writer._writer&#45;&gt;calcipy.invoke_helpers</title>
<path fill="none" stroke="black" d="M757.13,-324.03C800.53,-334.2 855.77,-347.13 900.8,-357.67"/>
<polygon fill="black" stroke="black" points="910.54,-359.95 899.78,-362.05 905.67,-358.81 900.8,-357.67 900.8,-357.67 900.8,-357.67 905.67,-358.81 901.83,-353.29 910.54,-359.95 910.54,-359.95"/>
</g>
<!-- calcipy.noxfile -->
<g id="node19" class="node">
<title>calcipy.noxfile</title>
<polygon fill="none" stroke="black" points="2207.37,-36 2091.37,-36 2091.37,0 2207.37,0 2207.37,-36"/>
<text text-anchor="middle" x="2149.37" y="-14.3" font-family="Times,serif" font-size="14.00">calcipy.noxfile</text>
</g>
<!-- calcipy.noxfile._noxfile -->
<g id="node20" class="node">
<title>calcipy.noxfile._noxfile</title>
<polygon fill="none" stroke="black" points="2236.37,-108 2062.37,-108 2062.37,-72 2236.37,-72 2236.37,-108"/>
<text text-anchor="middle" x="2149.37" y="-86.3" font-family="Times,serif" font-size="14.00">calcipy.noxfile._noxfile</text>
</g>
<!-- calcipy.noxfile&#45;&gt;calcipy.noxfile._noxfile -->
<g id="edge12" class="edge">
<title>calcipy.noxfile&#45;&gt;calcipy.noxfile._noxfile</title>
<path fill="none" stroke="black" d="M2149.37,-36.3C2149.37,-44.02 2149.37,-53.29 2149.37,-61.89"/>
<polygon fill="black" stroke="black" points="2149.37,-71.9 2144.87,-61.9 2149.37,-66.9 2149.37,-61.9 2149.37,-61.9 2149.37,-61.9 2149.37,-66.9 2153.87,-61.9 2149.37,-71.9 2149.37,-71.9"/>
</g>
<!-- calcipy.scripts -->
<g id="node21" class="node">
<title>calcipy.scripts</title>
<polygon fill="none" stroke="black" points="907.87,-108 790.87,-108 790.87,-72 907.87,-72 907.87,-108"/>
<text text-anchor="middle" x="849.37" y="-86.3" font-family="Times,serif" font-size="14.00">calcipy.scripts</text>
</g>
<!-- calcipy.scripts&#45;&gt;calcipy.cli -->
<g id="edge13" class="edge">
<title>calcipy.scripts&#45;&gt;calcipy.cli</title>
<path fill="none" stroke="black" d="M838.04,-108.08C827.48,-126.25 814.71,-155.69 824.37,-180 828.66,-190.8 836.31,-200.68 844.35,-208.9"/>
<polygon fill="black" stroke="black" points="851.77,-215.96 841.43,-212.32 848.15,-212.51 844.53,-209.07 844.53,-209.07 844.53,-209.07 848.15,-212.51 847.63,-205.81 851.77,-215.96 851.77,-215.96"/>
</g>
<!-- calcipy.scripts&#45;&gt;calcipy.collection -->
<g id="edge14" class="edge">
<title>calcipy.scripts&#45;&gt;calcipy.collection</title>
<path fill="none" stroke="black" d="M790.65,-95.23C744.61,-100.83 680.5,-113.82 632.37,-144 603.82,-161.9 546.62,-238.67 517.42,-279.4"/>
<polygon fill="black" stroke="black" points="511.46,-287.74 513.61,-276.99 514.37,-283.67 517.27,-279.6 517.27,-279.6 517.27,-279.6 514.37,-283.67 520.93,-282.21 511.46,-287.74 511.46,-287.74"/>
</g>
<!-- calcipy.tasks -->
<g id="node22" class="node">
<title>calcipy.tasks</title>
<polygon fill="none" stroke="black" points="1079.37,-180 973.37,-180 973.37,-144 1079.37,-144 1079.37,-180"/>
<text text-anchor="middle" x="1026.37" y="-158.3" font-family="Times,serif" font-size="14.00">calcipy.tasks</text>
</g>
<!-- calcipy.scripts&#45;&gt;calcipy.tasks -->
<g id="edge15" class="edge">
<title>calcipy.scripts&#45;&gt;calcipy.tasks</title>
<path fill="none" stroke="black" d="M892.67,-108.12C917.08,-117.78 947.76,-129.91 973.58,-140.12"/>
<polygon fill="black" stroke="black" points="983.21,-143.93 972.25,-144.44 978.56,-142.09 973.91,-140.25 973.91,-140.25 973.91,-140.25 978.56,-142.09 975.56,-136.07 983.21,-143.93 983.21,-143.93"/>
</g>
<!-- calcipy.tasks.all_tasks -->
<g id="node23" class="node">
<title>calcipy.tasks.all_tasks</title>
<polygon fill="none" stroke="black" points="547.37,-180 375.37,-180 375.37,-144 547.37,-144 547.37,-180"/>
<text text-anchor="middle" x="461.37" y="-158.3" font-family="Times,serif" font-size="14.00">calcipy.tasks.all_tasks</text>
</g>
<!-- calcipy.scripts&#45;&gt;calcipy.tasks.all_tasks -->
<g id="edge16" class="edge">
<title>calcipy.scripts&#45;&gt;calcipy.tasks.all_tasks</title>
<path fill="none" stroke="black" d="M790.86,-101.56C729.19,-112.68 631.04,-130.39 557.88,-143.59"/>
<polygon fill="black" stroke="black" points="547.73,-145.42 556.77,-139.22 552.65,-144.53 557.57,-143.64 557.57,-143.64 557.57,-143.64 552.65,-144.53 558.37,-148.07 547.73,-145.42 547.73,-145.42"/>
</g>
<!-- calcipy.tasks.cl -->
<g id="node24" class="node">
<title>calcipy.tasks.cl</title>
<polygon fill="none" stroke="black" points="955.37,-180 833.37,-180 833.37,-144 955.37,-144 955.37,-180"/>
<text text-anchor="middle" x="894.37" y="-158.3" font-family="Times,serif" font-size="14.00">calcipy.tasks.cl</text>
</g>
<!-- calcipy.scripts&#45;&gt;calcipy.tasks.cl -->
<g id="edge17" class="edge">
<title>calcipy.scripts&#45;&gt;calcipy.tasks.cl</title>
<path fill="none" stroke="black" d="M860.49,-108.3C865.72,-116.44 872.07,-126.31 877.84,-135.3"/>
<polygon fill="black" stroke="black" points="883.37,-143.9 874.18,-137.92 880.67,-139.69 877.96,-135.48 877.96,-135.48 877.96,-135.48 880.67,-139.69 881.75,-133.05 883.37,-143.9 883.37,-143.9"/>
</g>
<!-- calcipy.tasks.defaults -->
<g id="node25" class="node">
<title>calcipy.tasks.defaults</title>
<polygon fill="none" stroke="black" points="509.37,-252 341.37,-252 341.37,-216 509.37,-216 509.37,-252"/>
<text text-anchor="middle" x="425.37" y="-230.3" font-family="Times,serif" font-size="14.00">calcipy.tasks.defaults</text>
</g>
<!-- calcipy.scripts&#45;&gt;calcipy.tasks.defaults -->
<g id="edge18" class="edge">
<title>calcipy.scripts&#45;&gt;calcipy.tasks.defaults</title>
<path fill="none" stroke="black" d="M790.51,-93.14C667.93,-98.21 394.24,-112.9 366.37,-144 348.1,-164.38 370.51,-190.84 392.76,-209.6"/>
<polygon fill="black" stroke="black" points="400.56,-215.89 389.95,-213.11 396.67,-212.75 392.78,-209.61 392.78,-209.61 392.78,-209.61 396.67,-212.75 395.61,-206.11 400.56,-215.89 400.56,-215.89"/>
</g>
<!-- calcipy.tasks.doc -->
<g id="node26" class="node">
<title>calcipy.tasks.doc</title>
<polygon fill="none" stroke="black" points="776.87,-180 641.87,-180 641.87,-144 776.87,-144 776.87,-180"/>
<text text-anchor="middle" x="709.37" y="-158.3" font-family="Times,serif" font-size="14.00">calcipy.tasks.doc</text>
</g>
<!-- calcipy.scripts&#45;&gt;calcipy.tasks.doc -->
<g id="edge19" class="edge">
<title>calcipy.scripts&#45;&gt;calcipy.tasks.doc</title>
<path fill="none" stroke="black" d="M815.12,-108.12C796.3,-117.53 772.78,-129.29 752.7,-139.33"/>
<polygon fill="black" stroke="black" points="743.75,-143.81 750.68,-135.31 748.22,-141.57 752.69,-139.34 752.69,-139.34 752.69,-139.34 748.22,-141.57 754.7,-143.36 743.75,-143.81 743.75,-143.81"/>
</g>
<!-- calcipy.tasks.lint -->
<g id="node28" class="node">
<title>calcipy.tasks.lint</title>
<polygon fill="none" stroke="black" points="1385.37,-180 1251.37,-180 1251.37,-144 1385.37,-144 1385.37,-180"/>
<text text-anchor="middle" x="1318.37" y="-158.3" font-family="Times,serif" font-size="14.00">calcipy.tasks.lint</text>
</g>
<!-- calcipy.scripts&#45;&gt;calcipy.tasks.lint -->
<g id="edge20" class="edge">
<title>calcipy.scripts&#45;&gt;calcipy.tasks.lint</title>
<path fill="none" stroke="black" d="M907.87,-97.3C982.84,-105.72 1116.97,-121.98 1241.22,-143.88"/>
<polygon fill="black" stroke="black" points="1251.29,-145.67 1240.66,-148.35 1246.37,-144.79 1241.45,-143.92 1241.45,-143.92 1241.45,-143.92 1246.37,-144.79 1242.23,-139.49 1251.29,-145.67 1251.29,-145.67"/>
</g>
<!-- calcipy.tasks.pack -->
<g id="node30" class="node">
<title>calcipy.tasks.pack</title>
<polygon fill="none" stroke="black" points="1953.87,-180 1810.87,-180 1810.87,-144 1953.87,-144 1953.87,-180"/>
<text text-anchor="middle" x="1882.37" y="-158.3" font-family="Times,serif" font-size="14.00">calcipy.tasks.pack</text>
</g>
<!-- calcipy.scripts&#45;&gt;calcipy.tasks.pack -->
<g id="edge21" class="edge">
<title>calcipy.scripts&#45;&gt;calcipy.tasks.pack</title>
<path fill="none" stroke="black" d="M907.91,-93.71C1048.03,-100.39 1413.7,-118.93 1718.37,-144 1745.06,-146.2 1774.16,-149.06 1800.33,-151.81"/>
<polygon fill="black" stroke="black" points="1810.58,-152.89 1800.16,-156.31 1805.61,-152.37 1800.64,-151.84 1800.64,-151.84 1800.64,-151.84 1805.61,-152.37 1801.11,-147.36 1810.58,-152.89 1810.58,-152.89"/>
</g>
<!-- calcipy.tasks.tags -->
<g id="node32" class="node">
<title>calcipy.tasks.tags</title>
<polygon fill="none" stroke="black" points="318.87,-180 177.87,-180 177.87,-144 318.87,-144 318.87,-180"/>
<text text-anchor="middle" x="248.37" y="-158.3" font-family="Times,serif" font-size="14.00">calcipy.tasks.tags</text>
</g>
<!-- calcipy.scripts&#45;&gt;calcipy.tasks.tags -->
<g id="edge22" class="edge">
<title>calcipy.scripts&#45;&gt;calcipy.tasks.tags</title>
<path fill="none" stroke="black" d="M790.71,-95.2C694.74,-102.48 498.32,-119.09 333.37,-144 332.07,-144.2 330.76,-144.4 329.45,-144.61"/>
<polygon fill="black" stroke="black" points="319.24,-146.3 328.37,-140.22 324.17,-145.48 329.1,-144.66 329.1,-144.66 329.1,-144.66 324.17,-145.48 329.84,-149.1 319.24,-146.3 319.24,-146.3"/>
</g>
<!-- calcipy.tasks.test -->
<g id="node33" class="node">
<title>calcipy.tasks.test</title>
<polygon fill="none" stroke="black" points="1709.37,-180 1571.37,-180 1571.37,-144 1709.37,-144 1709.37,-180"/>
<text text-anchor="middle" x="1640.37" y="-158.3" font-family="Times,serif" font-size="14.00">calcipy.tasks.test</text>
</g>
<!-- calcipy.scripts&#45;&gt;calcipy.tasks.test -->
<g id="edge23" class="edge">
<title>calcipy.scripts&#45;&gt;calcipy.tasks.test</title>
<path fill="none" stroke="black" d="M908.27,-92.64C1028.94,-96.6 1312.98,-108.97 1561.17,-144.11"/>
<polygon fill="black" stroke="black" points="1571.1,-145.53 1560.56,-148.57 1566.15,-144.82 1561.2,-144.11 1561.2,-144.11 1561.2,-144.11 1566.15,-144.82 1561.84,-139.66 1571.1,-145.53 1571.1,-145.53"/>
</g>
<!-- calcipy.tasks.types -->
<g id="node34" class="node">
<title>calcipy.tasks.types</title>
<polygon fill="none" stroke="black" points="1552.87,-180 1403.87,-180 1403.87,-144 1552.87,-144 1552.87,-180"/>
<text text-anchor="middle" x="1478.37" y="-158.3" font-family="Times,serif" font-size="14.00">calcipy.tasks.types</text>
</g>
<!-- calcipy.scripts&#45;&gt;calcipy.tasks.types -->
<g id="edge24" class="edge">
<title>calcipy.scripts&#45;&gt;calcipy.tasks.types</title>
<path fill="none" stroke="black" d="M908.08,-94.72C1006.41,-101.39 1210.76,-117.11 1393.71,-144"/>
<polygon fill="black" stroke="black" points="1403.78,-145.49 1393.23,-148.47 1398.84,-144.76 1393.89,-144.02 1393.89,-144.02 1393.89,-144.02 1398.84,-144.76 1394.55,-139.57 1403.78,-145.49 1403.78,-145.49"/>
</g>
<!-- calcipy.tasks.all_tasks&#45;&gt;calcipy.cli -->
<g id="edge25" class="edge">
<title>calcipy.tasks.all_tasks&#45;&gt;calcipy.cli</title>
<path fill="none" stroke="black" d="M547.44,-177.59C630.08,-191.6 752.26,-212.3 821.48,-224.04"/>
<polygon fill="black" stroke="black" points="831.7,-225.77 821.09,-228.53 826.77,-224.93 821.84,-224.1 821.84,-224.1 821.84,-224.1 826.77,-224.93 822.6,-219.66 831.7,-225.77 831.7,-225.77"/>
</g>
<!-- calcipy.tasks.all_tasks&#45;&gt;calcipy.collection -->
<g id="edge26" class="edge">
<title>calcipy.tasks.all_tasks&#45;&gt;calcipy.collection</title>
<path fill="none" stroke="black" d="M487.95,-180.09C499.6,-189.19 512.05,-201.51 518.37,-216 527.1,-236.04 520.84,-260.42 513.24,-278.59"/>
<polygon fill="black" stroke="black" points="508.97,-287.98 509.02,-277.02 511.04,-283.43 513.11,-278.88 513.11,-278.88 513.11,-278.88 511.04,-283.43 517.21,-280.74 508.97,-287.98 508.97,-287.98"/>
</g>
<!-- calcipy.tasks.all_tasks&#45;&gt;calcipy.tasks.defaults -->
<g id="edge27" class="edge">
<title>calcipy.tasks.all_tasks&#45;&gt;calcipy.tasks.defaults</title>
<path fill="none" stroke="black" d="M452.47,-180.3C448.37,-188.27 443.42,-197.9 438.87,-206.74"/>
<polygon fill="black" stroke="black" points="434.16,-215.9 434.73,-204.94 436.45,-211.45 438.74,-207 438.74,-207 438.74,-207 436.45,-211.45 442.74,-209.06 434.16,-215.9 434.16,-215.9"/>
</g>
<!-- calcipy.tasks.cl&#45;&gt;calcipy.cli -->
<g id="edge28" class="edge">
<title>calcipy.tasks.cl&#45;&gt;calcipy.cli</title>
<path fill="none" stroke="black" d="M889.42,-180.3C887.19,-188.1 884.51,-197.49 882.03,-206.17"/>
<polygon fill="black" stroke="black" points="879.25,-215.9 877.67,-205.04 880.63,-211.09 882,-206.28 882,-206.28 882,-206.28 880.63,-211.09 886.33,-207.52 879.25,-215.9 879.25,-215.9"/>
</g>
<!-- calcipy.tasks.cl&#45;&gt;calcipy.invoke_helpers -->
<g id="edge29" class="edge">
<title>calcipy.tasks.cl&#45;&gt;calcipy.invoke_helpers</title>
<path fill="none" stroke="black" d="M905.53,-180.23C911.84,-190.39 919.59,-203.64 925.37,-216 946.72,-261.65 965.24,-317.5 975.31,-349.98"/>
<polygon fill="black" stroke="black" points="978.27,-359.67 971.04,-351.42 976.81,-354.88 975.35,-350.1 975.35,-350.1 975.35,-350.1 976.81,-354.88 979.65,-348.79 978.27,-359.67 978.27,-359.67"/>
</g>
<!-- calcipy.tasks.executable_utils -->
<g id="node27" class="node">
<title>calcipy.tasks.executable_utils</title>
<polygon fill="none" stroke="black" points="1237.37,-252 1011.37,-252 1011.37,-216 1237.37,-216 1237.37,-252"/>
<text text-anchor="middle" x="1124.37" y="-230.3" font-family="Times,serif" font-size="14.00">calcipy.tasks.executable_utils</text>
</g>
<!-- calcipy.tasks.cl&#45;&gt;calcipy.tasks.executable_utils -->
<g id="edge30" class="edge">
<title>calcipy.tasks.cl&#45;&gt;calcipy.tasks.executable_utils</title>
<path fill="none" stroke="black" d="M950.34,-180.03C982.89,-189.94 1024.11,-202.49 1058.25,-212.88"/>
<polygon fill="black" stroke="black" points="1068.14,-215.89 1057.27,-217.28 1063.36,-214.43 1058.58,-212.98 1058.58,-212.98 1058.58,-212.98 1063.36,-214.43 1059.89,-208.67 1068.14,-215.89 1068.14,-215.89"/>
</g>
<!-- calcipy.tasks.defaults&#45;&gt;calcipy.collection -->
<g id="edge31" class="edge">
<title>calcipy.tasks.defaults&#45;&gt;calcipy.collection</title>
<path fill="none" stroke="black" d="M443.66,-252.3C452.8,-260.95 464.01,-271.55 473.97,-280.97"/>
<polygon fill="black" stroke="black" points="481.28,-287.9 470.93,-284.29 477.65,-284.46 474.02,-281.02 474.02,-281.02 474.02,-281.02 477.65,-284.46 477.11,-277.75 481.28,-287.9 481.28,-287.9"/>
</g>
<!-- calcipy.tasks.doc&#45;&gt;calcipy.cli -->
<g id="edge32" class="edge">
<title>calcipy.tasks.doc&#45;&gt;calcipy.cli</title>
<path fill="none" stroke="black" d="M749.73,-180.12C772.39,-189.74 800.84,-201.81 824.84,-211.99"/>
<polygon fill="black" stroke="black" points="834.13,-215.93 823.17,-216.17 829.53,-213.98 824.93,-212.03 824.93,-212.03 824.93,-212.03 829.53,-213.98 826.69,-207.88 834.13,-215.93 834.13,-215.93"/>
</g>
<!-- calcipy.tasks.doc&#45;&gt;calcipy.invoke_helpers -->
<g id="edge33" class="edge">
<title>calcipy.tasks.doc&#45;&gt;calcipy.invoke_helpers</title>
<path fill="none" stroke="black" d="M729.48,-180.01C775.27,-218.68 884.7,-310.92 902.37,-324 916.57,-334.52 932.78,-345.34 946.94,-354.44"/>
<polygon fill="black" stroke="black" points="955.46,-359.86 944.61,-358.29 951.24,-357.18 947.02,-354.49 947.02,-354.49 947.02,-354.49 951.24,-357.18 949.44,-350.7 955.46,-359.86 955.46,-359.86"/>
</g>
<!-- calcipy.tasks.doc&#45;&gt;calcipy.md_writer -->
<g id="edge34" class="edge">
<title>calcipy.tasks.doc&#45;&gt;calcipy.md_writer</title>
<path fill="none" stroke="black" d="M704.92,-180.3C702.91,-188.1 700.5,-197.49 698.26,-206.17"/>
<polygon fill="black" stroke="black" points="695.76,-215.9 693.9,-205.09 697.01,-211.05 698.25,-206.21 698.25,-206.21 698.25,-206.21 697.01,-211.05 702.61,-207.33 695.76,-215.9 695.76,-215.9"/>
</g>
<!-- calcipy.tasks.doc&#45;&gt;calcipy.tasks.executable_utils -->
<g id="edge35" class="edge">
<title>calcipy.tasks.doc&#45;&gt;calcipy.tasks.executable_utils</title>
<path fill="none" stroke="black" d="M776.97,-174.4C840.93,-185.19 938.09,-201.58 1013.42,-214.29"/>
<polygon fill="black" stroke="black" points="1023.42,-215.97 1012.81,-218.75 1018.49,-215.14 1013.56,-214.31 1013.56,-214.31 1013.56,-214.31 1018.49,-215.14 1014.31,-209.87 1023.42,-215.97 1023.42,-215.97"/>
</g>
<!-- calcipy.tasks.executable_utils&#45;&gt;calcipy.invoke_helpers -->
<g id="edge36" class="edge">
<title>calcipy.tasks.executable_utils&#45;&gt;calcipy.invoke_helpers</title>
<path fill="none" stroke="black" d="M1107.36,-252.13C1082.48,-277.18 1036.04,-323.95 1007.6,-352.59"/>
<polygon fill="black" stroke="black" points="1000.43,-359.81 1004.29,-349.54 1003.96,-356.26 1007.48,-352.71 1007.48,-352.71 1007.48,-352.71 1003.96,-356.26 1010.67,-355.89 1000.43,-359.81 1000.43,-359.81"/>
</g>
<!-- calcipy.tasks.lint&#45;&gt;calcipy.cli -->
<g id="edge37" class="edge">
<title>calcipy.tasks.lint&#45;&gt;calcipy.cli</title>
<path fill="none" stroke="black" d="M1251.29,-178.3C1248.28,-178.89 1245.29,-179.46 1242.37,-180 1182.96,-190.91 1013.75,-214.19 927.02,-225.93"/>
<polygon fill="black" stroke="black" points="916.87,-227.3 926.17,-221.5 921.82,-226.63 926.78,-225.96 926.78,-225.96 926.78,-225.96 921.82,-226.63 927.38,-230.42 916.87,-227.3 916.87,-227.3"/>
</g>
<!-- calcipy.tasks.lint&#45;&gt;calcipy.invoke_helpers -->
<g id="edge38" class="edge">
<title>calcipy.tasks.lint&#45;&gt;calcipy.invoke_helpers</title>
<path fill="none" stroke="black" d="M1307.76,-180.35C1295.14,-199.85 1272.44,-231.46 1246.37,-252 1184.89,-300.42 1101.6,-335.99 1045.35,-356.54"/>
<polygon fill="black" stroke="black" points="1035.87,-359.96 1043.76,-352.33 1040.58,-358.26 1045.28,-356.57 1045.28,-356.57 1045.28,-356.57 1040.58,-358.26 1046.81,-360.8 1035.87,-359.96 1035.87,-359.96"/>
</g>
<!-- calcipy.tasks.lint&#45;&gt;calcipy.tasks.executable_utils -->
<g id="edge39" class="edge">
<title>calcipy.tasks.lint&#45;&gt;calcipy.tasks.executable_utils</title>
<path fill="none" stroke="black" d="M1270.91,-180.12C1243.8,-189.91 1209.63,-202.23 1181.11,-212.53"/>
<polygon fill="black" stroke="black" points="1171.67,-215.93 1179.55,-208.3 1176.37,-214.23 1181.08,-212.54 1181.08,-212.54 1181.08,-212.54 1176.37,-214.23 1182.6,-216.77 1171.67,-215.93 1171.67,-215.93"/>
</g>
<!-- calcipy.tasks.nox -->
<g id="node29" class="node">
<title>calcipy.tasks.nox</title>
<polygon fill="none" stroke="black" points="1233.37,-180 1097.37,-180 1097.37,-144 1233.37,-144 1233.37,-180"/>
<text text-anchor="middle" x="1165.37" y="-158.3" font-family="Times,serif" font-size="14.00">calcipy.tasks.nox</text>
</g>
<!-- calcipy.tasks.nox&#45;&gt;calcipy.cli -->
<g id="edge40" class="edge">
<title>calcipy.tasks.nox&#45;&gt;calcipy.cli</title>
<path fill="none" stroke="black" d="M1097.14,-179.41C1045.07,-191.94 974.4,-208.94 926.74,-220.4"/>
<polygon fill="black" stroke="black" points="916.93,-222.76 925.6,-216.05 921.79,-221.59 926.65,-220.42 926.65,-220.42 926.65,-220.42 921.79,-221.59 927.7,-224.8 916.93,-222.76 916.93,-222.76"/>
</g>
<!-- calcipy.tasks.nox&#45;&gt;calcipy.invoke_helpers -->
<g id="edge41" class="edge">
<title>calcipy.tasks.nox&#45;&gt;calcipy.invoke_helpers</title>
<path fill="none" stroke="black" d="M1102.07,-180.06C1059.18,-192.2 1009.11,-207.77 1002.37,-216 971.31,-253.87 973.69,-314.64 978.41,-349.68"/>
<polygon fill="black" stroke="black" points="979.91,-359.68 973.97,-350.46 979.17,-354.73 978.42,-349.79 978.42,-349.79 978.42,-349.79 979.17,-354.73 982.87,-349.12 979.91,-359.68 979.91,-359.68"/>
</g>
<!-- calcipy.tasks.nox&#45;&gt;calcipy.tasks.executable_utils -->
<g id="edge42" class="edge">
<title>calcipy.tasks.nox&#45;&gt;calcipy.tasks.executable_utils</title>
<path fill="none" stroke="black" d="M1155.23,-180.3C1150.51,-188.36 1144.8,-198.11 1139.58,-207.02"/>
<polygon fill="black" stroke="black" points="1134.38,-215.9 1135.56,-204.99 1136.91,-211.58 1139.44,-207.27 1139.44,-207.27 1139.44,-207.27 1136.91,-211.58 1143.32,-209.54 1134.38,-215.9 1134.38,-215.9"/>
</g>
<!-- calcipy.tasks.pack&#45;&gt;calcipy -->
<g id="edge43" class="edge">
<title>calcipy.tasks.pack&#45;&gt;calcipy</title>
<path fill="none" stroke="black" d="M1953.91,-166.21C2037.25,-171.21 2178.86,-183.63 2307.16,-216.07"/>
<polygon fill="black" stroke="black" points="2317.16,-218.65 2306.35,-220.51 2312.32,-217.4 2307.48,-216.15 2307.48,-216.15 2307.48,-216.15 2312.32,-217.4 2308.6,-211.79 2317.16,-218.65 2317.16,-218.65"/>
</g>
<!-- calcipy.tasks.pack&#45;&gt;calcipy.can_skip -->
<g id="edge44" class="edge">
<title>calcipy.tasks.pack&#45;&gt;calcipy.can_skip</title>
<path fill="none" stroke="black" d="M1954.11,-167.68C2051.12,-174.62 2229.64,-189.58 2391.35,-215.95"/>
<polygon fill="black" stroke="black" points="2401.48,-217.62 2390.88,-220.43 2396.55,-216.81 2391.62,-215.99 2391.62,-215.99 2391.62,-215.99 2396.55,-216.81 2392.35,-211.55 2401.48,-217.62 2401.48,-217.62"/>
</g>
<!-- calcipy.tasks.pack&#45;&gt;calcipy.cli -->
<g id="edge45" class="edge">
<title>calcipy.tasks.pack&#45;&gt;calcipy.cli</title>
<path fill="none" stroke="black" d="M1810.59,-171.27C1781.94,-174.36 1748.62,-177.67 1718.37,-180 1400.68,-204.43 1319.67,-187 1002.37,-216 977.47,-218.27 949.98,-221.79 926.88,-225.04"/>
<polygon fill="black" stroke="black" points="916.93,-226.46 926.2,-220.59 921.88,-225.75 926.83,-225.05 926.83,-225.05 926.83,-225.05 921.88,-225.75 927.47,-229.5 916.93,-226.46 916.93,-226.46"/>
</g>
<!-- calcipy.tasks.pack&#45;&gt;calcipy.experiments -->
<g id="edge46" class="edge">
<title>calcipy.tasks.pack&#45;&gt;calcipy.experiments</title>
<path fill="none" stroke="black" d="M1869.02,-180.3C1862.61,-188.61 1854.81,-198.72 1847.76,-207.86"/>
<polygon fill="black" stroke="black" points="1841.56,-215.9 1844.11,-205.23 1844.61,-211.94 1847.67,-207.98 1847.67,-207.98 1847.67,-207.98 1844.61,-211.94 1851.23,-210.73 1841.56,-215.9 1841.56,-215.9"/>
</g>
<!-- calcipy.tasks.pack&#45;&gt;calcipy.experiments.bump_programmatically -->
<g id="edge47" class="edge">
<title>calcipy.tasks.pack&#45;&gt;calcipy.experiments.bump_programmatically</title>
<path fill="none" stroke="black" d="M1942.96,-180.03C1978.51,-190.03 2023.59,-202.7 2060.74,-213.15"/>
<polygon fill="black" stroke="black" points="2070.5,-215.89 2059.66,-217.51 2065.69,-214.54 2060.87,-213.18 2060.87,-213.18 2060.87,-213.18 2065.69,-214.54 2062.09,-208.85 2070.5,-215.89 2070.5,-215.89"/>
</g>
<!-- calcipy.tasks.pack&#45;&gt;calcipy.invoke_helpers -->
<g id="edge48" class="edge">
<title>calcipy.tasks.pack&#45;&gt;calcipy.invoke_helpers</title>
<path fill="none" stroke="black" d="M1898.33,-180.28C1914.03,-199.43 1933.38,-230.45 1916.37,-252 1865.03,-317.01 1309.86,-357.45 1081.06,-371.46"/>
<polygon fill="black" stroke="black" points="1071.08,-372.07 1080.78,-366.97 1076.07,-371.76 1081.06,-371.46 1081.06,-371.46 1081.06,-371.46 1076.07,-371.76 1081.33,-375.95 1071.08,-372.07 1071.08,-372.07"/>
</g>
<!-- calcipy.tasks.pack&#45;&gt;calcipy.tasks.executable_utils -->
<g id="edge49" class="edge">
<title>calcipy.tasks.pack&#45;&gt;calcipy.tasks.executable_utils</title>
<path fill="none" stroke="black" d="M1810.54,-170.67C1781.88,-173.67 1748.57,-177.09 1718.37,-180 1630.18,-188.5 1394.43,-209.33 1247.83,-222.19"/>
<polygon fill="black" stroke="black" points="1237.43,-223.11 1247,-217.75 1242.41,-222.67 1247.39,-222.23 1247.39,-222.23 1247.39,-222.23 1242.41,-222.67 1247.78,-226.71 1237.43,-223.11 1237.43,-223.11"/>
</g>
<!-- calcipy.tasks.stale -->
<g id="node31" class="node">
<title>calcipy.tasks.stale</title>
<polygon fill="none" stroke="black" points="1582.87,-36 1437.87,-36 1437.87,0 1582.87,0 1582.87,-36"/>
<text text-anchor="middle" x="1510.37" y="-14.3" font-family="Times,serif" font-size="14.00">calcipy.tasks.stale</text>
</g>
<!-- calcipy.tasks.stale&#45;&gt;calcipy.check_for_stale_packages -->
<g id="edge50" class="edge">
<title>calcipy.tasks.stale&#45;&gt;calcipy.check_for_stale_packages</title>
<path fill="none" stroke="black" d="M1558.31,-36.03C1585.83,-45.81 1620.58,-58.16 1649.61,-68.48"/>
<polygon fill="black" stroke="black" points="1659.21,-71.89 1648.28,-72.78 1654.5,-70.22 1649.79,-68.54 1649.79,-68.54 1649.79,-68.54 1654.5,-70.22 1651.3,-64.3 1659.21,-71.89 1659.21,-71.89"/>
</g>
<!-- calcipy.tasks.stale&#45;&gt;calcipy.cli -->
<g id="edge51" class="edge">
<title>calcipy.tasks.stale&#45;&gt;calcipy.cli</title>
<path fill="none" stroke="black" d="M1437.68,-20.82C1278.54,-25.36 903.72,-39.27 781.37,-72 710.32,-91 671.45,-81.7 632.37,-144 623.86,-157.55 622.34,-167.53 632.37,-180 638.35,-187.44 752.4,-210.04 821.77,-223.21"/>
<polygon fill="black" stroke="black" points="831.66,-225.08 821,-227.64 826.75,-224.15 821.83,-223.22 821.83,-223.22 821.83,-223.22 826.75,-224.15 822.67,-218.8 831.66,-225.08 831.66,-225.08"/>
</g>
<!-- calcipy.tasks.tags&#45;&gt;calcipy.cli -->
<g id="edge52" class="edge">
<title>calcipy.tasks.tags&#45;&gt;calcipy.cli</title>
<path fill="none" stroke="black" d="M319.11,-173.83C334.65,-176.03 351.05,-178.22 366.37,-180 545.86,-200.89 592.09,-193.27 771.37,-216 787.66,-218.07 805.33,-220.8 821.36,-223.47"/>
<polygon fill="black" stroke="black" points="831.62,-225.21 821.01,-227.98 826.69,-224.37 821.76,-223.54 821.76,-223.54 821.76,-223.54 826.69,-224.37 822.52,-219.1 831.62,-225.21 831.62,-225.21"/>
</g>
<!-- calcipy.tasks.tags&#45;&gt;calcipy.code_tag_collector -->
<g id="edge53" class="edge">
<title>calcipy.tasks.tags&#45;&gt;calcipy.code_tag_collector</title>
<path fill="none" stroke="black" d="M228.34,-180.3C218.24,-189.03 205.83,-199.76 194.85,-209.25"/>
<polygon fill="black" stroke="black" points="187.16,-215.9 191.78,-205.95 190.94,-212.63 194.72,-209.36 194.72,-209.36 194.72,-209.36 190.94,-212.63 197.67,-212.76 187.16,-215.9 187.16,-215.9"/>
</g>
<!-- calcipy.tasks.tags&#45;&gt;calcipy.file_search -->
<g id="edge54" class="edge">
<title>calcipy.tasks.tags&#45;&gt;calcipy.file_search</title>
<path fill="none" stroke="black" d="M177.41,-170.21C139.12,-177.02 92.78,-190.26 58.37,-216 16.72,-247.14 -20.37,-284.43 13.37,-324 44.69,-360.74 174.47,-372.12 261.91,-375.58"/>
<polygon fill="black" stroke="black" points="272.09,-375.95 261.93,-380.08 267.09,-375.77 262.1,-375.59 262.1,-375.59 262.1,-375.59 267.09,-375.77 262.26,-371.09 272.09,-375.95 272.09,-375.95"/>
</g>
<!-- calcipy.tasks.tags&#45;&gt;calcipy.invoke_helpers -->
<g id="edge55" class="edge">
<title>calcipy.tasks.tags&#45;&gt;calcipy.invoke_helpers</title>
<path fill="none" stroke="black" d="M259.96,-180.12C284.74,-214.99 346.71,-293.56 421.37,-324 502.98,-357.27 747.36,-369.96 885.48,-374.55"/>
<polygon fill="black" stroke="black" points="895.65,-374.88 885.51,-379.06 890.65,-374.72 885.66,-374.56 885.66,-374.56 885.66,-374.56 890.65,-374.72 885.8,-370.06 895.65,-374.88 895.65,-374.88"/>
</g>
<!-- calcipy.tasks.tags&#45;&gt;calcipy.tasks.defaults -->
<g id="edge56" class="edge">
<title>calcipy.tasks.tags&#45;&gt;calcipy.tasks.defaults</title>
<path fill="none" stroke="black" d="M291.67,-180.12C316.08,-189.78 346.76,-201.91 372.58,-212.12"/>
<polygon fill="black" stroke="black" points="382.21,-215.93 371.25,-216.44 377.56,-214.09 372.91,-212.25 372.91,-212.25 372.91,-212.25 377.56,-214.09 374.56,-208.07 382.21,-215.93 382.21,-215.93"/>
</g>
<!-- calcipy.tasks.test&#45;&gt;calcipy.cli -->
<g id="edge57" class="edge">
<title>calcipy.tasks.test&#45;&gt;calcipy.cli</title>
<path fill="none" stroke="black" d="M1571.11,-178.51C1567.82,-179.05 1564.56,-179.56 1561.37,-180 1314.78,-214.28 1250.13,-191.6 1002.37,-216 977.49,-218.45 950,-221.99 926.9,-225.21"/>
<polygon fill="black" stroke="black" points="916.95,-226.61 926.22,-220.76 921.9,-225.91 926.85,-225.21 926.85,-225.21 926.85,-225.21 921.9,-225.91 927.48,-229.67 916.95,-226.61 916.95,-226.61"/>
</g>
<!-- calcipy.tasks.test&#45;&gt;calcipy.experiments -->
<g id="edge58" class="edge">
<title>calcipy.tasks.test&#45;&gt;calcipy.experiments</title>
<path fill="none" stroke="black" d="M1686.36,-180.12C1712.51,-189.86 1745.45,-202.13 1773.02,-212.39"/>
<polygon fill="black" stroke="black" points="1782.53,-215.93 1771.58,-216.66 1777.84,-214.19 1773.15,-212.44 1773.15,-212.44 1773.15,-212.44 1777.84,-214.19 1774.72,-208.23 1782.53,-215.93 1782.53,-215.93"/>
</g>
<!-- calcipy.tasks.test&#45;&gt;calcipy.experiments.check_duplicate_test_names -->
<g id="edge59" class="edge">
<title>calcipy.tasks.test&#45;&gt;calcipy.experiments.check_duplicate_test_names</title>
<path fill="none" stroke="black" d="M1609.05,-180.12C1592.16,-189.36 1571.12,-200.87 1552.98,-210.79"/>
<polygon fill="black" stroke="black" points="1543.8,-215.81 1550.41,-207.06 1548.19,-213.41 1552.57,-211.01 1552.57,-211.01 1552.57,-211.01 1548.19,-213.41 1554.73,-214.96 1543.8,-215.81 1543.8,-215.81"/>
</g>
<!-- calcipy.tasks.test&#45;&gt;calcipy.invoke_helpers -->
<g id="edge60" class="edge">
<title>calcipy.tasks.test&#45;&gt;calcipy.invoke_helpers</title>
<path fill="none" stroke="black" d="M1666.34,-180.06C1691.21,-198.49 1722.25,-228.37 1702.37,-252 1624.11,-345.03 1259.16,-368.83 1081.31,-374.91"/>
<polygon fill="black" stroke="black" points="1071.17,-375.25 1081.01,-370.42 1076.16,-375.08 1081.16,-374.92 1081.16,-374.92 1081.16,-374.92 1076.16,-375.08 1081.31,-379.41 1071.17,-375.25 1071.17,-375.25"/>
</g>
<!-- calcipy.tasks.test&#45;&gt;calcipy.tasks.defaults -->
<g id="edge61" class="edge">
<title>calcipy.tasks.test&#45;&gt;calcipy.tasks.defaults</title>
<path fill="none" stroke="black" d="M1571.12,-178.61C1567.83,-179.13 1564.57,-179.6 1561.37,-180 1142.13,-232.64 1033.01,-188.76 611.37,-216 581.55,-217.93 549.1,-220.67 519.78,-223.39"/>
<polygon fill="black" stroke="black" points="509.55,-224.35 519.09,-218.93 514.53,-223.88 519.51,-223.41 519.51,-223.41 519.51,-223.41 514.53,-223.88 519.93,-227.89 509.55,-224.35 509.55,-224.35"/>
</g>
<!-- calcipy.tasks.test&#45;&gt;calcipy.tasks.executable_utils -->
<g id="edge62" class="edge">
<title>calcipy.tasks.test&#45;&gt;calcipy.tasks.executable_utils</title>
<path fill="none" stroke="black" d="M1571.07,-178.29C1567.8,-178.89 1564.55,-179.47 1561.37,-180 1455.95,-197.7 1335.29,-211.88 1247.5,-221.1"/>
<polygon fill="black" stroke="black" points="1237.5,-222.14 1246.98,-216.63 1242.47,-221.62 1247.44,-221.1 1247.44,-221.1 1247.44,-221.1 1242.47,-221.62 1247.91,-225.58 1237.5,-222.14 1237.5,-222.14"/>
</g>
<!-- calcipy.tasks.types&#45;&gt;calcipy.cli -->
<g id="edge63" class="edge">
<title>calcipy.tasks.types&#45;&gt;calcipy.cli</title>
<path fill="none" stroke="black" d="M1403.78,-178.53C1400.61,-179.05 1397.46,-179.55 1394.37,-180 1221.26,-205.39 1176.23,-196.48 1002.37,-216 977.53,-218.79 950.04,-222.37 926.93,-225.53"/>
<polygon fill="black" stroke="black" points="916.98,-226.9 926.27,-221.08 921.93,-226.22 926.89,-225.54 926.89,-225.54 926.89,-225.54 921.93,-226.22 927.5,-230 916.98,-226.9 916.98,-226.9"/>
</g>
<!-- calcipy.tasks.types&#45;&gt;calcipy.invoke_helpers -->
<g id="edge64" class="edge">
<title>calcipy.tasks.types&#45;&gt;calcipy.invoke_helpers</title>
<path fill="none" stroke="black" d="M1409.96,-180.06C1381.53,-188.66 1348.84,-200.59 1321.37,-216 1299.63,-228.2 1298.29,-237.02 1278.37,-252 1232.55,-286.44 1223.38,-299.92 1171.37,-324 1141.24,-337.95 1106.66,-348.98 1075.44,-357.28"/>
<polygon fill="black" stroke="black" points="1065.43,-359.88 1073.97,-353.01 1070.27,-358.63 1075.11,-357.37 1075.11,-357.37 1075.11,-357.37 1070.27,-358.63 1076.24,-361.72 1065.43,-359.88 1065.43,-359.88"/>
</g>
<!-- calcipy.tasks.types&#45;&gt;calcipy.tasks.executable_utils -->
<g id="edge65" class="edge">
<title>calcipy.tasks.types&#45;&gt;calcipy.tasks.executable_utils</title>
<path fill="none" stroke="black" d="M1403.72,-178.13C1400.56,-178.76 1397.43,-179.39 1394.37,-180 1337.27,-191.38 1273.34,-203.94 1222.03,-213.97"/>
<polygon fill="black" stroke="black" points="1211.94,-215.94 1220.89,-209.61 1216.85,-214.98 1221.76,-214.03 1221.76,-214.03 1221.76,-214.03 1216.85,-214.98 1222.62,-218.44 1211.94,-215.94 1211.94,-215.94"/>
</g>
</g>
</svg>
