<?xml version="1.0" encoding="UTF-8"?>
<svg width="700px" height="179px" viewBox="0 0 700 179" version="1.1" xmlns="http://www.w3.org/2000/svg" xmlns:xlink="http://www.w3.org/1999/xlink">
    <!-- Generator: Sketch 56.3 (81716) - https://sketch.com -->
    <title>calcipy-banner-wide</title>
    <desc>Created with Sketch.</desc>
    <defs>
        <linearGradient x1="50%" y1="0%" x2="50%" y2="100%" id="linearGradient-1">
            <stop stop-color="#FF2B41" offset="0%"></stop>
            <stop stop-color="#53D5EC" offset="100%"></stop>
            <stop stop-color="#F98F00" offset="100%"></stop>
        </linearGradient>
    </defs>
    <g id="calcipy-banner-wide" stroke="none" stroke-width="1" fill="none" fill-rule="evenodd">
        <rect fill="#002795" x="0" y="0" width="700" height="179"></rect>
        <text id="CALCIPY" fill-opacity="0.75" fill="#FFEAC9" font-family="Helvetica" font-size="90" font-weight="normal">
            <tspan x="268" y="123">CALCIPY</tspan>
        </text>
        <path d="M124.078065,220 C122.288919,200.470736 97.382871,188.430988 89.3743129,184.19164 C79.5766088,178.991373 59.5268145,181.365408 53.1654066,171.332284 C46.8039988,161.29916 41.0673721,156.042368 34.7059642,149.937707 C28.3445564,143.833046 32.1500414,136.004383 33.4280028,127.158277 C34.7059642,118.340433 30.2472989,108.56167 25.1354533,102.202648 C20.0520069,95.8436256 12.4126376,97.4828402 10.481496,92.7347703 C8.57875345,87.9867004 12.3842385,86.4040105 20.676788,87.9867004 C28.9693375,89.5693904 34.6775651,97.4828402 41.6921532,102.202648 C48.7067413,106.922455 45.5260374,120.149221 43.5948957,131.228051 C41.6921532,142.306881 48.6783422,143.352587 56.3177114,149.909445 C63.9570806,156.466303 63.9570806,150.729052 63.9570806,145.472261 C63.9570806,140.187207 58.8736342,128.599655 59.4984153,120.686205 C60.1231965,112.772756 47.4003808,87.9867004 41.0389729,75.3251808 C34.6775651,62.6636612 24.4822731,53.1675215 18.7456463,49.4651575 C13.0090196,45.7627935 17.4676849,32.055568 19.3704275,25.187824 C21.27317,18.3200801 11.7310582,4.61285465 13.6338008,-0.672199308 C15.5365433,-5.95725326 22.5511314,-0.672199308 27.6345778,5.65856051 C32.7180243,11.9893203 28.9125392,11.9893203 30.8152818,20.4397542 C32.7180243,28.890188 27.6345778,28.353204 27.6345778,36.8036378 C27.6345778,45.2540717 41.0105738,46.8367616 47.3719816,59.4982813 C53.7333895,72.1598009 51.8306469,47.3737457 53.1086083,41.0429859 C54.3865697,34.7122261 56.9424925,29.9641562 65.2066429,28.3814663 C73.4991924,26.7987763 72.8460121,34.175242 68.3873468,35.2492102 C63.9286815,36.3231784 67.1093854,39.460296 67.7625657,50.0304039 C68.3873468,60.5722494 63.9286815,70.6053733 63.3039004,75.8904272 C62.6791193,81.1754812 67.7625657,82.221187 68.3873468,102.23091 C69.012128,122.268895 76.6798963,104.350584 84.9440467,93.2717544 C93.2365962,82.1929247 88.1247506,82.7299088 88.1247506,79.5645289 C88.1247506,76.399149 76.0267161,67.9487151 78.5826389,60.5722494 C81.1385617,53.1957838 90.6806734,57.9438536 95.7641199,61.1092335 C100.847566,64.2746134 97.6668624,63.7376294 103.403489,72.1880632 C109.140116,80.6384971 104.02827,90.1346368 95.7641199,104.378846 C87.4715704,118.623056 77.3046775,120.205746 76.6514972,140.271994 C76.0267161,160.338241 92.5834159,168.73215 105.959412,179.273996 C119.335408,189.815842 125.072035,194.563911 125.696816,188.233152 C126.321597,181.902392 119.960189,167.121198 118.057446,156.579353 C116.154704,146.037507 112.32082,141.289437 110.304481,135.467399 C108.288142,129.673623 105.959412,120.177484 112.945601,115.938136 C119.960189,111.72705 118.029047,130.719329 123.765674,138.095795 C129.502301,145.472261 132.683005,135.976121 130.780262,123.851585 C128.87752,111.72705 131.405043,99.5742519 123.765674,83.7473523 C116.126305,67.9204528 98.9164246,55.7959173 91.2770554,42.0886918 C83.6376862,28.3814663 77.9010594,25.7248081 70.2616902,17.8113584 C62.622321,9.8979086 60.7195784,-0.643936988 59.441617,-7.5116809 C58.1636556,-14.3794248 64.5250635,-20.1732005 67.8477631,-23.3385804 C71.1420636,-26.5039603 79.1790208,-20.7101846 71.5396516,-16.4708365 C63.9002824,-12.2314884 70.2616902,-12.2597508 71.5396516,-2.22662694 C72.817613,7.80649687 87.4715704,9.8979086 95.1109396,21.5137224 C102.750309,33.1295361 114.848343,46.2997775 115.501524,50.5391256 C116.126305,54.7502114 124.418854,52.1218156 123.794073,44.2083658 C123.169292,36.294916 119.335408,35.2492102 113.598781,26.2617922 C107.862154,17.3026366 109.764897,13.6002726 112.974,8.31521865 C116.154704,3.03016469 119.988588,6.73252869 119.988588,15.6916843 C119.988588,24.65084 124.447253,25.7248081 128.281138,30.9815998 C132.115022,36.2666537 136.573687,27.8162199 134.017764,18.8570642 C131.461842,9.8979086 133.392983,-2.25488926 129.559099,-9.63135494 C125.725215,-17.0078206 119.363807,-24.9212704 110.361279,-31.7890143 C101.330352,-38.6567582 102.182326,-42.3308599 102.835506,-49.1986038 C103.460287,-56.0663477 113.655579,-52.9009678 114.30876,-45.4962398 C114.96194,-38.0915118 116.864682,-32.2977361 127.684756,-28.0866503 C138.504829,-23.8755645 146.797378,-20.1732005 150.602863,-7.5116809 C154.408348,5.14983874 146.768979,-1.71790517 146.768979,14.6459785 C146.768979,31.0098621 161.422937,12.5263044 169.062306,7.26951278 C176.701675,1.98445883 179.257598,-6.9746968 177.809242,-12.7684725 C176.360885,-18.5622483 186.243787,-19.0992323 193.883156,-12.7684725 C201.522525,-6.43771271 198.966602,-1.68964285 191.298834,5.68682283 C183.631066,13.0632885 169.033907,24.1421182 156.935872,33.6382579 C144.837838,43.1343976 144.837838,52.6305374 142.281915,63.709367 C139.725992,74.7881967 139.101211,80.5819724 142.906696,85.3300423 C146.74058,90.0781122 147.990142,84.7930582 156.907473,78.9992825 C165.824804,73.2055068 163.922061,70.5488486 167.102765,66.3377629 C170.283469,62.1266771 176.644877,43.6431194 177.780842,29.2575982 C178.888409,14.872077 195.132718,28.353204 193.854757,49.4368951 C192.576795,70.5488486 170.283469,81.6276783 158.838615,93.7522138 C147.365361,105.876749 156.282692,109.579113 158.213833,116.446857 C160.116576,123.314601 165.228422,123.823323 171.589829,120.657943 C177.951237,117.492563 171.589829,120.657943 183.687864,108.533408 C195.785899,96.408872 183.687864,94.2891979 183.063083,87.421454 C182.438302,80.5537101 186.896967,72.6402603 191.327233,68.9661587 C195.757499,65.2637947 201.550924,68.4291746 200.897744,75.2969185 C200.272963,82.1646624 195.814298,81.6276783 195.814298,90.5868339 C195.814298,99.5459896 197.71704,100.082974 208.537113,93.7522138 C219.357187,87.421454 222.53789,49.9738792 221.913109,36.7753755 C221.288328,23.5768718 238.469809,30.4446157 244.831217,36.7753755 C251.192625,43.1061353 242.928475,61.0527089 228.274517,96.3806097 C213.62056,131.736773 155.68631,141.741634 151.227644,152.28348 C148.302533,159.207748 143.900666,169.664807 140.77676,218.954294" id="Coral" fill="url(#linearGradient-1)" fill-rule="nonzero"></path>
    </g>
</svg>
