<?xml version="1.0" encoding="UTF-8"?>
<svg width="165px" height="129px" viewBox="0 0 165 129" version="1.1" xmlns="http://www.w3.org/2000/svg" xmlns:xlink="http://www.w3.org/1999/xlink">
    <!-- Generator: Sketch 56.3 (81716) - https://sketch.com -->
    <title>calcipy</title>
    <desc>Created with Sketch.</desc>
    <defs>
        <linearGradient x1="50%" y1="0%" x2="50%" y2="100%" id="linearGradient-1">
            <stop stop-color="#FF2B41" offset="0%"></stop>
            <stop stop-color="#53D5EC" offset="100%"></stop>
            <stop stop-color="#F98F00" offset="100%"></stop>
        </linearGradient>
    </defs>
    <g id="calcipy" stroke="none" stroke-width="1" fill="none" fill-rule="evenodd">
        <rect fill="#002795" x="0" y="0" width="165" height="129"></rect>
        <g id="Calcipy-bl-g-gradient-oval-g-copy" transform="translate(27.000000, 3.000000)">
            <text id="CALCIPY" fill="#FFEAC9" font-family="Helvetica" font-size="26" font-weight="normal">
                <tspan x="0" y="119">CALCIPY</tspan>
            </text>
            <path d="M54.169546,96.5950404 C53.539546,89.6850404 44.769546,85.4250404 41.949546,83.9250404 C38.499546,82.0850404 31.439546,82.9250404 29.199546,79.3750404 C26.959546,75.8250404 24.939546,73.9650404 22.699546,71.8050404 C20.459546,69.6450404 21.799546,66.8750404 22.249546,63.7450404 C22.699546,60.6250404 21.129546,57.1650404 19.329546,54.9150404 C17.539546,52.6650404 14.849546,53.2450404 14.169546,51.5650404 C13.499546,49.8850404 14.839546,49.3250404 17.759546,49.8850404 C20.679546,50.4450404 22.689546,53.2450404 25.159546,54.9150404 C27.629546,56.5850404 26.509546,61.2650404 25.829546,65.1850404 C25.159546,69.1050404 27.619546,69.4750404 30.309546,71.7950404 C32.999546,74.1150404 32.999546,72.0850404 32.999546,70.2250404 C32.999546,68.3550404 31.209546,64.2550404 31.429546,61.4550404 C31.649546,58.6550404 27.169546,49.8850404 24.929546,45.4050404 C22.689546,40.9250404 19.099546,37.5650404 17.079546,36.2550404 C15.059546,34.9450404 16.629546,30.0950404 17.299546,27.6650404 C17.969546,25.2350404 14.609546,20.3850404 15.279546,18.5150404 C15.949546,16.6450404 18.419546,18.5150404 20.209546,20.7550404 C21.999546,22.9950404 20.659546,22.9950404 21.329546,25.9850404 C21.999546,28.9750404 20.209546,28.7850404 20.209546,31.7750404 C20.209546,34.7650404 24.919546,35.3250404 27.159546,39.8050404 C29.399546,44.2850404 28.729546,35.5150404 29.179546,33.2750404 C29.629546,31.0350404 30.529546,29.3550404 33.439546,28.7950404 C36.359546,28.2350404 36.129546,30.8450404 34.559546,31.2250404 C32.989546,31.6050404 34.109546,32.7150404 34.339546,36.4550404 C34.559546,40.1850404 32.989546,43.7350404 32.769546,45.6050404 C32.549546,47.4750404 34.339546,47.8450404 34.559546,54.9250404 C34.779546,62.0150404 37.479546,55.6750404 40.389546,51.7550404 C43.309546,47.8350404 41.509546,48.0250404 41.509546,46.9050404 C41.509546,45.7850404 37.249546,42.7950404 38.149546,40.1850404 C39.049546,37.5750404 42.409546,39.2550404 44.199546,40.3750404 C45.989546,41.4950404 44.869546,41.3050404 46.889546,44.2950404 C48.909546,47.2850404 47.109546,50.6450404 44.199546,55.6850404 C41.279546,60.7250404 37.699546,61.2850404 37.469546,68.3850404 C37.249546,75.4850404 43.079546,78.4550404 47.789546,82.1850404 C52.499546,85.9150404 54.519546,87.5950404 54.739546,85.3550404 C54.959546,83.1150404 52.719546,77.8850404 52.049546,74.1550404 C51.379546,70.4250404 50.029546,68.7450404 49.319546,66.6850404 C48.609546,64.6350404 47.789546,61.2750404 50.249546,59.7750404 C52.719546,58.2850404 52.039546,65.0050404 54.059546,67.6150404 C56.079546,70.2250404 57.199546,66.8650404 56.529546,62.5750404 C55.859546,58.2850404 56.749546,53.9850404 54.059546,48.3850404 C51.369546,42.7850404 45.309546,38.4950404 42.619546,33.6450404 C39.929546,28.7950404 37.909546,27.8550404 35.219546,25.0550404 C32.529546,22.2550404 31.859546,18.5250404 31.409546,16.0950404 C30.959546,13.6650404 33.199546,11.6150404 34.369546,10.4950404 C35.529546,9.37504037 38.359546,11.4250404 35.669546,12.9250404 C32.979546,14.4250404 35.219546,14.4150404 35.669546,17.9650404 C36.119546,21.5150404 41.279546,22.2550404 43.969546,26.3650404 C46.659546,30.4750404 50.919546,35.1350404 51.149546,36.6350404 C51.369546,38.1250404 54.289546,37.1950404 54.069546,34.3950404 C53.849546,31.5950404 52.499546,31.2250404 50.479546,28.0450404 C48.459546,24.8750404 49.129546,23.5650404 50.259546,21.6950404 C51.379546,19.8250404 52.729546,21.1350404 52.729546,24.3050404 C52.729546,27.4750404 54.299546,27.8550404 55.649546,29.7150404 C56.999546,31.5850404 58.569546,28.5950404 57.669546,25.4250404 C56.769546,22.2550404 57.449546,17.9550404 56.099546,15.3450404 C54.749546,12.7350404 52.509546,9.93504037 49.339546,7.50504037 C46.159546,5.07504037 46.459546,3.77504037 46.689546,1.34504037 C46.909546,-1.08495963 50.499546,0.0350403667 50.729546,2.65504037 C50.959546,5.27504037 51.629546,7.32504037 55.439546,8.81504037 C59.249546,10.3050404 62.169546,11.6150404 63.509546,16.0950404 C64.849546,20.5750404 62.159546,18.1450404 62.159546,23.9350404 C62.159546,29.7250404 67.319546,23.1850404 70.009546,21.3250404 C72.699546,19.4550404 73.599546,16.2850404 73.089546,14.2350404 C72.579546,12.1850404 76.059546,11.9950404 78.749546,14.2350404 C81.439546,16.4750404 80.539546,18.1550404 77.839546,20.7650404 C75.139546,23.3750404 69.999546,27.2950404 65.739546,30.6550404 C61.479546,34.0150404 61.479546,37.3750404 60.579546,41.2950404 C59.679546,45.2150404 59.459546,47.2650404 60.799546,48.9450404 C62.149546,50.6250404 62.589546,48.7550404 65.729546,46.7050404 C68.869546,44.6550404 68.199546,43.7150404 69.319546,42.2250404 C70.439546,40.7350404 72.679546,34.1950404 73.079546,29.1050404 C73.469546,24.0150404 79.189546,28.7850404 78.739546,36.2450404 C78.289546,43.7150404 70.439546,47.6350404 66.409546,51.9250404 C62.369546,56.2150404 65.509546,57.5250404 66.189546,59.9550404 C66.859546,62.3850404 68.659546,62.5650404 70.899546,61.4450404 C73.139546,60.3250404 70.899546,61.4450404 75.159546,57.1550404 C79.419546,52.8650404 75.159546,52.1150404 74.939546,49.6850404 C74.719546,47.2550404 76.289546,44.4550404 77.849546,43.1550404 C79.409546,41.8450404 81.449546,42.9650404 81.219546,45.3950404 C80.999546,47.8250404 79.429546,47.6350404 79.429546,50.8050404 C79.429546,53.9750404 80.099546,54.1650404 83.909546,51.9250404 C87.719546,49.6850404 88.839546,36.4350404 88.619546,31.7650404 C88.399546,27.0950404 94.449546,29.5250404 96.689546,31.7650404 C98.929546,34.0050404 96.019546,40.3550404 90.859546,52.8550404 C85.699546,65.3650404 65.299546,68.9050404 63.729546,72.6350404 C62.699546,75.0850404 61.149546,78.7850404 60.049546,96.2250404" id="Coral" fill="url(#linearGradient-1)" fill-rule="nonzero"></path>
        </g>
    </g>
</svg>
