<?xml version="1.0" encoding="UTF-8"?>
<svg width="403px" height="129px" viewBox="0 0 403 129" version="1.1" xmlns="http://www.w3.org/2000/svg" xmlns:xlink="http://www.w3.org/1999/xlink">
    <!-- Generator: Sketch 56.3 (81716) - https://sketch.com -->
    <title>calcipy-banner</title>
    <desc>Created with Sketch.</desc>
    <defs>
        <linearGradient x1="50%" y1="0%" x2="50%" y2="100%" id="linearGradient-1">
            <stop stop-color="#FF2B41" offset="0%"></stop>
            <stop stop-color="#53D5EC" offset="100%"></stop>
            <stop stop-color="#F98F00" offset="100%"></stop>
        </linearGradient>
    </defs>
    <g id="calcipy-banner" stroke="none" stroke-width="1" fill="none" fill-rule="evenodd">
        <rect fill="#002795" x="0" y="0" width="403" height="129"></rect>
        <text id="CALCIPY" fill-opacity="0.85" fill="#FFEAC9" font-family="Helvetica" font-size="60" font-weight="normal">
            <tspan x="127" y="87">CALCIPY</tspan>
        </text>
        <path d="M60.0595726,125 C59.2744622,116.415708 48.3452261,111.123511 44.8309221,109.260061 C40.5315077,106.97423 31.7332857,108.017762 28.9417818,103.607597 C26.1502779,99.197433 23.6329396,96.8867554 20.8414358,94.2033878 C18.0499319,91.5200202 19.7198494,88.0788497 20.2806426,84.1904513 C20.8414358,80.3144759 18.8848907,76.0161186 16.6417179,73.220944 C14.4110072,70.4257695 11.0587102,71.1463034 10.2112894,69.0592397 C9.37633063,66.972176 11.0462481,66.2764881 14.6851728,66.972176 C18.3240975,67.6678639 20.8289737,71.1463034 23.9071052,73.220944 C26.9852367,75.2955847 25.5894848,81.1095478 24.7420639,85.9793631 C23.9071052,90.8491783 26.9727746,91.3088292 30.3250717,94.1909648 C33.6773687,97.0731003 33.6773687,94.5512317 33.6773687,92.2405541 C33.6773687,89.9174535 31.446658,84.8240242 31.7208236,81.3455848 C31.9949892,77.8671453 26.4119814,66.972176 23.6204776,61.4066729 C20.8289737,55.8411697 16.3550903,51.6670424 13.837752,50.0396296 C11.3204137,48.4122169 13.2769588,42.3870628 14.1119175,39.3682743 C14.9468763,36.3494858 10.7596205,30.3243317 11.5945792,28.0012311 C12.429538,25.6781304 15.5076695,28.0012311 17.7383801,30.7839826 C19.9690908,33.5667342 18.2991733,33.5667342 19.1341321,37.2812106 C19.9690908,40.9956871 17.7383801,40.7596501 17.7383801,44.4741265 C17.7383801,48.1886029 23.6080155,48.8842908 26.3995194,54.449794 C29.1910232,60.0152971 28.3560645,49.1203278 28.9168577,46.3375762 C29.4776509,43.5548247 30.5992372,41.467761 34.2256998,40.7720731 C37.8646245,40.0763852 37.5779969,43.3187877 35.6214518,43.7908616 C33.6649067,44.2629355 35.0606586,45.6418883 35.3472862,50.2880896 C35.6214518,54.9218679 33.6649067,59.3320322 33.3907411,61.6551328 C33.1165755,63.9782335 35.3472862,64.4378844 35.6214518,73.233367 C35.8956173,82.0412727 39.2603765,74.1650919 42.8868391,69.2952767 C46.5257637,64.4254614 44.282591,64.6614984 44.282591,63.2701226 C44.282591,61.8787468 38.9737488,58.1642704 40.0953352,54.9218679 C41.2169216,51.6794654 45.4041774,53.7665291 47.634888,55.1579049 C49.8655987,56.5492806 48.4698468,56.3132437 50.9871851,60.0277201 C53.5045234,63.7421965 51.2613506,67.9163239 47.634888,74.1775149 C43.9959634,80.4387059 39.534542,81.1343938 39.2479144,89.9547224 C38.9737488,98.7750511 46.2391361,102.464682 52.1087715,107.09846 C57.9784068,111.732238 60.4957451,113.819302 60.7699107,111.03655 C61.0440762,108.253799 58.2525724,101.756571 57.4176136,97.1227923 C56.5826549,92.4890141 54.9002753,90.4019504 54.0154683,87.8428128 C53.1306613,85.2960982 52.1087715,81.1219708 55.1744409,79.2585211 C58.2525724,77.4074944 57.4051516,85.7557491 59.9224899,88.9981516 C62.4398282,92.2405541 63.8355801,88.0664267 63.0006214,82.7369606 C62.1656626,77.4074944 63.2747869,72.0656052 59.9224899,65.1087263 C56.5701928,58.1518474 49.0181779,52.8223812 45.6658809,46.7972272 C42.3135838,40.7720731 39.7962455,39.6043113 36.4439484,36.1258718 C33.0916514,32.6474324 32.2566927,28.0136541 31.6958995,24.9948655 C31.1351063,21.976077 33.9266101,19.4293624 35.3846724,18.0379866 C36.8302726,16.6466108 40.3570387,19.1933254 37.0047416,21.0567752 C33.6524446,22.9202249 36.4439484,22.9078019 37.0047416,27.3179662 C37.5655348,31.7281305 43.9959634,32.6474324 47.3482604,37.7532846 C50.7005575,42.8591368 56.0093996,48.6482539 56.2960273,50.5117036 C56.5701928,52.3627303 60.2091175,51.2073915 59.9349519,47.728952 C59.6607864,44.2505125 57.9784068,43.7908616 55.4610685,39.8403482 C52.9437302,35.9022578 53.778689,34.2748451 55.186903,31.9517445 C56.5826549,29.6286438 58.2650344,31.2560566 58.2650344,35.194147 C58.2650344,39.1322373 60.2215796,39.6043113 61.9039591,41.9149889 C63.5863387,44.2380896 65.5428838,40.5236131 64.4212974,36.5855227 C63.2997111,32.6474324 64.1471319,27.3055432 62.4647523,24.0631407 C60.7823728,20.8207382 57.9908689,17.3422987 54.0403924,14.3235102 C50.0774539,11.3047217 50.451316,9.68973192 50.7379437,6.67094339 C51.0121092,3.65215486 55.4859927,5.04353064 55.7726203,8.29835614 C56.0592479,11.5531816 56.8942067,14.0998962 61.6422556,15.9509229 C66.3903046,17.8019497 70.0292293,19.4293624 71.6991468,24.9948655 C73.3690643,30.5603687 70.0167672,27.5415801 70.0167672,34.734496 C70.0167672,41.9274119 76.4471958,33.8027712 79.7994928,31.4920935 C83.1517899,29.1689929 84.2733762,25.2309025 83.6378106,22.6841879 C83.002245,20.1374733 87.3390457,19.9014363 90.6913427,22.6841879 C94.0436398,25.4669395 92.9220534,27.5540031 89.5572943,30.7964056 C86.1925352,34.0388081 79.7870308,38.9086234 74.4781886,43.0827507 C69.1693464,47.2568781 69.1693464,51.4310054 68.04776,56.3008207 C66.9261737,61.1706359 66.6520081,63.7173505 68.3219256,65.8044142 C70.0043052,67.8914779 70.5526363,65.5683772 74.4657265,63.0216626 C78.3788168,60.474948 77.543858,59.3071862 78.9396099,57.4561595 C80.3353619,55.6051328 83.1268657,47.480492 83.6253486,41.157186 C84.1113693,34.83388 91.2396738,40.7596501 90.6788806,50.0272067 C90.1180875,59.3071862 80.3353619,64.1770015 75.3131473,69.5064676 C70.2784707,74.8359338 74.191561,76.4633465 75.0389818,79.4821351 C75.8739405,82.5009236 78.1171133,82.7245376 80.9086171,81.3331618 C83.700121,79.941786 80.9086171,81.3331618 86.2174593,76.0036956 C91.5263015,70.6742294 86.2174593,69.7425046 85.9432937,66.7237161 C85.6691282,63.7049275 87.6256733,60.2264881 89.5697563,58.6114983 C91.5138394,56.9840856 94.0561018,58.3754614 93.7694742,61.3942499 C93.4953087,64.4130384 91.5387635,64.1770015 91.5387635,68.1150918 C91.5387635,72.0531822 92.3737223,72.2892192 97.1217713,69.5064676 C101.86982,66.7237161 103.265572,50.2632436 102.991407,44.4617035 C102.717241,38.6601634 110.256794,41.6789519 113.048298,44.4617035 C115.839802,47.2444551 112.213339,55.1330589 105.78291,70.6618064 C99.3524819,86.202977 73.9298575,90.6007183 71.9733123,95.2344966 C70.6897191,98.2781312 68.7580981,102.87464 67.3872703,124.540349" id="Coral" fill="url(#linearGradient-1)" fill-rule="nonzero"></path>
    </g>
</svg>
